<svg xmlns="http://www.w3.org/2000/svg" data-name="Layer 1" viewBox="0 0 128 160" x="0px" y="0px"><title>miscellaneous109 expandline</title><path d="M126,60a11.18309,11.18309,0,0,0-5.25391,1.17725,8.32844,8.32844,0,0,1-7.21875,0A11.18309,11.18309,0,0,0,108.27344,60a11.31771,11.31771,0,0,0-5.252,1.17725,8.31559,8.31559,0,0,1-7.21289,0A11.18493,11.18493,0,0,0,90.55566,60a12.09592,12.09592,0,0,0-2.86176.3158,25.86375,25.86375,0,0,1,.96045,3.87976A8.11013,8.11013,0,0,1,90.55566,64a7.36857,7.36857,0,0,1,3.60645.82275A11.18957,11.18957,0,0,0,99.416,66a11.31436,11.31436,0,0,0,5.252-1.17725,8.31987,8.31987,0,0,1,7.21484,0,12.3124,12.3124,0,0,0,10.50781,0A7.3841,7.3841,0,0,1,126,64a2,2,0,0,0,0-4Z"/><path d="M2,64a7.35757,7.35757,0,0,1,3.60449.82275A11.31436,11.31436,0,0,0,10.85645,66a11.30819,11.30819,0,0,0,5.25-1.17725A7.363,7.363,0,0,1,19.71094,64a7.363,7.363,0,0,1,3.60449.82275A11.30819,11.30819,0,0,0,28.56543,66a11.313,11.313,0,0,0,5.251-1.17725A7.36436,7.36436,0,0,1,37.42188,64a8.07572,8.07572,0,0,1,1.923.20056,25.87093,25.87093,0,0,1,.95947-3.87988A12.07794,12.07794,0,0,0,37.42188,60a11.31436,11.31436,0,0,0-5.252,1.17725A7.35757,7.35757,0,0,1,28.56543,62a7.35621,7.35621,0,0,1-3.60352-.82275A11.313,11.313,0,0,0,19.71094,60a11.313,11.313,0,0,0-5.251,1.17725A7.35621,7.35621,0,0,1,10.85645,62,7.36436,7.36436,0,0,1,7.251,61.17725,11.313,11.313,0,0,0,2,60a2,2,0,0,0,0,4Z"/><path d="M2,55a7.35757,7.35757,0,0,1,3.60449.82275A11.31436,11.31436,0,0,0,10.85645,57a11.30819,11.30819,0,0,0,5.25-1.17725A7.363,7.363,0,0,1,19.71094,55a7.363,7.363,0,0,1,3.60449.82275A11.30819,11.30819,0,0,0,28.56543,57a11.313,11.313,0,0,0,5.251-1.17725A7.36436,7.36436,0,0,1,37.42188,55a7.36436,7.36436,0,0,1,3.60547.82275c.3136.14166.65149.29193,1.0246.437.08667-.16339.16339-.3299.25372-.49213l1.65-3.0777a11.06359,11.06359,0,0,1-1.2818-.51263A11.31436,11.31436,0,0,0,37.42188,51a11.31436,11.31436,0,0,0-5.252,1.17725A7.35757,7.35757,0,0,1,28.56543,53a7.35621,7.35621,0,0,1-3.60352-.82275A11.313,11.313,0,0,0,19.71094,51a11.313,11.313,0,0,0-5.251,1.17725A7.35621,7.35621,0,0,1,10.85645,53,7.36436,7.36436,0,0,1,7.251,52.17725,11.313,11.313,0,0,0,2,51a2,2,0,0,0,0,4Z"/><path d="M85.94446,56.25269c.36584-.14276.69727-.29059,1.00574-.42993a8.31345,8.31345,0,0,1,7.21191,0A11.18957,11.18957,0,0,0,99.416,57a11.31436,11.31436,0,0,0,5.252-1.17725,8.31987,8.31987,0,0,1,7.21484,0,12.3124,12.3124,0,0,0,10.50781,0A7.3841,7.3841,0,0,1,126,55a2,2,0,0,0,0-4,11.18309,11.18309,0,0,0-5.25391,1.17725,8.32844,8.32844,0,0,1-7.21875,0A11.18309,11.18309,0,0,0,108.27344,51a11.31771,11.31771,0,0,0-5.252,1.17725,8.31559,8.31559,0,0,1-7.21289,0A11.18493,11.18493,0,0,0,90.55566,51a11.31436,11.31436,0,0,0-5.252,1.17725,11.24193,11.24193,0,0,1-1.26263.50653l1.65326,3.0838C85.78339,55.92749,85.85895,56.09161,85.94446,56.25269Z"/><path d="M59.998,55.00049a2.00048,2.00048,0,0,0,1.791-1.106l2-4a2.00023,2.00023,0,0,0-3.57812-1.78906l-2,4a2.0007,2.0007,0,0,0,1.78711,2.895Z"/><path d="M126,69a11.18309,11.18309,0,0,0-5.25391,1.17725,8.32844,8.32844,0,0,1-7.21875,0A11.18309,11.18309,0,0,0,108.27344,69a11.31771,11.31771,0,0,0-5.252,1.17725,8.31559,8.31559,0,0,1-7.21289,0A11.18493,11.18493,0,0,0,90.55566,69a11.31436,11.31436,0,0,0-5.252,1.17725,8.307,8.307,0,0,1-7.209,0,12.29715,12.29715,0,0,0-10.501,0,8.307,8.307,0,0,1-7.209,0,12.29715,12.29715,0,0,0-10.501,0,8.30917,8.30917,0,0,1-7.21,0A11.31436,11.31436,0,0,0,37.42188,69a11.31436,11.31436,0,0,0-5.252,1.17725A7.35757,7.35757,0,0,1,28.56543,71a7.35621,7.35621,0,0,1-3.60352-.82275A11.313,11.313,0,0,0,19.71094,69a11.313,11.313,0,0,0-5.251,1.17725A7.35621,7.35621,0,0,1,10.85645,71,7.36436,7.36436,0,0,1,7.251,70.17725,11.313,11.313,0,0,0,2,69a2,2,0,0,0,0,4,7.35757,7.35757,0,0,1,3.60449.82275A11.31436,11.31436,0,0,0,10.85645,75a11.30819,11.30819,0,0,0,5.25-1.17725A7.363,7.363,0,0,1,19.71094,73a7.363,7.363,0,0,1,3.60449.82275A11.30819,11.30819,0,0,0,28.56543,75a11.313,11.313,0,0,0,5.251-1.17725A7.36436,7.36436,0,0,1,37.42188,73a7.36436,7.36436,0,0,1,3.60547.82275,12.3015,12.3015,0,0,0,10.50293,0,8.30489,8.30489,0,0,1,7.208,0,12.29932,12.29932,0,0,0,10.502,0,8.30489,8.30489,0,0,1,7.208,0,12.29932,12.29932,0,0,0,10.502,0,8.31345,8.31345,0,0,1,7.21191,0A11.18957,11.18957,0,0,0,99.416,75a11.31436,11.31436,0,0,0,5.252-1.17725,8.31987,8.31987,0,0,1,7.21484,0,12.3124,12.3124,0,0,0,10.50781,0A7.3841,7.3841,0,0,1,126,73a2,2,0,0,0,0-4Z"/><path d="M126,78a11.18309,11.18309,0,0,0-5.25391,1.17725,8.32844,8.32844,0,0,1-7.21875,0A11.18309,11.18309,0,0,0,108.27344,78a11.31771,11.31771,0,0,0-5.252,1.17725,8.31559,8.31559,0,0,1-7.21289,0A11.18493,11.18493,0,0,0,90.55566,78a11.31436,11.31436,0,0,0-5.252,1.17725,8.307,8.307,0,0,1-7.209,0,12.29715,12.29715,0,0,0-10.501,0,8.307,8.307,0,0,1-7.209,0,12.29715,12.29715,0,0,0-10.501,0,8.30917,8.30917,0,0,1-7.21,0A11.31436,11.31436,0,0,0,37.42188,78a11.31436,11.31436,0,0,0-5.252,1.17725A7.35757,7.35757,0,0,1,28.56543,80a7.35621,7.35621,0,0,1-3.60352-.82275A11.313,11.313,0,0,0,19.71094,78a11.313,11.313,0,0,0-5.251,1.17725A7.35621,7.35621,0,0,1,10.85645,80,7.36436,7.36436,0,0,1,7.251,79.17725,11.313,11.313,0,0,0,2,78a2,2,0,0,0,0,4,7.35757,7.35757,0,0,1,3.60449.82275A11.31436,11.31436,0,0,0,10.85645,84a11.30819,11.30819,0,0,0,5.25-1.17725A7.363,7.363,0,0,1,19.71094,82a7.363,7.363,0,0,1,3.60449.82275A11.30819,11.30819,0,0,0,28.56543,84a11.313,11.313,0,0,0,5.251-1.17725A7.36436,7.36436,0,0,1,37.42188,82a7.36436,7.36436,0,0,1,3.60547.82275,12.3015,12.3015,0,0,0,10.50293,0,8.30489,8.30489,0,0,1,7.208,0,12.29932,12.29932,0,0,0,10.502,0,8.30489,8.30489,0,0,1,7.208,0,12.29932,12.29932,0,0,0,10.502,0,8.31345,8.31345,0,0,1,7.21191,0A11.18957,11.18957,0,0,0,99.416,84a11.31436,11.31436,0,0,0,5.252-1.17725,8.31987,8.31987,0,0,1,7.21484,0,12.3124,12.3124,0,0,0,10.50781,0A7.3841,7.3841,0,0,1,126,82a2,2,0,0,0,0-4Z"/><path d="M126,87a11.18309,11.18309,0,0,0-5.25391,1.17725,8.32844,8.32844,0,0,1-7.21875,0A11.18309,11.18309,0,0,0,108.27344,87a11.31771,11.31771,0,0,0-5.252,1.17725,8.31559,8.31559,0,0,1-7.21289,0A11.18493,11.18493,0,0,0,90.55566,87a11.31436,11.31436,0,0,0-5.252,1.17725,8.307,8.307,0,0,1-7.209,0,12.29715,12.29715,0,0,0-10.501,0,8.307,8.307,0,0,1-7.209,0,12.29715,12.29715,0,0,0-10.501,0,8.30917,8.30917,0,0,1-7.21,0A11.31436,11.31436,0,0,0,37.42188,87a11.31436,11.31436,0,0,0-5.252,1.17725A7.35757,7.35757,0,0,1,28.56543,89a7.35621,7.35621,0,0,1-3.60352-.82275A11.313,11.313,0,0,0,19.71094,87a11.313,11.313,0,0,0-5.251,1.17725A7.35621,7.35621,0,0,1,10.85645,89,7.36436,7.36436,0,0,1,7.251,88.17725,11.313,11.313,0,0,0,2,87a2,2,0,0,0,0,4,7.35757,7.35757,0,0,1,3.60449.82275A11.31436,11.31436,0,0,0,10.85645,93a11.30819,11.30819,0,0,0,5.25-1.17725A7.363,7.363,0,0,1,19.71094,91a7.363,7.363,0,0,1,3.60449.82275A11.30819,11.30819,0,0,0,28.56543,93a11.313,11.313,0,0,0,5.251-1.17725A7.36436,7.36436,0,0,1,37.42188,91a7.36436,7.36436,0,0,1,3.60547.82275,12.3015,12.3015,0,0,0,10.50293,0,8.30489,8.30489,0,0,1,7.208,0,12.29932,12.29932,0,0,0,10.502,0,8.30489,8.30489,0,0,1,7.208,0,12.29932,12.29932,0,0,0,10.502,0,8.31345,8.31345,0,0,1,7.21191,0A11.18957,11.18957,0,0,0,99.416,93a11.31436,11.31436,0,0,0,5.252-1.17725,8.31987,8.31987,0,0,1,7.21484,0,12.3124,12.3124,0,0,0,10.50781,0A7.3841,7.3841,0,0,1,126,91a2,2,0,0,0,0-4Z"/><path d="M126,96a11.18309,11.18309,0,0,0-5.25391,1.17725,8.32844,8.32844,0,0,1-7.21875,0A11.18309,11.18309,0,0,0,108.27344,96a11.31771,11.31771,0,0,0-5.252,1.17725,8.31559,8.31559,0,0,1-7.21289,0A11.18493,11.18493,0,0,0,90.55566,96a11.31436,11.31436,0,0,0-5.252,1.17725,8.307,8.307,0,0,1-7.209,0,12.29715,12.29715,0,0,0-10.501,0,8.307,8.307,0,0,1-7.209,0,12.29715,12.29715,0,0,0-10.501,0,8.30917,8.30917,0,0,1-7.21,0A11.31436,11.31436,0,0,0,37.42188,96a11.31436,11.31436,0,0,0-5.252,1.17725A7.35757,7.35757,0,0,1,28.56543,98a7.35621,7.35621,0,0,1-3.60352-.82275A11.313,11.313,0,0,0,19.71094,96a11.313,11.313,0,0,0-5.251,1.17725A7.35621,7.35621,0,0,1,10.85645,98,7.36436,7.36436,0,0,1,7.251,97.17725,11.313,11.313,0,0,0,2,96a2,2,0,0,0,0,4,7.35757,7.35757,0,0,1,3.60449.82275A11.31435,11.31435,0,0,0,10.85645,102a11.30819,11.30819,0,0,0,5.25-1.17725A7.363,7.363,0,0,1,19.71094,100a7.363,7.363,0,0,1,3.60449.82275A11.30819,11.30819,0,0,0,28.56543,102a11.313,11.313,0,0,0,5.251-1.17725A7.36436,7.36436,0,0,1,37.42188,100a7.36436,7.36436,0,0,1,3.60547.82275,12.3015,12.3015,0,0,0,10.50293,0,8.30489,8.30489,0,0,1,7.208,0,12.29932,12.29932,0,0,0,10.502,0,8.30489,8.30489,0,0,1,7.208,0,12.29932,12.29932,0,0,0,10.502,0,8.31345,8.31345,0,0,1,7.21191,0A11.18957,11.18957,0,0,0,99.416,102a11.31436,11.31436,0,0,0,5.252-1.17725,8.31987,8.31987,0,0,1,7.21484,0,12.3124,12.3124,0,0,0,10.50781,0A7.3841,7.3841,0,0,1,126,100a2,2,0,0,0,0-4Z"/><circle cx="57" cy="60" r="2"/><path d="M44.32031,66.53174A3.51917,3.51917,0,0,0,46.27832,67a5.03582,5.03582,0,0,0,.78809-.04462A18.17685,18.17685,0,0,1,49.332,59.59277L64,32.23291l14.68555,27.3916a18.07668,18.07668,0,0,1,2.2514,7.334A5.1709,5.1709,0,0,0,81.69824,67a3.5224,3.5224,0,0,0,1.959-.46826c.35315-.15948.75714-.34009,1.21863-.52014a22.02508,22.02508,0,0,0-2.6825-8.30847L65.7627,27.05518a1.9999,1.9999,0,0,0-3.52539,0L45.82422,57.67139a22.13047,22.13047,0,0,0-2.69733,8.34943C43.57831,66.19781,43.97321,66.375,44.32031,66.53174Z"/></svg>