<svg xmlns="http://www.w3.org/2000/svg" version="1.1" viewBox="-5.0 -10.0 110.0 135.0">
 <path d="m96.875 44.531-1.9023-0.023438c-0.26953-2.2539-0.71094-4.4844-1.3164-6.6719l1.7422-0.72266c1.5938-0.66016 2.3516-2.4883 1.6914-4.082l-1.793-4.332c-0.66016-1.5938-2.4883-2.3477-4.082-1.6914l-1.7617 0.70703h-0.003906c-1.1172-1.9766-2.3789-3.8633-3.7812-5.6484l1.3438-1.3438c0.58594-0.58594 0.91797-1.3828 0.91797-2.2109s-0.33203-1.625-0.91797-2.2109l-3.3125-3.3125c-1.2227-1.2188-3.1992-1.2188-4.4219 0l-1.3594 1.3281c-1.7891-1.3984-3.6758-2.6602-5.6523-3.7773l0.72656-1.7539c0.66016-1.5938-0.097657-3.4219-1.6914-4.082l-4.332-1.793c-1.5938-0.66016-3.4219 0.097656-4.082 1.6914l-0.74609 1.7344c-2.1875-0.60547-4.418-1.043-6.6719-1.3086v-1.9023c0-1.7266-1.3984-3.125-3.125-3.125h-4.6875c-1.7266 0-3.125 1.3984-3.125 3.125v1.9023c0 0.86328 0.69922 1.5625 1.5625 1.5625s1.5625-0.69922 1.5625-1.5625v-1.9023h4.6875v1.9023c0.007812 1.5859 1.1992 2.918 2.7734 3.1016 2.0938 0.25 4.1602 0.66016 6.1914 1.2188 1.5234 0.42578 3.1289-0.34766 3.7422-1.8086l0.72266-1.7422 4.332 1.793-0.72656 1.7539c-0.60156 1.4688-0.015625 3.1523 1.3672 3.9258 1.832 1.0352 3.5859 2.207 5.2461 3.5078 1.2461 0.98047 3.0273 0.87891 4.1523-0.23828l1.3438-1.3438 3.3125 3.3164-1.3438 1.3438c-1.1133 1.125-1.2148 2.9062-0.23438 4.1523 1.2969 1.6602 2.4727 3.4141 3.5078 5.2461 0.77734 1.3828 2.457 1.9688 3.9258 1.3711l1.7539-0.72656 1.793 4.332-1.7461 0.72266 0.003907-0.003906c-1.4609 0.61328-2.2344 2.2188-1.8086 3.7422 0.55859 2.0312 0.96875 4.0977 1.2188 6.1914 0.18359 1.5742 1.5156 2.7656 3.1016 2.7734h1.9023v4.6875h-1.9023c-1.5859 0.007812-2.918 1.1992-3.1016 2.7734-0.25 2.0938-0.66016 4.1602-1.2188 6.1914-0.42578 1.5234 0.34766 3.1289 1.8086 3.7422l1.7422 0.72266-1.793 4.332-1.7539-0.72656v-0.003906c-1.4688-0.59766-3.1484-0.007812-3.9258 1.3711-1.0352 1.832-2.2109 3.5859-3.5078 5.2461-0.98047 1.2461-0.87891 3.0273 0.23438 4.1523l1.3438 1.3438-3.3164 3.3164-1.3438-1.3438h0.003906c-1.125-1.1172-2.9062-1.2188-4.1523-0.23828-1.6602 1.3008-3.4141 2.4727-5.2461 3.5078-1.3828 0.77734-1.9688 2.457-1.3672 3.9258l0.72656 1.7539-4.332 1.793-0.72266-1.7422c-0.61328-1.4609-2.2188-2.2344-3.7422-1.8086-2.0312 0.55859-4.0977 0.96875-6.1875 1.2188-1.5781 0.18359-2.7695 1.5156-2.7773 3.1016v1.9023h-4.6875v-1.9023c0-0.86328-0.69922-1.5625-1.5625-1.5625s-1.5625 0.69922-1.5625 1.5625v1.9023c0 1.7266 1.3984 3.125 3.125 3.125h4.6875c1.7266 0 3.125-1.3984 3.125-3.125l0.023438-1.9023c2.2539-0.26953 4.4844-0.71094 6.6719-1.3164l0.72266 1.7422c0.66016 1.5938 2.4883 2.3516 4.082 1.6914l4.3281-1.793h0.003906c1.5938-0.66016 2.3516-2.4883 1.6914-4.082l-0.70703-1.7656c1.9766-1.1172 3.8633-2.3789 5.6484-3.7812l1.3438 1.3438c1.2227 1.2188 3.1992 1.2188 4.4219 0l3.3125-3.3164v0.003907c0.58594-0.58594 0.91797-1.3828 0.91797-2.2109s-0.33203-1.625-0.91797-2.2109l-1.3281-1.3594c1.3984-1.7891 2.6602-3.6758 3.7773-5.6523l1.7539 0.72656c1.5938 0.65625 3.418-0.10156 4.082-1.6914l1.793-4.332c0.66016-1.5938-0.09375-3.4219-1.6914-4.082l-1.7344-0.74219v-0.003906c0.60547-2.1875 1.043-4.418 1.3086-6.6719h1.9023c1.7266 0 3.125-1.3984 3.125-3.125v-4.6875c0-1.7266-1.3984-3.125-3.125-3.125z"/>
 <path d="m50 84.375c-0.86328 0-1.5625 0.69922-1.5625 1.5625s0.69922 1.5625 1.5625 1.5625c13.398 0 25.777-7.1484 32.477-18.75 6.6992-11.602 6.6992-25.898 0-37.5-6.6992-11.602-19.078-18.75-32.477-18.75-0.86328 0-1.5625 0.69922-1.5625 1.5625s0.69922 1.5625 1.5625 1.5625c12.281 0 23.629 6.5508 29.77 17.188s6.1406 23.738 0 34.375-17.488 17.188-29.77 17.188z"/>
 <path d="m54.688 77.672c2.8477-0.003906 5.332-1.9297 6.043-4.6875h10.363c1.7266 0 3.125-1.3984 3.125-3.125v-3.125c0-1.7227-1.3984-3.1211-3.125-3.125h-6.6562c-2.3711-2.9609-5.957-4.6875-9.75-4.6875s-7.3789 1.7266-9.75 4.6875h-1.1875v-4.6875c0-0.85938-0.69922-1.5625-1.5625-1.5625h-0.78125v-3.1602c-0.96484 0.5625-2.0234 0.94141-3.125 1.1289v2.0352l-4.6875-0.003906v-2.4375c-1.1523-0.41016-2.2148-1.043-3.125-1.8594v4.3008l-0.78125-0.003906c-0.86328 0-1.5625 0.70312-1.5625 1.5625v4.6875h-3.125v-14.062c0-1.7227-1.3984-3.1211-3.125-3.125h-6.2578c-1.3516 0-2.6094 0.69922-3.3203 1.8516l-4.7383 7.7852-4.3516 1.4531c-1.918 0.63281-3.2109 2.4258-3.207 4.4453v7.9023c0 1.7266 1.3984 3.125 3.125 3.125h4.1133c0.70703 2.7617 3.1953 4.6875 6.043 4.6875s5.3359-1.9258 6.043-4.6875h29.32c0.71094 2.7578 3.1953 4.6836 6.043 4.6875zm-41.406-3.125c-1.2656 0-2.4023-0.75781-2.8867-1.9258-0.48438-1.168-0.21484-2.5117 0.67578-3.4062 0.89453-0.89453 2.2383-1.1602 3.4062-0.67969 1.168 0.48438 1.9297 1.625 1.9297 2.8867 0 1.7266-1.3984 3.125-3.125 3.125zm8.5938-4.6875h-2.5508c-0.70703-2.7578-3.1953-4.6875-6.043-4.6875s-5.3359 1.9297-6.043 4.6875h-4.1133v-1.5625c0.86328 0 1.5625-0.69922 1.5625-1.5625 0-0.85938-0.69922-1.5625-1.5625-1.5625v-3.2148c0-0.67188 0.42969-1.2695 1.0703-1.4805l4.6523-1.5508 13.027-0.003906zm0-14.062h-10.5l3.582-5.8828c0.14062-0.22656 0.39062-0.36719 0.66016-0.36719h6.2578zm32.812 18.75c-1.2656 0-2.4023-0.75781-2.8867-1.9258-0.48438-1.168-0.21484-2.5117 0.67578-3.4062 0.89453-0.89453 2.2383-1.1602 3.4062-0.67969 1.168 0.48438 1.9297 1.625 1.9297 2.8867 0 1.7266-1.3984 3.125-3.125 3.125zm-23.438-14.062h9.375v3.125h-9.375zm-6.25 6.25h21.531l0.46875-0.66797v0.003906c1.75-2.5195 4.6211-4.0234 7.6875-4.0234s5.9375 1.5039 7.6875 4.0234l0.46875 0.66797 8.25-0.003906v3.125h-10.363c-0.70703-2.7578-3.1953-4.6875-6.043-4.6875s-5.3359 1.9297-6.043 4.6875h-23.645z"/>
 <path d="m35.211 36.852 7.7031-8.5273 0.65234 1.1875-6.7695 7.2109c1.2344 0.007813 2.4531 0.26172 3.5859 0.74219l6.2344-6.6406h0.003906c0.46094-0.49219 0.55469-1.2266 0.23047-1.8203l-1.4922-2.7227c2.1641-0.94531 6.6836-2.0703 10.363 2.6094 4.082 5.1914 7.4805 9.1055 9.1719 11.008l-2.1289 1.5977-11.066-8.0508v-0.003906c-0.65234-0.47656-1.5625-0.375-2.0938 0.23438l-5.6523 6.4609c0.70703 0.86328 1.2539 1.8438 1.6172 2.8945l5.4453-6.2227 10.262 7.4688c0.24219 4.8945-5.1484 7.2969-5.3867 7.3984h0.003906c-0.48828 0.20703-0.83984 0.64844-0.92969 1.168-0.089844 0.52344 0.089844 1.0547 0.47656 1.4141 0.73828 0.6875 2.3047 1.5234 7.8906 1.9062 0.21094 0.015626 0.42578 0.023438 0.63672 0.023438h-0.003906c3.1758 0.007812 6.1172-1.6602 7.7461-4.3828 0.003906-0.007813 0.011718-0.015626 0.015624-0.023438 2.2695-3.8438 1.4141-8.7617-2.0156-11.613l-1.4336-1.1797c-0.56641-0.62109-4.7227-5.1914-10.102-12.031-5.3516-6.8047-12.684-4.6875-15.812-2.6172h0.003907c-0.10938 0.074218-0.21094 0.16016-0.29688 0.25781l-11.262 12.469h-0.003906c-0.72266 0.80859-1.1445 1.8438-1.1875 2.9258 1.4375-1.6719 3.418-2.7852 5.5938-3.1406zm32.516 5.7266c2.25 1.8711 2.8047 5.0977 1.3086 7.6133l-0.011718 0.023438c-1.1484 1.8984-3.2656 2.9922-5.4805 2.832-1.4375-0.097656-2.543-0.22656-3.3828-0.35938 2.2617-1.8242 4.4219-4.7109 4.25-8.5234l2.7461-2.0547z"/>
 <path d="m30.469 46.094c0 2.5273 1.5234 4.8086 3.8594 5.7734 2.3359 0.96875 5.0234 0.43359 6.8086-1.3555 1.7891-1.7852 2.3242-4.4727 1.3555-6.8086-0.96484-2.3359-3.2461-3.8594-5.7734-3.8594-3.4492 0.003906-6.2461 2.8008-6.25 6.25zm9.375 0c0 1.2656-0.76172 2.4023-1.9297 2.8867-1.168 0.48438-2.5117 0.21484-3.4062-0.67578-0.89062-0.89453-1.1602-2.2383-0.67578-3.4062 0.48438-1.168 1.6211-1.9297 2.8867-1.9297 1.7266 0 3.125 1.3984 3.125 3.125z"/>
</svg>