<svg xmlns="http://www.w3.org/2000/svg" xmlns:xlink="http://www.w3.org/1999/xlink" version="1.1" x="0px" y="0px" viewBox="0 0 128 160" style="enable-background:new 0 0 128 128;" xml:space="preserve"><path d="M85,74.5c0.7-11.9-7.9-22-13.7-27.3l3.6-10.6c0.3-0.8,0-1.7-0.6-2.2c-0.6-0.5-1.5-0.6-2.3-0.2c0,0-4.3,2.4-6.4,0.3  c-0.4-0.4-0.9-0.6-1.4-0.6h-0.4c-0.5,0-1,0.2-1.4,0.6c-2.1,2.1-6.4-0.3-6.4-0.3c-0.7-0.4-1.6-0.3-2.3,0.2c-0.6,0.5-0.9,1.4-0.6,2.2  l3.6,10.6C51,52.5,42.3,62.6,43,74.5c0.6,10.2,9,18.8,19.2,19.4c0.5,0,1,0,1.5,0h0.6c0.5,0,1,0,1.5,0C75.9,93.3,84.4,84.7,85,74.5z   M64,38.4c1.9,1.2,4,1.2,5.8,0.9L67.5,46h-6.9l-2.3-6.8C60,39.6,62.1,39.5,64,38.4z M65.5,90c-0.4,0-0.8,0-1.2,0h-0.6  c-0.4,0-0.8,0-1.2,0c-8.2-0.5-15-7.4-15.5-15.7C46.4,63.6,55.2,54.1,59.6,50h8.8c4.4,4.1,13.2,13.6,12.6,24.3  C80.5,82.5,73.7,89.4,65.5,90z"/><path d="M64.4,68.6c-1.8-0.5-2.7-0.8-3-1.5c-0.2-0.6,0.6-1.1,1-1.3c1.1-0.4,2.5-0.3,3.6,0.4c0.9,0.6,2.2,0.3,2.7-0.7  c0.6-0.9,0.3-2.2-0.7-2.7c-0.5-0.3-0.9-0.5-1.4-0.7V61c0-1.1-0.9-2-2-2s-2,0.9-2,2v0.6c-0.6,0.1-1.2,0.2-1.8,0.5  c-2.7,1.1-4.1,3.7-3.3,6.3c1,2.8,3.7,3.6,5.7,4.1c1.3,0.4,2.6,0.7,3,1.4c0.2,0.3,0.4,0.9,0.1,1.3c-0.6,0.8-2.1,1-3.3,0.8  c-0.4-0.1-0.9-0.3-1.3-0.6c-0.9-0.7-2.1-0.5-2.8,0.4c-0.7,0.9-0.5,2.1,0.4,2.8c0.8,0.6,1.7,1,2.7,1.3V81c0,1.1,0.9,2,2,2s2-0.9,2-2  v-1.2c1.4-0.3,2.8-1,3.6-2.3c1.2-1.7,1.2-4,0-5.8C68.5,69.7,66.2,69.1,64.4,68.6z"/><path d="M64,16c1.1,0,2-0.9,2-2V2c0-1.1-0.9-2-2-2s-2,0.9-2,2v12C62,15.1,62.9,16,64,16z"/><path d="M56.4,10.5c-0.2-1.1-1.2-1.8-2.3-1.6c-1.1,0.2-1.8,1.2-1.6,2.3l0.7,3.9c0.2,1,1,1.6,2,1.6c0.1,0,0.2,0,0.4,0  c1.1-0.2,1.8-1.2,1.6-2.3L56.4,10.5z"/><path d="M38.3,16.2c-0.6-1-1.8-1.3-2.7-0.7c-1,0.6-1.3,1.8-0.7,2.7l2,3.5c0.4,0.6,1,1,1.7,1c0.3,0,0.7-0.1,1-0.3  c1-0.6,1.3-1.8,0.7-2.7L38.3,16.2z"/><path d="M20.7,30.8l3.1,2.6c0.4,0.3,0.8,0.5,1.3,0.5c0.6,0,1.1-0.2,1.5-0.7c0.7-0.9,0.6-2.1-0.3-2.8l-3.1-2.6  c-0.9-0.7-2.1-0.6-2.8,0.3C19.7,28.9,19.9,30.1,20.7,30.8z"/><path d="M17,45l-3.8-1.4c-1-0.4-2.2,0.2-2.6,1.2s0.2,2.2,1.2,2.6l3.8,1.4c0.2,0.1,0.5,0.1,0.7,0.1c0.8,0,1.6-0.5,1.9-1.3  C18.5,46.5,18,45.4,17,45z"/><path d="M9.2,62c-1.1,0-2,0.9-2,2s0.9,2,2,2h4.1c1.1,0,2-0.9,2-2s-0.9-2-2-2H9.2z"/><path d="M15.6,79.2l-3.8,1.4c-1,0.4-1.6,1.5-1.2,2.6c0.3,0.8,1.1,1.3,1.9,1.3c0.2,0,0.5,0,0.7-0.1L17,83c1-0.4,1.6-1.5,1.2-2.6  S16.7,78.8,15.6,79.2z"/><path d="M22,100.7c0.4,0,0.9-0.2,1.3-0.5l3.1-2.6c0.9-0.7,1-2,0.3-2.8c-0.7-0.9-2-1-2.8-0.3l-3.1,2.6c-0.9,0.7-1,2-0.3,2.8  C20.8,100.5,21.4,100.7,22,100.7z"/><path d="M35.6,112.5c0.3,0.2,0.7,0.3,1,0.3c0.7,0,1.4-0.4,1.7-1l2-3.5c0.6-1,0.2-2.2-0.7-2.7c-1-0.6-2.2-0.2-2.7,0.7l-2,3.5  C34.3,110.7,34.6,111.9,35.6,112.5z"/><path d="M53.2,112.9l-0.7,3.9c-0.2,1.1,0.5,2.1,1.6,2.3c0.1,0,0.2,0,0.4,0c1,0,1.8-0.7,2-1.6l0.7-3.9c0.2-1.1-0.5-2.1-1.6-2.3  C54.5,111.1,53.4,111.8,53.2,112.9z"/><path d="M71.6,117.5c0.2,1,1,1.6,2,1.6c0.1,0,0.2,0,0.4,0c1.1-0.2,1.8-1.2,1.6-2.3l-0.7-3.9c-0.2-1.1-1.2-1.8-2.3-1.6  c-1.1,0.2-1.8,1.2-1.6,2.3L71.6,117.5z"/><path d="M89.7,111.8c0.4,0.6,1,1,1.7,1c0.3,0,0.7-0.1,1-0.3c1-0.6,1.3-1.8,0.7-2.7l-2-3.5c-0.6-1-1.8-1.3-2.7-0.7  c-1,0.6-1.3,1.8-0.7,2.7L89.7,111.8z"/><path d="M107.3,97.2l-3.1-2.6c-0.9-0.7-2.1-0.6-2.8,0.3c-0.7,0.9-0.6,2.1,0.3,2.8l3.1,2.6c0.4,0.3,0.8,0.5,1.3,0.5  c0.6,0,1.1-0.2,1.5-0.7C108.3,99.1,108.1,97.9,107.3,97.2z"/><path d="M111,83l3.8,1.4c0.2,0.1,0.5,0.1,0.7,0.1c0.8,0,1.6-0.5,1.9-1.3c0.4-1-0.2-2.2-1.2-2.6l-3.8-1.4c-1-0.4-2.2,0.2-2.6,1.2  C109.5,81.5,110,82.6,111,83z"/><path d="M118.8,66c1.1,0,2-0.9,2-2s-0.9-2-2-2h-4.1c-1.1,0-2,0.9-2,2s0.9,2,2,2H118.8z"/><path d="M111.7,48.9c0.2,0,0.5,0,0.7-0.1l3.8-1.4c1-0.4,1.6-1.5,1.2-2.6c-0.4-1-1.5-1.6-2.6-1.2L111,45c-1,0.4-1.6,1.5-1.2,2.6  C110.1,48.4,110.9,48.9,111.7,48.9z"/><path d="M107.5,28c-0.7-0.9-2-1-2.8-0.3l-3.1,2.6c-0.9,0.7-1,2-0.3,2.8c0.4,0.5,1,0.7,1.5,0.7c0.4,0,0.9-0.2,1.3-0.5l3.1-2.6  C108.1,30.1,108.3,28.9,107.5,28z"/><path d="M88.4,22.4c0.3,0.2,0.7,0.3,1,0.3c0.7,0,1.4-0.4,1.7-1l2-3.5c0.6-1,0.2-2.2-0.7-2.7c-1-0.6-2.2-0.2-2.7,0.7l-2,3.5  C87.1,20.6,87.4,21.9,88.4,22.4z"/><path d="M72.8,16.8c1,0,1.8-0.7,2-1.6l0.7-3.9c0.2-1.1-0.5-2.1-1.6-2.3c-1.1-0.2-2.1,0.5-2.3,1.6l-0.7,3.9c-0.2,1.1,0.5,2.1,1.6,2.3  C72.6,16.8,72.7,16.8,72.8,16.8z"/><path d="M44.3,5c-0.4-1-1.5-1.6-2.6-1.2c-1,0.4-1.6,1.5-1.2,2.6l4.2,11.3c0.3,0.8,1.1,1.3,1.9,1.3c0.2,0,0.5,0,0.7-0.1  c1-0.4,1.6-1.5,1.2-2.6L44.3,5z"/><path d="M22.2,15c-0.8,0.7-0.9,2-0.2,2.8l7.8,9.2c0.4,0.5,1,0.7,1.5,0.7c0.5,0,0.9-0.2,1.3-0.5c0.8-0.7,0.9-2,0.2-2.8l-7.8-9.2  C24.3,14.4,23.1,14.3,22.2,15z"/><path d="M7.7,32c-0.5,1-0.2,2.2,0.8,2.7l10.6,6c0.3,0.2,0.7,0.3,1,0.3c0.7,0,1.4-0.4,1.7-1c0.5-1,0.2-2.2-0.8-2.7l-10.6-6  C9.5,30.7,8.3,31.1,7.7,32z"/><path d="M0,52.9C-0.2,54,0.6,55,1.7,55.2l12,2.1c0.1,0,0.2,0,0.3,0c1,0,1.8-0.7,2-1.7c0.2-1.1-0.5-2.1-1.6-2.3l-12-2.1  C1.3,51.1,0.2,51.8,0,52.9z"/><path d="M0,75.1c0.2,1,1,1.7,2,1.7c0.1,0,0.2,0,0.3,0l12-2.1c1.1-0.2,1.8-1.2,1.6-2.3c-0.2-1.1-1.2-1.8-2.3-1.6l-12,2.1  C0.6,73-0.2,74,0,75.1z"/><path d="M9.5,97c0.3,0,0.7-0.1,1-0.3l10.6-6c1-0.5,1.3-1.8,0.8-2.7S20,86.7,19,87.3l-10.6,6c-1,0.5-1.3,1.8-0.8,2.7  C8.1,96.6,8.8,97,9.5,97z"/><path d="M23.5,113.5c0.6,0,1.1-0.2,1.5-0.7l7.8-9.2c0.7-0.8,0.6-2.1-0.2-2.8c-0.8-0.7-2.1-0.6-2.8,0.2l-7.8,9.2  c-0.7,0.8-0.6,2.1,0.2,2.8C22.6,113.3,23.1,113.5,23.5,113.5z"/><path d="M41.8,124.1c0.2,0.1,0.5,0.1,0.7,0.1c0.8,0,1.6-0.5,1.9-1.3l4.2-11.3c0.4-1-0.1-2.2-1.2-2.6c-1-0.4-2.2,0.1-2.6,1.2  l-4.2,11.3C40.2,122.6,40.7,123.8,41.8,124.1z"/><path d="M64,112c-1.1,0-2,0.9-2,2v12c0,1.1,0.9,2,2,2s2-0.9,2-2v-12C66,112.9,65.1,112,64,112z"/><path d="M83.7,123c0.3,0.8,1.1,1.3,1.9,1.3c0.2,0,0.5,0,0.7-0.1c1-0.4,1.6-1.5,1.2-2.6l-4.2-11.3c-0.4-1-1.5-1.6-2.6-1.2  c-1,0.4-1.6,1.5-1.2,2.6L83.7,123z"/><path d="M102.9,112.8c0.4,0.5,1,0.7,1.5,0.7c0.5,0,0.9-0.2,1.3-0.5c0.8-0.7,0.9-2,0.2-2.8l-7.8-9.2c-0.7-0.8-2-0.9-2.8-0.2  c-0.8,0.7-0.9,2-0.2,2.8L102.9,112.8z"/><path d="M118.5,97c0.7,0,1.4-0.4,1.7-1c0.5-1,0.2-2.2-0.8-2.7l-10.6-6c-1-0.5-2.2-0.2-2.7,0.8c-0.5,1-0.2,2.2,0.8,2.7l10.6,6  C117.8,96.9,118.2,97,118.5,97z"/><path d="M126,76.8c1,0,1.8-0.7,2-1.7c0.2-1.1-0.5-2.1-1.6-2.3l-12-2.1c-1.1-0.2-2.1,0.5-2.3,1.6c-0.2,1.1,0.5,2.1,1.6,2.3l12,2.1  C125.8,76.8,125.9,76.8,126,76.8z"/><path d="M128,52.9c-0.2-1.1-1.2-1.8-2.3-1.6l-12,2.1c-1.1,0.2-1.8,1.2-1.6,2.3c0.2,1,1,1.7,2,1.7c0.1,0,0.2,0,0.3,0l12-2.1  C127.4,55,128.2,54,128,52.9z"/><path d="M117.5,31.3l-10.6,6c-1,0.5-1.3,1.8-0.8,2.7c0.4,0.6,1,1,1.7,1c0.3,0,0.7-0.1,1-0.3l10.6-6c1-0.5,1.3-1.8,0.8-2.7  C119.7,31.1,118.5,30.7,117.5,31.3z"/><path d="M102.9,15.2l-7.8,9.2c-0.7,0.8-0.6,2.1,0.2,2.8c0.4,0.3,0.8,0.5,1.3,0.5c0.6,0,1.1-0.2,1.5-0.7l7.8-9.2  c0.7-0.8,0.6-2.1-0.2-2.8C104.9,14.3,103.7,14.4,102.9,15.2z"/><path d="M86.2,3.9C85.2,3.5,84,4,83.7,5l-4.2,11.3c-0.4,1,0.1,2.2,1.2,2.6c0.2,0.1,0.5,0.1,0.7,0.1c0.8,0,1.6-0.5,1.9-1.3l4.2-11.3  C87.8,5.4,87.3,4.2,86.2,3.9z"/><path d="M86.7,31.8c0.6,0,1.3-0.3,1.7-0.9c0.6-0.9,0.4-2.2-0.5-2.8c-0.9-0.6-2.2-0.4-2.8,0.6s-0.4,2.2,0.6,2.8  C85.9,31.7,86.3,31.8,86.7,31.8z"/><path d="M77.7,25.3c-0.4,1,0.1,2.2,1.1,2.6c0.3,0.1,0.5,0.2,0.8,0.2c0.8,0,1.5-0.5,1.8-1.2c0.4-1-0.1-2.2-1.1-2.6  S78.1,24.3,77.7,25.3z"/><path d="M85.1,99.2c0.4,0.6,1,0.9,1.7,0.9c0.4,0,0.8-0.1,1.1-0.3c0.9-0.6,1.2-1.9,0.6-2.8c-0.6-0.9-1.9-1.2-2.8-0.5  C84.8,97,84.5,98.3,85.1,99.2z"/><path d="M106.2,72.4c0.2-1.1-0.5-2.1-1.6-2.4c-1.1-0.2-2.1,0.5-2.4,1.6c-0.2,1.1,0.5,2.1,1.6,2.4c0.1,0,0.3,0,0.4,0  C105.2,74,106,73.3,106.2,72.4z"/><path d="M101.1,81.5c0.3,0.1,0.5,0.1,0.8,0.1c0.8,0,1.5-0.5,1.9-1.2c0.4-1-0.1-2.2-1.1-2.6c-1-0.4-2.2,0.1-2.6,1.1  C99.6,79.9,100.1,81.1,101.1,81.5z"/><path d="M101.8,50.2c0.3,0,0.5,0,0.8-0.2c1-0.4,1.5-1.6,1.1-2.6c-0.4-1-1.6-1.5-2.6-1.1c-1,0.4-1.5,1.6-1.1,2.6  C100.3,49.7,101,50.2,101.8,50.2z"/><path d="M97,88.4c0.3,0.2,0.7,0.3,1.1,0.3c0.7,0,1.3-0.3,1.7-0.9c0.6-0.9,0.4-2.2-0.6-2.8c-0.9-0.6-2.2-0.4-2.8,0.6  C95.8,86.6,96.1,87.8,97,88.4z"/><path d="M91.5,33.5c-0.8,0.8-0.8,2.1,0,2.8c0.4,0.4,0.9,0.6,1.4,0.6c0.5,0,1-0.2,1.4-0.6c0.8-0.8,0.8-2.1,0-2.8  C93.5,32.7,92.2,32.7,91.5,33.5z"/><path d="M107,64C107,64,107,63.9,107,64c0-0.1,0-0.2,0-0.2c0-1.1-0.9-2-2-2c-1.1,0-2,0.9-2,2c0,0,0,0,0,0.1c0,0,0,0,0,0.1  c0,1.1,0.9,2,2,2C106.1,66,107,65.1,107,64z"/><path d="M103.8,53.9c-1.1,0.2-1.8,1.3-1.6,2.4c0.2,0.9,1,1.6,2,1.6c0.1,0,0.3,0,0.4,0c1.1-0.2,1.8-1.3,1.6-2.4  C105.9,54.4,104.9,53.7,103.8,53.9z"/><path d="M96.9,39.4c-0.9,0.6-1.2,1.9-0.5,2.8c0.4,0.6,1,0.9,1.7,0.9c0.4,0,0.8-0.1,1.1-0.3c0.9-0.6,1.1-1.9,0.5-2.8  C99,39.1,97.8,38.8,96.9,39.4z"/><path d="M50.2,102.7c0.4-1-0.1-2.2-1.1-2.6c-1-0.4-2.2,0.1-2.6,1.1c-0.4,1,0.1,2.2,1.1,2.6c0.3,0.1,0.5,0.1,0.8,0.1  C49.1,103.9,49.9,103.4,50.2,102.7z"/><path d="M58,104.6c0.2-1.1-0.5-2.1-1.6-2.3c-1.1-0.2-2.1,0.5-2.3,1.6c-0.2,1.1,0.5,2.1,1.6,2.4c0.1,0,0.3,0,0.4,0  C57,106.2,57.8,105.6,58,104.6z"/><path d="M35.1,95c0.5,0,1-0.2,1.4-0.6c0.8-0.8,0.8-2,0-2.8c-0.8-0.8-2-0.8-2.8,0c-0.8,0.8-0.8,2.1,0,2.8C34,94.8,34.5,95,35.1,95z"/><path d="M26.1,81.8c0.3,0,0.5,0,0.8-0.1c1-0.4,1.5-1.6,1.1-2.6c-0.4-1-1.6-1.5-2.6-1.1c-1,0.4-1.5,1.6-1.1,2.6  C24.6,81.3,25.4,81.8,26.1,81.8z"/><path d="M30,88.8c0.4,0,0.8-0.1,1.1-0.3c0.9-0.6,1.2-1.9,0.5-2.8c-0.6-0.9-1.8-1.2-2.8-0.5c-0.9,0.6-1.2,1.9-0.5,2.8  C28.7,88.5,29.3,88.8,30,88.8z"/><path d="M64,103c-1.1,0-2,0.9-2,2c0,1.1,0.9,2,2,2c1.1,0,2-0.9,2-2C66,103.9,65.1,103,64,103z"/><path d="M23.8,74.1c0.1,0,0.3,0,0.4,0c1.1-0.2,1.8-1.3,1.6-2.4c-0.2-1.1-1.3-1.8-2.4-1.6c-1.1,0.2-1.8,1.3-1.6,2.4  C22,73.4,22.9,74.1,23.8,74.1z"/><path d="M94.4,91.6c-0.8-0.8-2.1-0.8-2.8,0c-0.8,0.8-0.8,2,0,2.8C92,94.8,92.5,95,93,95c0.5,0,1-0.2,1.4-0.6  C95.2,93.6,95.2,92.3,94.4,91.6z"/><path d="M79.7,103.9c0.3,0,0.5-0.1,0.8-0.2c1-0.4,1.5-1.6,1.1-2.6c-0.4-1-1.6-1.5-2.6-1.1c-1,0.4-1.5,1.6-1.1,2.6  C78.2,103.4,78.9,103.9,79.7,103.9z"/><path d="M72.4,106.2c1.1-0.2,1.8-1.3,1.6-2.4c-0.2-1.1-1.3-1.8-2.4-1.6c-1.1,0.2-1.8,1.3-1.6,2.3c0.2,1,1,1.6,2,1.6  C72.2,106.2,72.3,106.2,72.4,106.2z"/><path d="M55.5,21.8c-1.1,0.2-1.8,1.3-1.6,2.4c0.2,1,1,1.6,2,1.6c0.1,0,0.3,0,0.4,0c1.1-0.2,1.8-1.3,1.6-2.4S56.6,21.6,55.5,21.8z"/><path d="M42.8,28.8c-0.6-0.9-1.9-1.2-2.8-0.5c-0.9,0.6-1.2,1.9-0.5,2.8c0.4,0.6,1,0.9,1.7,0.9c0.4,0,0.8-0.1,1.1-0.3  C43.2,31,43.4,29.8,42.8,28.8z"/><path d="M69.9,23.4c-0.2,1.1,0.5,2.1,1.6,2.4c0.1,0,0.3,0,0.4,0c0.9,0,1.8-0.7,2-1.6c0.2-1.1-0.5-2.1-1.6-2.3  C71.2,21.6,70.1,22.3,69.9,23.4z"/><path d="M21,64.1c0,1.1,0.9,2,2,2c1.1,0,2-0.9,2-2c0-1.1-0.9-2-2-2C21.9,62.1,21,63,21,64.1z"/><path d="M63.9,25C63.9,25,63.9,25,63.9,25c1.1,0,2-0.9,2-2c0-1.1-0.9-2-2-2c-1.1,0-2,0.9-2,2C61.9,24.1,62.8,25,63.9,25z"/><path d="M46.3,26.9c0.3,0.8,1.1,1.2,1.9,1.2c0.3,0,0.5,0,0.8-0.2c1-0.4,1.5-1.6,1.1-2.6c-0.4-1-1.6-1.5-2.6-1.1  C46.4,24.7,45.9,25.9,46.3,26.9z"/><path d="M39.6,97c-0.6,0.9-0.4,2.2,0.5,2.8c0.3,0.2,0.7,0.3,1.1,0.3c0.6,0,1.3-0.3,1.7-0.9c0.6-0.9,0.4-2.2-0.5-2.8  C41.5,95.8,40.2,96.1,39.6,97z"/><path d="M33.5,33.7c-0.8,0.8-0.8,2,0,2.8c0.4,0.4,0.9,0.6,1.4,0.6c0.5,0,1-0.2,1.4-0.6c0.8-0.8,0.8-2.1,0-2.8  C35.6,32.9,34.3,32.9,33.5,33.7z"/><path d="M21.8,55.7c-0.2,1.1,0.5,2.1,1.6,2.3c0.1,0,0.3,0,0.4,0c0.9,0,1.8-0.7,2-1.6c0.2-1.1-0.5-2.1-1.6-2.3  C23.1,53.9,22,54.6,21.8,55.7z"/><path d="M28.7,43c0.3,0.2,0.7,0.3,1.1,0.3c0.6,0,1.3-0.3,1.7-0.9c0.6-0.9,0.4-2.2-0.5-2.8c-0.9-0.6-2.2-0.4-2.8,0.6  C27.6,41.1,27.8,42.4,28.7,43z"/><path d="M26.8,46.5c-1-0.4-2.2,0.1-2.6,1.1c-0.4,1,0.1,2.2,1.1,2.6c0.3,0.1,0.5,0.1,0.8,0.1c0.8,0,1.5-0.5,1.9-1.2  C28.3,48.1,27.9,47,26.8,46.5z"/></svg>