<svg xmlns="http://www.w3.org/2000/svg" xmlns:xlink="http://www.w3.org/1999/xlink" version="1.1" x="0px" y="0px" viewBox="0 0 128 160" style="enable-background:new 0 0 128 128;" xml:space="preserve"><path d="M15.5,94.6c0.6,0.3,1.3,0.3,1.9-0.1c0.6-0.3,0.9-1,1-1.6c0-0.7,0.2-1.4,0.6-2c0.9-1.6,2.6-2.5,4.5-2.6c1,0,1.8-0.8,2-1.7  c0.1-0.9,0.4-1.8,0.9-2.6c2.1-3.6,6.8-5,10.6-3.1c0.8,0.4,1.5,0.9,2,1.5l2-3.6c-0.7-0.6-1.4-1.1-2.2-1.5c-5.6-2.8-12.7-0.7-15.8,4.7  c-0.5,0.8-0.8,1.7-1.1,2.6c-2.6,0.5-5,2.1-6.3,4.4c-0.2,0.4-0.4,0.8-0.6,1.3c-5.1-1.2-10.7,1-13.4,5.6c-1.5,2.6-1.9,5.7-1.1,8.5  c0.9,2.9,2.9,5.2,5.6,6.6c-0.2,0.3-0.4,0.5-0.5,0.8c-1.5,2.6-1.9,5.7-1.1,8.5c0.9,2.9,2.9,5.2,5.6,6.6c1.7,0.8,3.5,1.2,5.3,1.2  c2.2,0,4.5-0.6,6.4-1.8c-0.7-1.2-1.2-2.5-1.5-3.8c-2.4,1.7-5.7,2.1-8.4,0.8c-1.8-0.9-3-2.3-3.6-4.1c-0.5-1.8-0.3-3.7,0.7-5.4  c0.5-0.8,1.1-1.6,1.9-2.2c0.6-0.5,0.9-1.3,0.7-2.1s-0.8-1.3-1.6-1.5c-0.8-0.1-1.5-0.4-2.2-0.7c-1.8-0.9-3-2.3-3.6-4.1  C3.7,101.3,4,99.4,5,97.8C7,94.2,11.8,92.8,15.5,94.6z"/><path d="M113.1,90.2c-0.2-0.4-0.4-0.9-0.6-1.3c-1.3-2.3-3.7-3.9-6.3-4.4c-0.3-0.9-0.6-1.8-1.1-2.6c-3.1-5.4-10.2-7.5-15.8-4.7  c-0.6,0.3-1.1,0.6-1.6,1l1.9,3.6c0.5-0.4,1-0.8,1.5-1c3.7-1.8,8.5-0.4,10.6,3.1c0.5,0.8,0.8,1.7,0.9,2.6c0.1,1,1,1.7,2,1.7  c1.9,0,3.6,1,4.5,2.6c0.4,0.6,0.6,1.3,0.6,2c0,0.7,0.4,1.3,1,1.6c0.6,0.3,1.3,0.4,1.9,0.1c3.7-1.8,8.5-0.4,10.5,3.2  c1,1.7,1.2,3.6,0.7,5.4c-0.5,1.8-1.8,3.3-3.6,4.1c-0.7,0.3-1.4,0.6-2.2,0.7c-0.8,0.1-1.4,0.7-1.6,1.5s0.1,1.6,0.7,2.1  c0.8,0.6,1.4,1.4,1.9,2.2c1,1.7,1.2,3.6,0.7,5.4c-0.5,1.8-1.8,3.3-3.6,4.1c-2.7,1.4-6,1-8.4-0.8c-0.3,1.3-0.7,2.6-1.5,3.8  c1.9,1.1,4.1,1.8,6.4,1.8c1.8,0,3.6-0.4,5.3-1.2c2.8-1.4,4.8-3.7,5.6-6.6c0.9-2.9,0.5-5.9-1.1-8.5c-0.2-0.3-0.3-0.6-0.5-0.8  c2.8-1.4,4.8-3.7,5.6-6.6c0.9-2.9,0.5-5.9-1.1-8.5C123.8,91.1,118.2,88.9,113.1,90.2z"/><path d="M79.5,71.4V46H80c1.1,0,2-0.9,2-2s-0.9-2-2-2h-9l3.9-10.7h5.3c6,0,10.8-4.7,10.8-10.5s-4.9-10.5-10.8-10.5  c-0.3,0-0.6,0-0.9,0C79.2,4.7,74.4,0,68.4,0c-5,0-9.3,3.3-10.5,7.8c-0.4-0.1-0.8-0.1-1.2-0.1c-2.5,0-4.8,1.1-6.4,2.9  c-0.8-0.2-1.7-0.3-2.6-0.3c-6,0-10.8,4.7-10.8,10.5c0,6,5.1,10.5,11.8,10.5h2.8L56.4,42H48c-1.1,0-2,0.9-2,2s0.9,2,2,2h1.5v25.4  l-24.6,45.1c-1.3,2.5-1.2,5.4,0.2,7.7c1.4,2.4,4,3.8,6.8,3.8h64.1c2.8,0,5.3-1.4,6.8-3.8c1.4-2.4,1.5-5.3,0.2-7.7L79.5,71.4z   M54.8,28.5c-0.3-0.7-1-1.2-1.8-1.2h-4.2c-4.5,0-7.8-2.7-7.8-6.5c0-3.6,3.1-6.5,6.8-6.5c0.9,0,1.8,0.2,2.6,0.5  c0.2,0.1,1.5,0.7,1.8,2.5c0.2,1,1,1.7,2,1.7c0.1,0,0.2,0,0.3,0c1.1-0.2,1.8-1.2,1.7-2.3c-0.3-1.8-1.1-3.2-2.1-4.1  c0.7-0.6,1.7-0.9,2.7-0.9c0.7,0,1.3,0.1,2,0.4c0.6,0.3,1.3,0.3,1.9-0.1c0.6-0.4,0.9-1,0.9-1.7c0-3.5,3.1-6.4,6.8-6.4  c3.8,0,6.8,2.9,6.8,6.5c0,0.4-0.1,0.9-0.1,1.3c-1.1,0.8-3,2.6-3.1,5.2c0,1.1,0.8,2,1.9,2c0,0,0,0,0.1,0c1.1,0,2-0.9,2-2  c0-1,1.2-1.9,1.7-2.3c0.8-0.3,1.6-0.4,2.5-0.4c3.8,0,6.8,2.9,6.8,6.5s-3.1,6.5-6.8,6.5h-6.7c-0.8,0-1.6,0.5-1.9,1.3L66.7,42h-6  L54.8,28.5z M99.4,122.1c-0.7,1.2-2,1.9-3.4,1.9H31.9c-1.4,0-2.6-0.7-3.4-1.9c-0.7-1.2-0.8-2.6-0.1-3.8l24.8-45.5  c0.2-0.3,0.2-0.6,0.2-1V46h22.1v25.9c0,0.3,0.1,0.6,0.2,0.9l23.8,45.5C100.2,119.5,100.1,120.9,99.4,122.1z"/><path d="M64,65.5c3.3,0,6-2.7,6-6s-2.7-6-6-6s-6,2.7-6,6S60.7,65.5,64,65.5z M64,57.5c1.1,0,2,0.9,2,2s-0.9,2-2,2s-2-0.9-2-2  S62.9,57.5,64,57.5z"/><path d="M91.5,37.5c0,3.3,2.7,6,6,6c3.3,0,6-2.7,6-6s-2.7-6-6-6C94.2,31.5,91.5,34.2,91.5,37.5z M99.5,37.5c0,1.1-0.9,2-2,2  c-1.1,0-2-0.9-2-2s0.9-2,2-2C98.6,35.5,99.5,36.4,99.5,37.5z"/><path d="M113.5,13.5c0-3.9-3.1-7-7-7s-7,3.1-7,7s3.1,7,7,7S113.5,17.4,113.5,13.5z M103.5,13.5c0-1.7,1.3-3,3-3c1.7,0,3,1.3,3,3  s-1.3,3-3,3C104.8,16.5,103.5,15.2,103.5,13.5z"/><path d="M30.5,43.5c3.3,0,6-2.7,6-6s-2.7-6-6-6c-3.3,0-6,2.7-6,6S27.2,43.5,30.5,43.5z M30.5,35.5c1.1,0,2,0.9,2,2s-0.9,2-2,2  s-2-0.9-2-2S29.4,35.5,30.5,35.5z"/><path d="M28.5,13.5c0-3.9-3.1-7-7-7s-7,3.1-7,7s3.1,7,7,7S28.5,17.4,28.5,13.5z M21.5,16.5c-1.7,0-3-1.3-3-3s1.3-3,3-3s3,1.3,3,3  S23.2,16.5,21.5,16.5z"/><path d="M64,85.5c3.9,0,7-3.1,7-7s-3.1-7-7-7s-7,3.1-7,7S60.1,85.5,64,85.5z M64,75.5c1.7,0,3,1.3,3,3s-1.3,3-3,3s-3-1.3-3-3  S62.3,75.5,64,75.5z"/><path d="M81.7,92.8c-0.3-0.6-0.9-1-1.6-1.1c-1.3-0.1-6.1-0.3-12,1c0,0-0.1,0-0.1,0l-9,2.5c-4.4,1.3-10.4,1.4-13.1,1.1  c-0.8-0.1-1.6,0.3-2,1.1l-10.3,19.6c-0.3,0.6-0.3,1.4,0.1,2c0.4,0.6,1,1,1.7,1h57.2c0.7,0,1.3-0.4,1.7-1c0.4-0.6,0.4-1.3,0.1-2  L81.7,92.8z M38.7,116l8.1-15.5c3.3,0.2,8.8-0.1,13.2-1.3l8.9-2.5c3.7-0.8,7.3-1,9.8-1L89.3,116H38.7z"/></svg>