<svg xmlns="http://www.w3.org/2000/svg" xmlns:xlink="http://www.w3.org/1999/xlink" version="1.1" x="0px" y="0px" viewBox="0 0 128 160" style="enable-background:new 0 0 128 128;" xml:space="preserve"><path d="M16.8701,81.2144012c-0.1390991-0.6708984-0.1704006-1.3686981-0.0697994-2.0689011L2.68311,91.4945984  c-0.8310601,0.7271042-0.91553,1.990799-0.1884799,2.8223038C2.8901401,94.7689972,3.44385,95,4.0009799,95  c0.4672799,0,0.9365201-0.1631012,1.3159099-0.4945984L14,86.910202V126c0,1.1044998,0.8955002,2,2,2s2-0.8955002,2-2V83.0073013  C18,82.216301,17.5366001,81.5385971,16.8701,81.2144012z"/><path d="M96.091301,93H73.908699C71.7534027,93,70,94.7807999,70,96.9692001V126c0,1.1044998,0.8955002,2,2,2s2-0.8955002,2-2  l-0.091301-29L96,96.9692001V126c0,1.1044998,0.8955002,2,2,2s2-0.8955002,2-2V96.9692001  C100,94.7807999,98.2465973,93,96.091301,93z"/><path d="M56,93H32c-1.1000996,0-2,0.8999023-2,2v24c0,1.1000977,0.8999004,2,2,2h24c1.1001015,0,2-0.8999023,2-2V95  C58,93.8999023,57.1001015,93,56,93z M54,101h-4v-4h4V101z M42,109v-4h4v4H42z M46,113v4h-4v-4H46z M38,109h-4v-4h4V109z M42,101v-4  h4v4H42z M50,105h4v4h-4V105z M38,97v4h-4v-4H38z M34,113h4v4h-4V113z M50,117v-4h4v4H50z"/><path d="M90,109c-1.1044998,0-2,0.8955002-2,2v4c0,1.1044998,0.8955002,2,2,2s2-0.8955002,2-2v-4  C92,109.8955002,91.1044998,109,90,109z"/><path d="M72,78v-8c0-1.1000977-0.8999023-2-2-2H58c-1.1001015,0-2,0.8999023-2,2v8c0,1.1000977,0.8998985,2,2,2h12  C71.1000977,80,72,79.1000977,72,78z M68,76h-8v-4h8V76z"/><path d="M3.4672899,40.6596985c-0.1294,0.7495003,0.1772401,1.5078011,0.7919903,1.9560013  C4.8745098,43.0639992,5.68994,43.1235008,6.36377,42.7728996L11,40.3521004l4.6362,2.4207993  C15.9277,42.9248009,16.2451,43,16.5620003,43c0.4160004,0,0.8295994-0.1299019,1.1786995-0.3843002  c0.6147995-0.4482002,0.9214001-1.206501,0.7919998-1.9560013l-0.8817997-5.1088982l3.7402-3.6205997  c0.5478992-0.5307999,0.7465992-1.3267002,0.5116997-2.0528011c-0.2348003-0.7259998-0.862299-1.2547989-1.6171989-1.363699  l-5.1806011-0.7471008l-2.3139992-4.6567001C12.4531002,22.4302006,11.7593002,22,11,22s-1.4531202,0.4302006-1.7910204,1.1098995  L6.89502,27.7665997L1.71436,28.5137005c-0.754887,0.1089001-1.382329,0.6376991-1.617192,1.363699  c-0.234863,0.7261009-0.036133,1.5220013,0.511719,2.0528011l3.7407229,3.6205997L3.4672899,40.6596985z M8.50488,31.5757008  c0.6503897-0.0938015,1.2128897-0.5010014,1.5054197-1.0894012L11,28.4946003l0.9897003,1.9916992  c0.2924995,0.5883999,0.8549995,0.9955997,1.5053997,1.0894012l2.1856003,0.3153992l-1.5718002,1.5210018  c-0.4751005,0.4599991-0.6924,1.1254997-0.5796003,1.7773972l0.3740005,2.1660004l-1.9775-1.0326996  C11.6357002,36.1713982,11.3178997,36.0956993,11,36.0956993s-0.6357002,0.0756989-0.9258003,0.2271004l-1.9770298,1.0321999  l0.3740206-2.1655006c0.1127892-0.6518974-0.1044903-1.3173981-0.5795903-1.7773972l-1.5717802-1.5215015L8.50488,31.5757008z"/><path d="M35.3638,32.6088982l-0.6641006,4.0693016c-0.1230011,0.7559013,0.1963005,1.5156021,0.8223,1.9570999  c0.6254997,0.4398994,1.4487,0.4847984,2.1196022,0.1152L41,36.8936005l3.3583984,1.8568993  C44.6605988,38.9174995,44.9936981,39,45.3261986,39c0.4048004,0,0.8081017-0.1226006,1.1518021-0.3647003  c0.6259995-0.4414978,0.9453011-1.2011986,0.8223-1.9570999L46.6362,32.6088982l2.7953987-2.8642979  c0.5235023-0.5366001,0.7027016-1.3208008,0.464901-2.0317001s-0.8535004-1.2290001-1.5942993-1.3423004l-3.7826996-0.5781002  l-1.7089996-3.6420994C42.480999,21.4482002,41.7753983,21,41,21s-1.480999,0.4482002-1.8105011,1.1504002l-1.7089996,3.6420994  l-3.7826996,0.5781002c-0.740799,0.1133003-1.3564987,0.6314011-1.5942993,1.3423004s-0.0586014,1.4951,0.464901,2.0317001  L35.3638,32.6088982z M39.1395988,29.5853996c0.6592026-0.1005001,1.2251015-0.5233994,1.5083008-1.1273994L41,27.7080002  l0.3521004,0.75c0.2831993,0.6040001,0.8490982,1.0268993,1.5083008,1.1273994l0.9897003,0.1513996l-0.7817001,0.8008003  C42.625,30.9922009,42.4238014,31.6299,42.5259018,32.2563019l0.1635971,1.0004997l-0.7216988-0.3989029  c-0.3013-0.1665001-0.6343002-0.2495003-0.9678001-0.2495003s-0.6665001,0.0830002-0.9678001,0.2495003l-0.7216988,0.3989029  l0.1635971-1.0004997c0.1021004-0.6264019-0.0990982-1.264101-0.5424995-1.7187023l-0.7817001-0.8008003L39.1395988,29.5853996z"/><path d="M100.8638,10.3325005l-0.5459061,3.3456993c-0.1231003,0.7559004,0.1963043,1.5156002,0.8222046,1.9570999  c0.6254959,0.4404011,1.4487991,0.4853001,2.1196976,0.1152L106,14.2354002l2.7401962,1.5150995  C109.0424957,15.9174995,109.3754959,16,109.7080002,16c0.4048004,0,0.8080978-0.1225996,1.1518936-0.3647003  c0.6259003-0.4414997,0.9453049-1.2011995,0.8222046-1.9570999L111.1362,10.3325005l2.2949982-2.3515406  c0.5238953-0.5366197,0.7031021-1.3207998,0.4653015-2.0317397s-0.8535004-1.2290101-1.5942993-1.3422904l-3.091301-0.4726496  L107.8104935,1.15039C107.4810028,0.448242,106.7753983,0,106,0c-0.7754059,0-1.4810028,0.448242-1.8105011,1.15039  l-1.4003983,2.9838901l-3.091301,0.4726496c-0.740799,0.1132803-1.3564987,0.63135-1.5942993,1.3422904  s-0.0586014,1.49512,0.4653015,2.0317397L100.8638,10.3325005z M104.4487,7.9272499  c0.6591949-0.1005898,1.2250977-0.5234399,1.5083008-1.12745L106,6.7084999l0.0429993,0.0913  c0.2831955,0.6040101,0.8490982,1.0268602,1.5083008,1.12745l0.2987976,0.0458899l-0.2813034,0.2880907  c-0.4432983,0.4545898-0.6449966,1.0922899-0.5429001,1.71875l0.0454025,0.2773199l-0.1035004-0.0576  c-0.3013-0.1665001-0.6343002-0.2495003-0.9677963-0.2495003c-0.3335037,0-0.6665039,0.0830002-0.967804,0.2495003  l-0.1035004,0.0576l0.0454025-0.2773199c0.1020966-0.6264601-0.0996017-1.2641602-0.5429001-1.71875l-0.2813034-0.2880907  L104.4487,7.9272499z"/><path d="M127.9027939,29.8778992c-0.2347946-0.7255993-0.8622971-1.2549-1.6171951-1.363699l-5.1805954-0.7476006  l-2.314003-4.6567001C118.4530945,22.4302006,117.7593002,22,117,22s-1.4531021,0.4302006-1.7910004,1.1098995l-2.314003,4.6567001  l-5.180603,0.7476006c-0.7548981,0.108799-1.3823929,0.6380997-1.6171951,1.363699  c-0.2349014,0.7261009-0.0362015,1.522501,0.5116959,2.0528011l3.7402039,3.6201l-0.8817978,5.1088982  c-0.1294022,0.7495003,0.1772003,1.5078011,0.7919998,1.9560013c0.6141968,0.4487991,1.4297028,0.5083008,2.1044998,0.1571999  L117,40.3525009l4.6362,2.4203987C121.9276962,42.9248009,122.2455978,43,122.5619965,43  c0.4160004,0,0.8295975-0.1299019,1.1787033-0.3843002c0.6147995-0.4482002,0.9213943-1.206501,0.7919998-1.9560013  l-0.8818054-5.1088982l3.7402039-3.6201C127.939003,31.4004002,128.1376953,30.6040001,127.9027939,29.8778992z   M120.1088943,33.4121017c-0.4750977,0.4599991-0.6923981,1.1254997-0.5795975,1.7773972l0.3740005,2.1665001l-1.9775009-1.0327988  C117.6356964,36.1719017,117.317894,36.096199,117,36.096199c-0.3179016,0-0.635704,0.0757027-0.9258041,0.2270012  l-1.9775009,1.0327988l0.3740005-2.1665001c0.1128006-0.6518974-0.1044998-1.3173981-0.5795975-1.7773972l-1.5718002-1.5210018  l2.1856003-0.3153992c0.6503983-0.0938015,1.2128983-0.5010014,1.5054016-1.0894012L117,28.4946003l0.9897003,1.9916992  c0.2924957,0.5883999,0.8549957,0.9955997,1.505394,1.0894012l2.1856003,0.3153992L120.1088943,33.4121017z"/><path d="M76.3447037,26.0063l-0.6406021,3.6474991c-0.1313019,0.7481003,0.1718979,1.5054016,0.7831955,1.9561005  c0.610405,0.4506016,1.4248047,0.5165997,2.1001053,0.1694012L82,30.0272999l3.4125977,1.7520008  C85.7006989,31.9272003,86.0141983,32,86.3262024,32c0.4188995,0,0.8363953-0.1317997,1.1865005-0.3901005  c0.6112976-0.4506989,0.9144974-1.2080002,0.7831955-1.9561005L87.6552963,26.0063l2.7236023-2.5916996  c0.5551987-0.5284004,0.7598038-1.3282013,0.5259018-2.0585995c-0.233902-0.7300014-0.8647995-1.262701-1.623497-1.3702011  l-3.8042068-0.539999l-1.6918945-3.3477001C83.4448013,15.4243002,82.7544022,15,82,15s-1.4448013,0.4243002-1.785202,1.0981007  l-1.6918945,3.3477001l-3.8041,0.539999c-0.7588043,0.1075001-1.3897018,0.6401997-1.6236038,1.3702011  c-0.233902,0.7303982-0.0292969,1.5301991,0.5259018,2.0585995L76.3447037,26.0063z M80.1186981,23.2593002  c0.646904-0.0918007,1.2089005-0.4941998,1.5038986-1.0781002L82,21.4340992L82.3774033,22.1812  c0.2949982,0.5839005,0.8569946,0.9862995,1.5038986,1.0781002L84.6278992,23.3652l-0.5067978,0.4825001  c-0.4849014,0.4613991-0.7065048,1.1352005-0.5908051,1.794899l0.1299057,0.7407017L82.9131012,26  C82.626503,25.8530006,82.3134995,25.7793007,82,25.7793007S81.373497,25.8530006,81.0868988,26l-0.7471008,0.3833008  l0.1299057-0.7407017c0.1156998-0.6596985-0.1059036-1.3334999-0.5908051-1.794899L79.3721008,23.3652L80.1186981,23.2593002z"/><path d="M108,75.453598V49c0-1.1044998-0.8955002-2-2-2s-2,0.8955002-2,2v22.9843979l-11-9.540596V51h1c1.1044998,0,2-0.8955002,2-2  s-0.8955002-2-2-2h-3c-1.1044998,0-2,0.8955002-2,2v9.9746017L67.1611023,40.0326996  c-1.5903015-1.3788986-4.0771027-1.3740005-5.6606026,0.0126991L43.1610985,56.0873985l4.6861,0.6680031  c0.171402,0.0243988,0.3353996,0.0697975,0.5018997,0.1083984l15.785202-13.8081017  c0.0854034-0.0737991,0.3208008-0.0746994,0.4061966-0.0009995L110,82.4833984V126c0,1.1044998,0.8955002,2,2,2s2-0.8955002,2-2  V85.9525986l8.6894989,7.536705c0.8333969,0.7240982,2.0970993,0.6332932,2.8211975-0.2002029  c0.7241974-0.8345032,0.6343002-2.097702-0.2002029-2.8213043L108,75.453598z"/><path d="M40.3535004,81.777298C40.642601,81.9263,40.9570007,82,41.2705002,82c0.4179993,0,0.8344994-0.1313019,1.1841011-0.3881989  c0.6122971-0.4502029,0.9169998-1.2080002,0.7860985-1.9560013l-1.5868988-9.0791016l6.7285004-6.4360962  c0.5531998-0.5293007,0.7558975-1.3281021,0.5219994-2.0571022c-0.2344017-0.7285004-0.8638-1.2602997-1.6221008-1.3681984  L37.9520988,59.3848l-4.1655006-8.2831993C33.4473,50.4263,32.7559013,50,32,50c-0.7558994,0-1.4473,0.4263-1.7866001,1.1016006  L26.0478992,59.3848l-9.3300991,1.3305016c-0.7582998,0.1078987-1.3877001,0.639698-1.6220999,1.3681984  c-0.2339001,0.7290001-0.0312004,1.5278015,0.5219994,2.0571022l6.7285013,6.4360962l-1.5869007,9.0791016  c-0.1308994,0.7480011,0.1737995,1.5057983,0.7861004,1.9560013c0.6117992,0.4487,1.4263,0.5121994,2.101099,0.1654968  L32,77.4667969L40.3535004,81.777298z M25.3936005,76.375l1.0765991-6.1615982  c0.1147995-0.6572037-0.1054993-1.3281021-0.5879002-1.7896042l-4.5262985-4.3295975L27.6474991,63.1973  c0.6484013-0.0923004,1.2104015-0.4966011,1.5044003-1.0816002L32,56.4520988l2.8480988,5.6636009  c0.2940025,0.5849991,0.8560028,0.9892998,1.5044022,1.0816002l6.2915001,0.8969002l-4.5263023,4.3295975  c-0.482399,0.4615021-0.7026978,1.1324005-0.5878983,1.7896042L38.6063995,76.375l-5.6893997-2.935997  C32.6293983,73.2904968,32.3148994,73.216301,32,73.216301s-0.6294003,0.0741959-0.9169998,0.222702L25.3936005,76.375z"/><circle cx="100" cy="49" r="2"/><path d="M51.8638,10.3325005l-0.5458984,3.3456993c-0.1231003,0.7559004,0.1962967,1.5156002,0.822197,1.9570999  c0.6254997,0.4404011,1.4488029,0.4853001,2.1197014,0.1152L57,14.2354002l2.7402,1.5150995  C60.0424995,15.9174995,60.3754997,16,60.7080002,16c0.4048004,0,0.8081017-0.1225996,1.1519012-0.3647003  c0.6259003-0.4414997,0.9452972-1.2011995,0.822197-1.9570999L62.1362,10.3325005l2.2949982-2.3515406  c0.5239029-0.5366197,0.7031021-1.3207998,0.4653015-2.0317397s-0.8535004-1.2290101-1.5942993-1.3422904l-3.091301-0.4726496  L58.8105011,1.15039C58.480999,0.448242,57.7753983,0,57,0s-1.480999,0.448242-1.8105011,1.15039l-1.4003983,2.9838901  l-3.091301,0.4726496c-0.740799,0.1132803-1.3564987,0.63135-1.5942993,1.3422904s-0.0586014,1.49512,0.4653015,2.0317397  L51.8638,10.3325005z M55.4487,7.9272499c0.6591988-0.1005898,1.2251015-0.5234399,1.5083008-1.12745L57,6.7084999l0.0429993,0.0913  c0.2831993,0.6040101,0.849102,1.0268602,1.5083008,1.12745l0.2988014,0.0458899l-0.2812996,0.2880907  c-0.4433022,0.4545898-0.6450005,1.0922899-0.5429001,1.71875l0.0453987,0.2773199l-0.1035004-0.0576  C57.6665001,10.0332003,57.3334999,9.9502001,57,9.9502001s-0.6665001,0.0830002-0.9678001,0.2495003l-0.1035004,0.0576  l0.0453987-0.2773199c0.1021004-0.6264601-0.0995979-1.2641602-0.5429001-1.71875l-0.2812996-0.2880907L55.4487,7.9272499z"/></svg>