<svg xmlns="http://www.w3.org/2000/svg" data-name="Layer 1" viewBox="0 0 128 160" x="0px" y="0px"><title>miscellaneous 98 final</title><path d="M23,25.78418V118a10.01146,10.01146,0,0,0,10,10H95a10.01146,10.01146,0,0,0,10-10V25.78418A9.90529,9.90529,0,0,0,95,16V12a2,2,0,0,0,0-4V2a2.0001,2.0001,0,0,0-2-2H35a2.0001,2.0001,0,0,0-2,2V8a2,2,0,0,0,0,4v4A9.90529,9.90529,0,0,0,23,25.78418ZM36,124v-4H54l.00244,4ZM48,76H36V72H54l.00244,4Zm18,4,.00244,4H48V80H66ZM53,88l.00244,4H35V88H53Zm7,8,.00244,4H42V96H60Zm-6,8,.00244,4H36v-4H54Zm4,8,.00244,4H40v-4H58Zm12,4v-4H88l.00244,4H70Zm2-8v-4H90l.00244,4H72Zm2,16v-4H92l.00244,4ZM37,4H91V8H37Zm0,8H91v4H37Zm-2,8H95a5.90159,5.90159,0,0,1,6,5.78418V118a6.00448,6.00448,0,0,1-5,5.90967V120a4.00427,4.00427,0,0,0-4-4v-4a3.93413,3.93413,0,0,0-.05334-.52734A3.98657,3.98657,0,0,0,94,108v-4a4.00427,4.00427,0,0,0-4-4H83.31757a3.91452,3.91452,0,0,0,3.42755-2.05469l8.74609-15.88477a4.11374,4.11374,0,0,0-1.42773-5.46l-3.3667-2.03809a3.83924,3.83924,0,0,0-3.00488-.43066,3.92425,3.92425,0,0,0-2.437,1.92285L76.50879,91.93945a4.11374,4.11374,0,0,0,1.42773,5.46l3.3667,2.03809A3.84755,3.84755,0,0,0,83.28845,100H72a4.00427,4.00427,0,0,0-4,4v4a3.93413,3.93413,0,0,0,.05334.52734A3.98657,3.98657,0,0,0,66,112v4a4.00427,4.00427,0,0,0,4,4v4H58v-4a4.00427,4.00427,0,0,0,4-4v-4a4.00427,4.00427,0,0,0-4-4v-4h2a4.00427,4.00427,0,0,0,4-4V96a4.00427,4.00427,0,0,0-4-4H57V88h9a4.00427,4.00427,0,0,0,4-4V80a4.00427,4.00427,0,0,0-4-4H58V72a3.97848,3.97848,0,0,0-1.27014-2.90753L65.24512,73.542l.001.001a4.02622,4.02622,0,0,0,5.42041-1.69238l1.873-3.56641a3.98042,3.98042,0,0,0,.27734-3.05957c-.00854-.02734-.02393-.051-.033-.078l15.15558,8.3446a4.11651,4.11651,0,0,0,5.46-1.42773l2.0376-3.36523a3.83842,3.83842,0,0,0,.43164-3.00586,3.92244,3.92244,0,0,0-1.92334-2.4375L78.06055,54.50879a4.11651,4.11651,0,0,0-5.46,1.42773L70.563,59.30176a3.83842,3.83842,0,0,0-.43164,3.00586c.02161.08063.06116.1524.08752.23083L54.75391,54.457a4.03121,4.03121,0,0,0-5.42041,1.69238l-1.873,3.56641a4.00943,4.00943,0,0,0,1.69531,5.41895l5.63672,2.94537A3.9994,3.9994,0,0,0,54,68H36a4.00427,4.00427,0,0,0-4,4v4a4.00427,4.00427,0,0,0,4,4h8v4H35a4.00427,4.00427,0,0,0-4,4v4a4.00427,4.00427,0,0,0,4,4h3v4H36a4.00427,4.00427,0,0,0-4,4v4a4.00427,4.00427,0,0,0,4,4v4a4.00427,4.00427,0,0,0-4,4v3.90967A6.00448,6.00448,0,0,1,27,118V25.78418A5.90159,5.90159,0,0,1,33,20ZM83.27393,95.95508l-3.25781-1.9707a.12574.12574,0,0,1-.00342-.11523l8.71338-15.82422,3.25781,1.9707a.12574.12574,0,0,1,.00342.11523ZM51.00146,61.5752l1.90088-3.57227L68.99854,66.4248,67.123,69.99414a.02048.02048,0,0,1-.02588.00293Zm23.04346-.30078,1.97021-3.25781a.11679.11679,0,0,1,.11572-.00391l15.82422,8.71289L89.98486,69.9834a.12515.12515,0,0,1-.11572.00391Z"/><path d="M62.7182,49.80249v1.739a1.45326,1.45326,0,1,0,2.90649,0v-1.739C69.81232,49.39935,72,47.1637,72,43.75006c0-7.76111-11.40649-5.86792-11.40649-9.93365,0-1.24231.96881-2.45306,3.56238-2.45306a6.48,6.48,0,0,1,4.37531,1.64551,2.073,2.073,0,0,0,1.34351.6825,1.66838,1.66838,0,0,0,1.68762-1.64551,1.79156,1.79156,0,0,0-.31232-.99335,8.01007,8.01007,0,0,0-5.62531-2.79309v-1.801a1.45326,1.45326,0,1,0-2.90649,0v1.76935c-4,.43475-5.74939,2.82471-5.74939,5.58862,0,7.48059,11.40588,5.40033,11.40588,9.93365,0,1.92358-1.37469,2.855-4.21881,2.855a7.18355,7.18355,0,0,1-5.12469-2.35956,1.83829,1.83829,0,0,0-1.37531-.68243A1.66722,1.66722,0,0,0,56.25,46.1084,8.97379,8.97379,0,0,0,62.7182,49.80249Z"/></svg>