<svg xmlns="http://www.w3.org/2000/svg" data-name="Layer 1" viewBox="0 0 128 160" x="0px" y="0px"><title>miscellaneous 298 final</title><path d="M104.36743,38.11255a48.332,48.332,0,0,0-14.48-14.48,25.995,25.995,0,0,0-51.7749.00006A48.3316,48.3316,0,0,0,23.63263,38.11255a25.995,25.995,0,0,0,0,51.7749,48.3323,48.3323,0,0,0,14.47992,14.47992,25.995,25.995,0,0,0,51.7749.00006,48.332,48.332,0,0,0,14.48-14.48,25.995,25.995,0,0,0,0-51.7749ZM64,4A22,22,0,1,1,42,26,22.02489,22.02489,0,0,1,64,4ZM4,64A22,22,0,1,1,26,86,22.02489,22.02489,0,0,1,4,64Zm60,60a22,22,0,1,1,22-22A22.02489,22.02489,0,0,1,64,124ZM89.881,99.54889A25.99652,25.99652,0,0,0,38.119,99.549,44.35308,44.35308,0,0,1,28.45111,89.881a25.99652,25.99652,0,0,0,0-51.76208A44.35308,44.35308,0,0,1,38.119,28.451a25.99652,25.99652,0,0,0,51.76208.00006A44.35414,44.35414,0,0,1,99.54889,38.119a25.99652,25.99652,0,0,0,0,51.76208A44.35414,44.35414,0,0,1,89.881,99.54889ZM102,86a22,22,0,1,1,22-22A22.02489,22.02489,0,0,1,102,86Z"/><path d="M49.582,34.083c.167,1.47852.374,3.31934,1.69434,4.63965C52.59668,40.04395,54.43749,40.251,55.917,40.418a8.26464,8.26464,0,0,1,1.96.36426,7.82678,7.82678,0,0,1,1.543,1.08008C60.59668,42.81445,62.06055,44,64,44s3.40332-1.18555,4.58008-2.1377a7.82678,7.82678,0,0,1,1.543-1.08008,8.26464,8.26464,0,0,1,1.96-.36426c1.47852-.167,3.31934-.374,4.63965-1.69531C78.04395,37.40234,78.251,35.56152,78.418,34.083a8.26464,8.26464,0,0,1,.36426-1.96,7.82678,7.82678,0,0,1,1.08008-1.543C80.81445,29.40332,82,27.93945,82,26s-1.18555-3.40332-2.1377-4.58008A7.80133,7.80133,0,0,1,78.78223,19.876a8.22668,8.22668,0,0,1-.36426-1.959c-.167-1.47852-.374-3.31934-1.69434-4.63965C75.40332,11.95605,73.56249,11.749,72.083,11.582a8.26464,8.26464,0,0,1-1.96-.36426,7.82678,7.82678,0,0,1-1.543-1.08008C67.40332,9.18555,65.93945,8,64,8s-3.40332,1.18555-4.58008,2.1377a7.82678,7.82678,0,0,1-1.543,1.08008,8.26464,8.26464,0,0,1-1.96.36426c-1.47852.167-3.31934.374-4.63965,1.69531C49.95605,14.59766,49.749,16.43848,49.582,17.917a8.26464,8.26464,0,0,1-.36426,1.96,7.82678,7.82678,0,0,1-1.08008,1.543C47.18555,22.59668,46,24.06055,46,26s1.18555,3.40332,2.1377,4.58008A7.80133,7.80133,0,0,1,49.21777,32.124,8.22668,8.22668,0,0,1,49.582,34.083Zm1.665-10.14648a10.45965,10.45965,0,0,0,1.66406-2.52441,11.12729,11.12729,0,0,0,.64648-3.04785,4.96989,4.96989,0,0,1,.54785-2.25879,4.96989,4.96989,0,0,1,2.25879-.54785,11.12729,11.12729,0,0,0,3.04785-.64648,10.45965,10.45965,0,0,0,2.52441-1.66406C62.65918,12.66211,63.47656,12,64,12s1.34082.66211,2.06348,1.24707a10.45965,10.45965,0,0,0,2.52441,1.66406,11.12729,11.12729,0,0,0,3.04785.64648,4.96989,4.96989,0,0,1,2.25879.54785,4.97106,4.97106,0,0,1,.54785,2.25977,11.12075,11.12075,0,0,0,.64648,3.04688,10.45965,10.45965,0,0,0,1.66406,2.52441C77.33789,24.65918,78,25.47656,78,26s-.66211,1.34082-1.24707,2.06348a10.45965,10.45965,0,0,0-1.66406,2.52441,11.12729,11.12729,0,0,0-.64648,3.04785,4.96989,4.96989,0,0,1-.54785,2.25879,4.96989,4.96989,0,0,1-2.25879.54785,11.12729,11.12729,0,0,0-3.04785.64648,10.45965,10.45965,0,0,0-2.52441,1.66406C65.34082,39.33789,64.52344,40,64,40s-1.34082-.66211-2.06348-1.24707a10.45965,10.45965,0,0,0-2.52441-1.66406,11.12729,11.12729,0,0,0-3.04785-.64648,4.96989,4.96989,0,0,1-2.25879-.54785,4.97106,4.97106,0,0,1-.54785-2.25977,11.12075,11.12075,0,0,0-.64648-3.04687,10.45965,10.45965,0,0,0-1.66406-2.52441C50.66211,27.34082,50,26.52344,50,26S50.66211,24.65918,51.24707,23.93652Z"/><path d="M79.41406,96.58594a1.99927,1.99927,0,0,0-2.82812,0L73.17188,100H68.82813l3.58594-3.58594a1.99979,1.99979,0,0,0-2.82812-2.82812L66,97.17188V94.32813l3.41406-3.41406a1.99979,1.99979,0,0,0-2.82812-2.82812L66,88.67188V86a2,2,0,0,0-4,0v2.67188l-.58594-.58594a1.99979,1.99979,0,0,0-2.82812,2.82813L62,94.32813v2.84375l-3.58594-3.58594a1.99979,1.99979,0,0,0-2.82812,2.82813L59.17188,100H54.82813l-3.41406-3.41406a1.99979,1.99979,0,0,0-2.82812,2.82813L49.17188,100H48a2,2,0,0,0,0,4h1.17188l-.58594.58594a1.99979,1.99979,0,1,0,2.82813,2.82813L54.82813,104h4.34375l-3.58594,3.58594a1.99979,1.99979,0,1,0,2.82813,2.82813L62,106.82813v2.84375l-3.41406,3.41406a1.99979,1.99979,0,0,0,2.82813,2.82813L62,115.32813V118a2,2,0,0,0,4,0v-2.67187l.58594.58594a1.99979,1.99979,0,0,0,2.82813-2.82812L66,109.67188v-2.84375l3.58594,3.58594a1.99979,1.99979,0,0,0,2.82813-2.82812L68.82813,104h4.34375l3.41406,3.41406a1.99979,1.99979,0,0,0,2.82813-2.82812L78.82813,104H80a2,2,0,0,0,0-4H78.82813l.58594-.58594A1.99927,1.99927,0,0,0,79.41406,96.58594Z"/><path d="M64,35a9,9,0,1,0-9-9A9.00984,9.00984,0,0,0,64,35Zm0-14a5,5,0,1,1-5,5A5.00589,5.00589,0,0,1,64,21Z"/><path d="M106.707,48.14746a1.99938,1.99938,0,0,0-1.43359,1.44727c-.75684,3.00879-2.98535,4.54785-6.58105,6.1875-3.252,1.4834-7.70605,3.51465-8.69531,8.43848a10.80978,10.80978,0,0,0,2.98553,9.74469l-2.24628,2.66351A1.99973,1.99973,0,1,0,93.79395,79.207l2.6-3.08295a13.42678,13.42678,0,0,0,12.72028-1.67389,13.38879,13.38879,0,0,0,5.03809-9.9043A21.85852,21.85852,0,0,0,108.665,48.707,2.00253,2.00253,0,0,0,106.707,48.14746Zm3.458,16.085a9.62445,9.62445,0,0,1-3.49219,7.04883,9.34566,9.34566,0,0,1-7.48138,1.5257l2.49408-2.95734a1.99973,1.99973,0,1,0-3.05762-2.57812l-3.049,3.6153a6.8342,6.8342,0,0,1-1.66-5.878c.5459-2.71777,2.90137-3.97656,6.43359-5.58789,2.64746-1.207,5.4834-2.7041,7.2998-5.4248A18.23583,18.23583,0,0,1,110.165,64.23242Z"/><path d="M42.44867,69.09406a4.00007,4.00007,0,0,0-.3241-3.39294l-.25189-.42468a4.00026,4.00026,0,0,0-1.54309-6.55627q.01208-.15546.01215-.314a3.998,3.998,0,0,0-3.98639-3.99994l-.01562-.00006-.05786.00043-.00348.00006h-.00006a3.98885,3.98885,0,0,0-1.32544.24628l.11322-.47894a4.00264,4.00264,0,0,0-3.84094-5.07709h-.01508q-.05576,0-.11169.00159a3.99092,3.99092,0,0,0-1.08563.18085L29.726,48.545a4,4,0,0,0-7.4519,0l-.28711.73517A4.00019,4.00019,0,0,0,16.87256,53.908l.15283.738a4.00024,4.00024,0,0,0-5.35242,4.0733,4.00024,4.00024,0,0,0-1.54565,6.55719l-.25189.42468A4,4,0,0,0,11.91138,71.487a4.00072,4.00072,0,0,0,1.33368,4.99908,8.46511,8.46511,0,0,0,4.92267,1.514A12.8658,12.8658,0,0,0,24,76.40552V81.75a2,2,0,0,0,4,0V76.40558a12.86434,12.86434,0,0,0,5.83228,1.59454,8.46473,8.46473,0,0,0,4.92267-1.5141,4.00062,4.00062,0,0,0,1.33368-4.999A4.00014,4.00014,0,0,0,42.44867,69.09406Zm-5.65918-4.54687,1.89471,3.19446L34,69.42853l2.47369,3.77185a4.53,4.53,0,0,1-2.64142.79974A11.06464,11.06464,0,0,1,28,71.72369V63.68164a2,2,0,0,0-4,0v8.042a11.0651,11.0651,0,0,1-5.83228,2.27649,4.52872,4.52872,0,0,1-2.64142-.79974L18,69.42853l-4.6842-1.68689,1.89471-3.19446L13,62.49292l3.3158.26239-.655-4.34918,4.656,3.512a1.25517,1.25517,0,0,0,.76233.26233,1.30289,1.30289,0,0,0,1.26465-1.57758l-1.55426-7.506,3.26312,1.88953L26,50.00012l1.94739,4.98627,3.26312-1.88953-1.85168,7.83282a1.30369,1.30369,0,0,0,1.25732,1.61414,1.25358,1.25358,0,0,0,.77881-.276l4.94427-3.86169-.655,3.69678,3.3158.39Z"/></svg>