<svg xmlns="http://www.w3.org/2000/svg" data-name="Layer 1" viewBox="0 0 128 160" x="0px" y="0px"><title>miscellaneous 199_expandline</title><path d="M8,59a2.0001,2.0001,0,0,0-2,2v6a2,2,0,0,0,4,0V61A2.0001,2.0001,0,0,0,8,59Z"/><path d="M16,57a2.00009,2.00009,0,0,0-2,2V69a2,2,0,0,0,4,0V59A2.00009,2.00009,0,0,0,16,57Z"/><path d="M24,53a2.00009,2.00009,0,0,0-2,2V73a2,2,0,0,0,4,0V55A2.00009,2.00009,0,0,0,24,53Z"/><path d="M32,46a2.00009,2.00009,0,0,0-2,2V80a2,2,0,0,0,4,0V48A2.00009,2.00009,0,0,0,32,46Z"/><path d="M40,39a2.00009,2.00009,0,0,0-2,2V87a2,2,0,0,0,4,0V41A2.00009,2.00009,0,0,0,40,39Z"/><path d="M48,29a2.00009,2.00009,0,0,0-2,2V97a2,2,0,0,0,4,0V31A2.00009,2.00009,0,0,0,48,29Z"/><path d="M56,21a2.00009,2.00009,0,0,0-2,2v82a2,2,0,0,0,4,0V23A2.00009,2.00009,0,0,0,56,21Z"/><path d="M122,67V61a2,2,0,0,0-4,0v6a2,2,0,0,0,4,0Z"/><path d="M112,57a2.00009,2.00009,0,0,0-2,2V69a2,2,0,0,0,4,0V59A2.00009,2.00009,0,0,0,112,57Z"/><path d="M104,53a2.00009,2.00009,0,0,0-2,2V73a2,2,0,0,0,4,0V55A2.00009,2.00009,0,0,0,104,53Z"/><path d="M96,46a2.00009,2.00009,0,0,0-2,2V80a2,2,0,0,0,4,0V48A2.00009,2.00009,0,0,0,96,46Z"/><path d="M88,39a2.00009,2.00009,0,0,0-2,2V87a2,2,0,0,0,4,0V41A2.00009,2.00009,0,0,0,88,39Z"/><path d="M80,29a2.00009,2.00009,0,0,0-2,2V97a2,2,0,0,0,4,0V31A2.00009,2.00009,0,0,0,80,29Z"/><path d="M72,21a2.00009,2.00009,0,0,0-2,2v82a2,2,0,0,0,4,0V23A2.00009,2.00009,0,0,0,72,21Z"/><path d="M64,11a2.00009,2.00009,0,0,0-2,2V115a2,2,0,0,0,4,0V13A2.00009,2.00009,0,0,0,64,11Z"/><path d="M126,79h-4a2,2,0,0,0,0,4h4a2,2,0,0,0,0-4Z"/><path d="M2,49H6a2,2,0,0,0,0-4H2a2,2,0,0,0,0,4Z"/><path d="M122,49h4a2,2,0,0,0,0-4h-4a2,2,0,0,0,0,4Z"/><path d="M6,79H2a2,2,0,0,0,0,4H6a2,2,0,0,0,0-4Z"/></svg>