<svg xmlns="http://www.w3.org/2000/svg" data-name="Layer 1" viewBox="0 0 128 160" x="0px" y="0px"><title>iOS optimized seo 01 final</title><path d="M40.857,49.89111a38.16511,38.16511,0,0,1,3.35077-2.31531L30.83008,15.19489a1.99975,1.99975,0,1,0-3.66016,1.61224Z"/><path d="M59.22369,42.31152c.45435-.05725.9101-.10931,1.3692-.15033l1.49591-3.32184L52.83887,15.21442a2,2,0,0,0-3.67773,1.57318Z"/><path d="M100.83008,16.80713a1.99975,1.99975,0,1,0-3.66016-1.61224L83.79224,47.57581A38.16511,38.16511,0,0,1,87.143,49.89111Z"/><path d="M78.83887,16.7876a2,2,0,0,0-3.67773-1.57318L64.55292,42.01477a38.13855,38.13855,0,0,1,4.22345.29675Z"/><path d="M30,80.00037A34,34,0,1,0,64,46.00067,34.03841,34.03841,0,0,0,30,80.00037ZM64,50.00067A29.99966,29.99966,0,1,1,34,80.00037,29.99982,29.99982,0,0,1,64,50.00067Z"/><path d="M40.67249,87.691a14.93268,14.93268,0,0,1,1.14978,1.99683,16.029,16.029,0,0,1,.6524,2.35956c.48572,2.13287,1.09027,4.78729,3.14044,6.83734,2.05011,2.05023,4.70459,2.65485,6.83752,3.14063a16.03259,16.03259,0,0,1,2.35968.65247,14.93963,14.93963,0,0,1,1.99689,1.14978c1.866,1.19061,4.18842,2.67249,7.1908,2.67249s5.32471-1.48181,7.19067-2.67249a14.949,14.949,0,0,1,1.99689-1.14972,16.02347,16.02347,0,0,1,2.35968-.6524c2.13281-.48578,4.78723-1.09027,6.8374-3.14038s2.65479-4.70465,3.14063-6.83759a16.024,16.024,0,0,1,.65247-2.35962,14.92834,14.92834,0,0,1,1.14972-1.99677C88.51813,85.82507,90,83.50269,90,80.50031s-1.48181-5.32458-2.67242-7.19055a14.93671,14.93671,0,0,1-1.14978-1.99689,16.026,16.026,0,0,1-.65247-2.35974c-.48572-2.13275-1.09027-4.78711-3.14032-6.83722-2.05023-2.05017-4.70471-2.65479-6.83759-3.14062a16.02387,16.02387,0,0,1-2.35974-.65247A14.93291,14.93291,0,0,1,71.1908,57.173c-1.866-1.19061-4.18842-2.67242-7.1908-2.67242s-5.32471,1.48181-7.19073,2.67242a14.9394,14.9394,0,0,1-1.99683,1.14978,16.02305,16.02305,0,0,1-2.35962.65234c-2.13287.48578-4.78729,1.09033-6.8374,3.14044s-2.65485,4.70459-3.14062,6.83746a16.025,16.025,0,0,1-.65247,2.35968,14.9403,14.9403,0,0,1-1.14978,1.99683C39.48187,75.17554,38,77.49792,38,80.50031S39.48181,85.825,40.67249,87.691Zm4.84473-14.846c1.06439-2.56671.99225-5.96667,2.92657-7.901s5.33423-1.862,7.90088-2.92627c2.476-1.02673,4.808-3.51715,7.65533-3.51715s5.17938,2.49042,7.65546,3.51721c2.56671,1.06427,5.96674.99219,7.90106,2.92651s1.862,5.33417,2.92633,7.90076C83.50958,75.321,86,77.653,86,80.50031s-2.49042,5.17938-3.51721,7.6554c-1.06433,2.56671-.99225,5.96667-2.92657,7.90094S74.222,97.91864,71.6554,98.983c-2.47607,1.02673-4.808,3.51715-7.6554,3.51715s-5.17938-2.49042-7.65546-3.51721c-2.56671-1.06439-5.96674-.99225-7.901-2.92651s-1.86206-5.33417-2.92633-7.90076C44.49042,85.67963,42,83.34766,42,80.50031S44.49042,75.32092,45.51721,72.845Z"/><path d="M57.252,90.47144A1.9985,1.9985,0,0,0,59,91.50024H69a1.9985,1.9985,0,0,0,1.748-1.02881l5-8.99994a1.99766,1.99766,0,0,0,0-1.94232l-5-8.99994A1.9985,1.9985,0,0,0,69,69.50043H59a1.9985,1.9985,0,0,0-1.748,1.02881l-5,8.99994a1.99766,1.99766,0,0,0,0,1.94232Zm2.9248-16.971h7.64648l3.88867,6.99988-3.88867,6.99994H60.17676l-3.88867-6.99994Z"/></svg>