<svg xmlns="http://www.w3.org/2000/svg" data-name="Layer 1" viewBox="0 0 128 160" x="0px" y="0px"><title>Miscellaneous 107 expandlines</title><path d="M110.92786,108.09973l-2.51868-28.339a178.27614,178.27614,0,0,1,0-31.52051l2.51874-28.34L127.41406,3.41406A1.99979,1.99979,0,0,0,124.58594.58594L108.09973,17.07214l-28.339,2.51917a178.47372,178.47372,0,0,1-31.52148,0l-28.339-2.51917L3.41406.58594A1.99979,1.99979,0,0,0,.58594,3.41406L17.07208,19.90021l2.51874,28.34a178.27614,178.27614,0,0,1,0,31.52051l-2.51868,28.339L.58594,124.58594a1.99979,1.99979,0,1,0,2.82813,2.82813l16.48621-16.48621,28.339-2.51868a178.47372,178.47372,0,0,1,31.52148,0l28.339,2.51868,16.48621,16.48621a1.99979,1.99979,0,0,0,2.82813-2.82812ZM86.82813,44,94,36.82813,101.17188,44,94,51.17188Zm14.34375,20L94,71.17188,86.82813,64,94,56.82813Zm-10-10L84,61.17188,76.82813,54,84,46.82813Zm-10,10L74,71.17188,66.82813,64,74,56.82813ZM74,51.17188,66.82813,44,74,36.82813,81.17188,44ZM71.17188,54,64,61.17188,56.82813,54,64,46.82813Zm-10,10L54,71.17188,46.82813,64,54,56.82813ZM54,51.17188,46.82813,44,54,36.82813,61.17188,44ZM51.17188,54,44,61.17188,36.82813,54,44,46.82813Zm-10,10L34,71.17188,26.82813,64,34,56.82813ZM34,51.17188,26.82813,44,34,36.82813,41.17188,44ZM31.17188,54l-6.9173,6.9173q-.11014-6.53284-.67938-13.03156l-.05164-.58118L24,46.82813ZM23.5752,80.11426q.57724-6.48853.67938-13.03156L31.17188,74,24,81.17188l-.47644-.47644ZM34,76.82813,41.17188,84,34,91.17188,26.82813,84ZM36.82813,74,44,66.82813,51.17188,74,44,81.17188ZM54,76.82813,61.17188,84,54,91.17188,46.82813,84ZM56.82813,74,64,66.82813,71.17188,74,64,81.17188ZM74,76.82813,81.17188,84,74,91.17188,66.82813,84ZM76.82813,74,84,66.82813,91.17188,74,84,81.17188ZM94,76.82813,101.17188,84,94,91.17188,86.82813,84ZM96.82813,74l6.91736-6.91736q.11014,6.53284.67932,13.03162l.05164.58118L104,81.17188Zm7.59668-26.11426q-.57724,6.48862-.67932,13.03162L96.82813,54,104,46.82813l.47644.47644ZM104,41.17188,96.82813,34,106.52,24.30811l-1.399,15.74274ZM87.949,22.87915l15.74335-1.3996L94,31.17188,86.82813,24ZM91.17188,34,84,41.17188,76.82813,34,84,26.82813ZM80.11426,23.57568l.5816-.0517.476.476L74,31.17188l-6.91754-6.91754Q73.61575,24.14429,80.11426,23.57568ZM71.17188,34,64,41.17188,56.82813,34,64,26.82813ZM47.30414,23.524l.5816.0517q6.48816.5766,13.0318.67865L54,31.17188,46.82813,24ZM51.17188,34,44,41.17188,36.82813,34,44,26.82813ZM40.051,22.87915,41.17188,24,34,31.17188l-9.69232-9.69232ZM31.17188,34,24,41.17188l-1.121-1.121L21.48,24.30811Zm-8.293,53.94922L24,86.82813,31.17188,94l-9.692,9.692Zm17.17188,17.17188-15.74274,1.399L34,96.82813,41.17188,104ZM36.82813,94,44,86.82813,51.17188,94,44,101.17188Zm11.05762,10.4248-.58118.05164L46.82813,104,54,96.82813l6.91779,6.91779Q54.38477,103.85587,47.88574,104.4248ZM56.82813,94,64,86.82813,71.17188,94,64,101.17188Zm23.86728,10.47644c-4.52887-.40213-9.06678-.65407-13.61313-.73059L74,96.82813,81.17188,104ZM76.82813,94,84,86.82813,91.17188,94,84,101.17188Zm11.12109,11.12109L86.82813,104,94,96.82813l9.692,9.692ZM96.82813,94,104,86.82813l1.12109,1.12109,1.399,15.74274Z"/></svg>