<svg xmlns="http://www.w3.org/2000/svg" data-name="Layer 1" viewBox="0 0 128 160" x="0px" y="0px"><title>Miscellaneous- 245_Expanded</title><path d="M95,40h8V53.93994l4,3.47577V40a4.00458,4.00458,0,0,0-4-4H95a4.00458,4.00458,0,0,0-4,4v3.5127l4,3.47577Z"/><path d="M125.23682,78.561,65.312,26.49023a2.00153,2.00153,0,0,0-2.624,0L2.76367,78.561A8.03519,8.03519,0,0,0,0,84.63037V97.98682a3.99908,3.99908,0,0,0,6.603,3.04443L64,51.73486l57.39746,49.29688a3.96587,3.96587,0,0,0,2.59082.97119,4.01309,4.01309,0,0,0,1.67822-.37109A3.96964,3.96964,0,0,0,128,97.98682V84.63037A8.0364,8.0364,0,0,0,125.23682,78.561ZM65.30322,47.58154a1.99995,1.99995,0,0,0-2.60645,0L4,97.98682V84.63037a4.0353,4.0353,0,0,1,1.38721-3.0498L64,30.64941l58.61279,50.93115h.00049A4.03652,4.03652,0,0,1,124,84.63037l.00342,13.3667Z"/><path d="M74,70H54a4.00458,4.00458,0,0,0-4,4V92a4.00458,4.00458,0,0,0,4,4H74a4.00458,4.00458,0,0,0,4-4V74A4.00458,4.00458,0,0,0,74,70Zm-8,4h8l.001,7H66ZM62,92H54V85h8Zm0-11H54V74h8Zm4,11V85h8.00146l.001,7Z"/></svg>