<svg xmlns="http://www.w3.org/2000/svg" xmlns:xlink="http://www.w3.org/1999/xlink" version="1.1" x="0px" y="0px" viewBox="0 0 128 160" style="enable-background:new 0 0 128 128;" xml:space="preserve"><g><path d="M4.5844922,69.2538986c-0.6230998-0.5781021-0.9360998-1.2031021-0.8818998-1.7587967   c0.0542002-0.555603,0.4825001-1.107399,1.2056003-1.5547028l6.9911995-4.3203011l-1.1875-1.9598999   c-0.2851-0.5038986-0.5234003-1.024498-0.7388-1.5507965l-7.1673994,4.4286995   c-3.7431998,2.3125-4.1669998,6.6542969-0.9424,9.6473999l37.027298,34.3721008   c0.1376991,0.1278992,0.2969017,0.2421951,0.4444084,0.3632965l-7.4819984-12.3544998L4.5844922,69.2538986z"/><path d="M43.1981926,97.5723038L17.5341911,54.5634995c-0.4750996-0.7958984-0.6015987-1.625-0.355999-2.3339996   s0.8579006-1.2812996,1.7231998-1.6133003l6.0942001-2.3348999c-0.4370003-1.327198-0.6665001-2.6767998-0.6996994-4.014698   l-6.825201,2.6142998c-4.1088991,1.5741997-5.6259995,5.9540977-3.3715992,9.732399l29.5473995,49.5165977   c1.0971985,1.8389053,2.9398994,3.3153992,5.0293007,4.2597046c-0.8985023-1.1367035-1.6294022-2.413002-2.1464996-3.8105011   L43.1981926,97.5723038z"/><path d="M45.0683899,89.2627029l0.5669022-9.6895065L32.7323914,45.9375   c-0.5615005-1.4648018-0.5067978-3.0186005,0.153801-4.3769989c0.6601982-1.3574028,1.8495979-2.3593025,3.3481979-2.8212013   l12.0068016-3.6992989l0.2495003-4.262701L35.056591,34.9169998c-2.5687981,0.7910004-4.6170998,2.5293007-5.7674999,4.8935013   c-1.1504002,2.3652992-1.2538986,5.0489006-0.2910919,7.5585976L45.0683899,89.2627029z"/><path d="M120.0136871,22.8974991l-58.8407974-3.4316998c-0.1562996-0.0087986-0.3115997-0.0136986-0.465889-0.0136986v4   c0.0771904,0,0.154789,0.0019989,0.2328911,0.0068989l58.8413963,3.4316006   c1.0576019,0.0615005,2.0332031,0.5370998,2.7470016,1.3398991c0.7138977,0.8027,1.0733032,1.8271008,1.0108032,2.8857002   l-4.2510071,72.6631012c-0.1239929,2.1133041-1.8778992,3.7686005-3.994194,3.7686005   c-0.0781021,0-0.1552048-0.0019989-0.2342987-0.006897l-58.8408012-3.4316025   c-1.0572014-0.0615005-2.0327911-0.5370941-2.7471008-1.3398972c-0.7139015-0.8027039-1.0732994-1.8281021-1.0112991-2.885704   l4.2519989-72.664093c0.1235008-2.112299,1.8778992-3.7675991,3.9937019-3.7675991l0.0009079-4h-0.0009079   c-4.1919022,0-7.7392998,3.2978992-7.9869003,7.5341988l-4.2518997,72.6641006   c-0.2569008,4.392601,3.1264992,8.1963043,7.5189972,8.4521027l58.8407974,3.4317017   c0.1563034,0.0087967,0.3115997,0.0136948,0.4668045,0.0136948c4.1923981,0,7.7382965-3.2978973,7.9873962-7.5341949   l4.2509003-72.6641006C127.7900009,26.9570007,124.4062881,23.1532993,120.0136871,22.8974991z"/><path d="M62.8803902,67.9961014l49.9995003,3C112.9208908,70.9990005,112.9618912,71,113.0019989,71   c1.0497894,0,1.9305878-0.8183975,1.9940872-1.8798981c0.0664063-1.1025009-0.7733994-2.0508041-1.8759995-2.1162033l-50.0004959-3   c-1.0825005-0.0790977-2.0493011,0.7733994-2.1161995,1.8759995C60.9374924,66.982399,61.7777901,67.9307022,62.8803902,67.9961014   z"/><path d="M60.0033913,73.8827972c-0.0648994,1.1026001,0.7764015,2.0488052,1.8788986,2.1133041l51.0004997,3   C112.9228897,78.9990005,112.9618912,79,113.0019989,79c1.0506897,0,1.9315872-0.8202972,1.9940872-1.8827972   c0.0654068-1.1026001-0.7763977-2.0488052-1.8788986-2.1133041l-50.9994965-3   C61.0165901,71.9218979,60.0683899,72.7802963,60.0033913,73.8827972z"/><path d="M113.1171875,83.0038986l-50.9994965-3c-1.1011009-0.0858994-2.0493011,0.7763977-2.1142998,1.8788986   c-0.0648994,1.1026001,0.7764015,2.0488052,1.8788986,2.1133041l51.0004997,3   C112.9228897,86.9990005,112.9618912,87,113.0019989,87c1.0506897,0,1.9315872-0.8202972,1.9940872-1.8827972   C115.0614929,84.0146027,114.2196884,83.0683975,113.1171875,83.0038986z"/><path d="M65.3505936,88.0098038c-3.3320007-0.1914063-6.1489029,2.3544998-6.3403015,5.639595   c-0.0937996,1.6006012,0.4413986,3.1406021,1.5067978,4.3378983c1.065403,1.198204,2.5331993,1.9092026,4.1327972,2.0028992   C64.7685928,99.9971008,64.8861923,100,65.003891,100c3.1708984,0,5.8007965-2.4813995,5.9862976-5.6493988   c0.0928116-1.6006012-0.4422989-3.1406021-1.5077972-4.3378983C68.4179993,88.8144989,66.9501877,88.1035004,65.3505936,88.0098038   z M65.003891,96l-0.1205978-0.0038986c-0.5332031-0.030304-1.0225029-0.267601-1.3774033-0.6669998   c-0.3549995-0.3993988-0.533699-0.9131012-0.5024986-1.4453049C63.0648918,92.8271027,63.9403915,92,64.9965897,92   l0.1195984,0.0038986c0.5332031,0.030304,1.0224991,0.267601,1.3778992,0.6669998   c0.3555069,0.3993988,0.5332031,0.9131012,0.5020065,1.4453049C66.9345932,95.1728973,66.0595932,96,65.003891,96z"/><path d="M65.2792892,60.0264015l46.919899,2.7402c0.0791016,0.0048981,0.1572037,0.0067978,0.235405,0.0067978   c2.094696,0,3.8671951-1.6493988,3.9911957-3.7665977l1.3407974-22.9609032   c0.1289063-2.1962967-1.5634995-4.0976982-3.7597961-4.2265987l-46.919899-2.7402   c-0.0791016-0.0049-0.1572037-0.0067997-0.2352982-0.0067997c-2.0948029,0-3.8672028,1.6494007-3.9912033,3.7666016   l-1.3409004,22.9608994C61.3910904,57.9961014,63.0830002,59.8974991,65.2792892,60.0264015z M89.0820007,47.5214996   l21.8652878,11.1650009l-43.4356003-2.5361023L89.0820007,47.5214996z M112.6493912,55.0644989l-18.6348038-9.5156975   l19.6495056-7.8593025L112.6493912,55.0644989z M89.2821884,43.1328011l-19.3485947-9.8808022l38.4374924,2.2451019   L89.2821884,43.1328011z M66.6874924,36.0858994l17.6631012,9.0195999l-18.6328049,7.4531021L66.6874924,36.0858994z"/></g></svg>