<svg xmlns="http://www.w3.org/2000/svg" data-name="Layer 1" viewBox="0 0 128 160" x="0px" y="0px"><title>Miscellaneous 219_Expanded</title><path d="M15,104c0,8.93164,25.40039,13,49,13s49-4.06836,49-13c0-4.455-6.32074-7.69958-15.584-9.83337a39.80131,39.80131,0,0,1-2.65985,3.58527C104.0957,99.71777,109,102.304,109,104c0,3.05469-15.88379,9-45,9s-45-5.94531-45-9c0-1.696,4.9043-4.28223,14.24384-6.24811A39.8013,39.8013,0,0,1,30.584,94.16663C21.32074,96.30042,15,99.545,15,104Z"/><path d="M102.03613,84.57886c-.40771,1.24347-.88507,2.4704-1.41925,3.68237C115.31281,92.16687,124,98.20508,124,104c0,9.6582-24.10937,20-60,20S4,113.6582,4,104c0-5.79492,8.68726-11.83319,23.38324-15.73883-.53412-1.21191-1.01135-2.43884-1.41895-3.68243C10.12286,88.907,0,95.92712,0,104c0,13.458,28.1123,24,64,24s64-10.542,64-24C128,95.92725,117.87738,88.90717,102.03613,84.57886Z"/><path d="M64,108A35.52911,35.52911,0,0,0,95.12988,90.2793a36.01781,36.01781,0,0,0-.05078-36.30322L65.749,1.03076a1.99928,1.99928,0,0,0-3.498,0L32.93359,53.95215a36.032,36.032,0,0,0-.06348,36.32715A35.52911,35.52911,0,0,0,64,108ZM36.41895,55.91455,64,6.12744l27.59375,49.811a32.06767,32.06767,0,0,1,.07617,32.334A31.56923,31.56923,0,0,1,64,104,31.56923,31.56923,0,0,1,36.33008,88.27246,32.082,32.082,0,0,1,36.41895,55.91455Z"/><path d="M52.082,94.11914a2.00006,2.00006,0,0,0,1.97852-3.47656A22.82272,22.82272,0,0,1,42.89844,74.69922a2.00034,2.00034,0,1,0-3.93945.69727A26.81639,26.81639,0,0,0,52.082,94.11914Z"/></svg>