<svg xmlns="http://www.w3.org/2000/svg" data-name="Layer 1" viewBox="0 0 128 160" x="0px" y="0px"><title>Micellaneous 211_Expanded</title><path d="M71,44a2.0001,2.0001,0,0,0-2-2H59a2.0001,2.0001,0,0,0-2,2V54a2.0001,2.0001,0,0,0,2,2H69a2.0001,2.0001,0,0,0,2-2Zm-4,8H61V46h6Z"/><path d="M52,44a2.0001,2.0001,0,0,0-2-2H40a2.0001,2.0001,0,0,0-2,2V54a2.0001,2.0001,0,0,0,2,2H50a2.0001,2.0001,0,0,0,2-2Zm-4,8H42V46h6Z"/><path d="M90,44a2.0001,2.0001,0,0,0-2-2H78a2.0001,2.0001,0,0,0-2,2V54a2.0001,2.0001,0,0,0,2,2H88a2.0001,2.0001,0,0,0,2-2Zm-4,8H80V46h6Z"/><path d="M69,64H59a2.0001,2.0001,0,0,0-2,2V76a2.0001,2.0001,0,0,0,2,2H69a2.0001,2.0001,0,0,0,2-2V66A2.0001,2.0001,0,0,0,69,64ZM67,74H61V68h6Z"/><path d="M52,76V66a2.0001,2.0001,0,0,0-2-2H40a2.0001,2.0001,0,0,0-2,2V76a2.0001,2.0001,0,0,0,2,2H50A2.0001,2.0001,0,0,0,52,76Zm-4-2H42V68h6Z"/><path d="M90,76V66a2.0001,2.0001,0,0,0-2-2H78a2.0001,2.0001,0,0,0-2,2V76a2.0001,2.0001,0,0,0,2,2H88A2.0001,2.0001,0,0,0,90,76Zm-4-2H80V68h6Z"/><path d="M84,114H81v4h3a2,2,0,0,0,0-4Z"/><path d="M42,116a2.0001,2.0001,0,0,0,2,2h3v-4H44A2.0001,2.0001,0,0,0,42,116Z"/><path d="M84,106H81v4h3a2,2,0,0,0,0-4Z"/><path d="M47,106H44a2,2,0,0,0,0,4h3Z"/><path d="M23,34h82a1.99984,1.99984,0,0,0,1.34375-3.481L94.29785,19.58936A6.14132,6.14132,0,0,0,90.16211,18H75v4H90.16211a2.15183,2.15183,0,0,1,1.44873.55176L99.81934,30H28.18066l8.208-7.44775A2.152,2.152,0,0,1,37.83789,22H53v2a2,2,0,0,0,4,0V2a2,2,0,0,0-4,0V18H37.83789a6.14155,6.14155,0,0,0-4.13623,1.58984L21.65625,30.519A1.99984,1.99984,0,0,0,23,34Z"/><path d="M67,24a2,2,0,0,0,4,0V10a2,2,0,0,0-4,0v8H61v4h6Z"/><path d="M119.99951,73.20068a4.35823,4.35823,0,0,0-5.999,0C111.0127,76.084,106,81.97021,106,89s5.0127,12.916,8.00049,15.79932a4.18126,4.18126,0,0,0,.99951.69312V126a2,2,0,0,0,4,0V105.49225a4.18575,4.18575,0,0,0,.99951-.69293C122.9873,101.916,128,96.02979,128,89S122.9873,76.084,119.99951,73.20068ZM119,100.04211V91a2,2,0,0,0-4,0v9.04205C112.7818,97.49042,110,93.4137,110,89c0-5.75879,4.73975-10.9541,6.77783-12.92041a.34988.34988,0,0,1,.44434,0C119.26025,78.0459,124,83.24121,124,89,124,93.4137,121.2182,97.49048,119,100.04211Z"/><path d="M5,124H2a2,2,0,0,0,0,4H5.34882A5.97555,5.97555,0,0,1,5,126Z"/><path d="M111,124H99V54h14V69.03125a8.40462,8.40462,0,0,1,4-1.01379V54a4.00458,4.00458,0,0,0-4-4H99V38H95v68H92a2,2,0,0,0,0,4h3v4H92a2,2,0,0,0,0,4h3v6H77V101a13,13,0,0,0-26,0v23H33v-6h3a2,2,0,0,0,0-4H33v-4h3a2,2,0,0,0,0-4H33V38H29V50H15a4.00458,4.00458,0,0,0-4,4V68.01746a8.40543,8.40543,0,0,1,4,1.01373V54H29v70H17v2a5.97555,5.97555,0,0,1-.34882,2h94.69763A5.97555,5.97555,0,0,1,111,126Zm-38,0H55V101a9,9,0,0,1,18,0Z"/><path d="M13.99951,73.20068a4.35823,4.35823,0,0,0-5.999,0C5.0127,76.084,0,81.97021,0,89s5.0127,12.916,8.00049,15.79932A4.18126,4.18126,0,0,0,9,105.49243V126a2,2,0,0,0,4,0V105.49225a4.18575,4.18575,0,0,0,.99951-.69293C16.9873,101.916,22,96.02979,22,89S16.9873,76.084,13.99951,73.20068ZM13,100.04211V91a2,2,0,0,0-4,0v9.04205C6.7818,97.49042,4,93.4137,4,89c0-5.75879,4.73975-10.9541,6.77783-12.92041a.34988.34988,0,0,1,.44434,0C13.26025,78.0459,18,83.24121,18,89,18,93.4137,15.2182,97.49048,13,100.04211Z"/></svg>