<svg xmlns="http://www.w3.org/2000/svg" xmlns:xlink="http://www.w3.org/1999/xlink" version="1.1" x="0px" y="0px" viewBox="0 0 128 160" style="enable-background:new 0 0 128 128;" xml:space="preserve"><path d="M98.0976791,60.9608994c5.1953201-10.5312004,6.4570007-23.2870979,2.8418045-34.5570984  C95.775383,10.3051996,80.3163834,0.5181,65.2030869,0.021C64.7772827,0.0068,64.3476868,0,63.9179993,0  c-9.171917,0-18.8848152,3.1987-25.9307137,9.6841002C27.0351849,19.7646008,23.3320007,34.7363014,25.6698837,49.3184013  c1.9629002,12.2420998,11.9511986,20.6097984,15.7969017,32.0087013c1.8505974,5.4804993,1.7489967,11.7524948,1.6474991,17.6757965  C39.4570007,99.035202,36.5,101.7061005,36.5,105c0,3.2279968,2.8407822,5.8529968,6.3964844,5.9872971  C42.6444855,111.6172028,42.5,112.2929993,42.5,113c0,3.314003,3.0145836,6,6.7323837,6h0.6591988  C49.328083,119.8833008,49,120.9063034,49,122.0005035C49,125.3144989,51.9599991,128,55.6073837,128h16.785202  C76.0410004,128,79,125.3144989,79,122.0005035c0-1.0942001-0.3281174-2.1172028-0.8916168-3.0005035h0.6592026  C82.4862823,119,85.5,116.314003,85.5,113c0-0.7070007-0.144516-1.3827972-0.3965149-2.0127029  C88.6601791,110.8529968,91.5,108.2279968,91.5,105c0-3.2997971-2.9658203-5.9756012-6.6338196-5.9980011  c0-3.853096,0-9.1026001,0-9.1064987C84.8671799,78.7798004,93.4931793,70.2954025,98.0976791,60.9608994z M72.3925858,124  h-16.785202C54.1942825,124,53,123.0845032,53,122.0005035C53,120.9160004,54.1942825,120,55.6073837,120h16.785202  C73.805687,120,75,120.9160004,75,122.0005035C75,123.0845032,73.805687,124,72.3925858,124z M37.4892845,65.4369965  c-3.545002-5.4843979-6.8936005-10.6644974-7.8702011-16.7518959C27.323185,34.3623009,31.360384,21.2196999,40.6962852,12.6269999  C46.6522827,7.1444998,55.1171837,4,63.9179993,4c0.3856812,0,0.7714844,0.0063,1.1532822,0.0190001  c14.5713043,0.4790001,27.7548981,10.1865997,32.0596008,23.6064987c3.1952972,9.9618988,2.2157974,21.7621994-2.6202011,31.5658989  c-1.3125,2.6607018-3,5.2832031-4.7871017,8.0591049c-4.1512985,6.452095-8.8563995,13.764595-8.857399,22.6449966V99H66V77.9740982  C66.302681,77.9888,66.6601868,78,67.0761871,78c5.3114929,0,19.0292969-1.7612,18.9228134-19.971199  c0,0-0.376915-0.028801-1.0283203-0.028801C81.3944855,58,69.5243835,58.8695984,66,70.0547028V49.0903015  C70.1356812,44.591301,78.2020798,32.6591988,63.7235832,19c0,0-16.1278992,14.4794998-1.7235832,29.9799995v8.3847008  c-3.8887177-10.2602005-15.1679993-11.0732002-18.6377144-11.0732002c-0.6514015,0-1.028286,0.028801-1.028286,0.028801  C42.2274857,64.5302963,55.945282,66.2914963,61.257782,66.2914963c0.2725029,0,0.517601-0.005394,0.742218-0.0126953V99H47.1142845  c0.1035004-6.0282974,0.204998-12.8423004-1.857502-18.9516983C43.4247856,74.6182022,40.4071846,69.9506989,37.4892845,65.4369965z   M64.025383,45.2514992C61.3534851,42.0488014,60.0019989,38.7251015,60,35.3334999  c-0.0039177-4.2285004,2.0448837-7.9487,3.8261833-10.3833008c2.8905983,3.5503006,4.2889977,7.1289024,4.1659966,10.6753006  C67.8515854,39.6562996,65.7851868,43.0610008,64.025383,45.2514992z M69.2196808,73.891098  c0.4502029-3.1044998,1.592804-5.6102982,3.4131012-7.4779968c2.625-2.6929016,6.3183975-3.7525024,9.0752182-4.1621017  c-0.5176163,3.3125-1.7226181,5.9355011-3.6035156,7.8265991C75.4882813,72.7095032,71.9315796,73.6147003,69.2196808,73.891098z   M59.1132851,62.1825981c-2.7119026-0.2762985-6.2686005-1.1815987-8.8848-3.8134995  c-1.8808022-1.891098-3.0858994-4.5140991-3.6034851-7.8265991c2.7567825,0.4095993,6.4491844,1.4692001,9.0751839,4.1621017  C57.5204849,56.5723,58.6630821,59.0780983,59.1132851,62.1825981z M78.7675858,115h-29.535202  C47.7509995,115,46.5,114.0839996,46.5,113s1.2509995-2,2.7323837-2h29.535202C80.2490005,111,81.5,111.9160004,81.5,113  S80.2490005,115,78.7675858,115z M87.5,105c0,1.0839996-1.2275162,2-2.679718,2h-6.0526962h-29.535202h-6.0527  C41.7274857,107,40.5,106.0839996,40.5,105s1.2274857-2,2.6796837-2H84.820282C86.2724838,103,87.5,103.9160004,87.5,105z"/></svg>