<svg xmlns="http://www.w3.org/2000/svg" data-name="Layer 1" viewBox="0 0 128 160" x="0px" y="0px"><title>seo and web optimization 02 final</title><path d="M100.99609,29.35107a1.99991,1.99991,0,0,0-1.80273-2.11377c-9.96582-.97119-17.46924,1.02344-22.30713,5.92139-5.97046,6.04364-5.69739,14.35846-5.57343,16.04926-1.32288,1.53815-2.50354,2.99969-3.515,4.31653-.81805-1.25092-2.16736-3.22827-4.002-5.64038a103.54268,103.54268,0,0,0,6.53314-15.30115c1.925-.95673,8.3797-4.64319,10.16522-11.83,1.5-6.03613-.70166-12.76807-6.54346-20.00879A1.99971,1.99971,0,0,0,71.46094.231C71.06982.437,61.85107,5.38965,59.03711,14.69238c-1.57422,5.2041-.832,10.67529,2.20557,16.2627a2.00009,2.00009,0,0,0,3.51465-1.91016c-2.50293-4.60352-3.14209-9.03418-1.89941-13.16895,1.71777-5.71484,6.61768-9.59717,9.05566-11.23291,4.20215,5.644,5.78467,10.72314,4.70605,15.11572a13.32652,13.32652,0,0,1-4.51733,6.86145,62.48619,62.48619,0,0,0,1.90747-11.2887,2.00012,2.00012,0,0,0-3.99121-.26855c-.81116,12.07947-6.74426,24.95819-8.94946,29.3786-.43439-.527-.89764-1.07178-1.366-1.6189.13165-1.646.56671-11.17322-6.205-18.01947-5.35742-5.4165-13.665-7.61328-24.69287-6.5376a2.00015,2.00015,0,0,0-1.80127,2.11279c.01709.28271,2.03223,28.29883,28.03906,30.415.05518.00439.10986.00635.16455.00635a2.00011,2.00011,0,0,0,.15967-3.99365C36.33838,45.25781,32.11377,28.01172,31.22168,22.08594c8.72852-.52393,15.25049,1.32324,19.40625,5.50391a18.47479,18.47479,0,0,1,4.907,10.6283A91.83112,91.83112,0,0,0,43.53027,27.6416,2,2,0,1,0,41.17285,30.873C51.94482,38.73,59.811,49.00781,63.293,54.01752c.23682-.00427.458-.01752.70209-.01752a27.46364,27.46364,0,0,1,7.767.97607A86.15216,86.15216,0,0,1,88.22754,38.84814a2,2,0,1,0-2.34668-3.23926,81.59162,81.59162,0,0,0-10.31567,8.96869,15.89156,15.89156,0,0,1,4.1936-8.6347c3.63623-3.66113,9.35254-5.30225,17.00732-4.87988-.87012,5.43262-4.75732,20.2002-21.374,21.54346A1.99808,1.99808,0,0,0,73.9458,55.788a12.92047,12.92047,0,0,1,1.50494.80255c.03375.00171.06592.00952.1.00952.0542,0,.10889-.002.16357-.00635C99.16406,54.69775,100.98047,29.60449,100.99609,29.35107Z"/><path d="M7,128H27a6.99358,6.99358,0,0,0,4.88965-12,6.97836,6.97836,0,0,0,0-10,6.97836,6.97836,0,0,0,0-10A6.99358,6.99358,0,0,0,27,84H7A6.99358,6.99358,0,0,0,2.11035,96a6.97836,6.97836,0,0,0,0,10,6.97836,6.97836,0,0,0,0,10A6.99358,6.99358,0,0,0,7,128ZM7,88H27a3,3,0,0,1,0,6H7a3,3,0,0,1,0-6ZM7,98H27a3,3,0,0,1,0,6H7a3,3,0,0,1,0-6Zm0,10H27a3,3,0,0,1,0,6H7a3,3,0,0,1,0-6Zm0,10H27a3,3,0,0,1,0,6H7a3,3,0,0,1,0-6Z"/><path d="M121,84H101a6.99358,6.99358,0,0,0-4.88965,12,6.97836,6.97836,0,0,0,0,10,6.97836,6.97836,0,0,0,0,10A6.99358,6.99358,0,0,0,101,128h20a6.99358,6.99358,0,0,0,4.88965-12,6.97836,6.97836,0,0,0,0-10,6.97836,6.97836,0,0,0,0-10A6.99358,6.99358,0,0,0,121,84Zm0,40H101a3,3,0,0,1,0-6h20a3,3,0,0,1,0,6Zm0-10H101a3,3,0,0,1,0-6h20a3,3,0,0,1,0,6Zm0-10H101a3,3,0,0,1,0-6h20a3,3,0,0,1,0,6Zm0-10H101a3,3,0,0,1,0-6h20a3,3,0,0,1,0,6Z"/><path d="M38.074,111.53424a14.23847,14.23847,0,0,0,4.01227,9.31592c4.18054,4.47052,10.99664,6.87549,20.259,7.14807Q62.404,128,62.46289,128h3.07422q.05887,0,.11768-.00177c9.26233-.27258,16.07843-2.67755,20.259-7.14807a14.239,14.239,0,0,0,4.01233-9.31592c1.32068-24.67352-15.12457-35.23639-17.9472-36.86194,2.30731-3.29547,4.85406-8.01624,3.73682-11.66553C74.44843,58.86859,68.64288,58,63.99579,58h-.00012c-4.63733.00012-10.433.86719-11.70862,4.99731-1.11951,3.65674,1.42865,8.376,3.73969,11.67169C53.21844,76.285,36.75244,86.84625,38.074,111.53424ZM56.10889,64.17773C56.55768,62.72485,60.27594,62.00006,63.995,62c3.72546-.00012,7.4516.72693,7.89594,2.17773C72.8205,67.21405,67.50415,74,67.50415,74h-6.998S55.17932,67.21405,56.10889,64.17773ZM58.2652,78H69.73486s17.54034,9.2,16.1911,33.42664c0,0,.44977,11.96-20.38885,12.57336H62.46289C41.62427,123.38666,42.074,111.42664,42.074,111.42664,40.72479,87.2,58.2652,78,58.2652,78Z"/><path d="M62.66406,112.33691v1.82422a1.515,1.515,0,1,0,3.02979,0v-1.82422c4.36572-.42383,6.646-2.76953,6.646-6.35254,0-8.14453-11.89062-6.15723-11.89062-10.4248,0-1.30371,1.00977-2.57422,3.71338-2.57422a6.72919,6.72919,0,0,1,4.561,1.72754,2.157,2.157,0,0,0,1.40088.71582,1.74467,1.74467,0,0,0,1.75928-1.72656,1.88245,1.88245,0,0,0-.32568-1.042,8.33328,8.33328,0,0,0-5.86426-2.93164V87.83887a1.515,1.515,0,1,0-3.02979,0v1.85645c-4.16992.45605-5.99414,2.96484-5.99414,5.86426,0,7.85059,11.89063,5.668,11.89063,10.4248,0,2.01953-1.43311,2.99707-4.39795,2.99707a7.46964,7.46964,0,0,1-5.34229-2.47559,1.90826,1.90826,0,0,0-1.43359-.7168A1.75158,1.75158,0,0,0,55.9209,108.46,9.34253,9.34253,0,0,0,62.66406,112.33691Z"/></svg>