<svg xmlns="http://www.w3.org/2000/svg" data-name="Layer 1" viewBox="0 0 128 160" x="0px" y="0px"><title>expand lines</title><circle cx="30" cy="18" r="2"/><circle cx="108" cy="104" r="2"/><circle cx="20" cy="104" r="2"/><path d="M126,124h-2V108.9l.67.6a2,2,0,1,0,2.65-3l-18.05-16a2,2,0,0,0-2.66,0L102,94.62V100l6-5.31,12,10.68V124h-6v-8a2,2,0,0,0-2-2h-8a2,2,0,0,0-2,2v8H98V86.05l1.69,1.46a2,2,0,1,0,2.61-3L94,77.3a2,2,0,0,0,0-.3V62a2,2,0,0,0-2-2H84a2,2,0,0,0-2,2v5L65.2,52.49a2,2,0,0,0-2.62,0l-36.89,32a2,2,0,1,0,2.62,3L30,86v38H26v-8a2,2,0,0,0-2-2H16a2,2,0,0,0-2,2v8H8V105.33L20,94.68,26,100V94.69L21.28,90.5a2,2,0,0,0-2.66,0l-17.95,16a2,2,0,0,0,2.66,3l.67-.6V124H2a2,2,0,0,0,0,4H126a2,2,0,0,0,0-4ZM22,124H18v-6h4ZM86,64h4v9.87l-4-3.45ZM56,124H42V102H56Zm38,0H60v-4H94Zm0-8H60V100a2,2,0,0,0-2-2H40a2,2,0,0,0-2,2v24H34V82.58L63.9,56.64,94,82.6Zm16,8h-4v-6h4Z"/><path d="M69,100v10a2,2,0,0,0,2,2H83a2,2,0,0,0,2-2V100a2,2,0,0,0-2-2H71A2,2,0,0,0,69,100Zm4,2h8v6H73Z"/><path d="M56,78a8,8,0,1,0,8-8A8,8,0,0,0,56,78Zm8-4a4,4,0,1,1-4,4A4,4,0,0,1,64,74Z"/><path d="M54,90H44a2,2,0,0,0,0,4H54a2,2,0,0,0,0-4Z"/><path d="M92.15,21.81V16a2,2,0,0,0-4,0v5.81a2,2,0,0,0,4,0Z"/><path d="M70.94,22.79a2,2,0,1,0-2.78,2.88l4.26,4.11A2,2,0,0,0,75.2,26.9Z"/><path d="M109.37,22.79,105.1,26.9a2,2,0,0,0,2.78,2.88l4.26-4.11a2,2,0,1,0-2.78-2.88Z"/><path d="M81.31,25.5a2,2,0,0,0,1.84-2.79l-2.3-5.37a2,2,0,1,0-3.68,1.58l2.3,5.37A2,2,0,0,0,81.31,25.5Z"/><path d="M99,25.53a2,2,0,0,0,1.84-1.21L103.19,19a2,2,0,1,0-3.67-1.59L97.2,22.73A2,2,0,0,0,99,25.53Z"/><path d="M109.59,36.19a2,2,0,0,0,2.61,1.1L117.75,35a2,2,0,0,0-1.5-3.71l-5.56,2.26A2,2,0,0,0,109.59,36.19Z"/><path d="M61.13,33.19a2,2,0,0,0,1.17,2.58l5.62,2.11a2,2,0,0,0,1.41-3.74L63.7,32A2,2,0,0,0,61.13,33.19Z"/><path d="M75,47a2,2,0,0,0,2-2,13,13,0,0,1,26,0,2,2,0,0,0,4,0,17,17,0,0,0-34,0A2,2,0,0,0,75,47Z"/><path d="M18,86.33l3.33-3.07.07-1.35a10.34,10.34,0,0,0,1.1.09c.17-.19,4.53-4,4.53-4s-5.3,0-5.42,0l.77-14H37.58l.26,4.66,3.82-3.32L39.6,28H40a2,2,0,0,0,0-4V14.09A2,2,0,0,0,39.68,13L31.82.91A2,2,0,0,0,30.16,0a2.1,2.1,0,0,0-1.67.88L20.34,13A2,2,0,0,0,20,14.09V24a2,2,0,0,0,0,4h.4L17.16,86.7A6.24,6.24,0,0,1,18,86.33ZM24,14.7l6.11-9.07L36,14.68V24H24ZM24.41,28H35.59l.77,14H23.64Zm-1,18H36.58l.77,14H22.64Z"/></svg>