<svg xmlns="http://www.w3.org/2000/svg" data-name="Layer 1" viewBox="0 0 128 160" x="0px" y="0px"><title>Interior Design final 1</title><path d="M41.24,80.94A2,2,0,0,0,42.75,82s39.46,5.85,39.56,5.85a2,2,0,0,0,1.75-1L92.44,72,95.83,75a2,2,0,1,0,2.7-3L79,54.47a1.66,1.66,0,0,0-1.59-.4L45.35,59.88a2,2,0,0,0,.36,4c.12,0,4.72-.82,4.72-.82L41.3,79.08A2,2,0,0,0,41.24,80.94ZM55.58,62.09l21.59-3.91,12.23,11L81.23,83.71l-35-5.19Z"/><path d="M79.42,69.44a2,2,0,0,0-2.71.85l-2.37,4.56L62.22,73l1.52-2.69A2,2,0,0,0,63,67.59a2,2,0,0,0-2.74.76l-3,5.21a2,2,0,0,0,1.44,3S75.36,79,75.46,79A2,2,0,0,0,77.24,78l3-5.83A2,2,0,0,0,79.42,69.44Z"/><path d="M113.53,32.62a2,2,0,0,0-2-2h-4.17L104,19A8,8,0,0,0,102,4.4V2a2,2,0,0,0-4,0V4.4A8,8,0,0,0,95.9,19L92.6,30.63H88.43a2,2,0,1,0,0,4h3L86.29,52.89a2,2,0,0,0,1.39,2.46A2,2,0,0,0,90.15,54l5.49-19.35h8.67l3.69,13h0l1.18,4.18h0L109.8,54a2,2,0,0,0,3.86-1.08l-.41-1.43-.93-3.29-3.84-13.54h3A2,2,0,0,0,113.53,32.62Zm-16.75-2,3-10.52h.43l3,10.52Zm3.2-14.5a4,4,0,1,1,4-4A4,4,0,0,1,100,16.12Z"/><path d="M41.43,54.92a2,2,0,0,0-2.78.56l-20.58,31a2,2,0,0,0,1.37,3.08L74.61,98l6.81-3-58.27-8.9L42,57.69A2,2,0,0,0,41.43,54.92Z"/><path d="M.19,81.94A12.58,12.58,0,0,0,10.35,96.51L60.88,104l6.86-3L11.06,92.58a8.57,8.57,0,0,1-6.91-9.94A8,8,0,0,1,8.6,77.16a10,10,0,0,1,9.2.2,2,2,0,0,0,2.57-.68L42.51,43.4l40.84,5.14,1.1-3.89L45,39.68l8.23-12.37a2,2,0,0,0-.57-2.77,5,5,0,0,0-.62-.29C42.87,20.87,35.56,27.13,33,30.94L2.22,77.09A23.93,23.93,0,0,0,.19,81.94Zm36.1-48.77c.21-.31,4.86-6.89,12-5.77L17.95,73.07a14.37,14.37,0,0,0-7.83-.61Z"/><path d="M110.91,81.95l16.82-29a2,2,0,0,0-1.49-3l-9.6-1.21.88,3.09a6,6,0,0,1,.2,1.07l5,.63L104.68,84.69Z"/><path d="M102,128a2,2,0,0,0,1.89-1.32l14.43-39.95a2,2,0,0,0-.52-2.14,2,2,0,0,0-2.18-.36L58.42,109.47a2,2,0,0,0,.16,3.71l42.79,14.71A2,2,0,0,0,102,128ZM64.71,111.06,113,89.77l-12.18,33.7Z"/><path d="M104.37,98.73a2,2,0,0,0-2.18-.36l-20.28,8.94a2,2,0,0,0,.16,3.71l15.16,5.21A2,2,0,0,0,99.78,115l5.11-14.15A2,2,0,0,0,104.37,98.73Zm-7.7,13.09-8.47-2.91,11.32-5Z"/><polygon points="103.67 47.08 96.53 46.18 95.43 50.06 104.85 51.25 103.67 47.08"/></svg>