<svg xmlns="http://www.w3.org/2000/svg" data-name="Layer 1" viewBox="0 0 128 160" x="0px" y="0px"><title>Miscellaneous 170 Expended</title><path d="M64,44a20.11159,20.11159,0,0,1,4.39258.4834,2.00036,2.00036,0,0,0,.873-3.9043A24.21189,24.21189,0,0,0,64.001,40H63.9873a24.08977,24.08977,0,0,0-5.394.61133,2.0002,2.0002,0,0,0,.44727,3.94922,2.0455,2.0455,0,0,0,.45117-.05078A20.00237,20.00237,0,0,1,63.98828,44Z"/><path d="M68.91229,87.44126a1.74779,1.74779,0,0,0,.44659-.04185,24.06611,24.06611,0,0,0,9.61621-4.64258,2.00037,2.00037,0,0,0-2.498-3.125A20.03076,20.03076,0,0,1,68.46924,83.499a2.00046,2.00046,0,0,0-1.50489,2.39451A2.12011,2.12011,0,0,0,68.91229,87.44126Z"/><path d="M41.99707,62.04395A2.0001,2.0001,0,0,0,40.001,64.04785a23.77209,23.77209,0,0,0,2.39014,10.40527A2,2,0,1,0,45.99072,72.709,19.80923,19.80923,0,0,1,44.001,64.04,2.00042,2.00042,0,0,0,41.99707,62.04395Z"/><path d="M76.41553,48.31934a20.19253,20.19253,0,0,1,5.57713,6.93552,2.05581,2.05581,0,0,0,2.67384.92191,1.99985,1.99985,0,0,0,.92188-2.67383,24.22213,24.22213,0,0,0-6.6875-8.31836,2.00023,2.00023,0,0,0-2.48535,3.13477Z"/><path d="M51.49072,48.39355a1.99991,1.99991,0,0,0-2.50391-3.11914,24.2186,24.2186,0,0,0-6.63818,8.3584,2.00006,2.00006,0,1,0,3.60645,1.73047A20.187,20.187,0,0,1,51.49072,48.39355Z"/><path d="M86,61.95508A2.03862,2.03862,0,0,0,84,64a19.8005,19.8005,0,0,1-1.97314,8.67285,2.00078,2.00078,0,0,0,.93212,2.67089,2.0322,2.0322,0,0,0,2.67042-.93261A23.79514,23.79514,0,0,0,87.99951,63.9668v-.05664A1.96183,1.96183,0,0,0,86,61.95508Z"/><path d="M49.06055,82.78418a24.074,24.074,0,0,0,9.626,4.625,2.00037,2.00037,0,0,0,.88183-3.90235,20.0447,20.0447,0,0,1-8.0166-3.85156,1.99976,1.99976,0,1,0-2.49121,3.12891Z"/><path d="M78.57422,5.78125A59.68738,59.68738,0,0,1,87.9536,8.97167a2.02881,2.02881,0,0,0,2.63283-1.0332,1.99965,1.99965,0,0,0-1.0332-2.63281A63.61751,63.61751,0,0,0,79.542,1.90039a1.99985,1.99985,0,1,0-.96777,3.88086Z"/><path d="M96.84131,114.22266a59.97916,59.97916,0,0,1-8.70166,4.72363,2.00109,2.00109,0,0,0-1.02491,2.63671,2.02586,2.02586,0,0,0,2.63623,1.0254,64.08044,64.08044,0,0,0,9.28271-5.04,2,2,0,0,0-2.19238-3.3457Z"/><path d="M78.77539,122.168a59.94528,59.94528,0,0,1-9.76855,1.626,2.00015,2.00015,0,0,0-1.8291,2.15722,2.05244,2.05244,0,0,0,2.15723,1.82911,63.95949,63.95949,0,0,0,10.42285-1.73535,1.99974,1.99974,0,1,0-.98242-3.877Z"/><path d="M58.71973,4.22266c.05664,0,.11328-.002.17041-.00684a61.15309,61.15309,0,0,1,9.90918-.02734A2.00033,2.00033,0,0,0,69.11377.2002,65.61741,65.61741,0,0,0,58.5542.22949a2.00011,2.00011,0,0,0,.16553,3.99316Z"/><path d="M96.67725,13.6709a60.522,60.522,0,0,1,7.833,6.06834,2.05733,2.05733,0,0,0,2.8257-.124,1.999,1.999,0,0,0-.12451-2.8252,64.52542,64.52542,0,0,0-8.35254-6.47266,2.00035,2.00035,0,0,0-2.18164,3.35352Z"/><path d="M127.999,63.78516a2,2,0,0,0-4,0L124,64a60.65111,60.65111,0,0,1-.8081,9.874,2.03935,2.03935,0,0,0,1.97558,2.32619,2.00033,2.00033,0,0,0,1.9707-1.67383A64.735,64.735,0,0,0,128,63.97266Z"/><path d="M123.30957,82.23242a1.99782,1.99782,0,0,0-2.54053,1.24316,59.91472,59.91472,0,0,1-3.98242,9.07129,2.0006,2.0006,0,0,0,.80516,2.7119,2.03834,2.03834,0,0,0,2.71144-.80565,63.84418,63.84418,0,0,0,4.249-9.68066A1.99941,1.99941,0,0,0,123.30957,82.23242Z"/><path d="M114.16943,100.49023a1.99822,1.99822,0,0,0-2.80664.34961,60.53,60.53,0,0,1-6.71094,7.29,2.00031,2.00031,0,0,0-.11525,2.82616,2.05186,2.05186,0,0,0,2.82618.11525,64.471,64.471,0,0,0,7.15527-7.77441A1.99922,1.99922,0,0,0,114.16943,100.49023Z"/><path d="M38.95729,9.25446a1.89536,1.89536,0,0,0,.80736-.15876,59.828,59.828,0,0,1,9.35889-3.23828,1.99964,1.99964,0,1,0-.98926-3.875A63.70405,63.70405,0,0,0,38.14746,5.4375,1.99967,1.99967,0,0,0,37.127,8.07519,2.06055,2.06055,0,0,0,38.95729,9.25446Z"/><path d="M116.69189,35.27734a2.02692,2.02692,0,0,0,2.71436.7959,2,2,0,0,0,.79639-2.71387,64.32973,64.32973,0,0,0-5.812-8.82031,2.00008,2.00008,0,1,0-3.14746,2.46875A60.25,60.25,0,0,1,116.69189,35.27734Z"/><path d="M7.26514,83.57324a2,2,0,0,0-3.78125,1.30469A63.81647,63.81647,0,0,0,7.74462,94.542a2.06183,2.06183,0,0,0,2.71289.80079,2.00031,2.00031,0,0,0,.80078-2.71289A59.818,59.818,0,0,1,7.26514,83.57324Z"/><path d="M16.69238,100.90918A2.00019,2.00019,0,0,0,13.54,103.37207a64.4529,64.4529,0,0,0,7.1665,7.76269,2.04975,2.04975,0,0,0,2.82569-.11913,2,2,0,0,0-.11963-2.82617A60.47959,60.47959,0,0,1,16.69238,100.90918Z"/><path d="M39.9502,118.98633a60.10793,60.10793,0,0,1-8.71533-4.71387,2,2,0,1,0-2.18652,3.34961,64.19814,64.19814,0,0,0,9.29638,5.02832,2.02284,2.02284,0,0,0,2.63477-1.0293A2.00027,2.00027,0,0,0,39.9502,118.98633Z"/><path d="M123.15723,53.91992a2.04227,2.04227,0,0,0,2.30566,1.63867,1.99939,1.99939,0,0,0,1.63867-2.30469A63.78677,63.78677,0,0,0,124.48,43.0166a2,2,0,1,0-3.7793,1.31055A59.68421,59.68421,0,0,1,123.15723,53.91992Z"/><path d="M8.4541,36.35352a2.01889,2.01889,0,0,0,2.71-.80957,60.19619,60.19619,0,0,1,5.40918-8.30078A1.99989,1.99989,0,1,0,13.41406,24.79a64.23751,64.23751,0,0,0-5.77051,8.85352A2,2,0,0,0,8.4541,36.35352Z"/><path d="M59.09668,123.80371a60.09287,60.09287,0,0,1-9.77148-1.61035,1.99986,1.99986,0,0,0-.97559,3.87891A63.986,63.986,0,0,0,58.77442,127.79a1.99967,1.99967,0,1,0,.32226-3.98633Z"/><path d="M4.8252,73.97656A60.59369,60.59369,0,0,1,4,64.10449a2,2,0,1,0-4,.00586A64.66356,64.66356,0,0,0,.87988,74.63671,2.04493,2.04493,0,0,0,3.18262,76.2793,2.00026,2.00026,0,0,0,4.8252,73.97656Z"/><path d="M21.9146,20.44167a1.98316,1.98316,0,0,0,1.35738-.50026A60.50222,60.50222,0,0,1,31.07275,13.835a2.00026,2.00026,0,0,0-2.19922-3.3418,64.54434,64.54434,0,0,0-8.31738,6.51074,1.9715,1.9715,0,0,0,1.35844,3.43776Z"/><path d="M2.49463,55.87891A2.01956,2.01956,0,0,0,4.7915,54.22852,59.71287,59.71287,0,0,1,7.19775,44.623a2.0001,2.0001,0,0,0-3.78613-1.291A63.75307,63.75307,0,0,0,.84424,53.582,2.0001,2.0001,0,0,0,2.49463,55.87891Z"/><path d="M23.21631,48.83984a1.99636,1.99636,0,0,0,2.624-1.05664,39.86875,39.86875,0,0,1,8.93945-13.0127,41.72445,41.72445,0,0,1,24.073-11.45166l-2.26685,2.26709a1.99927,1.99927,0,0,0,0,2.82811,2.02582,2.02582,0,0,0,2.82814,0c.29507-.29507,5.7634-5.69742,6.12939-6.14571a2.01771,2.01771,0,0,0,.43716-1.01407,2.07628,2.07628,0,0,0-.56784-1.66962l-5.99872-5.99872a1.99979,1.99979,0,0,0-2.82812,2.82813l2.812,2.81219A45.83565,45.83565,0,0,0,31.99072,31.90332,43.85687,43.85687,0,0,0,22.15967,46.2168,1.99975,1.99975,0,0,0,23.21631,48.83984Z"/><path d="M48.84033,104.7832a1.99975,1.99975,0,0,0-1.05664-2.623A39.88069,39.88069,0,0,1,34.77,93.21973a41.196,41.196,0,0,1-8.71191-13.40039A41.617,41.617,0,0,1,23.111,66.93915l2.47491,2.47491a2.02511,2.02511,0,0,0,2.82813,0,1.99927,1.99927,0,0,0,0-2.82812l-6-6a1.99927,1.99927,0,0,0-2.82812,0l-6,6a1.99979,1.99979,0,0,0,2.82813,2.82813l2.67377-2.67377A45.7783,45.7783,0,0,0,31.90332,96.00879a43.83012,43.83012,0,0,0,14.31294,9.831A2.02909,2.02909,0,0,0,48.84033,104.7832Z"/><path d="M105.84033,81.7832a2.00006,2.00006,0,0,0-3.68066-1.56641,39.86875,39.86875,0,0,1-8.93945,13.0127,41.20284,41.20284,0,0,1-13.40088,8.71191,41.70464,41.70464,0,0,1-13.947,3.01459l2.54169-2.54193a1.99979,1.99979,0,0,0-2.82812-2.82812l-6,6a1.99927,1.99927,0,0,0,0,2.82813l6,6a2.04448,2.04448,0,0,0,2.82813,0,1.99927,1.99927,0,0,0,0-2.82812L65.78644,108.958a45.684,45.684,0,0,0,15.5329-3.30859,45.17308,45.17308,0,0,0,14.68994-9.55273A43.85687,43.85687,0,0,0,105.84033,81.7832Z"/><path d="M112.58594,59.58594,109.958,62.21387a45.688,45.688,0,0,0-3.30811-15.5332,45.16753,45.16753,0,0,0-9.55322-14.68945,43.83011,43.83011,0,0,0-14.313-9.83105,1.9998,1.9998,0,1,0-1.56738,3.67969A39.88069,39.88069,0,0,1,94.23,34.78027a41.196,41.196,0,0,1,8.71191,13.40039A41.6958,41.6958,0,0,1,105.95612,62.128l-2.54205-2.54205a1.99979,1.99979,0,0,0-2.82812,2.82813l6,6a1.99927,1.99927,0,0,0,2.82813,0l6-6a1.99979,1.99979,0,0,0-2.82812-2.82812Z"/></svg>