<svg xmlns="http://www.w3.org/2000/svg" data-name="Layer 1" viewBox="0 0 128 160" x="0px" y="0px"><title>Miscellaneous 184_Expanded</title><path d="M88,24a39.79014,39.79014,0,0,0-24,8.022A40,40,0,1,0,64,95.978,39.99268,39.99268,0,1,0,88,24ZM64,37.196A36.30722,36.30722,0,0,1,68.46588,42H59.53412A36.30722,36.30722,0,0,1,64,37.196ZM53,72c-.03113,0-.06006.00775-.09082.00916A35.85251,35.85251,0,0,1,52.05841,66H75.94159a35.85251,35.85251,0,0,1-.85077,6.00916C75.06006,72.00775,75.03113,72,75,72Zm20.93579,4a35.8372,35.8372,0,0,1-2.78754,6.015C71.09845,82.01123,71.05078,82,71,82H57c-.05078,0-.09845.01123-.14825.015A35.8372,35.8372,0,0,1,54.06421,76ZM52.05841,62a35.85428,35.85428,0,0,1,.8526-6.017c.05664.00482.11115.017.16907.017H74.91992c.05792,0,.11243-.01221.16907-.017A35.85428,35.85428,0,0,1,75.94159,62Zm2.0058-10a35.8372,35.8372,0,0,1,2.78754-6.015c.0498.00372.09747.015.14825.015H71c.05078,0,.09845-.01123.14825-.015A35.8372,35.8372,0,0,1,73.93579,52ZM40,100A36,36,0,1,1,60.83789,34.67175a39.91923,39.91923,0,0,0,0,58.65649A35.791,35.791,0,0,1,40,100Zm24-9.196A36.30722,36.30722,0,0,1,59.53412,86h8.93176A36.30722,36.30722,0,0,1,64,90.804ZM88,100a35.791,35.791,0,0,1-20.83789-6.67175,39.91923,39.91923,0,0,0,0-58.65649A35.99051,35.99051,0,1,1,88,100Z"/><path d="M87.02,62h-.01025A2.00513,2.00513,0,1,0,87.02,62Z"/><path d="M86.02,56a2,2,0,1,0,0-4h-.01025A2,2,0,0,0,86.02,56Z"/><path d="M82.02,46a2,2,0,0,0,0-4h-.01025A2,2,0,0,0,82.02,46Z"/><path d="M77.02,90h-.01025A2.00513,2.00513,0,1,0,77.02,90Z"/><path d="M82.02,82h-.01025A2.00513,2.00513,0,1,0,82.02,82Z"/><path d="M88.02,74a2.0001,2.0001,0,0,0-2-2h-.01025A2,2,0,1,0,88.02,74Z"/><path d="M77.02,34h-.01025A2.00513,2.00513,0,1,0,77.02,34Z"/><path d="M97.02,62h-.01025A2.00513,2.00513,0,1,0,97.02,62Z"/><path d="M96.02,56a2,2,0,1,0,0-4h-.01025A2,2,0,0,0,96.02,56Z"/><path d="M92.02,46a2,2,0,1,0,0-4h-.01025A2,2,0,0,0,92.02,46Z"/><path d="M87.02,90h-.01025A2.00513,2.00513,0,1,0,87.02,90Z"/><path d="M92.02,82h-.01025A2.00513,2.00513,0,1,0,92.02,82Z"/><path d="M98.02,74a2.0001,2.0001,0,0,0-2-2h-.01025A2,2,0,1,0,98.02,74Z"/><path d="M87.02,34h-.01025A2.00513,2.00513,0,1,0,87.02,34Z"/><path d="M107.02,62h-.01025a2.00513,2.00513,0,1,0,.01025,0Z"/><path d="M106.02,56a2,2,0,0,0,0-4h-.01025a2,2,0,0,0,.01025,4Z"/><path d="M102.02,46a2,2,0,0,0,0-4h-.01025a2,2,0,0,0,.01025,4Z"/><path d="M97.02,90h-.01025A2.00513,2.00513,0,1,0,97.02,90Z"/><path d="M102.02,82h-.01025a2.00513,2.00513,0,1,0,.01025,0Z"/><path d="M106.02,72h-.01025a2.00513,2.00513,0,1,0,.01025,0Z"/><path d="M97.02,34h-.01025A2.00513,2.00513,0,1,0,97.02,34Z"/><path d="M117.00977,62a2.00513,2.00513,0,1,0,.01025,0Z"/><path d="M116.02,56a2,2,0,0,0,0-4h-.01025a2,2,0,0,0,.01025,4Z"/><path d="M112.02,42h-.01025a2.00513,2.00513,0,1,0,.01025,0Z"/><path d="M112.02,82h-.01025a2.00513,2.00513,0,1,0,.01025,0Z"/><path d="M116.02,72h-.01025a2.00513,2.00513,0,1,0,.01025,0Z"/><path d="M126,98a2.0001,2.0001,0,0,0-2,2v20a4.00427,4.00427,0,0,1-4,4H8a4.00427,4.00427,0,0,1-4-4V100a2,2,0,0,0-4,0v20a8.00917,8.00917,0,0,0,8,8H120a8.00917,8.00917,0,0,0,8-8V100A2.0001,2.0001,0,0,0,126,98Z"/><path d="M120,0H8A8.00917,8.00917,0,0,0,0,8V28a2,2,0,0,0,4,0V8A4.00427,4.00427,0,0,1,8,4H120a4.00427,4.00427,0,0,1,4,4V28a2,2,0,0,0,4,0V8A8.00917,8.00917,0,0,0,120,0Z"/></svg>