<svg xmlns="http://www.w3.org/2000/svg" version="1.1" viewBox="-5.0 -2.0 110.0 105.0">
 <path d="m4.9414 56.234c5.8086-0.94922 10.461-4.7305 14.363-8.2031l0.63281-0.5625c3.168-2.8359 6.7578-6.0547 10.934-5.1094 3.0664 0.69141 5.4844 2.625 8.0508 4.6719 0.93359 0.74609 1.8984 1.5156 2.9258 2.25 5.1484 3.6914 9.9062 5.9297 14.145 6.6523h-0.003907c0.41016 0.070312 0.82812-0.023438 1.168-0.26562 0.33984-0.23828 0.56641-0.60156 0.63672-1.0117 0.070312-0.41016-0.027344-0.82812-0.26562-1.168-0.24219-0.33594-0.60547-0.56641-1.0156-0.63672-3.7148-0.63281-8.1562-2.7461-12.848-6.1094-0.96094-0.6875-1.8945-1.4336-2.7969-2.1523-2.7266-2.1758-5.543-4.4258-9.3086-5.2773-5.7539-1.3008-10.352 2.8203-13.707 5.8281 0 0-1.543 1.3633-1.9961 1.75-1.2656-0.41406-2.4297-1.082-3.4258-1.9688-1.5273-1.1484-3.1094-2.3359-5.082-2.6406l0.003906 0.003906c-2.1914-0.23047-4.3984 0.14844-6.3867 1.0898-0.79688 0.33203-1.1758 1.2461-0.84375 2.043 0.32812 0.79688 1.2422 1.1758 2.0391 0.84766 1.4648-0.71094 3.0898-1.0195 4.7109-0.89453 1.1992 0.18359 2.4023 1.0898 3.6797 2.0508h0.003907c0.79297 0.625 1.6328 1.1953 2.5078 1.7031-2.8398 2.0938-5.5938 3.5312-8.625 4.0273v-0.003906c-0.85156 0.14062-1.4297 0.94531-1.293 1.7969 0.15234 0.84375 0.94531 1.4141 1.7969 1.2891z"/>
 <path d="m28.816 22.539h-0.023437c-2.0508 0.003907-4.0156 0.83594-5.4453 2.3047-1.4727 1.5039-2.2812 3.5391-2.2344 5.6445 0.015625 0.85547 0.71094 1.5391 1.5625 1.5391h0.027344c0.86328-0.015625 1.5508-0.72656 1.5352-1.5898-0.03125-1.2695 0.45312-2.4961 1.3398-3.4062 0.84766-0.87109 2.0117-1.3633 3.2266-1.3672h0.011718c2.6211 0.042969 4.7305 2.1641 4.7539 4.7852 0.011719 0.86328 0.72656 1.5508 1.5859 1.5352 0.41797-0.007813 0.8125-0.17969 1.0977-0.47656 0.28906-0.29687 0.44922-0.69922 0.44141-1.1133-0.058593-4.3203-3.5586-7.8086-7.8789-7.8555z"/>
 <path d="m28.711 20.188h0.027343-0.003906c0.86328-0.015625 1.5508-0.72656 1.5391-1.5898l-0.0625-3.7812c-0.015626-0.85156-0.70703-1.5352-1.5625-1.5352h-0.027344 0.003906c-0.86328 0.015625-1.5508 0.72656-1.5391 1.5898l0.0625 3.7773c0.015624 0.85156 0.70703 1.5391 1.5625 1.5391z"/>
 <path d="m23.027 20.113c0.34375 0.78516 1.2539 1.1523 2.0469 0.82812 0.38281-0.16406 0.68359-0.46875 0.83984-0.85547 0.15625-0.38281 0.15234-0.8125-0.011718-1.1953l-1.4766-3.4844c-0.33594-0.79297-1.2539-1.1641-2.0469-0.82812-0.79297 0.33594-1.1641 1.2539-0.83203 2.0469z"/>
 <path d="m19.781 23.074c0.61719 0.60156 1.5977 0.60156 2.2109 0 0.60937-0.60938 0.61328-1.5977 0-2.207l-2.6602-2.6641c-0.60938-0.60938-1.5977-0.60938-2.207 0s-0.61328 1.5977-0.003906 2.207z"/>
 <path d="m14.484 25.664 3.457 1.4336c0.79688 0.33203 1.7109-0.046875 2.0391-0.84375 0.33203-0.79688-0.046875-1.7109-0.84375-2.043l-3.457-1.4336h0.003906c-0.79688-0.32812-1.7109 0.050781-2.0391 0.84375-0.33203 0.79688 0.046875 1.7109 0.83984 2.043z"/>
 <path d="m14.051 32.031h0.003907l3.7109-0.011719c0.86328 0 1.5625-0.69922 1.5625-1.5625-0.003906-0.86328-0.70312-1.5625-1.5664-1.5625h-0.003907l-3.7109 0.011719c-0.86328 0-1.5625 0.70312-1.5586 1.5664 0 0.86328 0.69922 1.5586 1.5625 1.5586z"/>
 <path d="m43.73 28.895-3.125 0.015625v-0.003906c-0.86328 0.003906-1.5586 0.70312-1.5586 1.5664 0.003906 0.86328 0.70312 1.5625 1.5664 1.5586h0.007813l3.125-0.015625v0.003906c0.86328-0.003906 1.5586-0.70703 1.5547-1.5664 0-0.86328-0.69922-1.5586-1.5625-1.5586z"/>
 <path d="m37.676 26.203c0.35156 0.78516 1.2617 1.1484 2.0547 0.82031l3.4023-1.457c0.38281-0.16406 0.68359-0.47266 0.83984-0.85547 0.15234-0.38672 0.14844-0.82031-0.015625-1.1992-0.16406-0.38281-0.47266-0.68359-0.85938-0.83984-0.38672-0.15234-0.81641-0.14453-1.1992 0.019531l-3.4023 1.4609c-0.37891 0.16406-0.67969 0.46875-0.83203 0.85547-0.15625 0.38672-0.14844 0.81641 0.011719 1.1953z"/>
 <path d="m35.551 23.043c0.625 0.58984 1.6094 0.57031 2.2109-0.042969l2.582-2.6797h-0.003906c0.60156-0.62109 0.58203-1.6094-0.039063-2.207-0.62109-0.59766-1.6133-0.58203-2.2109 0.039063l-2.582 2.6758 0.003907 0.003906c-0.60156 0.62109-0.58203 1.6094 0.039062 2.2109z"/>
 <path d="m32.418 20.93c0.80469 0.30469 1.7031-0.089844 2.0234-0.89063l1.3633-3.4961-0.003907 0.003906c0.31641-0.80469-0.082031-1.7109-0.88672-2.0234-0.80469-0.3125-1.7109 0.085937-2.0234 0.88672l-1.3633 3.4922v0.003906c-0.14844 0.38672-0.14062 0.81641 0.027344 1.1953 0.16406 0.37891 0.47656 0.67578 0.86328 0.82813z"/>
 <path d="m85.844 29.688c0.83984 0 1.6719-0.17578 2.4375-0.51562v8.332c0 0.86328 0.69922 1.5625 1.5625 1.5625s1.5625-0.69922 1.5625-1.5625v-8.332c0.76562 0.33984 1.5977 0.51562 2.4336 0.51562 2.625-0.039062 4.9453-1.7148 5.8086-4.1953 0.86719-2.4766 0.09375-5.2305-1.9336-6.8984 0.070312-0.42188 0.10547-0.85156 0.10547-1.2812-0.003906-2.1641-0.90234-4.2344-2.4883-5.7109-1.582-1.4766-3.707-2.2305-5.8672-2.082-2.1602 0.14844-4.1602 1.1836-5.5273 2.8633-1.3672 1.6797-1.9766 3.8516-1.6875 5.9961-2.168 1.5859-3.082 4.3828-2.2695 6.9453 0.81641 2.5664 3.1758 4.3203 5.8633 4.3633zm-1.1992-9.1055v0.003907c0.71875-0.32031 1.0859-1.1211 0.86328-1.8711-0.13281-0.45703-0.20312-0.92969-0.20312-1.4023-0.03125-1.2656 0.44922-2.4883 1.332-3.3945 0.88672-0.90625 2.0977-1.418 3.3633-1.418s2.4766 0.51172 3.3594 1.418c0.88672 0.90625 1.3672 2.1289 1.3359 3.3945-0.003906 0.50781-0.082031 1.0156-0.23828 1.5-0.23047 0.72266 0.089844 1.5078 0.76172 1.8594 1.0273 0.54297 1.6641 1.6133 1.6562 2.7734 0.019531 1.6992-1.3359 3.0938-3.0352 3.1172-1.0977-0.007812-2.1055-0.60938-2.6289-1.5742-0.27734-0.49609-0.80078-0.80078-1.3672-0.80078s-1.0898 0.30469-1.3672 0.80078c-0.52734 0.96484-1.5312 1.5664-2.6328 1.5742-1.6953-0.023438-3.0547-1.418-3.0312-3.1172-0.007812-1.2305 0.71094-2.3516 1.832-2.8594z"/>
 <path d="m55.086 86.898c-0.49609 0.33594-0.93359 0.63281-1.2969 0.88672-0.71094 0.48828-0.88672 1.4648-0.39844 2.1719 0.5 0.69922 1.4609 0.875 2.1758 0.39844 0.35938-0.25 0.78906-0.54297 1.2773-0.875 0.71484-0.48438 0.89844-1.457 0.41406-2.1719-0.48437-0.71094-1.457-0.89844-2.1719-0.41016z"/>
 <path d="m63.535 80.801c-0.80078 0.62891-1.5938 1.2305-2.3594 1.7969-0.69531 0.51562-0.83984 1.4961-0.32422 2.1875 0.51563 0.69141 1.4922 0.83594 2.1875 0.32422 0.78906-0.58594 1.6016-1.2031 2.4258-1.8438l-0.003906-0.003906c0.67969-0.53125 0.80078-1.5117 0.26953-2.1914-0.53125-0.67969-1.5156-0.80078-2.1953-0.26953z"/>
 <path d="m79.168 65.16c-0.37891-0.17188-0.80859-0.17969-1.1953-0.03125-0.38672 0.14844-0.69922 0.44141-0.86719 0.82031-0.38281 0.84766-0.82422 1.6602-1.3242 2.4414-0.22266 0.35156-0.29688 0.77734-0.20703 1.1797 0.09375 0.40625 0.33984 0.75781 0.69141 0.98047 0.34766 0.22266 0.77344 0.29297 1.1797 0.20312 0.40234-0.089844 0.75391-0.33984 0.97656-0.69141 0.58203-0.90625 1.0938-1.8594 1.5391-2.8398 0.16797-0.37891 0.17969-0.80859 0.03125-1.1953-0.14844-0.38672-0.44531-0.69922-0.82422-0.86719z"/>
 <path d="m71.258 73.973c-0.64453 0.66797-1.3516 1.3555-2.0938 2.0508-0.63281 0.58984-0.66406 1.5781-0.078124 2.207 0.58984 0.63281 1.5781 0.66797 2.2109 0.078125 0.78125-0.72656 1.5234-1.4531 2.207-2.1602h-0.003906c0.60156-0.62109 0.58203-1.6055-0.035156-2.207-0.62109-0.60156-1.6094-0.58594-2.207 0.03125z"/>
 <path d="m80.133 57.105c-0.39062-0.76562-1.332-1.0703-2.0977-0.67969-0.76953 0.39453-1.0742 1.332-0.68359 2.1016 0.19141 0.37891 0.35156 0.77344 0.47266 1.1797 0.57422 1.9336 3.5703 1.0508 2.9961-0.89062-0.17578-0.58984-0.40625-1.1602-0.6875-1.7109z"/>
 <path d="m78.895 39.066c0.86328 0.003906 1.5664-0.69531 1.5703-1.5586 0-0.85937-0.69531-1.5625-1.5586-1.5664-3.4141-0.023437-10.922 0.69531-10.922 0.69531-3.7539 0.46484-10.738 1.3359-10.355 7.7617 0.125 2.0977 1.2734 3.8359 3.418 5.168v0.003906c1.4688 0.78906 2.5312 2.168 2.9102 3.793 0.33594 1.75-0.29688 3.8164-1.7773 5.8242-3.8203 5.1758-10.02 7.9531-16.016 10.641-0.85937 0.38281-10.914 4.9844-14.926 6.8125v-2.7969c1.8555-0.92188 3.125-3.4766 3.125-6.6523 0-4.0078-2.0156-7.0312-4.6875-7.0312s-4.6875 3.0234-4.6875 7.0312c0 3.1797 1.2695 5.7305 3.125 6.6523v4.2148c-3.8008 1.7266-7.4414 3.375-10.801 4.8945v0.003906c-0.375 0.17188-0.67188 0.48438-0.81641 0.87109-0.14453 0.39062-0.13281 0.82031 0.039062 1.1953 0.36328 0.78125 1.2812 1.125 2.0664 0.78125 7.7422-3.5039 27.992-12.746 28.84-13.125 6.3633-2.8516 12.945-5.8008 17.254-11.637 2.0039-2.7188 2.832-5.6562 2.332-8.2695-0.54297-2.4805-2.1172-4.6094-4.3281-5.8594-1.6641-1.0352-1.9062-2.0352-1.9453-2.6992-0.17578-2.9453 2.543-3.8438 7.6211-4.4766-0.003906 0 7.2734-0.69531 10.52-0.67188zm-49.219 32.031c-0.45312 0-1.5625-1.3711-1.5625-3.9062 0-2.5391 1.1094-3.9062 1.5625-3.9062s1.5625 1.3672 1.5625 3.9062c0 2.5391-1.1094 3.9062-1.5625 3.9062z"/>
 <path d="m82.641 48.676c-2.0977-0.75-4.2617-1.5273-6.2031-2.3906-0.42969-0.19141-0.83203-0.4375-1.1992-0.73047 0.35938-0.13281 0.73438-0.21484 1.1133-0.25 0.85547-0.097657 1.4688-0.87109 1.3711-1.7266-0.097656-0.85938-0.86719-1.4727-1.7266-1.3789-1.3438 0.058593-2.6133 0.64062-3.5352 1.625-0.51953 0.61328-0.71484 1.4414-0.53125 2.2227 0.39844 1.6719 2.3984 2.7188 3.2344 3.0938 2.0469 0.91016 4.2695 1.707 6.4219 2.4766 9.5195 3.4102 17.742 6.3555 14.578 18.332-1.3984 4.8594-3.6406 9.4375-6.6211 13.527-0.24219 0.33594-0.33984 0.75391-0.27344 1.1641 0.070313 0.41016 0.29688 0.77344 0.63672 1.0156 0.33594 0.24219 0.75781 0.33594 1.168 0.26953 0.40625-0.070312 0.77344-0.30078 1.0117-0.63672 3.1992-4.3945 5.6016-9.3164 7.1016-14.539 3.8984-14.754-6.9648-18.645-16.547-22.074z"/>
 <path d="m8.582 63.285c0-0.41406-0.16406-0.8125-0.45703-1.1055-0.29297-0.29297-0.69141-0.45703-1.1055-0.45703h-1.5625c-0.86328 0-1.5625 0.69922-1.5625 1.5625 0 0.86328 0.69922 1.5625 1.5625 1.5625h1.5625c0.41406 0 0.8125-0.16406 1.1055-0.45703s0.45703-0.69141 0.45703-1.1055z"/>
 <path d="m14.832 61.723h-1.5625c-0.86328 0-1.5625 0.69922-1.5625 1.5625 0 0.86328 0.69922 1.5625 1.5625 1.5625h1.5625c0.86328 0 1.5625-0.69922 1.5625-1.5625 0-0.86328-0.69922-1.5625-1.5625-1.5625z"/>
 <path d="m10.926 67.973h-1.5625c-0.86328 0-1.5625 0.70312-1.5625 1.5625 0 0.86328 0.69922 1.5625 1.5625 1.5625h1.5625c0.86328 0 1.5625-0.69922 1.5625-1.5625 0-0.85938-0.69922-1.5625-1.5625-1.5625z"/>
 <path d="m28.895 49.223c-0.86328 0-1.5625 0.69922-1.5625 1.5625 0 0.86328 0.69922 1.5625 1.5625 1.5625h1.5625c0.86328 0 1.5625-0.69922 1.5625-1.5625 0-0.86328-0.69922-1.5625-1.5625-1.5625z"/>
 <path d="m98.438 42.973h-1.5625c-0.86328 0-1.5625 0.69922-1.5625 1.5625 0 0.86328 0.69922 1.5625 1.5625 1.5625h1.5625c0.86328 0 1.5625-0.69922 1.5625-1.5625 0-0.86328-0.69922-1.5625-1.5625-1.5625z"/>
 <path d="m89.051 42.973c-0.86328 0-1.5625 0.69922-1.5625 1.5625 0 0.86328 0.69922 1.5625 1.5625 1.5625h1.5625c0.86328 0 1.5625-0.69922 1.5625-1.5625 0-0.86328-0.69922-1.5625-1.5625-1.5625z"/>
 <path d="m46.082 61.723c-0.86328 0-1.5625 0.69922-1.5625 1.5625 0 0.86328 0.69922 1.5625 1.5625 1.5625h1.5625c0.86328 0 1.5625-0.69922 1.5625-1.5625 0-0.86328-0.69922-1.5625-1.5625-1.5625z"/>
</svg>
