<svg xmlns="http://www.w3.org/2000/svg" data-name="Layer 1" viewBox="0 0 128 160" x="0px" y="0px"><title>miscellaneous 378 final</title><path d="M61.31769,103.10107a13.22812,13.22812,0,0,1-9.946-3.05859,1.99974,1.99974,0,0,0-2.822.082A2.54218,2.54218,0,0,0,48.002,102,15.998,15.998,0,1,0,79.998,102a2.05042,2.05042,0,0,0-1.65021-1.96924c-3.53864-.627-6.67108.33643-9.989,1.3584A42.28993,42.28993,0,0,1,61.31769,103.10107Zm14.5249.73755A11.98859,11.98859,0,0,1,52.53,105.51868a16.60986,16.60986,0,0,0,7.20593,1.68884,15.91381,15.91381,0,0,0,2.113-.1416,46.18787,46.18787,0,0,0,7.68658-1.854A23.84934,23.84934,0,0,1,75.84259,103.83862Z"/><path d="M11.00653,2a9,9,0,1,0,8.9989,9A9.00956,9.00956,0,0,0,11.00653,2Zm0,14a5,5,0,1,1,4.99939-5A5.0056,5.0056,0,0,1,11.00653,16Z"/><path d="M8.0069,31A6.99915,6.99915,0,1,0,15.006,24,7.00776,7.00776,0,0,0,8.0069,31Zm9.99878,0A2.99963,2.99963,0,1,1,15.006,28,3.00308,3.00308,0,0,1,18.00568,31Z"/><path d="M118.99323,20a9,9,0,1,0-8.9989-9A9.00956,9.00956,0,0,0,118.99323,20Zm0-14a5,5,0,1,1-4.99939,5A5.00555,5.00555,0,0,1,118.99323,6Z"/><path d="M114.99371,38a7,7,0,1,0-6.99915-7A7.00776,7.00776,0,0,0,114.99371,38Zm0-10a3,3,0,1,1-2.99963,3A3.00312,3.00312,0,0,1,114.99371,28Z"/><path d="M24.18854,90.66064a25.01771,25.01771,0,0,0,8.89264-1.574l2.70343,2.79114a30.21144,30.21144,0,0,1,1.75629-3.936c-1.4278-1.47388-2.53455-2.61652-2.5412-2.62341a2.04727,2.04727,0,0,0-2.28784-.418,20.99561,20.99561,0,0,1-9.97723,1.71387q-.03525-.00229-.07068-.00317a2.0836,2.0836,0,0,0-1.39435.51062q-.05237.04623-.1012.09656L14.01007,94.6084A2,2,0,0,0,15.44641,98h18.8324a29.81338,29.81338,0,0,1,.82733-4H20.16754l3.24774-3.35254C23.66187,90.65466,23.91486,90.66064,24.18854,90.66064Z"/><path d="M.49518,102.36279A5.84946,5.84946,0,0,0,5.94958,106H34.27826a30.11684,30.11684,0,0,1-.27454-4H5.94958a1.90671,1.90671,0,0,1-1.7713-1.19727A2.00754,2.00754,0,0,1,4.5835,98.584L22.99237,79.58545a2.0004,2.0004,0,0,0,.56342-1.3916V57H34.45288V78.19385a2.00013,2.00013,0,0,0,.56342,1.3916l4.70734,4.85828a30.25229,30.25229,0,0,1,2.56744-3.09833l-3.83868-3.96161V56.95459A3.99108,3.99108,0,0,0,42.00275,53V47a4.004,4.004,0,0,0-3.99951-4H31.00409V6a2.00216,2.00216,0,0,1,1.99976-2H55.0011a2.00216,2.00216,0,0,1,1.99976,2V21H55.0011a4.004,4.004,0,0,0-3.99951,4v6a3.99589,3.99589,0,0,0,2.99963,3.858v43.1488a25.99677,25.99677,0,1,0,19.99756,0V34.858A3.99589,3.99589,0,0,0,76.99841,31V25a4.004,4.004,0,0,0-3.99951-4H69.99927V6A2.00216,2.00216,0,0,1,71.999,4H93.99628A2.00216,2.00216,0,0,1,95.996,6V43H89.99677a4.004,4.004,0,0,0-3.99951,4v6a3.99108,3.99108,0,0,0,3.55035,3.95459v20.4292L85.70892,81.3454a30.24442,30.24442,0,0,1,2.56738,3.09827l4.7074-4.85822a2.00013,2.00013,0,0,0,.56342-1.3916V57h10.89709V78.19385a2.0004,2.0004,0,0,0,.56342,1.3916l18.40887,18.999a2.00673,2.00673,0,0,1,.40521,2.21826A1.90671,1.90671,0,0,1,122.05042,102H93.99628a30.11684,30.11684,0,0,1-.27454,4h28.32867a5.84946,5.84946,0,0,0,5.45441-3.63721,5.95488,5.95488,0,0,0-1.21564-6.562l-17.84546-18.417V56.95459A3.99108,3.99108,0,0,0,111.99408,53V47a4.004,4.004,0,0,0-3.99951-4h-7.999V6a6.00617,6.00617,0,0,0-5.99927-6H71.999a6.00617,6.00617,0,0,0-5.99927,6V21H61.00037V6A6.00617,6.00617,0,0,0,55.0011,0H33.00385a6.00617,6.00617,0,0,0-5.99927,6V43H20.00543a4.004,4.004,0,0,0-3.99951,4v6a3.99108,3.99108,0,0,0,3.55035,3.95459v20.4292L1.71082,95.80078A5.95488,5.95488,0,0,0,.49518,102.36279ZM107.99457,47l.00293,6H89.99677V47ZM85.99725,102A21.99725,21.99725,0,1,1,56.66693,81.26563a2.00027,2.00027,0,0,0,1.3338-1.88574V35H69.99927V79.37988a2.00027,2.00027,0,0,0,1.3338,1.88574A22.02041,22.02041,0,0,1,85.99725,102ZM72.9989,25l.00293,6H55.0011V25ZM20.00543,47h17.9978l.00293,6H20.00543Z"/><path d="M93.72119,98h18.8324a2,2,0,0,0,1.43634-3.3916l-7.15833-7.39014a2.05567,2.05567,0,0,0-1.56622-.604,20.97522,20.97522,0,0,1-9.97723-1.71387,1.98385,1.98385,0,0,0-1.03955-.1723,2.009,2.009,0,0,0-1.24829.59027l-2.5412,2.62341a30.21144,30.21144,0,0,1,1.75629,3.936l2.70343-2.79114a25.01771,25.01771,0,0,0,8.89264,1.574c.27368,0,.52667-.006.77325-.01318L107.83246,94H92.89392A29.81323,29.81323,0,0,1,93.72119,98Z"/></svg>