<svg xmlns="http://www.w3.org/2000/svg" data-name="Layer 1" viewBox="0 0 128 160" x="0px" y="0px"><title>heavy and power industry final</title><path d="M58.32,50.15C57,54.9,54.23,59.74,51.3,64.86c-4.94,8.66-10.06,17.61-9.21,27.81.87,10.31,8.94,16.41,17.64,17.94a24.824,24.824,0,0,0,4.37.39,26.1213,26.1213,0,0,0,3.9-.29c7.74-1.14,13.87-5.71,16.46-12.48,4.67-12.21-2.22-23.25-8.29-33-3.28-5.25-6.38-10.22-7.63-15C67.63,46.76,65.91,45,63.43,45,59.75,45,58.67,48.88,58.32,50.15Zm13.35,52.46a7.10286,7.10286,0,0,1-4.48,4.16,9.44563,9.44563,0,0,1-3.14.52,9.60592,9.60592,0,0,1-3.16-.52,7.06583,7.06583,0,0,1-5.1-6.2c-.56-6.73,5.66-12.7,7.37-18.84.19-.68.39-1.02.58-1.02s.39.34.57,1.03C66.08,88.5,74.52,95.16,71.67,102.61Zm-7-51.36C68.53,66.01,86.95,80.54,80.73,96.8a14.588,14.588,0,0,1-5.12,6.66c2.11-6.36-1.38-11.95-4.2-16.46a25.8888,25.8888,0,0,1-3.23-6.27c-.95-3.63-3.42-4.02-4.44-4.02-1,0-3.44.38-4.43,3.94A30.62759,30.62759,0,0,1,56.3,86.9c-2.32,4.06-4.94,8.66-4.5,14a11.23752,11.23752,0,0,0,.49,2.48,14.77714,14.77714,0,0,1-6.21-11.04c-1.22-14.7,12.36-27.72,16.09-41.11.41-1.49.84-2.23,1.26-2.23C63.86,49,64.28,49.75,64.67,51.25Z"/><path d="M64,128c20.36035,0,42-5.60742,42-16V16C106,5.60742,84.36035,0,64,0S22,5.60742,22,16v96C22,122.39258,43.63965,128,64,128ZM94,49.08508c-5.15039,2.17719-12.1792,3.724-19.9505,4.4491.58868,1.2453,1.26709,2.52185,2.0177,3.82928A74.2245,74.2245,0,0,0,94,53.3938V93.08508a44.6324,44.6324,0,0,1-4.4101,1.57629,27.27937,27.27937,0,0,1-1.21545,4.50336A56.17818,56.17818,0,0,0,94,97.3938v21.74835C87.2774,121.952,76.73987,124,64,124s-23.2774-2.048-30-4.85785V97.3938a55.84514,55.84514,0,0,0,5.41949,1.71649A23.37975,23.37975,0,0,1,38.29926,94.626,44.47933,44.47933,0,0,1,34,93.08508V53.3938a72.94252,72.94252,0,0,0,16.9649,3.8598c.69031-1.30133,1.32159-2.57678,1.88068-3.82831A68.41554,68.41554,0,0,1,34,49.08508V27.41C42.09454,30.42877,53.22546,32,64,32s21.90546-1.57123,30-4.59ZM102,112c0,1.70612-1.41919,3.46985-4,5.10382V25.66827a22.98563,22.98563,0,0,0,4-2.54669ZM64,4c22.39355,0,38,6.32422,38,12S86.39355,28,64,28,26,21.67578,26,16,41.60645,4,64,4ZM26,23.12158a22.98563,22.98563,0,0,0,4,2.54669v91.43555c-2.58081-1.634-4-3.39771-4-5.10382Z"/></svg>