<svg xmlns="http://www.w3.org/2000/svg" data-name="Layer 1" viewBox="0 0 128 160" x="0px" y="0px"><title>Miscellaneous 50 expandlines</title><path d="M14,26a2,2,0,0,0,4,0,8.8,8.8,0,0,1,9-8.56A8.8,8.8,0,0,1,36,26a2,2,0,0,0,4,0A12.8,12.8,0,0,0,27,13.44,12.8,12.8,0,0,0,14,26Z"/><path d="M29,7.76V2a2,2,0,0,0-4,0V7.76a2,2,0,0,0,4,0Z"/><path d="M19.27,3A2,2,0,1,0,15.6,4.62l2.3,5.32a2,2,0,1,0,3.67-1.58Z"/><path d="M10.71,7.59a2,2,0,0,0-2.77,2.89l4.24,4.07A2,2,0,0,0,15,11.66Z"/><path d="M2,16.08a2,2,0,0,0,1.12,2.6l5.54,2.2a2,2,0,0,0,1.48-3.72L4.64,15A2,2,0,0,0,2,16.08Z"/><path d="M0,26a2,2,0,0,0,2,2H8a2,2,0,0,0,0-4H2A2,2,0,0,0,0,26Z"/><path d="M44,26a2,2,0,0,0,2,2h6a2,2,0,1,0,0-4H46A2,2,0,0,0,44,26Z"/><path d="M49.36,15l-5.54,2.2a2,2,0,1,0,1.48,3.72l5.54-2.2A2,2,0,1,0,49.36,15Z"/><path d="M43.29,7.59,39,11.66a2,2,0,1,0,2.77,2.89l4.24-4.07a2,2,0,0,0-2.77-2.89Z"/><path d="M37.36,2a2,2,0,0,0-2.63,1l-2.3,5.32a2,2,0,1,0,3.67,1.58l2.3-5.32A2,2,0,0,0,37.36,2Z"/><path d="M35,40H31a2,2,0,0,0,0,4h4a2,2,0,1,0,0-4Z"/><path d="M46,44h4a2,2,0,1,0,0-4H46a2,2,0,0,0,0,4Z"/><path d="M31,52h4a2,2,0,1,0,0-4H31a2,2,0,0,0,0,4Z"/><path d="M46,52h4a2,2,0,1,0,0-4H46a2,2,0,0,0,0,4Z"/><path d="M31,60h4a2,2,0,1,0,0-4H31a2,2,0,0,0,0,4Z"/><path d="M46,60h4a2,2,0,1,0,0-4H46a2,2,0,0,0,0,4Z"/><path d="M10,76h3a2,2,0,0,0,0-4H10a2,2,0,1,0,0,4Z"/><path d="M10,84h3a2,2,0,0,0,0-4H10a2,2,0,1,0,0,4Z"/><path d="M70,28.24c0,4,3,7.36,7.18,8.43a9.44,9.44,0,0,0,7.61,7.12l.32,0a2,2,0,0,0,.31-4,5.1,5.1,0,0,1-3.91-2.93,10.7,10.7,0,0,0,4.1-1.44,11.14,11.14,0,0,0,7,6.21c3.31,11.94-5.88,26.07-6,26.22a2,2,0,0,0-.31.86l-.06,0-3.4-1.6a2,2,0,1,0-1.7,3.62l4.25,2a2,2,0,0,0,1.7,0l3.4-1.6,3.4,1.6a2,2,0,0,0,1.7,0L99,71.21l3.4,1.6a2,2,0,0,0,1.7,0l3.4-1.6,3.4,1.6a2,2,0,0,0,1.7,0l4.25-2a2,2,0,1,0-1.7-3.62l-2,1C104.53,61.5,106,41.83,106,41.63c0,0,0-.07,0-.11.06-2.27,2-5.1,3.09-6.35,5.17-2.23,5.72-6.28,5.26-8.16a2,2,0,0,0-3.89.95s.43,2.23-3.3,3.68a2,2,0,0,0-.75.52c-.44.48-4.26,4.8-4.41,9.2-.1,1.25-1.13,16.42,4.85,25.75a2,2,0,0,0-.24.08l-3.4,1.6-3.4-1.6a2,2,0,0,0-1.7,0l-3.39,1.6L91.6,67.31c2.88-5.31,8.15-17.23,4.46-28A2,2,0,0,0,94.47,38a7,7,0,0,1-5.64-5.77,7.91,7.91,0,0,0,1.11-4,2,2,0,1,0-4,0,4,4,0,0,1-.61,2.09,2,2,0,0,0-.41.57A6.46,6.46,0,0,1,80,33c-3.29,0-6-2.15-6-4.79,0-2.35,2.2-4.35,5-4.72a2,2,0,0,0,.48.1A4.68,4.68,0,0,1,82.38,25a2,2,0,0,0,3.16-2.45,7.93,7.93,0,0,0-4.38-2.66A5,5,0,0,1,80.81,18c0-3.4,3.41-6.17,7.59-6.17a9,9,0,0,1,2.17.27,2,2,0,0,0,.63.28A3.88,3.88,0,0,1,93.54,14,2,2,0,0,0,97.1,12.2a6.81,6.81,0,0,0-2.67-2.74s0,0,0-.07C94.42,7,96.89,5,99.93,5s5.5,2,5.5,4.39a3.57,3.57,0,0,1-.43,1.68,2,2,0,0,0,3.05,2.47,5.62,5.62,0,0,1,3.61-1.24c2.72,0,4.94,1.74,5,3.89a8.71,8.71,0,0,0-4.17,2.58,2,2,0,0,0,3.08,2.56,4.61,4.61,0,0,1,2.89-1.41,2,2,0,0,0,.45-.09c2.85.31,5.09,2.31,5.09,4.65s-2.15,4.3-5,4.64a2,2,0,0,0-1.74,1.71c-.34,2.43-2.89,4.26-5.93,4.26a2,2,0,0,0,0,4c4.45,0,8.3-2.6,9.54-6.26C125,31.75,128,28.36,128,24.46s-3.08-7.42-7.33-8.4c-.12-4.3-4.11-7.76-9-7.76a10.17,10.17,0,0,0-2.29.26C108.91,4.32,104.85,1,99.93,1c-4.71,0-8.64,3-9.38,7a13.06,13.06,0,0,0-2.15-.18C82,7.85,76.81,12.42,76.81,18A8.93,8.93,0,0,0,77,19.85C72.91,21,70,24.28,70,28.24Z"/><path d="M100.92,25a5,5,0,0,0-2.46,2.57l-.11.22a8.29,8.29,0,0,1-.81-1.66,2,2,0,0,0-3.78,1.31c.27.79,1.78,4.73,4.8,5.32a2,2,0,0,0,2-.74,2,2,0,0,0,.25-.42c.14-.27.59-1.06.64-1.14a10.16,10.16,0,0,0,.6-1c.32-.61.39-.7.54-.76,3.08-1.37,4.5-3.18,4.23-5.38a2,2,0,0,0-2.23-1.75,2,2,0,0,0-1.74,2.22S102.62,24.27,100.92,25Z"/><path d="M2,128a2,2,0,0,0,2-2V68H19v58a2,2,0,0,0,2,2H34a2,2,0,0,0,2-2V66a2,2,0,0,0-2-2H23V36H58V64H48a2,2,0,0,0-2,2V88.59l4-3V68h8V83h4V68H72V83h4V66a2,2,0,0,0-2-2H62V34a2,2,0,0,0-2-2H21a2,2,0,0,0-2,2v7H8a2,2,0,0,0-2,2V64H2a2,2,0,0,0-2,2v60A2,2,0,0,0,2,128ZM23,68h9v56H23ZM10,45h9V64H10Z"/><path d="M113.64,87.39a2,2,0,0,0-1.19-.39H90.24l-5.37-6.3A2,2,0,0,0,83.3,80a2,2,0,0,0-1.53.78L77,87H55.55a2,2,0,0,0-1.19.39l-13.55,10A2,2,0,0,0,42,101h2v25a2,2,0,0,0,2,2h76a2,2,0,0,0,2-2V101h2a2,2,0,0,0,1.19-3.61ZM83.43,85.17,92.66,96H75.07ZM69,124H48V101H69ZM49.43,96l6.77-5H73.88L70,96ZM87,124H81v-8h6Zm8,0H91v-9.82A2.1,2.1,0,0,0,89,112H79a2.1,2.1,0,0,0-2,2.18V124H73V100H95ZM93.66,91h18.14l6.77,5H97.92ZM120,124H99V101h21Z"/><path d="M83,108h2a2,2,0,1,0,0-4H83a2,2,0,0,0,0,4Z"/><path d="M105.4,118h8.2a2.45,2.45,0,0,0,2.4-2.5v-8a2.45,2.45,0,0,0-2.4-2.5h-8.2a2.45,2.45,0,0,0-2.4,2.5v8A2.45,2.45,0,0,0,105.4,118Zm1.6-9h5v5h-5Z"/><path d="M54.4,118h8.2a2.45,2.45,0,0,0,2.4-2.5v-8a2.45,2.45,0,0,0-2.4-2.5H54.4a2.45,2.45,0,0,0-2.4,2.5v8A2.45,2.45,0,0,0,54.4,118Zm1.6-9h5v5H56Z"/><path d="M10,92h3a2,2,0,0,0,0-4H10a2,2,0,1,0,0,4Z"/><path d="M10,100h3a2,2,0,0,0,0-4H10a2,2,0,1,0,0,4Z"/><path d="M10,108h3a2,2,0,0,0,0-4H10a2,2,0,1,0,0,4Z"/><path d="M10,116h3a2,2,0,0,0,0-4H10a2,2,0,1,0,0,4Z"/><path d="M10,124h3a2,2,0,1,0,0-4H10a2,2,0,0,0,0,4Z"/></svg>