<svg xmlns="http://www.w3.org/2000/svg" data-name="Layer 1" viewBox="0 0 128 160" x="0px" y="0px"><title>expand lines</title><path d="M37.39,44.34a2,2,0,0,0-2.73-.73,2,2,0,0,0-.73,2.75c3.11,5.41,2.87,7.69,2.62,8.42a1,1,0,0,1-.41.58c-.11,0-.08,0-.22.09-2.31,1-5.39-3.38-6.08-4.59a2,2,0,0,0-2.73-.75,2,2,0,0,0-.74,2.75c1.57,2.76,5,6.77,8.86,6.77a5.67,5.67,0,0,0,1.45-.2l0,0c2.47,2.59,1.82,7,1.38,8.93a2,2,0,0,0-.22.18h0c-3,.77-6.93-1.22-9.15-2.68a8.32,8.32,0,0,0,.09-3.61,7.39,7.39,0,0,0-3.93-5.56,2,2,0,0,0-2.63,1.06,2,2,0,0,0,1,2.65A3.58,3.58,0,0,1,24.86,63a3.21,3.21,0,0,1-.5,2.74c-.73.72-2.82.91-5,.45a18.62,18.62,0,0,1-3.81-1.32,2,2,0,0,0-2.65,1,2,2,0,0,0,1,2.67,22.53,22.53,0,0,0,4.63,1.59,15.48,15.48,0,0,0,3.12.33,8.42,8.42,0,0,0,4.78-1.26c2,1.3,6,3.55,10,3.55a9.66,9.66,0,0,0,2.23-.26c2.37,3.17,8.56,13.18,7.07,29.55-6.31-11-16.58-14-24-14.6C19.61,69.4,6.34,68,6.2,68a2,2,0,0,0-.35,4c.1,0,9.89,1,11.86,15.31a35.08,35.08,0,0,0-4.36.34,7.18,7.18,0,0,0-3.46-3A14.81,14.81,0,0,0,1.7,84a2,2,0,0,0,.61,4,11.22,11.22,0,0,1,6,.35c2.31,1,2,2.8,1.72,3.51a3.54,3.54,0,0,1-4.34,2.29A2,2,0,0,0,3.2,95.58a2,2,0,0,0,1.4,2.48,7.87,7.87,0,0,0,2.09.29,7.62,7.62,0,0,0,7.07-5.12,7.24,7.24,0,0,0,.36-1.58,31.84,31.84,0,0,1,5.65-.33l.16,0h.14c7.21.26,18.51,3,24,16.52H34a2,2,0,0,0,0,4H94a2,2,0,0,0,0-4H83.88c5.52-13.5,16.81-16.25,24-16.52h.34a31.72,31.72,0,0,1,5.62.33,7.24,7.24,0,0,0,.36,1.58,7.62,7.62,0,0,0,7.07,5.12,7.87,7.87,0,0,0,2.09-.29,2,2,0,0,0,1.4-2.48,2,2,0,0,0-2.46-1.41A3.54,3.54,0,0,1,118,91.87c-.25-.71-.59-2.49,1.72-3.51a11.22,11.22,0,0,1,6-.35,2,2,0,0,0,.61-4,14.82,14.82,0,0,0-8.2.65,7.18,7.18,0,0,0-3.46,3,35.35,35.35,0,0,0-4.36-.34c1.94-14.1,11.42-15.27,11.87-15.32A2,2,0,0,0,124,69.85,2,2,0,0,0,121.8,68c-.14,0-13.42,1.39-15.57,19.46-7.4.62-17.67,3.65-24,14.6-1.49-16.37,4.7-26.38,7.07-29.55a9.66,9.66,0,0,0,2.23.26c4,0,8-2.25,10-3.55a8.41,8.41,0,0,0,4.78,1.27,15.47,15.47,0,0,0,3.12-.33,22.53,22.53,0,0,0,4.63-1.59,2,2,0,0,0,1-2.67,2,2,0,0,0-2.65-1,18.62,18.62,0,0,1-3.81,1.32c-2.16.46-4.25.27-5-.45a3.21,3.21,0,0,1-.5-2.74,3.58,3.58,0,0,1,1.58-2.59,2,2,0,0,0,1-2.65,2,2,0,0,0-2.63-1.06,7.39,7.39,0,0,0-3.93,5.56,8.31,8.31,0,0,0,.09,3.61c-2.22,1.46-6.15,3.44-9.14,2.68h0a2.11,2.11,0,0,0-.23-.18c-.44-2-1.08-6.36,1.37-8.93l0,0a5.67,5.67,0,0,0,1.45.2c3.89,0,7.29-4,8.86-6.77a2,2,0,0,0-.74-2.75,2,2,0,0,0-2.73.75c-.69,1.22-3.74,5.55-6.08,4.59l-.28-.09a1.5,1.5,0,0,1-.31-.46c-.23-.55-.73-2.78,2.58-8.53a2,2,0,0,0-.73-2.75,2,2,0,0,0-2.73.73c-3.07,5.34-4,9.31-2.79,12.13a5.35,5.35,0,0,0,.29.58C84.35,61.43,85.64,67.87,86.2,70c-3.07,4-11,16.69-7.21,37.87h-5.2a2,2,0,0,0-.2-.89c-.06-.12-5.73-12.11-.08-24.68a5.79,5.79,0,0,0,2.22-.65c2.25-1.16,4-3.69,5.18-7.51a2,2,0,0,0-1.31-2.53,2,2,0,0,0-2.51,1.32c-1.41,4.53-3.28,5.48-4,5.37a1.16,1.16,0,0,1-.65-.76c-.49-1.64,1-5,2.18-6.88A2,2,0,0,0,74,67.85a2,2,0,0,0-2.77.59c-.4.62-3.87,6.16-2.66,10.24a5.16,5.16,0,0,0,1.23,2.12c-5.44,12.3-1.51,23.81-.18,27h-6a2,2,0,0,0-.21-.93c-10.08-19.64.31-35.53.81-36.27a22.81,22.81,0,0,0,1.41-2.76c2.53-.29,10.9-2.16,12-14a5.66,5.66,0,0,0,2.62-1.48C82.07,50.62,83,47.67,83,43.63a2,2,0,0,0-2-2h0a2,2,0,0,0-2,2c0,4.72-1.5,6.21-2.26,6.35a1.06,1.06,0,0,1-.8-.48c-.94-1.38-.54-5,0-7.15a2,2,0,1,0-3.85-1.08c-.2.71-1.85,7.05.52,10.52a5.16,5.16,0,0,0,1,1.11c-.5,7.32-4.14,9.78-6.62,10.59a47.42,47.42,0,0,0,1.28-7,2,2,0,1,0-4-.45c-.59,5.29-1.81,9.49-3.57,12.4a35.62,35.62,0,0,0-4,8.77,37,37,0,0,0-4.53-9.92c-.31-.48-.59-1-.85-1.52,2.89-1.41,7.6-5,8.72-13.55A6,6,0,0,0,63,50.71c2-1.83,3-4.87,3-9a2,2,0,1,0-4,0c0,5.88-2.27,6.54-2.61,6.61a1.32,1.32,0,0,1-1-.59c-1-1.45-.55-5.16.07-7.32a2,2,0,1,0-3.84-1.13c-.21.72-2,7.14.47,10.72a5.33,5.33,0,0,0,1.19,1.26C55.5,58.1,52,60.93,49.95,62c-3-9.7-1.61-22.33-1.59-22.49a2,2,0,1,0-4-.48c-.08.7-1.74,15.28,2.45,26.16a2.1,2.1,0,0,0,.16.4,24.38,24.38,0,0,0,2,4c.48.69,11.68,17.05.82,37.28a2,2,0,0,0-.23,1H49C52.77,86.66,44.87,74,41.8,70c.56-2.1,1.85-8.54-1.9-12.92a5.35,5.35,0,0,0,.29-.58C41.38,53.65,40.46,49.68,37.39,44.34ZM56.66,101a44.92,44.92,0,0,0,2.69,6.87H53.83A45.15,45.15,0,0,0,56.66,101Z"/><path d="M64,124H63a2,2,0,0,0,0,4h1a2,2,0,0,0,0-4Z"/><path d="M89,124H74a2,2,0,0,0,0,4H89a2,2,0,0,0,0-4Z"/><path d="M57,124H40a2,2,0,0,0,0,4H57a2,2,0,0,0,0-4Z"/><path d="M126,107.84H115a2,2,0,0,0,0,4h11a2,2,0,0,0,0-4Z"/><path d="M102,107.84a2,2,0,0,0,0,4h5a2,2,0,0,0,0-4Z"/><path d="M15,107.84a2,2,0,0,0,0,4H26a2,2,0,0,0,0-4Z"/><path d="M2,111.87H7a2,2,0,0,0,0-4H2a2,2,0,0,0,0,4Z"/><path d="M58,115.91a2,2,0,0,0,0,4H75a2,2,0,0,0,0-4Z"/><path d="M47,115.91a2,2,0,0,0,0,4h1a2,2,0,0,0,0-4Z"/><path d="M81,115.91a2,2,0,0,0,0,4h1a2,2,0,0,0,0-4Z"/><path d="M43,117.92a2,2,0,0,0-2-2H24a2,2,0,0,0,0,4H41A2,2,0,0,0,43,117.92Z"/><path d="M104,115.91H92a2,2,0,0,0,0,4h12a2,2,0,0,0,0-4Z"/><path d="M26,124H25a2,2,0,0,0,0,4h1a2,2,0,0,0,0-4Z"/><path d="M19,124H2a2,2,0,0,0,0,4H19a2,2,0,0,0,0-4Z"/><path d="M103,124h-1a2,2,0,0,0,0,4h1a2,2,0,0,0,0-4Z"/><path d="M126,124H109a2,2,0,0,0,0,4h17a2,2,0,0,0,0-4Z"/><path d="M21,33.26a9.07,9.07,0,1,0-9-9.07A9,9,0,0,0,21,33.26Zm0-14.11a5,5,0,1,1-5,5A5,5,0,0,1,21,19.15Z"/><path d="M6,12.09A6,6,0,0,0,6,0,6,6,0,0,0,6,12.09ZM6,4A2,2,0,1,1,4,6,2,2,0,0,1,6,4Z"/><path d="M7.33,39a2,2,0,0,0-2.61,1.1q-.39,1-.75,1.95a2,2,0,0,0,1.18,2.59,2,2,0,0,0,2.57-1.19q.34-.92.7-1.82A2,2,0,0,0,7.33,39Z"/><path d="M33.92,11.87a2,2,0,0,0,1-.25q.84-.47,1.7-.92A2,2,0,0,0,37.46,8a2,2,0,0,0-2.69-.87q-.91.47-1.81,1a2,2,0,0,0-.78,2.74A2,2,0,0,0,33.92,11.87Z"/><path d="M95.76,13.19q.82.52,1.62,1.06a2,2,0,0,0,.84.3,13,13,0,0,1,2.25-1.67,2,2,0,0,0-.85-2q-.86-.58-1.74-1.13a2,2,0,0,0-2.75.64A2,2,0,0,0,95.76,13.19Z"/><path d="M2,66.52a2,2,0,0,0,2-2q0-1,0-2a2,2,0,1,0-4-.12q0,1,0,2.08A2,2,0,0,0,2,66.52Z"/><path d="M1.39,51.09q-.21,1-.39,2a2,2,0,0,0,1.62,2.34,2,2,0,0,0,.35,0,2,2,0,0,0,2-1.66q.17-1,.37-1.92a2,2,0,1,0-3.91-.83Z"/><path d="M121.82,48.28a2,2,0,0,0,1.93,1.48,2,2,0,0,0,.54-.08,2,2,0,0,0,1.39-2.48q-.28-1-.59-2a2,2,0,1,0-3.82,1.21Q121.56,47.34,121.82,48.28Z"/><path d="M86.27,8.34q.9.36,1.79.76a2,2,0,0,0,2.63-1,2,2,0,0,0-1-2.65q-.94-.41-1.9-.8a2,2,0,0,0-2.6,1.12A2,2,0,0,0,86.27,8.34Z"/><path d="M121.67,36.51q-.45-.94-.92-1.85a2,2,0,0,0-2.7-.85,2,2,0,0,0-.85,2.72q.45.86.87,1.74a2,2,0,0,0,2.67.94A2,2,0,0,0,121.67,36.51Z"/><path d="M123.74,58.82a2,2,0,0,0,2,1.83h.19a2,2,0,0,0,1.8-2.19q-.1-1-.22-2.07a2,2,0,1,0-4,.5Q123.65,57.84,123.74,58.82Z"/><path d="M44,7.37a2,2,0,0,0,.65-.11q.92-.31,1.84-.6a2,2,0,0,0-1.17-3.85q-1,.3-2,.64A2,2,0,0,0,44,7.37Z"/><path d="M76.09,5.26q.95.2,1.89.42a2,2,0,0,0,.47.06,2,2,0,0,0,.46-4q-1-.24-2-.45a2,2,0,0,0-.8,3.95Z"/><path d="M54.62,4.74l.3,0q1-.15,1.92-.26a2,2,0,0,0-.47-4q-1,.12-2,.28a2,2,0,0,0,.3,4Z"/><path d="M65.53,4q1,0,1.93.08h.12a2,2,0,0,0,.11-4Q66.67,0,65.63,0a2,2,0,0,0-2,2A2,2,0,0,0,65.53,4Z"/><path d="M107,33.26a9.07,9.07,0,1,0-9-9.07A9,9,0,0,0,107,33.26Zm0-14.11a5,5,0,1,1-5,5A5,5,0,0,1,107,19.15Z"/><path d="M122,12.09a6,6,0,1,0-6-6A6,6,0,0,0,122,12.09ZM122,4a2,2,0,1,1-2,2A2,2,0,0,1,122,4Z"/><path d="M64,25.2a5,5,0,1,0-5-5A5,5,0,0,0,64,25.2Zm0-6a1,1,0,1,1-1,1A1,1,0,0,1,64,19.15Z"/><path d="M9.55,34.52a2,2,0,0,0,2.71-.67A13.17,13.17,0,0,1,9.61,30.5c-.26.42-.52.84-.77,1.26A2,2,0,0,0,9.55,34.52Z"/></svg>