<svg xmlns="http://www.w3.org/2000/svg" data-name="Layer 1" viewBox="0 0 128 160" x="0px" y="0px"><title>miscellaneous 61 final</title><path d="M3.38666,72.13214l-.03058-.01062c-.06323-.02148-.1272-.02924-.19086-.04419-.05719-.01343-.11121-.03375-.17047-.04224-.00494-.00073-.00964,0-.01459-.00067a1.963,1.963,0,0,0-.23828-.01044c-.05573-.001-.1123-.00824-.16711-.00464-.03809.00256-.07446.013-.11212.01776a1.986,1.986,0,0,0-1.24463.64526l-.00519.007a1.99136,1.99136,0,0,0-.22351.30695c-.01276.02173-.02069.04694-.03271.06921a1.97,1.97,0,0,0-.13324.29126l-.00531.01166c-.01941.057-.02594.11469-.04.17206-.0155.06354-.03748.12427-.04694.19037L.728,73.75635l-.00177.014c-2.06616,14.45142.28162,26.558,6.97845,35.98218C14.639,119.50983,26.56451,125.20532,41.28583,125.79q2.94424.11646,5.63367.11426c3.63,0,6.91693-.15277,9.90466-.41339a44.0307,44.0307,0,0,1-11.2381-3.60028c-1.33771-.01416-2.7077-.04205-4.142-.09882-13.45477-.53436-24.27869-5.633-30.47974-14.35724-5.7052-8.03-7.91779-18.326-6.589-30.63287a79.688,79.688,0,0,1,17.544,9.91565,40.65465,40.65465,0,0,1,.28247-4.89087A83.24164,83.24164,0,0,0,3.38916,72.13306Z"/><path d="M32.21173,112.23334c-5.17212-2.61328-12.62939-8.22687-16.20557-19.7597A1.99987,1.99987,0,1,0,12.186,93.65857c6.37482,20.55969,23.95349,24.42212,24.69861,24.57648a1.97709,1.97709,0,0,0,1.7088-.44855A42.94637,42.94637,0,0,1,32.21173,112.23334Z"/><path d="M127.27,73.7688l-.00116-.00928-.00366-.02911c-.0094-.06531-.03137-.12518-.04675-.188-.0141-.05762-.02063-.1156-.04016-.17291l-.00623-.01361a1.96328,1.96328,0,0,0-.10638-.23212c-.02179-.04346-.03833-.09052-.06287-.1319a1.96635,1.96635,0,0,0-.11945-.16376c-.0379-.051-.07147-.10571-.11359-.15234-.03723-.0412-.08154-.07446-.12189-.11237a1.28,1.28,0,0,0-.37927-.28088c-.03564-.02026-.06818-.046-.105-.064a1.99832,1.99832,0,0,0-.32092-.12128c-.01239-.0036-.0238-.01007-.03625-.01343a1.97532,1.97532,0,0,0-.27429-.04669c-.03754-.00476-.07385-.01514-.11182-.0177-.06085-.004-.12323.00336-.18506.00507a1.95673,1.95673,0,0,0-.22009.01c-.00458.00067-.009-.00006-.01361.00061-.0553.00793-.10553.02728-.15906.03949a1.96521,1.96521,0,0,0-.20227.04694,83.70306,83.70306,0,0,0-18.84485,9.67572,40.6596,40.6596,0,0,1,.28564,4.88177,80.23643,80.23643,0,0,1,17.54065-9.87909c1.33807,12.35461-.88458,22.68945-6.61993,30.7489a35.06866,35.06866,0,0,1-30.46021,14.40948c-1.327-.0611-2.60748-.13843-3.86334-.22369a45.412,45.412,0,0,1-8.84338,3.1994c3.772.45172,7.93658.81042,12.52313,1.02155q.97119.04468,1.93353.04443a38.92384,38.92384,0,0,0,31.968-16.13068C126.98871,100.415,129.34625,88.269,127.27,73.7688Z"/><path d="M89.2218,117.90906a1.97374,1.97374,0,0,0,1.72784.46661c.748-.15479,18.40485-4.028,24.808-24.65265a2.00016,2.00016,0,1,0-3.82019-1.18689c-3.59222,11.57086-11.08362,17.20416-16.28064,19.8277A43.05624,43.05624,0,0,1,89.2218,117.90906Z"/><path d="M66.11041,107.98352a2.0007,2.0007,0,0,0-.2207,3.9953q.44678.02417.90723.02441c7.0672,0,16.51324-4.34747,21.67328-13.02673C92.435,92.31,95.08435,80.99817,85.19885,64.96759a2.00024,2.00024,0,1,0-3.40424,2.1012c8.83472,14.325,6.63751,24.14618,3.23822,29.86218C80.50946,104.53918,71.89838,108.31079,66.11041,107.98352Z"/><path d="M28.51263,72.56152a40.70571,40.70571,0,0,0-2.54218,15.81219c.01642,1.033.0722,1.63611.07745,1.6842a2.01207,2.01207,0,0,0,.10284.44226,32.38871,32.38871,0,0,0,4.03186,12.37006C37.64142,115.998,53.08728,122.50336,63.882,122.012a2.05326,2.05326,0,0,0,.27441.00146c.376.01709.75879.02588,1.14648.02588,10.71454-.00049,25.32452-6.51459,32.51483-19.16913,5.05457-8.89618,8.14526-23.903-5.83484-44.87634C67.28131,20.94556,65.98346,4.05292,65.97369,3.89618a2.02538,2.02538,0,0,0-2.04877-1.89606,2.0006,2.0006,0,0,0-1.94818,2.00006c0,1.37427-.595,13.152-18.59937,42.50281a58.23607,58.23607,0,0,1,7.263-4.37616C58.33636,28.816,62.2005,19.48529,64.11145,13.35449c2.82318,8.80432,9.37183,24.1051,24.54333,46.85931,12.85028,19.27655,10.18433,32.76147,5.68542,40.67926-6.449,11.34851-20.38428,17.61206-30.12036,17.1178-.0332-.00146-.06738-.00244-.10156-.00244-.03906,0-.07812.001-.11621.00342a1.96141,1.96141,0,0,0-.22168-.001c-9.74976.49524-23.67224-5.76978-30.12036-17.1178a28.78984,28.78984,0,0,1-3.66449-16.04535l.0069-.10968c.019-.32672.04529-.65826.07452-.99158.01245-.14136.02625-.28589.04053-.43109.54987-5.47314,2.51587-11.82263,6.71368-19.05939,5.61475-8.44922,15.70911-16.7085,33.7879-20.66321-.81342,9.42456-5.43146,42.08643-30.39471,46.46075.124-5.08453,1.957-18.35156,16.69879-28.5542a2.00009,2.00009,0,0,0-2.27533-3.29c-20.24268,14.009-18.438,33.52-18.35114,34.34351a2.001,2.001,0,0,0,1.98724,1.791,2.0481,2.0481,0,0,0,.21094-.01074c34.5929-3.64069,36.27649-52.67548,36.28918-53.17023A1.99932,1.99932,0,0,0,72.414,39.14465C43.94824,44.5166,32.84369,60.01538,28.57043,72.51514A.18553.18553,0,0,0,28.51263,72.56152Z"/></svg>