<svg xmlns="http://www.w3.org/2000/svg" version="1.1" viewBox="-5.0 -2.0 110.0 105.0">
 <path d="m78.906 53.125c0.86328 0 1.5625-0.69922 1.5625-1.5625s-0.69922-1.5625-1.5625-1.5625h-5.4688v-0.61719c0-0.86328-0.69922-1.5625-1.5625-1.5625h-9.7227c-0.085938-0.042968-0.16797-0.089843-0.24609-0.14844-11.039-7.9219-19.105-6.1133-19.445-6.0352-0.18359 0.046875-0.35547 0.12109-0.51172 0.22656-3.2148 2.1758-5.3008 8.25-6.2578 11.676-0.34375 1.3008-0.0625 2.6836 0.75781 3.75 0.82031 1.0625 2.0898 1.6836 3.4336 1.6836 1.1875 0 2.6484-0.48828 4.2656-2.0703 0.50781-0.5 1.4336-1.4258 2.2422-2.3164 1.9922 2.1875 4.707 3.5859 7.6484 3.9297 0.042969 0.003906 0.085938 0.003906 0.12891 0.003906l-0.003907 0.003907c0.83594-0.003907 1.5234-0.66406 1.5586-1.4961 0.035156-0.83594-0.59375-1.5508-1.4258-1.625-0.22656-0.019532-5.6016-0.56641-7.1602-5.8789-0.11719-0.39844-0.38672-0.73047-0.75-0.92969s-0.79297-0.24609-1.1914-0.12891c-0.39453 0.11719-0.73047 0.38672-0.92969 0.75-0.19922 0.36328-0.24609 0.79297-0.12891 1.1914 0.14453 0.48047 0.31641 0.95703 0.51953 1.418-0.55469 0.66797-1.5703 1.7383-2.6992 2.8438-1.5117 1.4805-2.2773 1.1875-2.5273 1.0898v0.003907c-0.53125-0.23828-0.83203-0.80859-0.73047-1.3828 1.0469-3.7422 2.8242-8.1836 4.7539-9.7461 1.4023-0.19141 7.9375-0.66016 16.629 5.5781h0.003907c0.57031 0.44922 1.2695 0.70312 1.9961 0.73437h1.9805v15.336h-2.1289c-2.2734 0-3.4648 1.0586-4.7227 2.1797l-0.082032 0.074218c-2.2031 1.9492-3.2891 2.5586-5.7852 2.5586h-2.0664c0.082031-0.71484 0.17969-1.4258 0.29297-2.1367 0.41797-2.6836 0.66016-5.3945 0.72656-8.1133-1.0898-0.39062-2.1289-0.89844-3.1055-1.5156 0 3.0586-0.23828 6.1133-0.70703 9.1367-0.83594 5.8086-0.97266 11.699-0.39844 17.539h-6.2305c0.57031-5.8398 0.43359-11.73-0.40234-17.539-0.33594-2.1367-0.55078-4.293-0.64453-6.4531-0.55078-0.078125-1.0898-0.21875-1.6133-0.41406-0.55078-0.21484-1.0742-0.49219-1.5547-0.83203 0.035156 1.3438 0.10547 2.707 0.22656 4.0859h-2.1172c-1.1445-0.36328-2.125-1.1211-2.7617-2.1406-0.35547-0.79297-0.39062-1.6953-0.10156-2.5195h4.0234c-0.94141-0.84766-1.6523-1.9258-2.0703-3.125h-2.9453c-0.61328-0.59766-1.0352-1.3633-1.207-2.1992-0.125-0.85156 0.039062-1.7188 0.46484-2.4648 0.12891 0.035156 0.26172 0.054687 0.39453 0.054687h3.2031c0.28516-0.99609 0.61328-2.0547 0.99609-3.125h-4.1992c-0.007813 0-0.015625 0.003907-0.019531 0.003907-0.28125-0.28516-1.7695-1.9336-0.49219-3.6953 0.19531-0.16797 0.43359-0.27734 0.69141-0.30859h5.7031-0.003907c0.53125-1.0703 1.1445-2.1016 1.8398-3.0781 0.79688-1.1562 1.7891-2.1641 2.9336-2.9766 0.15625-0.10156 0.32031-0.19141 0.48438-0.26953 0.21484-2.5898 0.33203-5.2266 0.33203-7.8867v-6.1211h3.9062v6.1172c0 2.4141 0.09375 4.8047 0.27344 7.1602 1.0547 0.007812 2.1055 0.085937 3.1484 0.23828-0.19531-2.4297-0.29688-4.8984-0.29688-7.3945v-6.1602c0.71484-0.16016 1.2227-0.79297 1.2227-1.5234v-8.4453c4.7695-0.83594 9.9492 4.293 12.055 6.6641 1.2305 1.3867 3.2812 1.6797 4.8516 0.69922 1.5742-0.98047 2.207-2.9531 1.5039-4.668-3.1172-7.6523-9.1875-13.727-16.84-16.848-1.3828-0.55859-2.8633-0.84375-4.3555-0.83984h-7.4609c-0.86328 0-1.5625 0.69922-1.5625 1.5625 0 0.039062 0 0.078125 0.003906 0.11328 0 0.054688 0.003906 0.14453 0.003906 0.26172h-0.003906c0.007812 0.68359-0.26172 1.3438-0.74609 1.8242-0.49219 0.49609-1.1641 0.77344-1.8594 0.77344h-0.92188c-1.4336 0.007813-2.5977-1.1445-2.6094-2.5742 0-0.86328-0.69922-1.5625-1.5625-1.5625h-6.8438c-0.90234-0.003907-1.7656 0.35547-2.4023 0.99219s-0.99219 1.5039-0.98828 2.4062l0.089844 12.523c0.019531 1.8594 1.5312 3.3516 3.3906 3.3516h6.7539c0.86328 0 1.5625-0.69922 1.5625-1.5625 0.011719-1.3359 1.1016-2.4102 2.4375-2.4023h0.34375c1.3359-0.007812 2.4258 1.0664 2.4336 2.4023v5.3281c0.003906 0.77734 0.57812 1.4336 1.3477 1.5391v6.1406c0 3.707-0.22656 7.4102-0.67969 11.09h-7.4844c-1.2539 0.03125-2.4297 0.60938-3.2109 1.5859-1.5078 2.0352-1.4922 4.8164 0.039063 6.832-0.875 1.4258-1.2109 3.1211-0.94922 4.7773 0.3125 1.5469 1.0938 2.957 2.2422 4.0391-0.47656 1.5391-0.35547 3.2031 0.33984 4.6602 0.6875 1.293 1.7461 2.3477 3.043 3.0312-0.43359 0.94141-0.5625 1.9961-0.375 3.0156 0.35938 1.4961 1.3398 2.7656 2.6914 3.4961 0.61328 0.35938 1.3086 0.55078 2.0195 0.55078 0.35156 0 0.83203 0.003907 1.3633 0.003907 0.36328 7.3984-0.21484 14.816-1.7109 22.07-0.18359 0.89844 0.046875 1.8359 0.62891 2.543 0.62109 0.75781 1.5508 1.1953 2.5312 1.1875h9.1797c0.98047 0.007812 1.9102-0.42969 2.5312-1.1875 0.58203-0.70703 0.8125-1.6445 0.62891-2.543-1.4961-7.25-2.0703-14.656-1.7148-22.051h2.3359c3.4727 0 5.3008-1.082 7.8555-3.3516l0.085938-0.074219c1.1875-1.0547 1.6133-1.3906 2.6484-1.3906l9.9453 0.003906c0.86328 0 1.5625-0.70312 1.5625-1.5625v-0.65625h5.4688c0.86328 0 1.5625-0.69922 1.5625-1.5625s-0.69922-1.5625-1.5625-1.5625h-5.4688v-10.938zm-50.781-36.578h-5.1133c-0.14453 0.003906-0.26172-0.10547-0.26562-0.25l-0.089844-12.523c0-0.0625 0.023438-0.125 0.070312-0.17188 0.050782-0.050781 0.12109-0.082031 0.19531-0.078124h5.2031zm5.9844-3.9688h-0.34375v0.003906c-0.875 0-1.7383 0.20703-2.5156 0.60547v-6.1953c0.82812 0.4375 1.75 0.66797 2.6875 0.66797h0.92188c2.707 0.003906 5.0469-1.8867 5.6133-4.5352h6.0117c1.0898-0.003906 2.168 0.20312 3.1758 0.60938 6.8789 2.8086 12.332 8.2695 15.133 15.152 0.125 0.29688 0.015625 0.63672-0.25781 0.80859-0.28125 0.17969-0.64844 0.13281-0.875-0.11328-2.6836-3.0195-9.6602-9.7773-16.496-7.2422-0.61328 0.22656-1.0195 0.80859-1.0195 1.4648v8.0703h-6.4766v-3.7656c-0.011719-3.0586-2.5-5.5352-5.5586-5.5273zm1.4688 58.488v0.003906c-0.15234 0-0.30469-0.039062-0.43359-0.11328-0.57812-0.29688-1.0195-0.80859-1.2227-1.4219-0.058594-0.54688 0.074219-1.0977 0.375-1.5586h1.9336c0.046875 0.32813 0.085937 0.65625 0.13672 0.98047 0.11328 0.70312 0.21094 1.4102 0.29297 2.1172-0.41797 0-0.79688-0.003907-1.082-0.003907zm11.98 25.809h-9.1797c-0.046875 0-0.074218-0.019531-0.089844-0.011719 0.35547-1.7188 0.84766-4.4336 1.2461-7.7383h6.8789c0.40234 3.3086 0.90234 6.0156 1.2578 7.7109l-0.003906 0.003906c-0.03125 0.027344-0.070313 0.039062-0.10938 0.035156zm22.754-30.594h-3.125v-15.336h3.125z"/>
</svg>
