<svg xmlns="http://www.w3.org/2000/svg" data-name="Layer 1" viewBox="0 0 128 160" x="0px" y="0px"><title>construction works 02 expandlines</title><path d="M128,20.7666a3.96765,3.96765,0,0,0-1.17187-2.82812L110.06249,1.17285a3.99853,3.99853,0,0,0-5.65722-.001L1.17188,104.40527a3.99854,3.99854,0,0,0,0,5.65625L17.938,126.82813a4.00385,4.00385,0,0,0,5.65674,0l103.2334-103.2334A3.97267,3.97267,0,0,0,128,20.7666ZM20.76611,124,4,107.2334l4.20264-4.20264,9.3833,9.3833a1.99979,1.99979,0,0,0,2.82813-2.82812l-9.3833-9.3833,7.67188-7.67187,4.8833,4.8833a1.99979,1.99979,0,0,0,2.82813-2.82812l-4.8833-4.8833,6.67188-6.67187,9.3833,9.3833a1.99979,1.99979,0,0,0,2.82813-2.82812l-9.3833-9.3833,7.67188-7.67187,4.8833,4.8833a1.99979,1.99979,0,0,0,2.82813-2.82812l-4.8833-4.8833,6.67188-6.67187,9.3833,9.3833a1.99979,1.99979,0,0,0,2.82813-2.82812l-9.3833-9.3833,8.67188-8.67187,4.8833,4.8833a1.99979,1.99979,0,0,0,2.82813-2.82812l-4.8833-4.8833,7.67188-7.67187,9.3833,9.3833a1.99979,1.99979,0,0,0,2.82813-2.82812l-9.3833-9.3833,9.17188-9.17187,5.3833,5.3833a1.99979,1.99979,0,0,0,2.82813-2.82812l-5.3833-5.3833,7.17188-7.17187,9.3833,9.3833a1.99979,1.99979,0,0,0,2.82813-2.82812l-9.3833-9.3833,5.17187-5.17188,5.3833,5.3833a1.99979,1.99979,0,0,0,2.82813-2.82812l-5.3833-5.3833L107.2334,4,124.002,20.76465Z"/><path d="M124.58594,36.58594l-88,88a1.99979,1.99979,0,1,0,2.82813,2.82813l88-88a1.99979,1.99979,0,0,0-2.82812-2.82812Z"/><path d="M9.00049,75a2.00936,2.00936,0,0,0,.80518-.16895l18-7.91992a1.995,1.995,0,0,0,.94281-.88422L72.41406,22.36133a1.99927,1.99927,0,0,0,0-2.82812L62.4668,9.58594a1.99927,1.99927,0,0,0-2.82812,0L15.97321,53.2514a1.98826,1.98826,0,0,0-.88385.94293l-7.91992,18A2.00029,2.00029,0,0,0,9.00049,75ZM68.17188,20.94727,26.94727,62.17188l-2.14545-2.14557L66.02637,18.80176Zm-7.11914-7.11914,2.14551,2.14551L21.97382,57.19806l-2.1452-2.14532ZM17.57324,58.48145l5.94531,5.94531-10.6167,4.67188Z"/></svg>