<svg xmlns="http://www.w3.org/2000/svg" data-name="Layer 1" viewBox="0 0 128 160" x="0px" y="0px"><title>Micellaneous 208_Expanded</title><path d="M106,0H22a8.00917,8.00917,0,0,0-8,8V120a8.00917,8.00917,0,0,0,8,8h84a8.00917,8.00917,0,0,0,8-8V8A8.00917,8.00917,0,0,0,106,0ZM18,65.56555,28.55273,71.623a2,2,0,0,0,2.14648-.09814l11.5332-8.10742L54.64551,71.561a2.00379,2.00379,0,0,0,1.624.25684l8.42285-2.30225L55.0957,78.44971l-11.7793-7.99316a2.00052,2.00052,0,0,0-2.24609,0L29.09668,78.583,18,71.05176Zm92,42.8045-10.041-5.97748a2.00268,2.00268,0,0,0-2.20117.10254L86.70215,110.5542,74.80273,102.458a1.99723,1.99723,0,0,0-1.6709-.271L65.124,104.45752l9.1875-8.87109,11.2793,7.938a2.00288,2.00288,0,0,0,2.30273,0L99.37109,95.4458,110,102.92706Zm0-10.33514-9.47754-6.67065a2.00288,2.00288,0,0,0-2.30273,0L86.74219,99.44287,75.2627,91.36426a2.00391,2.00391,0,0,0-2.541.19678L56.61035,107.1167A2.00055,2.00055,0,0,0,58.5459,110.48L73.3252,106.29l12.292,8.36377a2,2,0,0,0,2.30273-.0376l11.127-8.11084L110,113.02606V120a4.00427,4.00427,0,0,1-4,4H22a4.00427,4.00427,0,0,1-4-4V75.88574l9.97363,6.769a2.00052,2.00052,0,0,0,2.24609,0l11.97363-8.12646,11.97559,8.12646a2.00047,2.00047,0,0,0,2.48633-.19092l16.708-15.55566a2.00028,2.00028,0,0,0-1.89062-3.39307L56.085,67.72168,43.29,59.32764a1.998,1.998,0,0,0-2.24707.03613L29.44043,67.52051,18,60.95325V8a4.00427,4.00427,0,0,1,4-4H40.89734l6.73743,10.667-7.32617,11.6001a2.00128,2.00128,0,0,0,0,2.13574l8,12.665a2.024,2.024,0,0,0,2.75978.62306,2.00013,2.00013,0,0,0,.623-2.75879L44.36523,27.335l7.32617-11.6001a2.00329,2.00329,0,0,0,0-2.13574L45.629,4H76.89734l6.73743,10.667-7.32617,11.6001a2.00128,2.00128,0,0,0,0,2.13574l8,12.665a2.03126,2.03126,0,0,0,2.75977.62306,2.00013,2.00013,0,0,0,.623-2.75879L80.36523,27.335l7.32617-11.6001a2.00329,2.00329,0,0,0,0-2.13574L81.629,4H106a4.00427,4.00427,0,0,1,4,4Z"/></svg>