<svg xmlns="http://www.w3.org/2000/svg" version="1.1" viewBox="-5.0 -10.0 110.0 135.0">
 <g>
  <path d="m82.02 14.305c0.86328 0 1.5625-0.69922 1.5625-1.5625v-3.3672c0-0.86328-0.69922-1.5625-1.5625-1.5625-0.85938 0-1.5625 0.69922-1.5625 1.5625v3.3672c0 0.86328 0.70312 1.5625 1.5625 1.5625z"/>
  <path d="m71.488 17.879c0.59375 0.62109 1.5742 0.66016 2.2109 0.082032 0.30469-0.28516 0.48047-0.67578 0.49609-1.0898 0.015626-0.41406-0.13281-0.81641-0.41406-1.1211l-2.4492-2.6328c-0.58594-0.63281-1.5742-0.66797-2.207-0.082032-0.63281 0.58984-0.66797 1.5781-0.082031 2.2109z"/>
  <path d="m75.535 14.488c0.41406 0.75391 1.3477 1.043 2.1094 0.66016 0.36719-0.19531 0.64453-0.52344 0.76562-0.92188 0.125-0.39453 0.085938-0.82422-0.10547-1.1875l-0.96875-1.8477-0.003907-0.003906c-0.39844-0.76562-1.3438-1.0586-2.1094-0.65625-0.76172 0.39844-1.0586 1.3438-0.65625 2.1094z"/>
  <path d="m66.539 21.188 1.875 0.85547c0.78516 0.35547 1.7109 0.007812 2.0664-0.77344 0.35938-0.78516 0.015625-1.7109-0.76953-2.0703l-1.875-0.85547c-0.78516-0.35938-1.7109-0.011719-2.0703 0.77344-0.35938 0.78516-0.011719 1.7148 0.77344 2.0703z"/>
  <path d="m91.426 18.355c0.43359 0.007812 0.84766-0.16797 1.1484-0.47656l2.4492-2.6328h-0.003907c0.58594-0.63281 0.55078-1.6211-0.082031-2.2109-0.63281-0.58594-1.6211-0.55078-2.207 0.082032l-2.4492 2.6328c-0.40234 0.46094-0.50781 1.1094-0.26172 1.6719 0.24609 0.55859 0.79688 0.92188 1.4062 0.93359z"/>
  <path d="m86.418 15.148c0.76172 0.38672 1.6992 0.097656 2.1094-0.66016l0.96875-1.8477c0.39844-0.76562 0.10547-1.707-0.65625-2.1094-0.76562-0.39844-1.7109-0.10547-2.1094 0.65625l-0.97266 1.8516c-0.19141 0.36328-0.23047 0.79297-0.10547 1.1875 0.12109 0.39844 0.39844 0.72656 0.76562 0.92188z"/>
  <path d="m93.578 21.27c0.37109 0.76953 1.2852 1.1094 2.0703 0.77344l1.875-0.85547c0.78516-0.35938 1.1289-1.2852 0.76953-2.0664-0.35547-0.78516-1.2812-1.1328-2.0664-0.77734l-1.875 0.85547c-0.78516 0.35938-1.1328 1.2852-0.77344 2.0703z"/>
  <path d="m81.996 16.195c-4.3164-0.13672-8.168 2.6836-9.3438 6.8398-0.21484 0.83203 0.28125 1.6836 1.1133 1.9023 0.82812 0.22266 1.6836-0.26953 1.9062-1.0977 0.88672-3.3359 3.9609-4.5195 6.3242-4.5195 2.3594 0 5.4297 1.1836 6.3164 4.5195 0.22266 0.83203 1.0781 1.3281 1.9102 1.1055 0.83203-0.22266 1.3281-1.0742 1.1094-1.9102-1.1719-4.1523-5.0234-6.9766-9.3359-6.8398z"/>
  <path d="m52.344 78.906c0.86328 0 1.5625-0.69922 1.5625-1.5625s-0.69922-1.5625-1.5625-1.5625h-9.375c-0.86328 0-1.5625 0.69922-1.5625 1.5625s0.69922 1.5625 1.5625 1.5625z"/>
  <path d="m55.469 82.031h-15.625c-0.86328 0-1.5625 0.69922-1.5625 1.5625s0.69922 1.5625 1.5625 1.5625h15.625c0.86328 0 1.5625-0.69922 1.5625-1.5625s-0.69922-1.5625-1.5625-1.5625z"/>
  <path d="m24.219 49.219h-9.375c-0.86328 0-1.5625 0.69922-1.5625 1.5625v10.938c0 0.86328 0.69922 1.5625 1.5625 1.5625h9.375c0.86328 0 1.5625-0.69922 1.5625-1.5625v-10.938c0-0.86328-0.69922-1.5625-1.5625-1.5625zm-1.5625 10.938h-6.25v-7.8125h6.25z"/>
  <path d="m74.219 64.844h7.8125c0.86328 0 1.5625-0.69922 1.5625-1.5625v-7.8125c0-0.86328-0.69922-1.5625-1.5625-1.5625h-7.8125c-0.86328 0-1.5625 0.69922-1.5625 1.5625v7.8125c0 0.86328 0.69922 1.5625 1.5625 1.5625zm1.5625-7.8125h4.6875v4.6875h-4.6875z"/>
  <path d="m47.656 40.625c-1.8945 0-3.6055 1.1406-4.332 2.8945-0.72266 1.75-0.32422 3.7656 1.0156 5.1094 1.3438 1.3398 3.3594 1.7383 5.1094 1.0156 1.7539-0.72656 2.8945-2.4375 2.8945-4.332-0.003906-2.5859-2.1016-4.6836-4.6875-4.6875zm0 6.25c-0.63281 0-1.2031-0.37891-1.4453-0.96484-0.23828-0.58203-0.10547-1.2539 0.33984-1.7031 0.44922-0.44531 1.1211-0.57812 1.7031-0.33984 0.58594 0.24219 0.96484 0.8125 0.96484 1.4453 0 0.86328-0.69922 1.5625-1.5625 1.5625z"/>
  <path d="m99.668 45.086-8.8359-11.25h-0.003906c-0.88281-1.1406-2.2422-1.8047-3.6836-1.8047h-19.312l3.043 3.125h16.27c0.48047 0 0.93359 0.22656 1.2266 0.60938l8.1133 10.328h-33.984v-3.125h5.4688c0.86328 0 1.5625-0.69922 1.5625-1.5625v-2.5156c0-0.40625-0.16016-0.80078-0.44141-1.0898l-16.32-16.762c-0.89844-0.96094-2.1562-1.5078-3.4727-1.5078h-16.484v-3.9883c-0.023438-1.7031-1.4219-3.0625-3.125-3.043h-3.125c-1.7031-0.019531-3.1016 1.3398-3.125 3.043v3.9883h-4.3398c-1.3359 0-2.6055 0.55859-3.5039 1.5469l-15.188 16.73c-0.26172 0.28906-0.40625 0.66406-0.40625 1.0508v2.5469c0 0.86328 0.69922 1.5625 1.5625 1.5625h1.5625v25c0.003906 2.5859 2.1016 4.6836 4.6875 4.6875h84.375c2.5859-0.003906 4.6836-2.1016 4.6875-4.6875v-18.75h1.5625c0.86328 0 1.5625-0.69922 1.5625-1.5625v-1.6055c0-0.35156-0.11719-0.69141-0.33203-0.96484zm-47.324 8.8203h-9.375c-0.86328 0-1.5625 0.69922-1.5625 1.5625v14.062h-5.4688v-27.391l11.719-11.797 11.719 11.797v27.391h-5.4688v-14.062c0-0.86328-0.69922-1.5625-1.5625-1.5625zm-49.219-14.441 14.781-16.289c0.30469-0.33203 0.73828-0.51953 1.1914-0.51953h4.3398v4.8086c0 0.86328 0.69922 1.5625 1.5625 1.5625s1.5625-0.69922 1.5625-1.5625v-11.84l3.125 0.007812v14.055c0 0.86328 0.69922 1.5625 1.5625 1.5625s1.5625-0.69922 1.5625-1.5625v-7.0312h16.484c0.46094 0 0.89844 0.19531 1.207 0.53516l15.902 16.332v0.32031h-4.9102l-12.73-12.82c-0.62109-0.58984-1.5977-0.58984-2.2188 0l-12.73 12.82h-30.691zm3.125 28.504v-25h26.562v26.562h-25c-0.86328 0-1.5625-0.69922-1.5625-1.5625zm38.281 1.5625v-12.5h6.25v12.5zm49.219-1.5625c0 0.86328-0.69922 1.5625-1.5625 1.5625h-29.688v-20.312h31.25z"/>
  <path d="m26.562 89.062h-4.6875v-2.6641c1.9766-0.9375 3.2031-2.9609 3.125-5.1484 0-3.0156-2.1016-5.4688-4.6875-5.4688s-4.6875 2.4531-4.6875 5.4688c-0.078125 2.1875 1.1484 4.2109 3.125 5.1484v2.6641h-9.375v-2.6641c1.9766-0.9375 3.2031-2.9609 3.125-5.1484 0-3.0156-2.1016-5.4688-4.6875-5.4688s-4.6875 2.4531-4.6875 5.4688c-0.078125 2.1875 1.1484 4.2109 3.125 5.1484v2.6641h-4.6875c-0.86328 0-1.5625 0.69922-1.5625 1.5625s0.69922 1.5625 1.5625 1.5625h25c0.86328 0 1.5625-0.69922 1.5625-1.5625s-0.69922-1.5625-1.5625-1.5625zm-18.75-5.4688c-0.83203 0-1.5625-1.0938-1.5625-2.3438s0.73047-2.3438 1.5625-2.3438 1.5625 1.0938 1.5625 2.3438-0.73047 2.3438-1.5625 2.3438zm12.5 0c-0.83203 0-1.5625-1.0938-1.5625-2.3438s0.73047-2.3438 1.5625-2.3438 1.5625 1.0938 1.5625 2.3438-0.73047 2.3438-1.5625 2.3438z"/>
  <path d="m98.438 89.062h-4.6875v-2.6641c1.9766-0.9375 3.2031-2.9609 3.125-5.1484 0-3.0156-2.1016-5.4688-4.6875-5.4688s-4.6875 2.4531-4.6875 5.4688c-0.078125 2.1875 1.1484 4.2109 3.125 5.1484v2.6641h-9.375v-2.6641c1.9766-0.9375 3.2031-2.9609 3.125-5.1484 0-3.0156-2.1016-5.4688-4.6875-5.4688s-4.6875 2.4531-4.6875 5.4688c-0.078125 2.1875 1.1484 4.2109 3.125 5.1484v2.6641h-4.6875c-0.86328 0-1.5625 0.69922-1.5625 1.5625s0.69922 1.5625 1.5625 1.5625h25c0.86328 0 1.5625-0.69922 1.5625-1.5625s-0.69922-1.5625-1.5625-1.5625zm-18.75-5.4688c-0.83203 0-1.5625-1.0938-1.5625-2.3438s0.73047-2.3438 1.5625-2.3438 1.5625 1.0938 1.5625 2.3438-0.73047 2.3438-1.5625 2.3438zm12.5 0c-0.83203 0-1.5625-1.0938-1.5625-2.3438s0.73047-2.3438 1.5625-2.3438 1.5625 1.0938 1.5625 2.3438-0.73047 2.3438-1.5625 2.3438z"/>
 </g></svg>