<svg xmlns="http://www.w3.org/2000/svg" version="1.1" viewBox="-5.0 -10.0 110.0 135.0">
 <g>
  <path d="m24.312 45.137c0.43359 0.11719 0.87891 0.17578 1.3242 0.17578 0.87109 0 1.7266-0.23047 2.4805-0.66797 1.1719-0.67578 2.0195-1.7969 2.3594-3.1055l0.60156-2.2617-0.003906-0.003906c0.36328-1.293 0.19141-2.6797-0.47266-3.8438-0.66797-1.168-1.7734-2.0195-3.0703-2.3672l-0.27734-0.074219h-0.003906c-1.2812-0.35156-2.6523-0.17578-3.8047 0.49219-1.1719 0.67578-2.0195 1.7969-2.3555 3.1055l-0.60156 2.2656c-0.36328 1.293-0.19141 2.6797 0.47266 3.8438 0.66797 1.168 1.7734 2.0195 3.0742 2.3672zm-0.80469-5.4844 0.60156-2.2617v-0.003906c0.125-0.50391 0.44922-0.9375 0.89844-1.2031 0.28125-0.16016 0.59766-0.24609 0.92188-0.24609 0.17187 0 0.33984 0.023438 0.50391 0.066406l0.27734 0.074219v0.003906c0.49609 0.13672 0.91797 0.46484 1.1719 0.91406 0.25391 0.44922 0.3125 0.98438 0.17188 1.4766l-0.60156 2.2656c-0.125 0.50391-0.44922 0.9375-0.89844 1.2031-0.42969 0.24609-0.94531 0.3125-1.4258 0.17969l-0.27734-0.074219v-0.003906c-0.49609-0.13672-0.91797-0.46484-1.1719-0.91406-0.25-0.44922-0.3125-0.98438-0.17188-1.4766z"/>
  <path d="m68.941 41.539c0.33594 1.3086 1.1836 2.4297 2.3555 3.1055 0.75391 0.4375 1.6094 0.66797 2.4805 0.66797 0.44531 0 0.89453-0.058594 1.3242-0.17578l0.27734-0.074219h0.003906c1.2969-0.34766 2.4023-1.1992 3.0703-2.3672 0.66406-1.1641 0.83594-2.5508 0.47266-3.8438l-0.60156-2.2617 0.003906-0.003906c-0.33984-1.3086-1.1875-2.4297-2.3594-3.1055-1.1523-0.66797-2.5234-0.84375-3.8047-0.49219l-0.27734 0.074219c-1.3008 0.34766-2.4062 1.1992-3.0703 2.3672-0.66797 1.1641-0.83984 2.5508-0.47656 3.8438zm3.7617-5.457 0.27734-0.074219v-0.003906c0.16406-0.042968 0.33594-0.066406 0.50391-0.066406 0.32422 0 0.64062 0.085938 0.92188 0.24609 0.44922 0.26562 0.77344 0.69922 0.89844 1.2031l0.60156 2.2656c0.14062 0.49609 0.082031 1.0273-0.17188 1.4766-0.25391 0.44922-0.67578 0.77734-1.1719 0.91406l-0.27734 0.074219v0.003906c-0.48047 0.13281-0.99219 0.066406-1.4258-0.17969-0.44922-0.26562-0.77344-0.69922-0.89844-1.2031l-0.60156-2.2656c-0.14062-0.49609-0.078125-1.0273 0.17188-1.4766 0.25391-0.44922 0.67578-0.77734 1.1719-0.91406z"/>
  <path d="m98.438 81.25h-2.5547c-0.003906-0.007812-0.007812-0.015625-0.011718-0.023438l-3.2734-5.457c2.2695-0.046875 4.1758-1.7266 4.5078-3.9727l2.8438-18.75h-0.003907c0.38672-2.5586-1.375-4.9453-3.9297-5.332-2.5586-0.38672-4.9492 1.3672-5.3398 3.9258l-2.2344 14.766h-0.99609c0.29297-0.81641 0.34766-1.6992 0.16016-2.543l-2.7305-13.637c-0.48828-2.4531-2.8164-4.0859-5.2891-3.7148l-4.707 0.70312v0.003906c-1.2227 0.18359-2.3242 0.84766-3.0586 1.8477l-0.007812 0.007813-3.6445 4.832h-7.2461c-2.5898 0-4.6875 2.0977-4.6875 4.6875s2.0977 4.6875 4.6875 4.6875h5.3438c-3.0625 11.012-4.332 15.789-4.8242 17.969h-23.469c-0.49219-2.1797-1.7578-6.957-4.8242-17.969h5.3438c2.5898 0 4.6875-2.0977 4.6875-4.6875s-2.0977-4.6875-4.6875-4.6875h-7.2461l-3.6445-4.8359-0.007812-0.007812v0.003906c-0.73438-1-1.8359-1.6641-3.0586-1.8477l-4.7031-0.70312-0.003906-0.003906c-2.4727-0.375-4.8047 1.2617-5.2891 3.7148l-2.7227 13.605c-0.19141 0.85547-0.13672 1.7461 0.15234 2.5742h-0.41016l-2.2383-14.766h0.003907c-0.39062-2.5586-2.7773-4.3203-5.3398-3.9297-2.5586 0.38672-4.3164 2.7773-3.9297 5.3359l2.8438 18.75h-0.003907c0.33203 2.2461 2.2383 3.9258 4.5078 3.9727l-3.2734 5.457c-0.003906 0.007813-0.007812 0.015626-0.011718 0.023438h-2.5547c-0.86328 0-1.5625 0.69922-1.5625 1.5625s0.69922 1.5625 1.5625 1.5625h96.875c0.86328 0 1.5625-0.69922 1.5625-1.5625s-0.69922-1.5625-1.5625-1.5625zm-92.453-9.9219-2.8438-18.75h0.003906c-0.12891-0.85156 0.45703-1.6484 1.3086-1.7812 0.078125-0.007813 0.15625-0.015625 0.23438-0.015625 0.77344 0 1.4297 0.56641 1.5469 1.3281l2.4375 16.094c0.11719 0.76172 0.77344 1.3281 1.5469 1.3281h10.094c0.86328 0 1.5625 0.69922 1.5625 1.5625s-0.69922 1.5625-1.5625 1.5625h-12.781c-0.77344 0.003906-1.4336-0.5625-1.5469-1.3281zm1.7773 9.9219 3.2812-5.4688h5.2617l3.2812 5.4688zm15.465 0c-0.003906-0.007812-0.007812-0.015625-0.011718-0.023438l-3.2656-5.4453h0.36719-0.003906c1.5234 0.003906 2.9531-0.73438 3.832-1.9766 0.87891-1.2461 1.0938-2.8398 0.58203-4.2734h0.67969l3.5703 11.719zm9.0156 0-4.1836-13.738c-0.20312-0.65625-0.80859-1.1055-1.4961-1.1055h-10.172c-0.47266 0-0.92188-0.21484-1.2188-0.58594-0.30078-0.375-0.41016-0.875-0.30078-1.3438l2.7305-13.637c0.16406-0.81641 0.94141-1.3633 1.7656-1.2383l4.7031 0.70313v0.003906c0.38281 0.058594 0.72656 0.26562 0.96094 0.57031l4.1875 5.5312h0.003906c0.29297 0.39062 0.75781 0.62109 1.2461 0.62109h8.0234c0.43359 0 0.84766 0.17969 1.1445 0.49609s0.44531 0.74219 0.41406 1.1758c-0.058593 0.81641-0.73828 1.4492-1.5586 1.4531h-10.43l-4.2188-4.9219c-0.26953-0.31641-0.65234-0.51562-1.0664-0.54688-0.41797-0.03125-0.82812 0.10156-1.1406 0.37109-0.31641 0.26953-0.51172 0.65625-0.54297 1.0703-0.03125 0.41406 0.10547 0.82422 0.375 1.1367l4.6875 5.4688c0.29688 0.34766 0.73047 0.54688 1.1875 0.54688h2.5625c1.6914 6.0781 3.9688 14.391 4.8711 17.969zm32.398 0c0.90234-3.5781 3.1797-11.891 4.8711-17.969h2.5625-0.003907c0.45703 0 0.89063-0.19922 1.1875-0.54688l4.6875-5.4688c0.26953-0.3125 0.40625-0.72266 0.375-1.1367-0.03125-0.41406-0.22656-0.80078-0.54297-1.0703-0.3125-0.26953-0.72266-0.40234-1.1367-0.37109s-0.80078 0.23047-1.0703 0.54688l-4.2188 4.9219h-10.43c-0.82031-0.003906-1.5-0.63672-1.5586-1.4531-0.03125-0.43359 0.12109-0.85938 0.41406-1.1758 0.29688-0.31641 0.71094-0.49609 1.1445-0.49609h8.0234c0.49219 0 0.95313-0.23047 1.2461-0.62109l4.1914-5.5312c0.23438-0.30469 0.57813-0.51172 0.96094-0.57031l4.707-0.70312-0.003906-0.003907c0.82422-0.12109 1.6016 0.42188 1.7656 1.2383l2.7383 13.664-0.003906 0.003906c0.10547 0.46094-0.007813 0.94531-0.30469 1.3125-0.29688 0.37109-0.74609 0.58594-1.2188 0.58594h-10.172c-0.6875 0-1.293 0.44922-1.4922 1.1055l-4.1836 13.738zm12.145-0.023438c-0.003906 0.007813-0.007812 0.015626-0.011718 0.023438h-6.332l3.5703-11.719h1.2656-0.003906c-0.51172 1.4336-0.29688 3.0273 0.58203 4.2734 0.87891 1.2422 2.3086 1.9805 3.832 1.9766h0.36719zm3.6289 0.023438 3.2812-5.4688h5.2617l3.2812 5.4688zm-0.72656-8.5938c-0.86328 0-1.5625-0.69922-1.5625-1.5625s0.69922-1.5625 1.5625-1.5625h10.094c0.77344 0 1.4297-0.56641 1.5469-1.3281l2.4375-16.094c0.13281-0.85156 0.92969-1.4375 1.7812-1.3047 0.85156 0.12891 1.4375 0.92187 1.3086 1.7734l-2.8438 18.75h0.003906c-0.12109 0.76172-0.77344 1.3242-1.5469 1.3281z"/>
  <path d="m50.781 15.625c-7.3359 0-13.281 5.9453-13.281 13.281s5.9453 13.281 13.281 13.281c1.8164 0.003906 3.6133-0.37109 5.2773-1.1016 2.1445 1.1641 4.5273 1.8086 6.9648 1.8828 0.71875 0.003906 1.4375-0.070312 2.1445-0.21875 0.55469-0.11719 1.0039-0.52734 1.1719-1.0703 0.16406-0.54688 0.023437-1.1367-0.375-1.5469-1.3438-1.4375-2.5703-2.9844-3.6602-4.6289 2.3555-4.1094 2.3438-9.1602-0.035157-13.258-2.375-4.0977-6.75-6.6211-11.488-6.6211zm6.0859 22.352c-0.45313-0.25781-1.0078-0.26953-1.4766-0.03125-1.4258 0.73438-3.0039 1.1172-4.6094 1.1172-4.6719 0-8.7383-3.1797-9.8633-7.7109-1.125-4.5352 0.98438-9.25 5.1133-11.434 4.1289-2.1797 9.2109-1.2656 12.324 2.2148 3.1094 3.4844 3.4453 8.6406 0.8125 12.496-0.34375 0.50781-0.36328 1.1719-0.042969 1.6953 0.72266 1.1719 1.5117 2.3047 2.3672 3.3867-1.6289-0.31641-3.1914-0.90234-4.625-1.7344z"/>
 </g>
</svg>