<svg xmlns="http://www.w3.org/2000/svg" data-name="Layer 1" viewBox="0 0 128 160" x="0px" y="0px"><title>miscellaneous190_expandline</title><path d="M86,19a2.0001,2.0001,0,0,0,2-2V13a2,2,0,0,0-4,0v4A2.00008,2.00008,0,0,0,86,19Z"/><path d="M94,18.9814a1.99533,1.99533,0,0,0,1.41408-.5673l2-2a1.99984,1.99984,0,1,0-2.8282-2.8282l-2,2A2.00329,2.00329,0,0,0,94,18.9814Z"/><path d="M76.58588,18.4141a2.02007,2.02007,0,0,0,2.8282,0,1.99945,1.99945,0,0,0,0-2.8282l-2-2a1.99984,1.99984,0,1,0-2.8282,2.8282Z"/><path d="M79.58588,82.4141c1.8233,1.8232,4.6582-.9981,2.8282-2.8282l-4-4a1.99984,1.99984,0,0,0-2.8282,2.8282Z"/><path d="M91.58588,82.4141c1.8262,1.8261,4.6573-.9991,2.8282-2.8282l-14-14a1.99984,1.99984,0,1,0-2.8282,2.8282S91.57128,82.3994,91.58588,82.4141Z"/><path d="M14,86V39a2.00265,2.00265,0,0,1,2-2H58a2,2,0,0,0,0-4H16a6.00654,6.00654,0,0,0-6,6V86a2,2,0,0,0,4,0Z"/><path d="M116,33H94a2,2,0,0,0,0,4h20v64a2.00267,2.00267,0,0,1-2,2H31a2,2,0,0,0,0,4h81a6.00656,6.00656,0,0,0,6-6V35A2.0001,2.0001,0,0,0,116,33Z"/><path d="M12.99608,101.1201l.7168-5.4013,5.3418-1.0704a1.99937,1.99937,0,0,0,1.5898-1.6982l.7178-5.4033,5.3438-1.0713a1.99982,1.99982,0,0,0,1.5888-1.6973l.7178-5.4033,5.3437-1.0713a1.99981,1.99981,0,0,0,1.5889-1.6982l.7139-5.3985L42.001,70.1367a1.9996,1.9996,0,0,0,1.58978-1.6982l.7158-5.4004,5.3448-1.0713a1.99972,1.99972,0,0,0,1.5888-1.6982l.71682-5.4024,5.34378-1.0713a1.99847,1.99847,0,0,0,1.5888-1.6972l.7198-5.4063,5.3467-1.0732a1.9987,1.9987,0,0,0,1.5888-1.6973l.7197-5.4072,5.3458-1.0713a1.9987,1.9987,0,0,0,1.5888-1.6973l.7705-5.79,6.1319-3.1797A2,2,0,0,0,80.18068,23H6a6.00654,6.00654,0,0,0-6,6v80.3008a2.008,2.008,0,0,0,3.90528.6094l1.9101-5.9717,5.5909-1.1201A1.99971,1.99971,0,0,0,12.99608,101.1201Zm-3.0606-7.3447-.7167,5.4023L4,100.2227V29a2.00265,2.00265,0,0,1,2-2H72.00678a2.00077,2.00077,0,0,0-.8652,1.3955l-.7187,5.4063-5.3458,1.0712a1.99881,1.99881,0,0,0-1.5888,1.6973l-.7197,5.4072-5.3467,1.0733A1.99867,1.99867,0,0,0,55.833,44.748l-.71972,5.4063-5.3447,1.0713a1.99985,1.99985,0,0,0-1.5889,1.6982l-.7168,5.4024-5.3447,1.0713a1.9996,1.9996,0,0,0-1.5889,1.6982l-.7158,5.4004-5.3418,1.0703a1.9997,1.9997,0,0,0-1.5899,1.6982L32.168,74.6631l-5.34382,1.0713a1.99961,1.99961,0,0,0-1.5888,1.6982l-.7178,5.4024-5.3438,1.0713A1.99946,1.99946,0,0,0,17.585,85.6045l-.71782,5.4023-5.3418,1.0703A1.99982,1.99982,0,0,0,9.93548,93.7754Z"/><path d="M122,23H92.60548a2.00464,2.00464,0,0,0-.9727.252l-5.3594,2.9824a2.00314,2.00314,0,0,0-1.0097,1.4824l-.7246,5.416-5.3487,1.0733a1.99948,1.99948,0,0,0-1.5888,1.6972l-.7188,5.4063-5.3457,1.0713a1.99858,1.99858,0,0,0-1.5889,1.6972l-.7197,5.4073-5.3467,1.0732A1.99855,1.99855,0,0,0,62.293,52.2559l-.71982,5.4062-5.3447,1.0713a2,2,0,0,0-1.5889,1.6982l-.7167,5.4024-5.3448,1.0713a1.99961,1.99961,0,0,0-1.5888,1.6982l-.7159,5.4004-5.3418,1.0703a1.99852,1.99852,0,0,0-1.5898,1.6983l-.7139,5.3984-5.3437,1.0713a1.99981,1.99981,0,0,0-1.5889,1.6973l-.7178,5.4033-2.957.5927h0l-2.3867.4786a1.99858,1.99858,0,0,0-1.5889,1.6972l-.166,1.2481v.0019l-.5518,4.1533-5.3417,1.0704a1.99947,1.99947,0,0,0-1.5899,1.6982l-.7168,5.4023-5.3428,1.0704a1.99949,1.99949,0,0,0-1.5898,1.6982l-.7002,5.2832A1.99966,1.99966,0,0,0,10.02828,117H122a6.00656,6.00656,0,0,0,6-6V29A6.00656,6.00656,0,0,0,122,23Zm2,88a2.00267,2.00267,0,0,1-2,2H12.31048l.2129-1.6035,5.3428-1.0703a1.9997,1.9997,0,0,0,1.5899-1.6983l.7168-5.4013,5.3417-1.0703a1.9997,1.9997,0,0,0,1.5899-1.6983l.6221-4.6826,1.4736-.9971,3.96582-.7949a1.99981,1.99981,0,0,0,1.58888-1.6973l.7178-5.4033,5.3437-1.0713a1.9997,1.9997,0,0,0,1.5889-1.6982l.7138-5.3985,5.3418-1.0703a1.99959,1.99959,0,0,0,1.5899-1.6982l.7158-5.4004,5.3447-1.0713a1.99983,1.99983,0,0,0,1.5889-1.6982L58.417,62.374l5.34368-1.0713a1.99858,1.99858,0,0,0,1.5889-1.6972l.7197-5.4063L71.416,53.126a1.99869,1.99869,0,0,0,1.58888-1.6973l.7197-5.4072,5.3457-1.0713a1.99869,1.99869,0,0,0,1.5889-1.6973l.7187-5.4062,5.3477-1.0733a2.00093,2.00093,0,0,0,1.5889-1.6953l.7812-5.8359L93.124,27H122a2.00267,2.00267,0,0,1,2,2Z"/></svg>