<svg xmlns="http://www.w3.org/2000/svg" version="1.1" viewBox="-5.0 -2.0 110.0 105.0">
 <path d="m30.469 77.344v7.8125c0 0.86328 0.69922 1.5625 1.5625 1.5625s1.5625-0.69922 1.5625-1.5625v-7.8125c0-0.86328-0.69922-1.5625-1.5625-1.5625s-1.5625 0.69922-1.5625 1.5625z"/>
 <path d="m66.406 77.344v7.8125c0 0.86328 0.69922 1.5625 1.5625 1.5625s1.5625-0.69922 1.5625-1.5625v-7.8125c0-0.86328-0.69922-1.5625-1.5625-1.5625s-1.5625 0.69922-1.5625 1.5625z"/>
 <path d="m0.38281 51.809c0.27344 0.3125 0.66016 0.50391 1.0703 0.53125 0.41406 0.027344 0.82422-0.10938 1.1367-0.37891l8.3477-7.2734v40.469c0 0.86328 0.69922 1.5625 1.5625 1.5625h10.156c0.86328 0 1.5625-0.69922 1.5625-1.5625v-12.164c0.027344-2.1992 1.3203-4.1836 3.3203-5.1016l14.301-6.9414c0.11328 0.14453 0.22656 0.29297 0.33203 0.42969 2.1602 2.8086 3.8672 5.0234 7.8672 5.0234 3.9336 0 5.6406-2.2188 7.8008-5.0234 0.10547-0.13672 0.21875-0.28125 0.32812-0.42578l14.289 6.9336 0.007813 0.003906c1.9961 0.91797 3.2891 2.9023 3.3164 5.1016v12.164c0 0.86328 0.69922 1.5625 1.5625 1.5625h10.156c0.86328 0 1.5625-0.69922 1.5625-1.5625v-30.336c-1.0078 0.71094-2.0508 1.3711-3.125 1.9766v26.797h-7.0312v-10.602c-0.023438-3.3984-2-6.4766-5.0781-7.9141l-13.637-6.6172c1.2773-1.5547 2.0234-4.0625 2.2617-7.6719h-0.011719c0.046875-0.55859 0.050782-1.6836 0.058594-4.3438 0.007812-2.2422 0.011719-3.3945-0.019531-4.0469l-0.003907 0.003906c0.015626-0.070313 0.019532-0.14453 0.023438-0.21484 0-4.8164-1.0586-8.0664-3.2422-9.9414-2.8984-2.4922-7.0195-1.8672-10.332-1.3672-1.1289 0.20312-2.2734 0.32812-3.4219 0.37109-2.6328 0.03125-5.1797-0.91406-7.1523-2.6562-0.375-0.37891-0.91016-0.54297-1.4336-0.4375-0.51953 0.10938-0.94922 0.47266-1.1406 0.96484-3.5391 9.1289 0.51562 13.098 1.9141 14.137-0.019531 0.17188-0.046875 0.33594-0.0625 0.51563-0.050781 0.48437-0.066406 1.4141-0.097656 3.5273-0.03125 2.0156-0.042969 2.9531-0.015625 3.4531h-0.015625c0.09375 2.2344 0.44922 5.4375 2.3203 7.6992l-13.648 6.625c-3.0781 1.4336-5.0547 4.5156-5.0781 7.9141v10.602h-7.0312v-41.629l35.938-31.301 12.871 11.211 0.14062-0.94141c0.085937-0.59375 0.50391-1.082 1.0781-1.2617l0.74219-0.23438-13.805-12.023c-0.58984-0.51172-1.4648-0.51172-2.0547 0l-48.438 42.188c-0.64844 0.56641-0.71875 1.5547-0.15234 2.207zm58.953-1.2812c0 0.019531-0.003907 0.039062-0.003907 0.058594-0.25781 3.875-1.1133 5.3945-1.5977 5.957-0.93359 1.0742-1.6914 2.0625-2.3633 2.9336-2.1797 2.8281-3.0469 3.8047-5.3945 3.8047-2.2773 0-3.1484-0.97656-5.3242-3.8047-0.67188-0.87109-1.4336-1.8594-2.3633-2.9336-0.99609-1.1484-1.5391-3.082-1.6602-5.918v-0.027344c-0.007812-0.59375 0.058594-5.6641 0.10547-6.4375 0.007813-0.039062 0.011719-0.074218 0.015625-0.11328 0.007812-0.10156 0.023438-0.19531 0.035156-0.29297l18.586-0.003906c0.011718 2.1992-0.007813 6.1641-0.035156 6.7773zm-19.949-9.9023c-0.79688-0.66797-2.8477-2.9961-1.3594-8.3828 2.2422 1.3984 4.832 2.1367 7.4766 2.1328 1.3047-0.039062 2.6055-0.17578 3.8906-0.40625 2.957-0.44922 6.0117-0.91016 7.8242 0.64453 1.2227 1.0508 1.9297 3.0703 2.1094 6.0117z"/>
 <path d="m94.781 49.668 2.6289 2.2891v0.003907c0.65234 0.56641 1.6367 0.49609 2.207-0.15234 0.56641-0.65234 0.49609-1.6406-0.15234-2.207l-2.7383-2.3867c-0.59375 0.83203-1.2422 1.6484-1.9453 2.4531z"/>
 <path d="m98.73 22.066-15.348-4.8086h0.003907c-0.1875-0.054687-0.37891-0.078124-0.57422-0.066406-0.19531-0.011718-0.38672 0.011719-0.57422 0.066406l-15.344 4.8086c-0.57422 0.17969-0.99219 0.67188-1.0781 1.2656-0.03125 0.20703-2.8711 20.996 16.156 31.172h-0.003906c0.22656 0.12109 0.48047 0.18359 0.73828 0.18359h0.21094c0.25781 0 0.51172-0.0625 0.73828-0.18359 19.027-10.176 16.184-30.965 16.156-31.172h-0.003906c-0.085938-0.59375-0.50391-1.0859-1.0781-1.2656zm-15.918 29.332c-14.402-8.1172-14.309-22.75-14.008-26.656l14.008-4.3867 13.996 4.3867c0.26172 3.875 0.25 18.617-13.996 26.66z"/>
 <path d="m87.152 30.949-6.3516 6.6328-2.3281-2.4297c-0.28516-0.30078-0.67969-0.47266-1.0977-0.48438-0.41406-0.007813-0.81641 0.14844-1.1133 0.43359-0.30078 0.28906-0.47266 0.68359-0.48047 1.0977-0.011719 0.41406 0.14453 0.81641 0.43359 1.1172l3.457 3.6094c0.29297 0.30469 0.70312 0.48047 1.1289 0.48047s0.83203-0.17578 1.1289-0.48047l7.4805-7.8125c0.28906-0.30078 0.44531-0.70312 0.43359-1.1172-0.007812-0.41406-0.17969-0.80859-0.48047-1.0938-0.29688-0.28906-0.69922-0.44531-1.1133-0.4375-0.41797 0.011718-0.8125 0.18359-1.0977 0.48438z"/>
 <path d="m98.438 89.844h-96.875c-0.86328 0-1.5625 0.69922-1.5625 1.5625s0.69922 1.5625 1.5625 1.5625h96.875c0.86328 0 1.5625-0.69922 1.5625-1.5625s-0.69922-1.5625-1.5625-1.5625z"/>
 <path d="m46.133 55.562c-0.29297 0.29297-0.45703 0.69141-0.45703 1.1055 0 0.41406 0.16406 0.8125 0.45703 1.1055 1.0273 1.0234 2.418 1.6016 3.8672 1.6016s2.8398-0.57812 3.8672-1.6016c0.60937-0.60938 0.60937-1.6016 0-2.2109-0.60938-0.60938-1.6016-0.60938-2.2109 0-0.92578 0.88672-2.3867 0.88672-3.3125 0-0.29297-0.29297-0.69141-0.45703-1.1055-0.45703-0.41406 0-0.8125 0.16406-1.1055 0.45703z"/>
 <path d="m47.656 50c0 2.082-3.125 2.082-3.125 0s3.125-2.082 3.125 0"/>
 <path d="m55.469 50c0 2.082-3.125 2.082-3.125 0s3.125-2.082 3.125 0"/>
</svg>
