<svg xmlns="http://www.w3.org/2000/svg" data-name="Layer 1" viewBox="0 0 128 160" x="0px" y="0px"><title>Miscelleneus 28 final</title><path d="M91.5,120a2,2,0,0,0,0-4h-55a2,2,0,0,0,0,4Z"/><path d="M28,126a2,2,0,0,0,2,2H98a2,2,0,0,0,0-4H30A2,2,0,0,0,28,126Z"/><path d="M97,88h16a2,2,0,0,0,2-2V74a2,2,0,0,0-2-2H97a2,2,0,0,0-2,2V86A2,2,0,0,0,97,88Zm2-12h12v8H99Z"/><path d="M14,88H30a2,2,0,0,0,2-2V74a2,2,0,0,0-2-2H14a2,2,0,0,0-2,2V86A2,2,0,0,0,14,88Zm2-12H28v8H16Z"/><path d="M2,60H4v40a4,4,0,0,0,4,4H44v4H43a2,2,0,0,0,0,4H85a2,2,0,0,0,0-4H84v-4h36a4,4,0,0,0,4-4V60h2a2,2,0,0,0,2-2V50a4,4,0,0,0-4-4V22h2a2,2,0,0,0,1.34-3.49L107.9,1a4,4,0,0,0-2.67-1H37a2,2,0,0,0,0,4h68.23l15.56,14H68a2,2,0,0,0-2,2V46H63V20a2,2,0,0,0-2-2H7.21L22.77,4H27a2,2,0,0,0,0-4H22.77a4,4,0,0,0-2.68,1L.66,18.51A2,2,0,0,0,2,22H4V46a4,4,0,0,0-4,4v8A2,2,0,0,0,2,60Zm70,48H56V84H72Zm8,0H76V82a2,2,0,0,0-2-2H54a2,2,0,0,0-2,2v26H48V76H80Zm40-8H84V76h3a4,4,0,0,0,4-4V68a4,4,0,0,0-4-4H55a2,2,0,0,0,0,4H87v4H41V68h4a2,2,0,0,0,0-4H41a4,4,0,0,0-4,4v4a4,4,0,0,0,4,4h3v24H8V60H120ZM70,22h50V46H109V32a2,2,0,0,0-2-2H83a2,2,0,0,0-2,2V46H70Zm35,12V46H85V34ZM8,22H59V46H48V32a2,2,0,0,0-2-2H22a2,2,0,0,0-2,2V46H8ZM44,34V46H24V34ZM4,50H124v6H4Z"/></svg>