<svg xmlns="http://www.w3.org/2000/svg" xmlns:xlink="http://www.w3.org/1999/xlink" version="1.1" x="0px" y="0px" viewBox="0 0 128 160" enable-background="new 0 0 128 128" xml:space="preserve"><path d="M62.7,51.1c0,0,0-0.1,0.1-0.1c0.1-0.1,0.1-0.3,0.2-0.4c0-0.1,0-0.1,0-0.2c0-0.1,0-0.2,0-0.2c0,0,0-0.1,0-0.1V2  c0,0,0,0,0-0.1c0-0.2,0-0.3-0.1-0.5l0,0l0,0c0,0,0,0,0,0c-0.1-0.2-0.1-0.4-0.2-0.5c0-0.1-0.1-0.1-0.1-0.2c-0.1-0.2-0.3-0.3-0.4-0.4  c0,0-0.1-0.1-0.1-0.1c-0.1,0-0.1-0.1-0.2-0.1c-0.1,0-0.1-0.1-0.2-0.1C61.4,0,61.2,0,61.1,0c0,0,0,0-0.1,0H47c-0.3,0-0.6,0.1-0.8,0.2  L46,0.2c-0.1,0-0.3,0.1-0.4,0.1L1.2,20.9c-0.8,0.2-1.2,1-1.1,1.8c0,0.1,0,0.2,0,0.4v82c0,1.1,0.9,2,2,2h24l0,0l0,0  c0.1,0,0.3,0,0.4-0.1c0,0,0.1,0,0.1,0c0.1,0,0.2-0.1,0.3-0.1c0,0,0.1,0,0.1-0.1c0.1-0.1,0.2-0.1,0.3-0.2c0,0,0.1-0.1,0.1-0.1  c0.2-0.2,0.6-0.6,0.6-0.6L62.7,51.1z M59,5.5V48H49V11.6L59,5.5z M28,98.3V72.9c0.1-0.1,0.2-0.2,0.3-0.3L47.9,52h9.2L28,98.3z   M28,67.1v-43L45,14v35.3L28,67.1z M47.4,4h6.3L25.4,21H10.9L47.4,4z M24,103H4V25h20V103z"/><path d="M74.9,48l24.9,15.7c0.6,0.4,1.4,0.4,2,0l25-14.3c0.6-0.4,1-1,1-1.8l0.2-30c0-0.7-0.3-1.4-0.9-1.7L102.2,0.3  c-0.6-0.4-1.4-0.4-2,0l-25,14.3c-0.6,0.4-1,1-1,1.8l-0.2,30C74,46.9,74.3,47.6,74.9,48z M98.9,46.2l-11.2-6.9l0.1-13.1L99,33.1  L98.9,46.2z M101.1,29.7l-11.2-6.9l11.2-6.2l11.2,6.9L101.1,29.7z M113.7,27.3l0.5-0.3l-0.1,13.2l-11.2,6.2l0.1-13.1L113.7,27.3z   M123.9,46.5l-21,12l0-7.5l14.2-7.9c0.6-0.4,1-1,1-1.7l0.1-16.6l5.8-3.2L123.9,46.5z M101.1,4.4l21.2,13.4l-6.1,3.4l-14.1-8.7  c-0.6-0.4-1.4-0.4-2,0l-14.2,7.9l-6.2-3.8L101.1,4.4z M78.1,20.2l5.7,3.5l-0.1,16.7c0,0.7,0.4,1.3,1,1.7l14.2,8.7l0,7.4L78,45.1  L78.1,20.2z"/><path d="M126,100c1.1,0,2-0.9,2-2V84c0-1.1-0.9-2-2-2h-24V70c0-1.1-0.9-2-2-2H76c-1.1,0-2,0.9-2,2v12H64c-1.1,0-2,0.9-2,2v12h-8  c-1.1,0-2,0.9-2,2v14c0,1.1,0.9,2,2,2h8v12c0,1.1,0.9,2,2,2h62c1.1,0,2-0.9,2-2v-14c0-1.1-0.9-2-2-2h-10v-10H126z M111,86v10H90V86  H111z M112,100v10H98v-10H112z M94,100v10H80v-10H94z M78,72h20v10H78V72z M66,86h20v10H66V86z M56,110v-10h20v10H56z M82,124H66  v-10h16V124z M105,124H86v-10h19V124z M124,114v10h-15v-10H124z M115,96V86h9v10H115z"/></svg>