<svg xmlns="http://www.w3.org/2000/svg" data-name="Layer 1" viewBox="0 0 128 160" x="0px" y="0px"><title>Miscellaneous 35 final</title><path d="M52,68V58a2,2,0,0,0-2-2H36a2,2,0,0,0-2,2V68a2,2,0,0,0,2,2H50A2,2,0,0,0,52,68Zm-4-2H38V60H48Z"/><path d="M57,42H73a2,2,0,0,0,2-1.9,22.08,22.08,0,0,0-1.45-2A2,2,0,0,0,73,38H57a2,2,0,0,0,0,4Z"/><path d="M7.3,55.1,12,50.86v50.58l4-2.79V48a2,2,0,0,0-.12-.64L63.12,4.69a2.78,2.78,0,0,1,3.4,0L78.16,15.11A34.2,34.2,0,0,1,91,21.27L69.17,1.66a6.75,6.75,0,0,0-8.7,0L4.62,52.13a2,2,0,1,0,2.68,3Z"/><path d="M87.38,76.15l0,.05,1.51,2.18a2,2,0,0,0,2.16.79l6.64-1.78L99.53,80l-4.36,6.3a2,2,0,0,0,0,2.27l4.44,6.48a5.72,5.72,0,0,0,8,1.47l16.93-11.83a5.81,5.81,0,0,0,1.45-8l-4.79-7a2,2,0,0,0-2.32-.76l-7.42,2.62-1.23-1.79,4.59-7.19a2,2,0,0,0,0-2.21L94.4,30.59C93.73,29.5,86.27,18,68.68,18a46.41,46.41,0,0,0-10.15,1.19A2,2,0,0,0,58.3,23c.19.07,18.29,6.63,22.5,20.08L73.73,53.39a2,2,0,0,0,0,2.26l3.5,5.1L3.47,112.28a5.81,5.81,0,0,0-1.45,8l3.55,5.19A5.74,5.74,0,0,0,10.3,128a5.67,5.67,0,0,0,3.26-1Zm-5.73-16-3.84-5.61,6.82-9.92A2,2,0,0,0,84.91,43c-2.77-10.57-12.46-17.36-19-20.85Q67.31,22,68.68,22C84.39,22,90.74,32.26,91,32.69l.07.11,19.67,28.72-4.59,7.19a2,2,0,0,0,0,2.21L109,75.07a2,2,0,0,0,2.32.76l7.42-2.62,3.93,5.73a1.8,1.8,0,0,1-.44,2.49L105.31,93.27a1.76,1.76,0,0,1-2.41-.45l-3.66-5.34,4.36-6.3a2,2,0,0,0,0-2.27L100.23,74a2,2,0,0,0-2.17-.8L91.42,75l-1.24-1.79-3.52-5.28a2,2,0,1,0-3.33,2.22l1.81,2.72L24.67,114.47,19,106.33,81.14,62.9A2,2,0,0,0,81.65,60.13ZM11.28,123.69a1.76,1.76,0,0,1-2.41-.45l-3.55-5.19a1.8,1.8,0,0,1,.44-2.49l9.94-6.94,5.68,8.12Z"/><circle cx="13" cy="117" r="2"/><path d="M96.34,56.11a2,2,0,1,0,3.33-2.22l-6-9a2,2,0,1,0-3.33,2.22Z"/><path d="M27,76V91l4-2.79V78H45.55l5.73-4H29A2,2,0,0,0,27,76Z"/><path d="M118,94.16,114,97v7H59v-3.45l-4,2.75V116H36.55l-5.81,4H116a2,2,0,0,0,2-2ZM59,108h55v8H59Z"/><path d="M95.3,25.25l.25.28.66.78.16.2.55.71c.38.51.66.92.81,1.16l7.66,11.19h0l8.71,7.82a2,2,0,0,0-.1.61v4.13L118,58V50.89l4.7,4.22a2,2,0,1,0,2.67-3L117,44.61V20a2,2,0,0,0-4,0V41l-6-5.39V13a2,2,0,0,0-4,0V32l-6-5.39V2a2,2,0,0,0-4,0V22.94A31.81,31.81,0,0,1,95.3,25.25Z"/></svg>