<svg xmlns="http://www.w3.org/2000/svg" version="1.1" viewBox="-5.0 -10.0 110.0 135.0">
 <path d="m58.594 40.234-1.3281 2.4219-3.2812-6.4844c-0.85938 0.54688-1.875 1.0156-2.8906 1.1719l4.6875 9.375c0.23438 0.54688 0.78125 0.85938 1.3281 0.85938s1.0938-0.3125 1.4062-0.78125l2.2656-4.1406 4.6094 0.54688c0.85938 0.078125 1.6406-0.54688 1.7188-1.3281 0-0.3125 0-0.625-0.15625-0.85938l-4.1406-8.2812c-0.70312 0.78125-1.6406 1.4062-2.5781 1.7969l2.6562 5.3125-2.7344-0.39062c-0.625-0.078125-1.25 0.23438-1.5625 0.78125z"/>
 <path d="m33.125 42.578c0.3125 0.46875 0.85938 0.70312 1.4844 0.625l4.6094-0.54688 2.2656 4.1406c0.3125 0.46875 0.78125 0.78125 1.4062 0.78125 0.54688 0 1.0938-0.3125 1.3281-0.85938l4.6875-9.375c-1.0156-0.15625-2.0312-0.54688-2.8906-1.1719l-3.2812 6.4844-1.3281-2.4219c-0.3125-0.46875-0.78125-0.78125-1.4062-0.78125h-0.15625l-2.8125 0.39062 2.6562-5.3125c-1.0156-0.39062-1.875-0.9375-2.5781-1.7969l-4.1406 8.2812c-0.23438 0.46875-0.23438 1.0938 0.15625 1.5625z"/>
 <path d="m33.75 22.5c0.46875 1.4062 1.6406 2.1875 2.5781 2.8125 0.46875 0.23438 0.85938 0.54688 1.25 0.9375 0.23438 0.46875 0.46875 1.0156 0.54688 1.4844 0.3125 1.0938 0.625 2.5 1.7969 3.3594s2.5781 0.78125 3.6719 0.70312c0.54688-0.078125 1.0938-0.078125 1.5625 0.078125 0.46875 0.23438 0.85938 0.54688 1.25 0.85938 0.9375 0.70312 2.0312 1.6406 3.5156 1.6406s2.5781-0.9375 3.5156-1.6406c0.39062-0.3125 0.78125-0.625 1.25-0.85938 0.54688-0.078125 1.0938-0.078125 1.5625-0.078125 1.1719 0.078125 2.5781 0.15625 3.6719-0.70312 1.1719-0.85938 1.4844-2.1875 1.7969-3.3594 0.078125-0.54688 0.3125-1.0156 0.54688-1.4844 0.39062-0.39062 0.78125-0.70312 1.25-0.9375 0.9375-0.625 2.1875-1.4062 2.5781-2.8125 0.46875-1.3281-0.078125-2.5781-0.46875-3.6719-0.23438-0.46875-0.39062-1.0156-0.46875-1.5625 0.078125-0.54688 0.23438-1.0938 0.46875-1.5625 0.39062-1.0938 0.9375-2.3438 0.46875-3.6719-0.46875-1.4062-1.6406-2.1875-2.5781-2.8125-0.46875-0.23438-0.85938-0.54688-1.25-0.9375-0.23438-0.46875-0.46875-1.0156-0.54688-1.4844-0.3125-1.0938-0.625-2.5-1.7969-3.3594s-2.5781-0.78125-3.6719-0.70312c-0.54688 0.078125-1.0938 0.078125-1.5625-0.078125-0.46875-0.23438-0.85938-0.54688-1.25-0.85938-0.85938-0.85938-1.9531-1.7969-3.4375-1.7969s-2.5781 0.9375-3.5156 1.6406c-0.39062 0.3125-0.78125 0.625-1.25 0.85938-0.54688 0.078125-1.0938 0.15625-1.5625 0.078125-1.1719-0.078125-2.5781-0.15625-3.6719 0.70312-1.1719 0.85938-1.4844 2.1875-1.7969 3.3594-0.078125 0.54688-0.3125 1.0156-0.54688 1.4844-0.39062 0.39062-0.78125 0.70312-1.25 0.9375-0.9375 0.625-2.1875 1.4062-2.5781 2.8125-0.46875 1.3281 0.078125 2.5781 0.46875 3.6719 0.23438 0.46875 0.39062 1.0156 0.46875 1.5625-0.078125 0.54688-0.23438 1.0938-0.46875 1.5625-0.46875 1.25-0.9375 2.5-0.54688 3.8281zm3.4375-8.0469c-0.23438-0.54688-0.39062-1.0938-0.39062-1.6406 0.078125-0.3125 0.78125-0.78125 1.3281-1.0938 0.78125-0.46875 1.4844-1.0156 2.0312-1.7188 0.46875-0.78125 0.85938-1.6406 1.0156-2.5 0.078125-0.54688 0.3125-1.1719 0.625-1.6406 0.54688-0.15625 1.0938-0.15625 1.7188-0.078125 0.9375 0.078125 1.875 0 2.7344-0.23438 0.85938-0.3125 1.5625-0.78125 2.2656-1.4062 0.46875-0.46875 1.1719-1.0156 1.4844-1.0156s1.0156 0.54688 1.4844 0.9375c0.70312 0.625 1.4062 1.0938 2.2656 1.4062 0.85938 0.23438 1.7969 0.3125 2.7344 0.23438 0.54688-0.078125 1.1719-0.078125 1.7188 0.078125 0.3125 0.46875 0.54688 1.0156 0.625 1.6406 0.15625 0.9375 0.54688 1.7969 1.0156 2.5 0.54688 0.70312 1.25 1.3281 2.0312 1.7188 0.54688 0.39062 1.25 0.78125 1.3281 1.0938 0 0.54688-0.15625 1.0938-0.39062 1.6406-0.39062 0.85938-0.625 1.7969-0.625 2.7344 0.078125 0.9375 0.3125 1.875 0.625 2.7344 0.23438 0.54688 0.39062 1.0938 0.39062 1.6406-0.078125 0.3125-0.78125 0.78125-1.3281 1.0938-0.78125 0.46875-1.4844 1.0156-2.0312 1.7188-0.46875 0.78125-0.85938 1.6406-1.0156 2.5-0.078125 0.54688-0.3125 1.1719-0.625 1.6406-0.54688 0.15625-1.0938 0.15625-1.7188 0.078125-0.9375-0.078125-1.875 0-2.7344 0.23438-0.85938 0.3125-1.5625 0.78125-2.2656 1.4062-0.46875 0.54688-1.1719 1.0938-1.4844 1.0938s-1.0156-0.54688-1.4844-0.9375c-0.625-0.625-1.4062-1.0938-2.2656-1.4062-0.54688-0.15625-1.1719-0.23438-1.7969-0.23438h-0.9375c-0.54688 0.078125-1.1719 0.078125-1.7188-0.078125-0.3125-0.46875-0.54688-1.0156-0.625-1.6406-0.15625-0.9375-0.54688-1.7969-1.0156-2.5-0.54688-0.70312-1.25-1.3281-2.0312-1.7188-0.54688-0.39062-1.25-0.78125-1.3281-1.0938 0-0.54688 0.15625-1.0938 0.39062-1.6406 0.39062-0.85938 0.625-1.7969 0.625-2.7344-0.078125-1.0156-0.3125-1.9531-0.625-2.8125z"/>
 <path d="m50 24.219c3.9062 0 7.0312-3.125 7.0312-7.0312s-3.125-7.0312-7.0312-7.0312-7.0312 3.125-7.0312 7.0312 3.125 7.0312 7.0312 7.0312zm0-10.938c2.1875 0 3.9062 1.7188 3.9062 3.9062s-1.7188 3.9062-3.9062 3.9062-3.9062-1.7188-3.9062-3.9062 1.7188-3.9062 3.9062-3.9062z"/>
 <path d="m79.688 60.938h-15.625c-0.85938 0-1.5625 0.70312-1.5625 1.5625v34.375h-3.125v-44.531c0-0.85938-0.70312-1.5625-1.5625-1.5625h-15.625c-0.85938 0-1.5625 0.70312-1.5625 1.5625v44.531h-3.125v-26.562c0-0.85938-0.70312-1.5625-1.5625-1.5625h-15.625c-0.85938 0-1.5625 0.70312-1.5625 1.5625v26.562h-7.8125c-0.85938 0-1.5625 0.70312-1.5625 1.5625s0.70312 1.5625 1.5625 1.5625h78.125c0.85938 0 1.5625-0.70312 1.5625-1.5625s-0.70312-1.5625-1.5625-1.5625h-7.8125v-34.375c0-0.85938-0.70312-1.5625-1.5625-1.5625zm-45.312 35.938h-12.5v-25h12.5zm21.875 0h-12.5v-42.969h12.5zm21.875 0h-12.5v-32.812h12.5z"/>
</svg>