<svg xmlns="http://www.w3.org/2000/svg" version="1.1" viewBox="-5.0 -2.0 110.0 105.0">
 <path d="m8.2031 42.578c0 2.082-3.125 2.082-3.125 0s3.125-2.082 3.125 0"/>
 <path d="m13.258 44.555c0 2.0859-3.125 2.0859-3.125 0 0-2.082 3.125-2.082 3.125 0"/>
 <path d="m18.336 46.461c0 2.082-3.125 2.082-3.125 0 0-2.0859 3.125-2.0859 3.125 0"/>
 <path d="m79.695 43.762c0 2.082-3.125 2.082-3.125 0s3.125-2.082 3.125 0"/>
 <path d="m83.602 38.262c0 2.082-3.125 2.082-3.125 0 0-2.0859 3.125-2.0859 3.125 0"/>
 <path d="m87.508 32.824c0 2.082-3.125 2.082-3.125 0s3.125-2.082 3.125 0"/>
 <path d="m28.102 79.711c0 2.0859-3.125 2.0859-3.125 0 0-2.082 3.125-2.082 3.125 0"/>
 <path d="m32.008 74.992c0 2.082-3.125 2.082-3.125 0 0-2.082 3.125-2.082 3.125 0"/>
 <path d="m35.914 70.305c0 2.082-3.125 2.082-3.125 0 0-2.082 3.125-2.082 3.125 0"/>
 <path d="m90.48 68.262c0.30859-0.76562 0.10938-1.6406-0.5-2.1992l-17.285-16.66c-1.3125-1.2812-3.4023-1.2891-4.7266-0.023438-0.007812 0.007813-0.011719 0.011719-17.316 16.691-0.60938 0.55469-0.8125 1.4297-0.51172 2.1953 0.35156 0.80078 1.1641 1.3047 2.0391 1.2656h2.5078v14.918c0.023438 2.5664 2.1211 4.6328 4.6875 4.6133h21.875c2.5664 0.019531 4.6641-2.0469 4.6875-4.6133v-14.918h2.5586c0.85938 0.019531 1.6445-0.48047 1.9844-1.2695zm-23.293 17.676v-8.5938h6.25v8.5938zm14.062 0h-4.6875v-8.8711c-0.015625-1.5859-1.3164-2.8594-2.9023-2.8477h-6.6953c-1.5859-0.011719-2.8867 1.2617-2.9023 2.8477v8.8711h-4.6875c-0.83984 0.019531-1.5391-0.64453-1.5625-1.4883v-14.918h0.007812c0.86328 0 1.5625-0.69922 1.5625-1.5625s-0.69922-1.5625-1.5625-1.5625h-3.0156c4.5234-4.3594 15.246-14.695 15.328-14.773h0.003907c0.10938-0.09375 0.27344-0.089843 0.37891 0.007813l15.32 14.766h-3.0156c-0.85937 0-1.5625 0.69531-1.5625 1.5586-0.003906 0.85938 0.69141 1.5625 1.5547 1.5664v14.922-0.003906c-0.023438 0.84375-0.72266 1.5078-1.5625 1.4883z"/>
 <path d="m70.312 59.375c-1.8945 0-3.6055 1.1406-4.332 2.8945-0.72266 1.75-0.32422 3.7656 1.0156 5.1094 1.3438 1.3398 3.3594 1.7383 5.1094 1.0156 1.7539-0.72656 2.8945-2.4375 2.8945-4.332-0.003906-2.5859-2.1016-4.6836-4.6875-4.6875zm0 6.25c-0.63281 0-1.2031-0.37891-1.4453-0.96484-0.23828-0.58203-0.10547-1.2539 0.33984-1.7031 0.44922-0.44531 1.1211-0.57812 1.7031-0.33984 0.58594 0.24219 0.96484 0.8125 0.96484 1.4453 0 0.86328-0.69922 1.5625-1.5625 1.5625z"/>
 <path d="m29.75 34.891c0.4375 0.79688 9.7383 16.688 9.7383 16.688 0.5625 0.96094 1.5898 1.5469 2.6992 1.5469 1.1133 0 2.1367-0.59375 2.6953-1.5508 0 0 9.3555-16.059 9.375-16.086v-0.003906c1.6875-2.7148 2.6445-5.8203 2.7734-9.0156 0-8.5625-6.6602-15.531-14.844-15.531s-14.844 6.9688-14.844 15.531c0.023438 2.9766 0.84766 5.8867 2.3867 8.4336zm12.438-20.828c6.4609 0 11.719 5.5664 11.719 12.406-0.085938 2.6328-0.88672 5.1914-2.3242 7.3984-0.003906 0.007812-9.3945 16.133-9.3945 16.133s-9.6836-16.547-9.7617-16.676c-1.2578-2.0703-1.9336-4.4336-1.957-6.8555 0-6.8398 5.2578-12.406 11.719-12.406z"/>
 <path d="m42.188 31.25c2.2109 0 4.207-1.332 5.0508-3.375 0.84766-2.043 0.37891-4.3984-1.1836-5.9609s-3.918-2.0312-5.9609-1.1836c-2.043 0.84375-3.375 2.8398-3.375 5.0508 0.003906 3.0195 2.4492 5.4648 5.4688 5.4688zm0-7.8125c0.94922 0 1.8008 0.57031 2.1641 1.4453 0.36328 0.87891 0.16406 1.8867-0.50781 2.5547-0.66797 0.67188-1.6758 0.87109-2.5547 0.50781-0.875-0.36328-1.4453-1.2148-1.4453-2.1641 0-1.293 1.0508-2.3438 2.3438-2.3438z"/>
 <path d="m54.609 41.09-1.5977 2.7461 11.797 4.2656c0.625-0.61328 0.85938-0.84375 0.95312-0.93359h-0.003907c0.57422-0.5625 1.2539-1.0156 1.9961-1.3281z"/>
 <path d="m51.562 82.812h-46.875c-0.86328 0-1.5625-0.69922-1.5625-1.5625v-7.2461l13.312-15.977 31.277 12.66c-0.17578-0.26953-0.32812-0.55469-0.45703-0.85547-0.36328-0.89453-0.46484-1.8711-0.30078-2.8242l-28.418-11.504 11.531-13.836c-0.68359-1.1719-1.2344-2.1172-1.6719-2.875l-25.273 30.328v-39.434c0-0.86328 0.69922-1.5625 1.5625-1.5625h19.613c-0.046875-0.55078-0.082031-1.1016-0.082031-1.6562 0-0.49609 0.023438-0.98438 0.0625-1.4688h-19.594c-2.5859 0.003906-4.6836 2.1016-4.6875 4.6875v51.562c0.0039062 2.5859 2.1016 4.6836 4.6875 4.6875h47.023c-0.097657-0.49219-0.14844-0.98828-0.14844-1.4922z"/>
 <path d="m95.312 25h-35.219c0.035156 0.48438 0.0625 0.97656 0.0625 1.4688 0 0.54297-0.03125 1.0977-0.085938 1.6562h35.242c0.86328 0 1.5625 0.69922 1.5625 1.5625v26.68l-19.973-7.2188 5.3672 5.2617 14.605 5.2812v21.559c0 0.86328-0.69922 1.5625-1.5625 1.5625h-6.25v1.6328c0 0.50391-0.050781 1-0.14844 1.4922h6.3984c2.5859-0.003906 4.6836-2.1016 4.6875-4.6875v-51.562c-0.003906-2.5859-2.1016-4.6836-4.6875-4.6875z"/>
</svg>
