<svg xmlns="http://www.w3.org/2000/svg" data-name="Layer 1" viewBox="0 0 128 160" x="0px" y="0px"><title>miscellaneous 56 final</title><path d="M126,4a16.61847,16.61847,0,0,0-8.66895,2.22266A12.71029,12.71029,0,0,1,110.49609,8a12.7097,12.7097,0,0,1-6.83447-1.77734,18.016,18.016,0,0,0-17.3374,0A12.704,12.704,0,0,1,79.49121,8a12.704,12.704,0,0,1-6.833-1.77734A16.61584,16.61584,0,0,0,63.99023,4a16.60976,16.60976,0,0,0-8.665,2.22266A12.69719,12.69719,0,0,1,48.49463,8a12.70156,12.70156,0,0,1-6.832-1.77734A16.61706,16.61706,0,0,0,32.99512,4a16.61443,16.61443,0,0,0-8.6665,2.22266A12.69778,12.69778,0,0,1,17.49756,8,12.69967,12.69967,0,0,1,10.666,6.22266,16.60913,16.60913,0,0,0,2,4,2,2,0,0,0,2,8,12.69778,12.69778,0,0,1,8.83105,9.77734,16.61443,16.61443,0,0,0,17.49756,12a16.60913,16.60913,0,0,0,8.666-2.22266A12.69967,12.69967,0,0,1,32.99512,8a12.70345,12.70345,0,0,1,6.83252,1.77734A16.61177,16.61177,0,0,0,48.49463,12a16.60509,16.60509,0,0,0,8.66553-2.22314A12.70127,12.70127,0,0,1,63.99023,8a12.704,12.704,0,0,1,6.833,1.77734A16.61584,16.61584,0,0,0,79.49121,12a16.61237,16.61237,0,0,0,8.66748-2.22266,14.02907,14.02907,0,0,1,13.66895,0A16.61644,16.61644,0,0,0,110.49609,12,16.61847,16.61847,0,0,0,119.165,9.77734,12.71029,12.71029,0,0,1,126,8a2,2,0,0,0,0-4Z"/><path d="M126,116a16.61847,16.61847,0,0,0-8.66895,2.22266,14.03,14.03,0,0,1-13.66943,0,18.016,18.016,0,0,0-17.3374,0,14.02344,14.02344,0,0,1-13.666,0c-.58624-.30255-1.20361-.61414-1.87939-.90778a33.059,33.059,0,0,1-13.51373-.02563c-.69977.30109-1.33649.622-1.93988.93341A12.69719,12.69719,0,0,1,48.49463,120a12.70156,12.70156,0,0,1-6.832-1.77734A16.61706,16.61706,0,0,0,32.99512,116a16.61443,16.61443,0,0,0-8.6665,2.22266A12.69778,12.69778,0,0,1,17.49756,120a12.69967,12.69967,0,0,1-6.83154-1.77734A16.60913,16.60913,0,0,0,2,116a2,2,0,0,0,0,4,12.69778,12.69778,0,0,1,6.83105,1.77734A16.61443,16.61443,0,0,0,17.49756,124a16.60913,16.60913,0,0,0,8.666-2.22266A12.69967,12.69967,0,0,1,32.99512,120a12.70345,12.70345,0,0,1,6.83252,1.77734A16.61177,16.61177,0,0,0,48.49463,124a16.60509,16.60509,0,0,0,8.66553-2.22314A12.70127,12.70127,0,0,1,63.99023,120a12.704,12.704,0,0,1,6.833,1.77734,18.01215,18.01215,0,0,0,17.33545,0,14.02907,14.02907,0,0,1,13.66895,0,18.016,18.016,0,0,0,17.3374,0A12.71029,12.71029,0,0,1,126,120a2,2,0,0,0,0-4Z"/><path d="M2,104a12.69778,12.69778,0,0,1,6.83105,1.77734A16.61443,16.61443,0,0,0,17.49756,108a16.60913,16.60913,0,0,0,8.666-2.22266A12.69967,12.69967,0,0,1,32.99512,104a12.98359,12.98359,0,0,1,4.1524.5863,37.11249,37.11249,0,0,1-3.10571-4.55048C33.7005,100.01959,33.36517,100,32.99512,100a16.61443,16.61443,0,0,0-8.6665,2.22266A12.69778,12.69778,0,0,1,17.49756,104a12.69967,12.69967,0,0,1-6.83154-1.77734A16.60913,16.60913,0,0,0,2,100a2,2,0,0,0,0,4Z"/><path d="M126,100a16.61847,16.61847,0,0,0-8.66895,2.22266,14.03,14.03,0,0,1-13.66943,0A16.617,16.617,0,0,0,94.99268,100c-.32544,0-.61725.01892-.92035.03149a35.38236,35.38236,0,0,1-2.987,4.47626A13.294,13.294,0,0,1,94.99268,104a12.71029,12.71029,0,0,1,6.835,1.77734,18.016,18.016,0,0,0,17.3374,0A12.71029,12.71029,0,0,1,126,104a2,2,0,0,0,0-4Z"/><path d="M2,88a12.69778,12.69778,0,0,1,6.83105,1.77734A16.61443,16.61443,0,0,0,17.49756,92a16.60913,16.60913,0,0,0,8.666-2.22266,14.64685,14.64685,0,0,1,3.54761-1.43451,39.85,39.85,0,0,1-.55536-3.9679,17.86935,17.86935,0,0,0-4.82721,1.84772A12.69778,12.69778,0,0,1,17.49756,88,12.69967,12.69967,0,0,1,10.666,86.22266,16.60913,16.60913,0,0,0,2,84a2,2,0,0,0,0,4Z"/><path d="M126,84a16.61847,16.61847,0,0,0-8.66895,2.22266,14.03,14.03,0,0,1-13.66943,0A17.82646,17.82646,0,0,0,98.79706,84.368q-.17413,2.01141-.53821,3.9696a14.60829,14.60829,0,0,1,3.56879,1.4397,18.016,18.016,0,0,0,17.3374,0A12.71029,12.71029,0,0,1,126,88a2,2,0,0,0,0-4Z"/><path d="M2,72a12.69778,12.69778,0,0,1,6.83105,1.77734A16.61443,16.61443,0,0,0,17.49756,76a16.60913,16.60913,0,0,0,8.666-2.22266,14.43814,14.43814,0,0,1,3.63049-1.45654q.39926-2.09363.99628-4.19623a16.76924,16.76924,0,0,0-6.46173,2.09808A12.69778,12.69778,0,0,1,17.49756,72,12.69967,12.69967,0,0,1,10.666,70.22266,16.60913,16.60913,0,0,0,2,68a2,2,0,0,0,0,4Z"/><path d="M126,68a16.61847,16.61847,0,0,0-8.66895,2.22266,14.03,14.03,0,0,1-13.66943,0,16.78239,16.78239,0,0,0-6.41339-2.09271q.57166,2.09619.94849,4.19122a14.45379,14.45379,0,0,1,3.63092,1.45618,18.016,18.016,0,0,0,17.3374,0A12.71029,12.71029,0,0,1,126,72a2,2,0,0,0,0-4Z"/><path d="M126,52a16.61847,16.61847,0,0,0-8.66895,2.22266,14.03,14.03,0,0,1-13.66943,0A16.617,16.617,0,0,0,94.99268,52a17.78352,17.78352,0,0,0-4.499.52863c.69861,1.33472,1.34119,2.57092,1.91083,3.67822A15.14214,15.14214,0,0,1,94.99268,56a12.71029,12.71029,0,0,1,6.835,1.77734,18.016,18.016,0,0,0,17.3374,0A12.71029,12.71029,0,0,1,126,56a2,2,0,0,0,0-4Z"/><path d="M2,56a12.69778,12.69778,0,0,1,6.83105,1.77734A16.61443,16.61443,0,0,0,17.49756,60a16.60913,16.60913,0,0,0,8.666-2.22266A12.69967,12.69967,0,0,1,32.99512,56a14.80479,14.80479,0,0,1,2.78571.24261c.57654-1.09717,1.22455-2.325,1.929-3.6557A17.54775,17.54775,0,0,0,32.99512,52a16.61443,16.61443,0,0,0-8.6665,2.22266A12.69778,12.69778,0,0,1,17.49756,56,12.69967,12.69967,0,0,1,10.666,54.22266,16.60913,16.60913,0,0,0,2,52a2,2,0,0,0,0,4Z"/><path d="M126,36a16.61847,16.61847,0,0,0-8.66895,2.22266,14.03,14.03,0,0,1-13.66943,0,18.016,18.016,0,0,0-17.3374,0A17.13086,17.13086,0,0,1,83.5545,39.445q.96387,1.80176,1.90625,3.56976a23.8205,23.8205,0,0,0,2.69794-1.23743,14.02907,14.02907,0,0,1,13.66895,0,18.016,18.016,0,0,0,17.3374,0A12.71029,12.71029,0,0,1,126,40a2,2,0,0,0,0-4Z"/><path d="M2,40a12.69778,12.69778,0,0,1,6.83105,1.77734A16.61443,16.61443,0,0,0,17.49756,44a16.60913,16.60913,0,0,0,8.666-2.22266A12.69967,12.69967,0,0,1,32.99512,40a12.70345,12.70345,0,0,1,6.83252,1.77734,22.691,22.691,0,0,0,2.92987,1.31848q.94391-1.76917,1.91266-3.58191a16.21883,16.21883,0,0,1-3.00757-1.29126A16.61706,16.61706,0,0,0,32.99512,36a16.61443,16.61443,0,0,0-8.6665,2.22266A12.69778,12.69778,0,0,1,17.49756,40,12.69967,12.69967,0,0,1,10.666,38.22266,16.60913,16.60913,0,0,0,2,36a2,2,0,0,0,0,4Z"/><path d="M41.6626,22.22266A16.61706,16.61706,0,0,0,32.99512,20a16.61443,16.61443,0,0,0-8.6665,2.22266A12.69778,12.69778,0,0,1,17.49756,24,12.69967,12.69967,0,0,1,10.666,22.22266,16.60913,16.60913,0,0,0,2,20a2,2,0,0,0,0,4,12.69778,12.69778,0,0,1,6.83105,1.77734A16.61443,16.61443,0,0,0,17.49756,28a16.60913,16.60913,0,0,0,8.666-2.22266A12.69967,12.69967,0,0,1,32.99512,24a12.70345,12.70345,0,0,1,6.83252,1.77734A16.61177,16.61177,0,0,0,48.49463,28a20.042,20.042,0,0,0,2.41882-.14777c.89075-1.66119,1.74432-3.25208,2.54132-4.737A12.29324,12.29324,0,0,1,48.49463,24,12.70156,12.70156,0,0,1,41.6626,22.22266Z"/><path d="M126,20a16.61847,16.61847,0,0,0-8.66895,2.22266,14.03,14.03,0,0,1-13.66943,0,18.016,18.016,0,0,0-17.3374,0A12.704,12.704,0,0,1,79.49121,24a12.52224,12.52224,0,0,1-4.65607-.76208c.789,1.45984,1.62994,3.01733,2.50684,4.64362A20.327,20.327,0,0,0,79.49121,28a16.61237,16.61237,0,0,0,8.66748-2.22266,14.02907,14.02907,0,0,1,13.66895,0,18.016,18.016,0,0,0,17.3374,0A12.71029,12.71029,0,0,1,126,24a2,2,0,0,0,0-4Z"/><path d="M41.62842,103.70313a29.64586,29.64586,0,0,0,44.92188,0C96.42822,92.748,97.7168,75.58057,89.833,59.96777,84.1416,48.69629,66.02881,15.37988,65.84619,15.04443A2,2,0,0,0,64.08936,14H64.085a2.00033,2.00033,0,0,0-1.75684,1.05225c-.18066.33594-18.14648,33.72461-23.9707,44.89209C30.1792,75.62793,31.43262,92.395,41.62842,103.70313ZM64.09766,20.20752c4.71533,8.69629,17.5542,32.43262,22.165,41.563,7.1333,14.127,6.08008,29.53516-2.68311,39.25391a25.649,25.649,0,0,1-38.98047,0C35.55127,90.98975,34.51855,75.95752,41.9043,61.79395,46.63525,52.72217,59.41162,28.92627,64.09766,20.20752Z"/><path d="M79.99951,98a1.99615,1.99615,0,0,0,1.47217-.64551c7.21924-7.84277,8.50635-18.13525,3.52979-28.23828a1.99983,1.99983,0,1,0-3.58789,1.76758c4.26807,8.66553,3.24316,17.104-2.88525,23.76172A2,2,0,0,0,79.99951,98Z"/></svg>