<svg xmlns="http://www.w3.org/2000/svg" data-name="Layer 1" viewBox="0 0 128 160" x="0px" y="0px"><title>project planning 01 expandline</title><path d="M39.04773,38.6991c1.15228-.66663,2.32849-1.29572,3.53625-1.87061L25.79492,4.00439,25.78223,4,50.314,3.99561l9.24579,18.07574,2.23743-4.40942L53.87549,2.1748A3.97036,3.97036,0,0,0,50.32666,0H25.78223a3.95876,3.95876,0,0,0-3.3999,1.90869,3.98139,3.98139,0,0,0-.14893,3.917Z"/><path d="M63.48608,32.01306,77.7002,4l24.29492.01025L85.35651,36.80157c1.20856.57336,2.38611,1.19989,3.53931,1.86505l16.66668-32.8468a3.99479,3.99479,0,0,0-.15917-3.92383A3.941,3.941,0,0,0,102.0249,0H77.67578a3.95333,3.95333,0,0,0-3.5376,2.18018L58.87457,32.26123C60.39209,32.106,61.93188,32.02887,63.48608,32.01306Z"/><path d="M64,36a46,46,0,1,0,46,46A46.05239,46.05239,0,0,0,64,36Zm0,88a42,42,0,1,1,42-42A42.04781,42.04781,0,0,1,64,124Z"/><path d="M52.27,52.07959a1.86682,1.86682,0,0,0,.68994-.12988V51.96a2.01367,2.01367,0,1,0-.68994.11963Z"/><path d="M46.91992,54.59961a2.03032,2.03032,0,0,0,1-.27,2.00036,2.00036,0,1,0-1,.27Z"/><path d="M57.98975,50.52979a2.15919,2.15919,0,0,0,.3501-.02979,2.00734,2.00734,0,1,0-.3501.02979Z"/><path d="M42.07959,58.00977a1.99935,1.99935,0,1,0-1.52979-.71A1.99552,1.99552,0,0,0,42.07959,58.00977Z"/><path d="M30,84.06982a1.99512,1.99512,0,1,0-2-1.99023A1.99947,1.99947,0,0,0,30,84.06982Z"/><path d="M30.15967,78.13965a1.95519,1.95519,0,0,0,.34033.03027,2.00527,2.00527,0,1,0-.34033-.03027Z"/><path d="M33.50977,66.81006A2.00022,2.00022,0,1,0,32.77,64.06982,1.99526,1.99526,0,0,0,33.50977,66.81006Z"/><path d="M37.88965,62.21a1.96551,1.96551,0,0,0,1.54-.72021V61.5a2.01878,2.01878,0,1,0-1.54.71Z"/><path d="M63.88965,50h.01025a2.00518,2.00518,0,1,0-.01025,0Z"/><path d="M31.32959,72.32959a2.07849,2.07849,0,0,0,.68018.12012,2.00114,2.00114,0,1,0-.68018-.12012Z"/><path d="M94.02979,70.92969a2.009,2.009,0,0,0,1.87988,1.31006,1.87679,1.87679,0,0,0,.68994-.12988,1.99792,1.99792,0,1,0-2.56982-1.18018Z"/><path d="M69.44971,50.46a2.04,2.04,0,0,0,.34033.02979,2.00261,2.00261,0,1,0-.34033-.02979Z"/><path d="M91.65967,65.88965a1.98345,1.98345,0,0,0,1.72021.99023,2.0361,2.0361,0,0,0,1.00977-.27,2.00066,2.00066,0,1,0-2.73-.72021Z"/><path d="M97.10986,73.98a2,2,0,0,0,.3501,3.96973,2.18655,2.18655,0,0,0,.35986-.02979,2.00171,2.00171,0,0,0-.71-3.93994Z"/><path d="M89.96973,62.0498a2.00444,2.00444,0,1,0-1.52979-.71A1.981,1.981,0,0,0,89.96973,62.0498Z"/><path d="M85.75977,57.86963A1.96133,1.96133,0,0,0,87.29,57.1499a1.99879,1.99879,0,0,0-3.07031-2.56006,1.99965,1.99965,0,0,0,1.54,3.27979Z"/><path d="M74.83984,51.87988a1.9993,1.9993,0,1,0-1.2002-2.56006A1.98912,1.98912,0,0,0,74.83984,51.87988Z"/><path d="M79.8999,54.21973a1.99988,1.99988,0,1,0-.74023-2.73A1.9931,1.9931,0,0,0,79.8999,54.21973Z"/><path d="M94.46,97.25977a2.00079,2.00079,0,0,0-2.01025,3.46,1.93206,1.93206,0,0,0,1,.27,1.99953,1.99953,0,0,0,1.01025-3.73Z"/><path d="M84.57959,106.5a2.00012,2.00012,0,0,0,1.29,3.52979,1.95174,1.95174,0,0,0,1.28027-.46973h.00977A2.00131,2.00131,0,0,0,84.57959,106.5Z"/><path d="M80.02,109.71a1.99821,1.99821,0,1,0,2.73.73A1.99665,1.99665,0,0,0,80.02,109.71Z"/><path d="M74.96973,112.06982A2.00083,2.00083,0,1,0,77.54,113.25977,1.99386,1.99386,0,0,0,74.96973,112.06982Z"/><path d="M69.58984,113.50977a2.00049,2.00049,0,0,0,.3501,3.97021,1.94966,1.94966,0,0,0,.33984-.03027,2,2,0,1,0-.68994-3.93994Z"/><path d="M88.52,102.56006a2.00174,2.00174,0,1,0,2.81982-.25A1.99994,1.99994,0,0,0,88.52,102.56006Z"/><path d="M96.63965,91.73975a1.99884,1.99884,0,1,0,1.2002,2.57031A2.00756,2.00756,0,0,0,96.63965,91.73975Z"/><path d="M97.98975,79.84961A1.9995,1.9995,0,0,0,96,81.85986V82a2,2,0,0,0,4,0v-.16016A2,2,0,0,0,97.98975,79.84961Z"/><path d="M97.83984,85.92969a2.00084,2.00084,0,0,0-.7002,3.93994,2.16156,2.16156,0,0,0,.3501.03027,2.00048,2.00048,0,0,0,.3501-3.97021Z"/><path d="M36.31006,98.0498a2.001,2.001,0,1,0-1.73047,3,1.90411,1.90411,0,0,0,1-.27A1.9968,1.9968,0,0,0,36.31006,98.0498Z"/><path d="M48.04,109.73975a2.00266,2.00266,0,0,0-2,3.47021,2.02,2.02,0,0,0,1,.25977,1.97657,1.97657,0,0,0,1.73-1A2.00632,2.00632,0,0,0,48.04,109.73975Z"/><path d="M36.69971,102.36963a2.00037,2.00037,0,0,0,1.29,3.53027,2.03089,2.03089,0,0,0,1.29-.47021,2.0013,2.0013,0,1,0-2.58008-3.06006Z"/><path d="M64.04,114a2,2,0,1,0,2,2A1.99916,1.99916,0,0,0,64.04,114Z"/><path d="M30.86963,89.93994A2.0008,2.0008,0,1,0,30.16992,86a2.00022,2.00022,0,0,0,.3501,3.96973A2.061,2.061,0,0,0,30.86963,89.93994Z"/><path d="M33.93994,93.00977a1.99623,1.99623,0,1,0-1.87988,2.68018,2.0866,2.0866,0,0,0,.68994-.12012A1.99386,1.99386,0,0,0,33.93994,93.00977Z"/><path d="M40.6499,106.79a1.99917,1.99917,0,0,0,.25,2.81982,1.95142,1.95142,0,0,0,1.27979.46973,2.00432,2.00432,0,0,0,1.29-3.53955A2.01693,2.01693,0,0,0,40.6499,106.79Z"/><path d="M58.48,113.52979a2,2,0,0,0-.68994,3.93994,2.06177,2.06177,0,0,0,.34961.03027,1.99974,1.99974,0,0,0,.34033-3.97021Z"/><path d="M53.08984,112.08984A1.99907,1.99907,0,1,0,51.73,115.84961a1.76705,1.76705,0,0,0,.67969.12012,1.99888,1.99888,0,0,0,.68018-3.87988Z"/><path d="M75.748,102.07861a7.60806,7.60806,0,0,1,1.18359-2.27881,7.44458,7.44458,0,0,1,2.5708-.438c1.98877-.14355,4.24316-.30615,5.53076-2.07568,1.27832-1.75586.74268-3.939.27-5.86523a7.44937,7.44937,0,0,1-.37451-2.61963,7.57108,7.57108,0,0,1,1.76563-1.78271C88.167,85.78223,90,84.24365,90,82s-1.833-3.78223-3.30566-5.01807a7.59778,7.59778,0,0,1-1.76562-1.78174,7.45157,7.45157,0,0,1,.37451-2.62061c.47266-1.92627,1.00879-4.10937-.269-5.86523-1.28809-1.76953-3.542-1.93262-5.53125-2.07617a7.43521,7.43521,0,0,1-2.5708-.438,7.59924,7.59924,0,0,1-1.18457-2.2793c-.75342-1.86133-1.60693-3.9707-3.71143-4.6543-2.0415-.6626-3.93213.51172-5.60156,1.54785A7.44129,7.44129,0,0,1,64,60a7.43968,7.43968,0,0,1-2.43408-1.18555c-1.67041-1.03564-3.56543-2.20947-5.60156-1.54785-2.105.68359-2.959,2.79346-3.7124,4.65479a7.60806,7.60806,0,0,1-1.18359,2.27881,7.44458,7.44458,0,0,1-2.5708.438c-1.98877.14355-4.24316.30615-5.53076,2.07568-1.27832,1.75586-.74268,3.939-.27,5.86523a7.44937,7.44937,0,0,1,.37451,2.61963,7.57129,7.57129,0,0,1-1.76562,1.78271C39.833,78.21777,38,79.75635,38,82s1.833,3.78223,3.30566,5.01807a7.598,7.598,0,0,1,1.76563,1.78174,7.45157,7.45157,0,0,1-.37451,2.62061c-.47266,1.92627-1.00879,4.10938.269,5.86523,1.28809,1.76953,3.542,1.93262,5.53125,2.07617a7.43521,7.43521,0,0,1,2.5708.438,7.59924,7.59924,0,0,1,1.18457,2.2793c.75342,1.86133,1.60693,3.9707,3.71143,4.6543a3.92112,3.92112,0,0,0,1.21875.19238,8.79755,8.79755,0,0,0,4.38281-1.74023A7.44129,7.44129,0,0,1,64,104a7.43968,7.43968,0,0,1,2.43408,1.18555c1.66992,1.03516,3.56348,2.209,5.60156,1.54785C74.14063,106.0498,74.99463,103.93994,75.748,102.07861Zm-4.917.84326a8.03682,8.03682,0,0,1-2.28857-1.13574A9.05825,9.05825,0,0,0,64,100a9.05382,9.05382,0,0,0-4.54248,1.78613,7.78826,7.78826,0,0,1-2.25,1.146,7.24844,7.24844,0,0,1-1.24756-2.354,8.68456,8.68456,0,0,0-2.53857-4.0127,8.75034,8.75034,0,0,0-4.63623-1.19336,7.98409,7.98409,0,0,1-2.57373-.42187,7.47475,7.47475,0,0,1,.37012-2.57617,8.83688,8.83688,0,0,0,.29443-4.80957,8.57551,8.57551,0,0,0-2.99854-3.60986C43.27881,83.45215,42.0332,82.40625,42,82.00146c.03271-.4082,1.27881-1.45361,1.87744-1.95605A8.57806,8.57806,0,0,0,46.876,76.43457a8.82927,8.82927,0,0,0-.29443-4.80859,8.06132,8.06132,0,0,1-.39014-2.54687,7.36805,7.36805,0,0,1,2.59424-.45117,8.74794,8.74794,0,0,0,4.63672-1.19385A8.68758,8.68758,0,0,0,55.96,63.42236a7.92346,7.92346,0,0,1,1.209-2.34424l.02783-.001a7.97712,7.97712,0,0,1,2.26074,1.13672A9.05825,9.05825,0,0,0,64,64a9.05382,9.05382,0,0,0,4.54248-1.78613,7.51666,7.51666,0,0,1,2.25-1.146,7.24844,7.24844,0,0,1,1.24756,2.354,8.68456,8.68456,0,0,0,2.53857,4.0127,8.75034,8.75034,0,0,0,4.63623,1.19336,7.98409,7.98409,0,0,1,2.57373.42188,7.47475,7.47475,0,0,1-.37012,2.57617,8.83688,8.83688,0,0,0-.29443,4.80957,8.57551,8.57551,0,0,0,2.99854,3.60986C84.7207,80.54736,85.96436,81.59131,86,82c-.03564.40869-1.2793,1.45264-1.87744,1.95459A8.57806,8.57806,0,0,0,81.124,87.56543a8.82927,8.82927,0,0,0,.29443,4.80859,8.06132,8.06132,0,0,1,.39014,2.54688,7.36805,7.36805,0,0,1-2.59424.45117,8.74794,8.74794,0,0,0-4.63672,1.19385,8.68758,8.68758,0,0,0-2.5376,4.01172A7.92346,7.92346,0,0,1,70.83105,102.92188Z"/><path d="M71.13623,85.43848l4.29541-4.40283a2.00005,2.00005,0,0,0-1.12939-3.37354l-5.855-.89453-2.63672-5.61719a2,2,0,0,0-3.62109,0l-2.63672,5.61719-5.855.89453a2.00005,2.00005,0,0,0-1.12939,3.37354l4.29541,4.40283L55.8457,91.67822a2.00048,2.00048,0,0,0,2.94189,2.07227L64,90.86865l5.2124,2.88184a2.00048,2.00048,0,0,0,2.94189-2.07227Zm-3.56787-2.0708a1.99928,1.99928,0,0,0-.54248,1.71826l.51758,3.1709L64.96777,86.833a2.00159,2.00159,0,0,0-1.93555,0l-2.57568,1.42383.51758-3.1709a1.99928,1.99928,0,0,0-.54248-1.71826l-2.28223-2.33936,3.0625-.46777a1.99988,1.99988,0,0,0,1.5083-1.12744L64,76.70654l1.27979,2.72656a1.99988,1.99988,0,0,0,1.5083,1.12744l3.0625.46777Z"/></svg>