<svg xmlns="http://www.w3.org/2000/svg" data-name="Layer 1" viewBox="0 0 128 160" x="0px" y="0px"><title>Miscellaneous 25 final </title><path d="M37.54,44l1.35-.66a2,2,0,1,0-1.77-3.59l-1.35.66a2.3,2.3,0,0,1-1.54,0l-1.35-.66a2,2,0,1,0-1.77,3.59l1.35.66a6.2,6.2,0,0,0,5.07,0Z"/><path d="M32,31a2,2,0,0,0-2-2H26a2,2,0,1,0,0,4h4A2,2,0,0,0,32,31Z"/><path d="M41,33h4a2,2,0,1,0,0-4H41a2,2,0,1,0,0,4Z"/><path d="M126,71H102V64h13a4,4,0,0,0,4-4V32a4,4,0,0,0-4-4H75a4,4,0,0,0-4,4V60a4,4,0,0,0,4,4H88v7H2a2,2,0,0,0-2,2v53a2.05,2.05,0,0,0,2,2H126a2,2,0,0,0,2-2V73A2,2,0,0,0,126,71ZM75,60V32h40V60Zm23,4v7H92V64Zm26,58.46-16.06-14a2,2,0,0,0-1.31-.49H81a2,2,0,1,0,0,4h24.88l13.78,12H7.34l13.78-12H46a2,2,0,1,0,0-4H20.38a2,2,0,0,0-1.31.49L4,121.61V91.22l15.11,12.33a2,2,0,0,0,1.26.45H46a2,2,0,1,0,0-4H21.09L6.39,88H120.61l-14.7,12H81a2,2,0,1,0,0,4h25.63a2,2,0,0,0,1.26-.45L124,90.41ZM124,84H4V75H124Z"/><path d="M64,94a12,12,0,1,0,12,12A12,12,0,0,0,64,94Zm0,20a8,8,0,1,1,8-8A8,8,0,0,1,64,114Z"/><path d="M60,67V64.12A7.37,7.37,0,0,0,52.41,57H52c-3.7,0-6.71-2.67-6.71-6v-2A20,20,0,0,0,55,32.35a10.73,10.73,0,0,0,3.59-5.88c.82-3.27,1.12-10-6.13-18.42C40.17-6.21,28.79,2.18,24.52,5.33c-.49.36-.91.67-1.17.83a5.12,5.12,0,0,1-1.76.2c-3.79.07-8,.88-9.83,9.63-2.6,12.26,2.42,18.19,3.54,19.33A20,20,0,0,0,25.1,49.37v1.69c0,3.28-3,6-6.71,6h-.81A7.37,7.37,0,0,0,10,64.12V67h4V64.12A3.38,3.38,0,0,1,17.59,61h.81a11.46,11.46,0,0,0,2.29-.24L26.77,67H33l.66-3.15,1.59-1.63.94,1L37,67h6.71l6.08-6.23A11.46,11.46,0,0,0,52,61h.38A3.38,3.38,0,0,1,56,64.12V67ZM18,24c0,.11.95,2.46-1.27,6.5-1.22-2.32-2.55-6.7-1.07-13.68,1.35-6.37,3.5-6.41,6-6.46a7.22,7.22,0,0,0,3.78-.78c.41-.25.87-.59,1.46-1C29.38,6.72,33.07,4,37.58,4c3.51,0,7.52,1.65,11.83,6.66C55.49,17.7,55.33,23,54.7,25.49a7.67,7.67,0,0,1-1.44,3,11.1,11.1,0,0,1-.65-5.06,2,2,0,0,0-2.15-2.23,12.61,12.61,0,0,1-5-.53,11.53,11.53,0,0,1-6.2-5.29A2,2,0,0,0,36.07,15a14.56,14.56,0,0,1-2.37,2l-.07,0a20.9,20.9,0,0,1-4.68,2.32,36.51,36.51,0,0,1-9.29,1.89,2,2,0,0,0-1.57,1A2,2,0,0,0,18,24Zm1.17,10.17c2.66-4,3.15-7.14,3-9.21a38.16,38.16,0,0,0,8.1-1.88,24.93,24.93,0,0,0,5.52-2.74l0,0q.66-.43,1.26-.9a14.91,14.91,0,0,0,7,5.06,15.78,15.78,0,0,0,4.41.77,11.81,11.81,0,0,0,1.85,6.31,6.81,6.81,0,0,0,.57.7A16,16,0,0,1,35,48,16.19,16.19,0,0,1,19.17,34.16Zm9.5,29.06-4-4.1a10.24,10.24,0,0,0,3.28-3.57L32,59.76Zm6.55-5.95-6-6.11A19.8,19.8,0,0,0,41.33,51v0Zm6.55,5.95-3.38-3.47,4.11-4.21a10.24,10.24,0,0,0,3.28,3.57Z"/></svg>