<svg xmlns="http://www.w3.org/2000/svg" version="1.1" viewBox="-5.0 -10.0 110.0 135.0">
 <path d="m98.438 46.781v-22.629c0-0.74609-0.52734-1.3906-1.2617-1.5352l-75-15.559v0.003906c-0.45703-0.09375-0.93359 0.027344-1.293 0.32422-0.36328 0.29688-0.57031 0.73828-0.57031 1.207v7.8125c0 0.75 0.53125 1.3945 1.2695 1.5352l4.9805 0.95312v4.4453l-25 0.003906c-0.86328 0-1.5625 0.69922-1.5625 1.5625v6.25c0 0.86328 0.69922 1.5625 1.5625 1.5625h6.25v26.562h-3.125c-0.86328 0-1.5625 0.69922-1.5625 1.5625v22.75h-1.5625c-0.86328 0-1.5625 0.69922-1.5625 1.5625v6.25c0 0.86328 0.69922 1.5625 1.5625 1.5625h96.875c0.86328 0 1.5625-0.69922 1.5625-1.5625v-6.25c0-0.86328-0.69922-1.5625-1.5625-1.5625h-0.78125v-27.438h0.78125c0.86328 0 1.5625-0.69922 1.5625-1.5625v-6.25c0-0.86328-0.69922-1.5625-1.5625-1.5625zm-75-31.668v-4.6172l71.875 14.941v21.344h-3.125v-17.188c0-0.75-0.53125-1.3945-1.2695-1.5352zm65.625 15.77v15.898h-59.375v-27.285zm-85.938-1.2891v-3.125h23.438v3.125zm12.5 26.562h32.031v27.438h-3.125v-22.75c0-0.86328-0.69922-1.5625-1.5625-1.5625h-32.031v-26.562h15.625v14.062h-10.938c-0.86328 0-1.5625 0.69922-1.5625 1.5625v6.25c0 0.86328 0.69922 1.5625 1.5625 1.5625zm-9.375 6.25h35.156v21.188h-14.844v-11.812c0.86328 0 1.5625-0.69922 1.5625-1.5625s-0.69922-1.5625-1.5625-1.5625h-15.625c-0.86328 0-1.5625 0.69922-1.5625 1.5625s0.69922 1.5625 1.5625 1.5625v11.812h-4.6875zm17.188 9.375v11.812h-9.375v-11.812zm73.438 18.062h-93.75v-3.125h93.75zm-46.094-6.25v-27.438h3.125v27.438zm37.5-21.188v3.125h-31.25v-3.125zm-31.25-3.125v-3.125h31.25v3.125zm31.25 9.375v3.125h-31.25v-3.125zm0 6.25v3.125h-31.25v-3.125zm0 6.25v2.4375h-31.25v-2.4375zm3.125 2.4375v-27.438h3.125v27.438zm5.4688-30.562h-79.688v-3.125h79.688z"/>
 <path d="m34.375 43.75h32.812c0.86328 0 1.5625-0.69922 1.5625-1.5625v-10.938c0-0.86328-0.69922-1.5625-1.5625-1.5625h-32.812c-0.86328 0-1.5625 0.69922-1.5625 1.5625v10.938c0 0.86328 0.69922 1.5625 1.5625 1.5625zm23.438-10.938h7.8125v7.8125h-7.8125zm-10.938 0h7.8125v7.8125h-7.8125zm-10.938 0h7.8125v7.8125h-7.8125z"/>
</svg>