<svg xmlns="http://www.w3.org/2000/svg" data-name="Layer 1" viewBox="0 0 128 160" x="0px" y="0px"><title>miscellaneous 248 final</title><path d="M64,12A14,14,0,1,0,78,26,14.01588,14.01588,0,0,0,64,12Zm0,24A10,10,0,1,1,74,26,10,10,0,0,1,64,36Z"/><path d="M10.75,61A10.25,10.25,0,1,0,21,50.75,10.26163,10.26163,0,0,0,10.75,61Zm16.5,0A6.25,6.25,0,1,1,21,54.75,6.25,6.25,0,0,1,27.25,61Z"/><path d="M124.42261,54.32056q-.1777-.46289-.38031-.91632a5.18167,5.18167,0,0,0-.94946-6.00989l-2.48712-2.48712a5.18089,5.18089,0,0,0-6.01251-.95062q-.45181-.202-.91376-.37921A5.175,5.175,0,0,0,109,40.01965V30a6.00656,6.00656,0,0,0-6-6H90v-.27588a5.52715,5.52715,0,0,0-4.34711-5.3924,22.68227,22.68227,0,0,0-.9209-2.21863,5.5271,5.5271,0,0,0-.73792-6.88861L80.77545,6.00592a5.52209,5.52209,0,0,0-6.89-.73859,22.67423,22.67423,0,0,0-2.21722-.92023A5.52715,5.52715,0,0,0,66.27588,0h-4.5517a5.527,5.527,0,0,0-5.3924,4.34711,22.66174,22.66174,0,0,0-2.21722.92023,5.52218,5.52218,0,0,0-6.89008.73865L44.006,9.22449a5.52673,5.52673,0,0,0-.738,6.88867,22.66572,22.66572,0,0,0-.92084,2.21857A5.52049,5.52049,0,0,0,38.0636,23H25a6.00656,6.00656,0,0,0-6,6V40.01965a5.17508,5.17508,0,0,0-4.67944,3.55774q-.4617.17725-.91376.37915a5.18107,5.18107,0,0,0-6.01251.95068L4.90723,47.39429a5.18209,5.18209,0,0,0-.94952,6.01q-.20242.453-.38025.91626A5.18178,5.18178,0,0,0,0,59.24139v3.51721a5.18183,5.18183,0,0,0,3.57745,4.92084q.17761.46289.38031.91632a5.18167,5.18167,0,0,0,.94934,6.00983l2.48724,2.48718a5.18107,5.18107,0,0,0,6.01245.95062q.45181.20187.91376.37915A5.18183,5.18183,0,0,0,19.24139,82h3.51721a5.18178,5.18178,0,0,0,4.92084-3.57745q.4617-.17715.91382-.37915a5.18107,5.18107,0,0,0,6.01239-.95056l2.48712-2.48712a5.182,5.182,0,0,0,.94952-6.01q.20251-.453.38031-.91626A5.18178,5.18178,0,0,0,42,62.75861V59.24139a5.18172,5.18172,0,0,0-3.57739-4.92084q-.1777-.46289-.38031-.91632a5.18167,5.18167,0,0,0-.94946-6.00989l-2.48712-2.48712a5.18089,5.18089,0,0,0-6.01251-.95062q-.45181-.202-.91376-.37921A5.175,5.175,0,0,0,23,40.01965V29a2.00229,2.00229,0,0,1,2-2H38v1.27588a5.52708,5.52708,0,0,0,4.34717,5.39233,22.66055,22.66055,0,0,0,.92084,2.21863,5.52731,5.52731,0,0,0,.73779,6.88849l3.21875,3.21875a5.52222,5.52222,0,0,0,6.88989.73859,22.66965,22.66965,0,0,0,2.21735.92017A5.527,5.527,0,0,0,61.72418,52h4.5517a5.527,5.527,0,0,0,5.39233-4.34717,22.65506,22.65506,0,0,0,2.21735-.92023,5.52209,5.52209,0,0,0,6.89-.73859l3.21857-3.21851a5.52692,5.52692,0,0,0,.738-6.88867,22.68182,22.68182,0,0,0,.92084-2.21863A5.527,5.527,0,0,0,90,28.27588V28h13a2.00229,2.00229,0,0,1,2,2V40.01965a5.17508,5.17508,0,0,0-4.67944,3.55774q-.4617.17725-.91376.37915a5.18107,5.18107,0,0,0-6.01251.95068l-2.48706,2.48706a5.18209,5.18209,0,0,0-.94952,6.01q-.20242.453-.38025.91626A5.18178,5.18178,0,0,0,86,59.24139v3.51721a5.18183,5.18183,0,0,0,3.57745,4.92084q.17761.46289.38031.91632a5.18167,5.18167,0,0,0,.94934,6.00983l2.48724,2.48718a5.18107,5.18107,0,0,0,6.01245.95062q.45181.20187.91376.37915A5.18183,5.18183,0,0,0,105.24139,82h3.51721a5.18178,5.18178,0,0,0,4.92084-3.57745q.4617-.17715.91382-.37915a5.18107,5.18107,0,0,0,6.01239-.95056l2.48712-2.48712a5.182,5.182,0,0,0,.94952-6.01q.20251-.453.38031-.91626A5.18178,5.18178,0,0,0,128,62.75861V59.24139A5.18172,5.18172,0,0,0,124.42261,54.32056ZM23.931,45.17242v1.46613a14.56788,14.56788,0,0,1,5.14911,2.13623l1.03912-1.03912a1.17226,1.17226,0,0,1,1.658,0l2.48712,2.48706a1.17244,1.17244,0,0,1,0,1.658l-1.03918,1.03918a14.56712,14.56712,0,0,1,2.13623,5.149h1.46613A1.17237,1.17237,0,0,1,38,59.24139v3.51721A1.17241,1.17241,0,0,1,36.82758,63.931H35.36145a14.56758,14.56758,0,0,1-2.13623,5.149L34.2644,70.1192a1.17252,1.17252,0,0,1,0,1.65808l-2.48712,2.48706a1.17241,1.17241,0,0,1-1.658,0l-1.03912-1.03912A14.56889,14.56889,0,0,1,23.931,75.36139v1.46619A1.17241,1.17241,0,0,1,22.75861,78H19.24139A1.17241,1.17241,0,0,1,18.069,76.82758V75.36139a14.56889,14.56889,0,0,1-5.14911-2.13617L11.8808,74.26434a1.17248,1.17248,0,0,1-1.65808,0L7.73566,71.77728a1.17252,1.17252,0,0,1,0-1.65808l1.03912-1.03912a14.5686,14.5686,0,0,1-2.13617-5.149H5.17242A1.17241,1.17241,0,0,1,4,62.75861V59.24139A1.17237,1.17237,0,0,1,5.17242,58.069H6.63861a14.56813,14.56813,0,0,1,2.13617-5.149L7.73566,51.88074a1.17244,1.17244,0,0,1,0-1.658l2.48706-2.48706a1.17233,1.17233,0,0,1,1.65808,0l1.03912,1.03912a14.56758,14.56758,0,0,1,5.149-2.13623V45.17242A1.17241,1.17241,0,0,1,19.24139,44h3.51721A1.17241,1.17241,0,0,1,23.931,45.17242ZM86,28.27588a1.51723,1.51723,0,0,1-1.51721,1.51721h-1.8974a18.85406,18.85406,0,0,1-2.76447,6.66351l1.34473,1.34473a1.51739,1.51739,0,0,1,0,2.14575l-3.21857,3.21851a1.51721,1.51721,0,0,1-2.14569,0l-1.34473-1.34473a18.85335,18.85335,0,0,1-6.66357,2.76453v1.89734A1.51724,1.51724,0,0,1,66.27588,48h-4.5517a1.51729,1.51729,0,0,1-1.51727-1.51727V44.58539a18.85305,18.85305,0,0,1-6.66351-2.76453l-1.34473,1.34473a1.51721,1.51721,0,0,1-2.14569,0l-3.21863-3.21851a1.51739,1.51739,0,0,1,0-2.14575l1.34479-1.34473a18.85305,18.85305,0,0,1-2.76453-6.66351H43.51727A1.51728,1.51728,0,0,1,42,28.27588V23.72412a1.51724,1.51724,0,0,1,1.51727-1.51721h1.89734a18.85305,18.85305,0,0,1,2.76453-6.66351l-1.34479-1.34479a1.51732,1.51732,0,0,1,0-2.14569L50.053,8.83435a1.51721,1.51721,0,0,1,2.14569,0l1.34473,1.34479a18.85352,18.85352,0,0,1,6.66351-2.76453V5.51721A1.51724,1.51724,0,0,1,61.72418,4h4.5517a1.51719,1.51719,0,0,1,1.51721,1.51721v1.8974a18.85305,18.85305,0,0,1,6.66351,2.76453l1.34479-1.34479a1.51721,1.51721,0,0,1,2.14569,0l3.21857,3.21857a1.51732,1.51732,0,0,1,0,2.14569L79.82092,15.5434a18.85406,18.85406,0,0,1,2.76447,6.66351h1.8974A1.51719,1.51719,0,0,1,86,23.72412Zm38,34.48273a1.17241,1.17241,0,0,1-1.17242,1.17242h-1.46613a14.56758,14.56758,0,0,1-2.13623,5.149l1.03918,1.03912a1.17252,1.17252,0,0,1,0,1.65808l-2.48712,2.48706a1.17241,1.17241,0,0,1-1.658,0l-1.03912-1.03912a14.5689,14.5689,0,0,1-5.14911,2.13617v1.46619A1.17241,1.17241,0,0,1,108.75861,78h-3.51721a1.17241,1.17241,0,0,1-1.17242-1.17242V75.36139a14.56889,14.56889,0,0,1-5.14911-2.13617L97.8808,74.26434a1.17248,1.17248,0,0,1-1.65808,0l-2.48706-2.48706a1.17252,1.17252,0,0,1,0-1.65808l1.03912-1.03912a14.5686,14.5686,0,0,1-2.13617-5.149H91.17242A1.17241,1.17241,0,0,1,90,62.75861V59.24139A1.17237,1.17237,0,0,1,91.17242,58.069h1.46619a14.56813,14.56813,0,0,1,2.13617-5.149l-1.03912-1.03918a1.17244,1.17244,0,0,1,0-1.658l2.48706-2.48706a1.17233,1.17233,0,0,1,1.65808,0l1.03912,1.03912a14.56758,14.56758,0,0,1,5.149-2.13623V45.17242A1.17241,1.17241,0,0,1,105.24139,44h3.51721a1.17241,1.17241,0,0,1,1.17242,1.17242v1.46613a14.56788,14.56788,0,0,1,5.14911,2.13623l1.03912-1.03912a1.17226,1.17226,0,0,1,1.658,0l2.48712,2.48706a1.17244,1.17244,0,0,1,0,1.658l-1.03918,1.03918a14.56711,14.56711,0,0,1,2.13623,5.149h1.46613A1.17237,1.17237,0,0,1,124,59.24139Z"/><path d="M107,50.75A10.25,10.25,0,1,0,117.25,61,10.26163,10.26163,0,0,0,107,50.75Zm0,16.5A6.25,6.25,0,1,1,113.25,61,6.25,6.25,0,0,1,107,67.25Z"/><path d="M86.86914,102.11426,73.67285,96.93994a2.0216,2.0216,0,0,1-1.30371-1.88379V92c0-.0506-.01123-.09808-.01489-.14771a12.32314,12.32314,0,0,0,1.845-2.04956A20.36733,20.36733,0,0,0,78,77.96973L77.93748,70a13.43171,13.43171,0,0,0-13.417-13.4165h-1.041A13.43173,13.43173,0,0,0,50.06248,70L50,77.96973a20.36733,20.36733,0,0,0,3.80078,11.833,12.32314,12.32314,0,0,0,1.845,2.04956c-.00366.04962-.01489.09711-.01489.14771v3.05615a2.0216,2.0216,0,0,1-1.30371,1.88379l-13.19531,5.17383A8.00261,8.00261,0,0,0,36,109.59424V124a4.00427,4.00427,0,0,0,4,4H88a4.00427,4.00427,0,0,0,4-4V109.59424A8.002,8.002,0,0,0,86.86914,102.11426ZM54.06248,70a9.42747,9.42747,0,0,1,9.417-9.4165h1.041A9.42744,9.42744,0,0,1,73.93748,70v3.10938c-2.86415-.47625-5.09649-3.94023-5.23046-4.15089a2.034,2.034,0,0,0-3.05956-.43212,11.70341,11.70341,0,0,1-11.585,2.98889ZM54,77.96973V75.64191l.00464-.015A15.34784,15.34784,0,0,0,66.65192,72.86C68.12067,74.5741,70.6994,76.89148,74,77.13312v.83661a16.3865,16.3865,0,0,1-3.06445,9.51953,8.53511,8.53511,0,0,1-13.87109,0A16.3865,16.3865,0,0,1,54,77.96973ZM69.62054,98.70691,63.91309,105.394l-5.94641-6.192a5.97219,5.97219,0,0,0,1.66418-4.14587v-.79193a12.54261,12.54261,0,0,0,8.73828,0v.79193A5.9664,5.9664,0,0,0,69.62054,98.70691ZM88,124H82v-4a2,2,0,0,0-4,0v4H50v-4a2,2,0,0,0-4,0v4H40V109.59424a4.02475,4.02475,0,0,1,2.5918-3.75635l11.77008-4.61511,8.19574,8.535A1.99859,1.99859,0,0,0,64,110.37256l.05859-.001a2.00165,2.00165,0,0,0,1.46289-.70068l7.438-8.71417,12.44965,4.88165A4.02413,4.02413,0,0,1,88,109.59424Z"/></svg>