<svg xmlns="http://www.w3.org/2000/svg" data-name="Layer 1" viewBox="0 0 128 160" x="0px" y="0px"><title>miscellaneous 192_expandline</title><path d="M74.915,30.0039a6.94555,6.94555,0,1,0,6.94438-7A6.98055,6.98055,0,0,0,74.915,30.0039Zm9.92188,0a2.97664,2.97664,0,1,1-2.9775-3A2.99226,2.99226,0,0,1,84.83688,30.0039Z"/><ellipse cx="30.26659" cy="118.0034" rx="1.98441" ry="2"/><path d="M80.07418,4.7813a2.28508,2.28508,0,0,1,3.3985-.0167l26.1689,29.0098V61.6748A11.05647,11.05647,0,0,1,113.31838,61h.2929V38.1738l6.4688,7.1719a1.99165,1.99165,0,1,0,2.9365-2.6914L86.39448,2.0566a6.20221,6.20221,0,0,0-9.2412.0166L58.54,22.708a21.72713,21.72713,0,0,1,3.60448,1.9502S80.04688,4.8105,80.07418,4.7813Z"/><path d="M50.11038,61.0039a18.00055,18.00055,0,1,0-17.85938-18A17.95067,17.95067,0,0,0,50.11038,61.0039Zm0-32a14.00043,14.00043,0,1,1-13.8907,14A13.96151,13.96151,0,0,1,50.11038,29.0039Z"/><path d="M49.42578,45.1416h1.3594c.8447,0,1.3086.3369,1.3086.9482,0,.2403-.09378,1.0245-1.3086,1.0245h-3.8096a2.00006,2.00006,0,0,0,0,4h1.9648v.8896a1.98446,1.98446,0,1,0,3.9688,0V50.7256a4.96853,4.96853,0,0,0-2.124-9.584h-1.3594a1.45806,1.45806,0,0,1-1.0381-.3428.96875.96875,0,0,1-.26168-.6738c0-.3555.16788-.9531,1.29978-.9531h3.8086a2.00006,2.00006,0,0,0,0-4h-.3252v-1.168a1.98446,1.98446,0,1,0-3.9688,0v1.1904a4.90167,4.90167,0,0,0-4.7832,4.9307A5.03361,5.03361,0,0,0,49.42578,45.1416Z"/><path d="M127.50978,66.4873a3.41073,3.41073,0,0,0-2.96678-1.4795H113.70608a7.67162,7.67162,0,0,0-2.9405.666c-.9121.3965-2.2959,1.4102-5.64158,5.9239l-2.41112,3.25H94.001V52.0078a2.0001,2.0001,0,0,0-2-2h-20a2.00008,2.00008,0,0,0-2,2V64.7705c.03508.001.07518.0049.10538.0049H74.001V54.0078h16V67.1084a10.62448,10.62448,0,0,1,4,8.3057v3.4336h9.71778a1.9977,1.9977,0,0,0,1.6044-.8077l3.0157-4.0605c2.9697-4.0107,3.9375-4.5918,4.0156-4.6338a3.73906,3.73906,0,0,1,1.3516-.3379l9.9404.0029-6.3174,14.7569a7.57377,7.57377,0,0,1-2.2002,2.5361l-21.793,14.2461c-.2607.1709-1.0332.457-3.2754.457H48.29978a2.002,2.002,0,0,0-1.3799.5518l-5.2324,4.9853L18.41988,83.3115l13.877-13.2617a4.71969,4.71969,0,0,1,2.6006-1.042h21.3593a12.0256,12.0256,0,0,1,3.6905.7246l4.955,2.0215a15.85464,15.85464,0,0,0,5.2041,1.0215h13.2774A2.63018,2.63018,0,0,1,86.001,75.4141v6.955a2.63018,2.63018,0,0,1-2.61722,2.6387H56.834a2,2,0,0,0,0,4H83.38378A6.636,6.636,0,0,0,90.001,82.3691v-6.955a6.636,6.636,0,0,0-6.61722-6.6387H70.10638a12.02529,12.02529,0,0,1-3.69038-.7236L61.46,66.0303a15.85885,15.85885,0,0,0-5.20322-1.0225H34.89748a8.68057,8.68057,0,0,0-5.3643,2.1494L15.583,80.4893c-2.876-2.7764-7.15232-3.3028-9.82712-1.1661L.72949,83.4639a1.99981,1.99981,0,0,0,2.542,3.0879l5.0049-4.1221c.9463-.7568,3.0664-.5322,4.59862.999,0,0,27.60638,27.5635,27.62208,27.5791a3.43152,3.43152,0,0,1-.0742,4.8877l-8.336,8.7315a1.99963,1.99963,0,1,0,2.8926,2.7617l8.2891-8.6826a7.36669,7.36669,0,0,0,1.10642-9.1973l4.72558-4.502h40.9599c1.7559,0,3.9639-.1259,5.4659-1.1103l21.791-14.2442a11.45069,11.45069,0,0,0,3.6728-4.2705l6.6114-15.4453A3.55369,3.55369,0,0,0,127.50978,66.4873Z"/></svg>