<svg xmlns="http://www.w3.org/2000/svg" data-name="Layer 1" viewBox="0 0 128 160" x="0px" y="0px"><title>miscellaneous 186_expandline</title><path d="M105.373,31.4468a11.66788,11.66788,0,0,0-15.69921,5.3711,2.00033,2.00033,0,0,0,3.5957,1.7539,7.68628,7.68628,0,0,1,4.4619-3.9439,7.57568,7.57568,0,0,1,5.8565.399,7.87391,7.87391,0,0,1,3.5146,10.4809,2.00033,2.00033,0,0,0,3.5957,1.7539A11.88685,11.88685,0,0,0,105.373,31.4468Z"/><path d="M106.27929,29.064a2.01675,2.01675,0,0,0,2.7578-.6265l3.5645-5.6597a2.00022,2.00022,0,0,0-3.3848-2.1323l-3.5645,5.6602A2.00048,2.00048,0,0,0,106.27929,29.064Z"/><path d="M101.11229,27.7095a1.84462,1.84462,0,0,0,2.125-1.8667l.3691-5.7129a2.00021,2.00021,0,0,0-3.9921-.2578l-.3692,5.7133A1.99927,1.99927,0,0,0,101.11229,27.7095Z"/><path d="M91.01759,28.4243l-3.7393-4.3076a2.0003,2.0003,0,0,0-3.0215,2.6221l3.7393,4.3081a2.02166,2.02166,0,0,0,2.8223.1992A2.00117,2.00117,0,0,0,91.01759,28.4243Z"/><path d="M122.13279,41.4956l-5.6553-.3755a2,2,0,0,0-.2656,3.9912s5.74511.3799,5.79011.3799a2,2,0,0,0,.13079-3.9956Z"/><path d="M117.94429,28.9785A2.00024,2.00024,0,1,0,115.29,25.9854l-4.25871,3.7763a2.00025,2.00025,0,0,0,2.6542,2.9932Z"/><path d="M93.11329,27.2715a2.02567,2.02567,0,0,0,2.5908,1.1352,2.00094,2.00094,0,0,0,1.1357-2.5908l-2.0029-5.1299a2.00017,2.00017,0,1,0-3.7265,1.4546S93.11129,27.2671,93.11329,27.2715Z"/><path d="M86.52729,32.9956l-5.6611-2.7197a2,2,0,1,0-1.7324,3.6054l5.6611,2.7198a2.00005,2.00005,0,0,0,1.7324-3.6055Z"/><path d="M121.23829,50.1992l-5.6631-2.7221a2.00023,2.00023,0,0,0-1.7324,3.6059l5.6631,2.7212a1.99983,1.99983,0,1,0,1.7324-3.605Z"/><path d="M113.62009,37.4121a2.02482,2.02482,0,0,0,2.5254,1.2734l5.9561-1.9633a2.00014,2.00014,0,0,0-1.252-3.7993l-5.956,1.9638A2.00014,2.00014,0,0,0,113.62009,37.4121Z"/><path d="M95.02439,105.6182a2.00013,2.00013,0,0,0-2.5088,1.3047l-.1504.4765a2,2,0,1,0,3.8145,1.2041l.1504-.4765A1.99948,1.99948,0,0,0,95.02439,105.6182Z"/><path d="M101.11619,79.7061l-.3076.9721a1.99944,1.99944,0,1,0,3.8125,1.2066l.3076-.9712a1.99958,1.99958,0,1,0-3.8125-1.2075Z"/><path d="M97.17379,98.8135a1.99961,1.99961,0,0,0-2.50879,1.3052l-.30661.9726a1.99994,1.99994,0,1,0,3.8145,1.2036l.3066-.9726A1.9999,1.9999,0,0,0,97.17379,98.8135Z"/><path d="M99.32619,92.0103a2.00155,2.00155,0,0,0-2.5108,1.3027l-.3076.9726a2.00047,2.00047,0,0,0,3.8145,1.2071l.3076-.9727A2.00021,2.00021,0,0,0,99.32619,92.0103Z"/><path d="M102.47269,88.687l.3066-.9726a1.99988,1.99988,0,0,0-3.8145-1.2032l-.3066.9727a1.99987,1.99987,0,1,0,3.8145,1.2031Z"/><path d="M106.77249,75.0791l.1504-.4766a2,2,0,0,0-3.8145-1.2041l-.15039.4771a1.99993,1.99993,0,1,0,3.81449,1.2036Z"/><path d="M88.69919,101.0649a2.00122,2.00122,0,0,0-2.498,1.3262l-.1465.479a1.99987,1.99987,0,1,0,3.8242,1.1719l.1465-.479A2.00034,2.00034,0,0,0,88.69919,101.0649Z"/><path d="M92.99319,80.2236l-.3243,1.0557a2.00041,2.00041,0,0,0,3.8243,1.1753l.3242-1.0557a2.00036,2.00036,0,0,0-3.8242-1.1753Z"/><path d="M90.96289,93.6763a2.0027,2.0027,0,0,0-2.4981,1.3271l-.3232,1.0557a1.99972,1.99972,0,1,0,3.8242,1.1709l.3233-1.0557A2.00022,2.00022,0,0,0,90.96289,93.6763Z"/><path d="M90.72849,87.6147l-.3232,1.0557a1.99979,1.99979,0,1,0,3.8242,1.1714l.3232-1.0557a1.99979,1.99979,0,1,0-3.8242-1.1714Z"/><path d="M96.25979,76.3911a2.01675,2.01675,0,0,0,2.498-1.3262l.1465-.478a1.99987,1.99987,0,0,0-3.8242-1.1719l-.1465.4776A2,2,0,0,0,96.25979,76.3911Z"/><path d="M104.707,101.0649a2.00163,2.00163,0,0,0-2.498,1.3262l-.14651.479a1.99987,1.99987,0,1,0,3.8242,1.1719l.1465-.479A2.00034,2.00034,0,0,0,104.707,101.0649Z"/><path d="M112.82519,81.3989a2.00036,2.00036,0,0,0-3.82419-1.1753l-.32421,1.0557a2.00037,2.00037,0,0,0,3.82421,1.1753Z"/><path d="M106.97069,93.6763a2.00256,2.00256,0,0,0-2.498,1.3271l-.3233,1.0557a1.99972,1.99972,0,1,0,3.8242,1.1709l.3233-1.0557A2.00022,2.00022,0,0,0,106.97069,93.6763Z"/><path d="M109.23439,86.2876a2.00428,2.00428,0,0,0-2.4981,1.3271l-.3232,1.0557a1.99979,1.99979,0,1,0,3.8242,1.1714l.3232-1.0557A2.00132,2.00132,0,0,0,109.23439,86.2876Z"/><path d="M112.26759,76.3911a2.01854,2.01854,0,0,0,2.498-1.3262l.1465-.478a1.99987,1.99987,0,0,0-3.8242-1.1719l-.1465.4776A2,2,0,0,0,112.26759,76.3911Z"/><path d="M71.835,101.0996a2.00069,2.00069,0,0,0-2.55281,1.2168l-.167.4717a1.99957,1.99957,0,1,0,3.7696,1.3354l.167-.4716A1.999,1.999,0,0,0,71.835,101.0996Z"/><path d="M74.44529,93.7407a2.00221,2.00221,0,0,0-2.5527,1.2168l-.3262.9199a1.99986,1.99986,0,1,0,3.7695,1.3374l.3262-.9199A2.001,2.001,0,0,0,74.44529,93.7407Z"/><path d="M77.11229,80.2417l-.3262.9199a1.99982,1.99982,0,1,0,3.7696,1.3369l.3261-.9199a1.99978,1.99978,0,1,0-3.7695-1.3369Z"/><path d="M77.94529,89.8569l.3262-.9199A1.99977,1.99977,0,1,0,74.502,87.6001l-.32621.9199a1.99978,1.99978,0,1,0,3.7695,1.3369Z"/><path d="M80.61329,76.3574A2.0173,2.0173,0,0,0,83.166,75.1401l.167-.4712a1.99953,1.99953,0,1,0-3.76951-1.3354l-.167.4702A2,2,0,0,0,80.61329,76.3574Z"/><path d="M79.22069,105.1436a1.99729,1.99729,0,0,0-2.5244,1.2753l-.15629.4747a2.00035,2.00035,0,0,0,1.27449,2.5253,2.02058,2.02058,0,0,0,2.5244-1.2753l.1562-.4747A2,2,0,0,0,79.22069,105.1436Z"/><path d="M85.52439,79.5967l-.31539.9585a1.99988,1.99988,0,0,0,3.79879,1.2519l.3154-.958a2,2,0,0,0-3.7988-1.2524Z"/><path d="M81.42769,98.438a2.00032,2.00032,0,0,0-2.5244,1.2749l-.3154.958a1.99966,1.99966,0,1,0,3.7988,1.2505l.3154-.9575A2.00052,2.00052,0,0,0,81.42769,98.438Z"/><path d="M83.63479,91.7329a2,2,0,0,0-2.5244,1.2744l-.3155.958a1.99987,1.99987,0,1,0,3.7989,1.2515l.3154-.9585A1.9999,1.9999,0,0,0,83.63479,91.7329Z"/><path d="M86.80079,88.5122l.3154-.958a1.9999,1.9999,0,1,0-3.7988-1.252l-.31539.9581a1.99988,1.99988,0,0,0,3.79879,1.2519Z"/><path d="M90.09669,72.1011a1.99663,1.99663,0,0,0-2.5244,1.2749l-.15629.4751a1.9995,1.9995,0,1,0,3.79879,1.2495l.1563-.4746A1.99956,1.99956,0,0,0,90.09669,72.1011Z"/><path d="M36.92089,103.7939a1.99876,1.99876,0,0,0-2.7041.8282l-.2344.4414a2.00018,2.00018,0,1,0,3.5332,1.876l.23441-.4415A2.00016,2.00016,0,0,0,36.92089,103.7939Z"/><path d="M43.01069,92.3511a2,2,0,0,0-2.705.8252l-.4356.8174a1.99959,1.99959,0,1,0,3.5293,1.8808l.43561-.8169A2.001,2.001,0,0,0,43.01069,92.3511Z"/><path d="M49.48729,84.4292l.4346-.8174a1.99979,1.99979,0,1,0-3.5313-1.8779l-.4345.8174a1.99974,1.99974,0,1,0,3.5312,1.8779Z"/><path d="M39.96479,98.0723a2.00038,2.00038,0,0,0-2.7041.8271l-.4345.8169a1.99986,1.99986,0,1,0,3.5312,1.8784l.43461-.8178A1.9995,1.9995,0,0,0,39.96479,98.0723Z"/><path d="M46.05179,86.6284a2.00079,2.00079,0,0,0-2.7041.8272l-.4346.8173a1.99977,1.99977,0,1,0,3.5312,1.878l.4346-.8174A2.00005,2.00005,0,0,0,46.05179,86.6284Z"/><path d="M49.82809,79.5347a1.93969,1.93969,0,0,0,.9356.2246,2.30948,2.30948,0,0,0,2.0029-1.4942,2.00016,2.00016,0,1,0-3.5332-1.8759l-.23439.4409A2.00055,2.00055,0,0,0,49.82809,79.5347Z"/><path d="M32.05569,98.0757a2.0013,2.0013,0,0,0-2.6934.8657l-.2285.4439a2.00046,2.00046,0,0,0,3.5586,1.8286l.2285-.4444A2.00084,2.00084,0,0,0,32.05569,98.0757Z"/><path d="M35.72849,90.9175a1.94064,1.94064,0,0,0,.9111.2109c1.2042-.0146,1.7208-.9599,2.2042-1.9013a1.99991,1.99991,0,0,0-3.5586-1.8262l-.4229.8242A2.00046,2.00046,0,0,0,35.72849,90.9175Z"/><path d="M35.459,95.8223l.42279-.8247a1.99991,1.99991,0,1,0-3.5586-1.8262l-.4228.8242A2,2,0,0,0,35.459,95.8223Z"/><path d="M47.30569,72.7383l.4228-.8242a1.99969,1.99969,0,1,0-3.5586-1.8252l-.4228.8247a1.99957,1.99957,0,1,0,3.5586,1.8247Z"/><path d="M44.34379,78.5093l.4228-.8247A1.99968,1.99968,0,1,0,41.208,75.8594l-.42281.8247a1.99969,1.99969,0,1,0,3.5586,1.8252Z"/><path d="M41.38089,84.2817l.4238-.8242A1.99973,1.99973,0,1,0,38.248,81.6284l-.42381.8242a1.99973,1.99973,0,1,0,3.5567,1.8291Z"/><path d="M50.26659,66.9688l.2285-.4444a2.00035,2.00035,0,0,0-3.5586-1.8281l-.22849.4443a2.00037,2.00037,0,1,0,3.55859,1.8282Z"/><path d="M16.21579,94.1753a2.00128,2.00128,0,0,0-2.7207.7744l-.24309.4375a2.00044,2.00044,0,0,0,.77529,2.7202,2.02511,2.02511,0,0,0,2.72071-.7749l.24319-.437A2.00051,2.00051,0,0,0,16.21579,94.1753Z"/><path d="M31.81539,70.2788l.47761-.8599a2,2,0,0,0-3.49611-1.9433l-.4776.8594a2.00011,2.00011,0,0,0,3.4961,1.9438Z"/><path d="M20.33789,90.8862l.4785-.8584a2,2,0,1,0-3.4941-1.9472l-.4785.8584a1.99968,1.99968,0,0,0,.7734,2.7207A2.02085,2.02085,0,0,0,20.33789,90.8862Z"/><path d="M23.86819,80.438a2.00086,2.00086,0,0,0-2.7207.7729l-.4786.8599a2,2,0,0,0,.7735,2.7207,2.02208,2.02208,0,0,0,2.7207-.7734l.4785-.8594A1.99986,1.99986,0,0,0,23.86819,80.438Z"/><path d="M25.26759,77.9224a2.02011,2.02011,0,0,0,2.7207-.774l.4785-.8584a2,2,0,1,0-3.4941-1.9472l-.4786.8589A1.99943,1.99943,0,0,0,25.26759,77.9224Z"/><path d="M35.10839,60.2534a2.00145,2.00145,0,0,0-2.7207.7749l-.2432.437a2.00044,2.00044,0,0,0,3.4961,1.9453l.2432-.437A2.00047,2.00047,0,0,0,35.10839,60.2534Z"/><path d="M22.207,99.6772a2.0009,2.0009,0,0,0-2.71091.8047l-.2383.44a1.99957,1.99957,0,1,0,3.5156,1.9062l.2383-.4394A1.99877,1.99877,0,0,0,22.207,99.6772Z"/><path d="M25.65329,93.3384a1.99922,1.99922,0,0,0-2.7119.8027l-.4922.9053a1.99966,1.99966,0,1,0,3.5137,1.9101l.4922-.9052A1.99982,1.99982,0,0,0,25.65329,93.3384Z"/><path d="M36.71479,68.7822l-.4921.9063a1.99962,1.99962,0,1,0,3.5136,1.9101l.4922-.9062a1.99968,1.99968,0,0,0-3.5137-1.9102Z"/><path d="M29.40629,90.6177l.4921-.9063a1.99962,1.99962,0,1,0-3.5136-1.9101l-.4922.9062a1.99968,1.99968,0,0,0,3.5137,1.9102Z"/><path d="M30.13769,85.0791a2.01793,2.01793,0,0,0,2.7119-.8013l.4922-.9057a1.99968,1.99968,0,1,0-3.5137-1.9102l-.4922.9058A1.998,1.998,0,0,0,30.13769,85.0791Z"/><path d="M36.293,77.938l.49219-.9058a1.99966,1.99966,0,1,0-3.5137-1.9101l-.4922.9052A1.99981,1.99981,0,1,0,36.293,77.938Z"/><path d="M41.42089,66.2939a2.02778,2.02778,0,0,0,1.7598-1.0371l.2382-.4394a1.99959,1.99959,0,1,0-3.5156-1.9063l-.23829.4395A2.01257,2.01257,0,0,0,41.42089,66.2939Z"/><path d="M88.22849,53.085a19.73318,19.73318,0,0,1,4.8438,1.0424,23.05825,23.05825,0,0,0-15.1065-14.1025,5.98875,5.98875,0,0,1-.8916,3.7866l-.0664.1045A19.21241,19.21241,0,0,1,88.22849,53.085Z"/><path d="M47.75879,49.415l7.498.9117-1.2685,15.5112a2.00008,2.00008,0,0,0,3.6846,1.2309l16.0185-25.3916a1.99992,1.99992,0,0,0-1.748-3.0664l-8.545.2427,2.3174-18.6064a2,2,0,0,0-3.7197-1.2422L46.26459,46.4341a2.00092,2.00092,0,0,0,1.4942,2.9809Zm12.7578-19.79-1.2031,9.6646a3.22034,3.22034,0,0,0,.7871,2.5043,3.31338,3.31338,0,0,0,2.4736,1.084c.0186,0,5.7324-.1621,5.7324-.1621L58.63869,58.04l.6445-7.8745a3.52412,3.52412,0,0,0-3.0957-3.7549l-4.9521-.6025Z"/><path d="M122.96189,74.1992c.0342-.4087.0508-.7954.0508-1.1743a15.88372,15.88372,0,0,0-26.208-12.2109,15.87545,15.87545,0,0,0-26.1611,10.9907A12.689,12.689,0,0,0,67.502,95.9082a5.94154,5.94154,0,0,1,.29389-1.3662l.3262-.9204a5.99311,5.99311,0,0,1,.7793-1.4746,8.68044,8.68044,0,0,1,3.6543-16.4942,2.09174,2.09174,0,0,0,1.5068-.6074,2.67378,2.67378,0,0,0,.5352-2.0205,11.88571,11.88571,0,0,1,20.7226-8.0864,2.06411,2.06411,0,0,0,2.9688-.001,11.887,11.887,0,0,1,20.7236,8.0874c0,.7363-.2012,1.5518-.1582,2.2676a1.98321,1.98321,0,0,0,.9443,1.5918,8.68151,8.68151,0,0,1-4.3965,16.1172h-2.4072a5.98006,5.98006,0,0,1-.8555.8872,5.96436,5.96436,0,0,1,.0606,3.1128h3.2021a12.68273,12.68273,0,0,0,7.5596-22.8023Z"/><path d="M50.50679,91.0015c-.0332.0693-.0595.1406-.0957.2104l-.4345.8169a5.98215,5.98215,0,0,1-1.9053,2.1338A6.08089,6.08089,0,0,1,48,95.0015H59.86129a16.74562,16.74562,0,0,1-2.4638-4Z"/><path d="M4,78.0142A13.85927,13.85927,0,0,1,16.65229,64.5a7.24542,7.24542,0,0,0,3.4854,5.2803,1.99995,1.99995,0,0,0,1.875-3.5332c-2.0664-1.0967-1.8145-5.9951-1.3184-8.7461A19.16778,19.16778,0,0,1,39.543,43.0005a19.88727,19.88727,0,0,1,3.85929.3848l2.0752-3.6182a23.89779,23.89779,0,0,0-5.93449-.7666c-12.51571,0-22.75981,9.5649-23.293,21.5156A17.866,17.866,0,0,0,0,78.0142c0,7.1757,3.82619,12.9004,9.72849,15.4853.0098-.0181.0176-.0376.0283-.0576L10,93.0054a5.97273,5.97273,0,0,1,2.626-2.4785c-.00691-.0665-.001-.1338-.00591-.2002C7.38569,88.6748,4,84.0747,4,78.0142Z"/></svg>