<svg xmlns="http://www.w3.org/2000/svg" data-name="Layer 1" viewBox="0 0 128 160" x="0px" y="0px"><title>Micellaneous 208_Expanded</title><path d="M56.37988,110.49609l9.30078-14.41943a1.99946,1.99946,0,0,0,0-2.168L56.37988,79.49121l9.30078-14.417a2.00029,2.00029,0,0,0,0-2.16846L56.38037,48.49463l9.30029-14.415a2.00112,2.00112,0,0,0,0-2.16895L56.38037,17.49756,65.68066,3.08447A2,2,0,0,0,64,0a64,64,0,0,0,0,128,1.99976,1.99976,0,0,0,1.68066-3.084ZM4,64A60.07807,60.07807,0,0,1,60.25488,4.11572L52.31934,16.41309a2.00112,2.00112,0,0,0,0,2.16895l9.30029,14.41309-9.30029,14.415a2.00112,2.00112,0,0,0,0,2.16895l9.30029,14.41113-9.30029,14.417a1.99946,1.99946,0,0,0,0,2.168l9.30078,14.41748-9.30078,14.41943a1.99946,1.99946,0,0,0,0,2.168l7.936,12.3042A60.07885,60.07885,0,0,1,4,64Z"/><path d="M76.42041.04492a2.00166,2.00166,0,0,0-2.10107.87061l-10,15.49756a2.00112,2.00112,0,0,0,0,2.16895l9.30029,14.41309-9.30029,14.415a2.00112,2.00112,0,0,0,0,2.16895l9.30029,14.41113-9.30029,14.417a1.99946,1.99946,0,0,0,0,2.168l9.30078,14.41748-9.30078,14.41943a1.99946,1.99946,0,0,0,0,2.168l10,15.50391a1.99816,1.99816,0,0,0,2.10107.87109,65.4397,65.4397,0,0,0,0-127.91016Zm.502,123.69482-8.54248-13.24365,9.30078-14.41943a1.99946,1.99946,0,0,0,0-2.168L68.37988,79.49121l9.30078-14.417a2.00029,2.00029,0,0,0,0-2.16846L68.38037,48.49463l9.30029-14.415a2.00112,2.00112,0,0,0,0-2.16895L68.38037,17.49756l8.5415-13.2373a61.44249,61.44249,0,0,1,.00049,119.47949Z"/></svg>