<svg xmlns="http://www.w3.org/2000/svg" data-name="Layer 1" viewBox="0 0 128 160" x="0px" y="0px"><title>miscellaneous 264 final</title><path d="M110,6a2.0001,2.0001,0,0,0,2-2V2a2,2,0,0,0-4,0V4A2.0001,2.0001,0,0,0,110,6Z"/><path d="M108,32v2a2,2,0,0,0,4,0V32a2,2,0,0,0-4,0Z"/><path d="M126,16h-2a2,2,0,0,0,0,4h2a2,2,0,0,0,0-4Z"/><path d="M94,20h2a2,2,0,0,0,0-4H94a2,2,0,0,0,0,4Z"/><path d="M119.89941,10.10059a1.99352,1.99352,0,0,0,1.41406-.58594l1.41406-1.41406a1.99979,1.99979,0,0,0-2.82812-2.82812l-1.41406,1.41406a2,2,0,0,0,1.41406,3.41406Z"/><path d="M98.68652,26.48535l-1.41406,1.41406a1.99979,1.99979,0,1,0,2.82812,2.82813l1.41406-1.41406a1.99979,1.99979,0,1,0-2.82812-2.82812Z"/><path d="M118.48535,26.48535a1.99927,1.99927,0,0,0,0,2.82813l1.41406,1.41406a1.99979,1.99979,0,0,0,2.82813-2.82812l-1.41406-1.41406A1.99927,1.99927,0,0,0,118.48535,26.48535Z"/><path d="M98.68652,9.51465a1.99979,1.99979,0,1,0,2.82812-2.82812l-1.41406-1.41406a1.99979,1.99979,0,0,0-2.82812,2.82813Z"/><path d="M110,26a8,8,0,1,0-8-8A8.00917,8.00917,0,0,0,110,26Zm0-12a4,4,0,1,1-4,4A4.00427,4.00427,0,0,1,110,14Z"/><path d="M55,63a9,9,0,1,0,9-9A9.01015,9.01015,0,0,0,55,63Zm9-5a5,5,0,1,1-5,5A5.00589,5.00589,0,0,1,64,58Z"/><path d="M114,103c-3.9248,0-7,3.95313-7,9,0,4.14886,2.08,7.55328,5,8.63538V126a2,2,0,0,0,4,0v-5.36462c2.92-1.08209,5-4.48651,5-8.63538C121,106.95313,117.9248,103,114,103Zm2,12.64624V115a2,2,0,0,0-4,0v.64624A6.61178,6.61178,0,0,1,111,112c0-2.94678,1.58105-5,3-5s3,2.05322,3,5A6.61178,6.61178,0,0,1,116,115.64624Z"/><path d="M123.53613,77.71973a2.06676,2.06676,0,0,0-3.07227,0l-4,4.7998A1.99858,1.99858,0,0,0,116,83.7998V91h-4V83.7998a1.99858,1.99858,0,0,0-.46387-1.28027l-4-4.7998a2.06676,2.06676,0,0,0-3.07227,0l-4,4.7998A1.99858,1.99858,0,0,0,100,83.7998V91H96V70.13336l3.94043,3.86078a2.00007,2.00007,0,0,0,2.80859-.00928l5.66016-5.62012a2,2,0,0,0-.00977-2.84814L67.94727,25.8877a6.02792,6.02792,0,0,0-8.41113.01367L19.5957,65.28125a2.00061,2.00061,0,0,0,0,2.84863L25.27539,73.73a2.00063,2.00063,0,0,0,2.80859,0L32,69.8689V91H28V83.7998a1.99858,1.99858,0,0,0-.46387-1.28027l-4-4.7998a2.06676,2.06676,0,0,0-3.07227,0l-4,4.7998A1.99858,1.99858,0,0,0,16,83.7998V91H12V83.7998a1.99858,1.99858,0,0,0-.46387-1.28027l-4-4.7998a2.06676,2.06676,0,0,0-3.07227,0l-4,4.7998A1.99858,1.99858,0,0,0,0,83.7998V103a2.0001,2.0001,0,0,0,2,2H4.693A10.93494,10.93494,0,0,1,12,99.21686V95h4v4.21686A10.93494,10.93494,0,0,1,23.307,105H49.93457L38.27246,124.99219a2,2,0,1,0,3.45508,2.01563L54.56543,105H73.43457l12.83789,22.00781a2,2,0,1,0,3.45508-2.01562L78.06543,105H104.693A10.93494,10.93494,0,0,1,112,99.21686V95h4v4.21686A10.93494,10.93494,0,0,1,123.307,105H126a2.0001,2.0001,0,0,0,2-2V83.7998a1.99858,1.99858,0,0,0-.46387-1.28027ZM8,101H4V84.52393L6,82.124l2,2.3999Zm16,0H20V84.52393l2-2.3999,2,2.3999Zm8,0H28V95h4ZM26.67969,69.49707l-2.83105-2.7915L62.34473,28.74951a2.00931,2.00931,0,0,1,2.80371-.00439l39.00293,38.21-2.82129,2.80127L65.15918,34.31689a2.00013,2.00013,0,0,0-2.80371.00439ZM72,101H56V89a4.00427,4.00427,0,0,1,4-4h8a4.00427,4.00427,0,0,1,4,4Zm20,0H76V89a8.00917,8.00917,0,0,0-8-8H60a8.00917,8.00917,0,0,0-8,8v12H36V65.925L63.76465,38.5498,92,66.21423Zm8,0H96V95h4Zm8,0h-4V84.52393l2-2.3999,2,2.3999Zm16,0h-4V84.52393l2-2.3999,2,2.3999Z"/><path d="M14,103c-3.9248,0-7,3.95313-7,9,0,4.14886,2.08,7.55328,5,8.63538V126a2,2,0,0,0,4,0v-5.36462c2.92-1.08209,5-4.48651,5-8.63538C21,106.95313,17.9248,103,14,103Zm2,12.64624V115a2,2,0,0,0-4,0v.64624A6.61178,6.61178,0,0,1,11,112c0-2.94678,1.58105-5,3-5s3,2.05322,3,5A6.61178,6.61178,0,0,1,16,115.64624Z"/></svg>