<svg xmlns="http://www.w3.org/2000/svg" version="1.1" viewBox="-5.0 -10.0 110.0 135.0">
 <path d="m96.875 17.188h-18.75v-3.125h7.8125c3.8828 0 7.0312-3.1484 7.0312-7.0312s-3.1484-7.0312-7.0312-7.0312h-71.875c-3.8828 0-7.0312 3.1484-7.0312 7.0312s3.1484 7.0312 7.0312 7.0312h7.8125v3.125h-18.75c-1.7266 0-3.125 1.3984-3.125 3.125v3.125c0.0039062 1.4219 0.96875 2.6602 2.3438 3.0156v3.7578-0.003907c0 1.0117 0.26953 2.0039 0.78125 2.875v37.23c-1.7266 0-3.125 1.3984-3.125 3.125v3.125c0.0039062 0.26172 0.039062 0.52344 0.10938 0.77734 0.45703-0.25391 0.94531-0.44922 1.4531-0.57812v-1.7617c0.003906-2.2852 1.6523-4.2383 3.9062-4.6211v-7.8789c0-0.92188 0.26953-1.8203 0.78125-2.5859v-24.277c0.58594 0.19922 1.2031 0.30078 1.8242 0.30078h0.046875c1.5781 0 3.0859-0.65625 4.1641-1.8086 1.082 1.1523 2.5898 1.8086 4.168 1.8086h0.046875c1.582 0 3.0898-0.65625 4.168-1.8086 1.0781 1.1523 2.5859 1.8086 4.168 1.8086h0.046874c1.5781 0 3.0859-0.65625 4.1641-1.8086 1.082 1.1523 2.5898 1.8086 4.168 1.8086h0.046875c0.375 0 0.74609-0.039062 1.1133-0.10938v29.438c0.31641 0.28516 0.59375 0.60547 0.82422 0.96484 0.70312-0.39844 1.4961-0.60547 2.3008-0.60547v-31.418c0.84375 0.86328 1.9375 1.4375 3.125 1.6406v29.777h3.125v-17.188h50v21.875h-3.125v-17.188c0-0.86328-0.69922-1.5625-1.5625-1.5625h-12.5c-0.86328 0-1.5625 0.69922-1.5625 1.5625v9.375h-3.125v-9.375c0-0.86328-0.69922-1.5625-1.5625-1.5625h-17.188c-0.86328 0-1.5625 0.69922-1.5625 1.5625v4.6875h-3.125c-0.86328 0-1.5625 0.69922-1.5625 1.5625v6.25h1.3047c0.61328 0 1.2227 0.074219 1.8203 0.21875v-4.9062h10.938v9.375h-5.2227l2.5508 3.125h38.609v3.125h-36.062l1.4883 1.8242h0.003907c0.32422 0.40625 0.60937 0.83984 0.85156 1.3008h33.719c1.7266 0 3.125-1.3984 3.125-3.125v-3.125c0-1.7266-1.3984-3.125-3.125-3.125v-37.23c0.51172-0.87109 0.78125-1.8633 0.78125-2.875v-3.7539c1.375-0.35547 2.3398-1.5938 2.3438-3.0156v-3.125c0-1.7266-1.3984-3.125-3.125-3.125zm-34.375 40.625h-7.8125v-3.125h14.062v7.8125h-4.6875v-3.125c0-0.86328-0.69922-1.5625-1.5625-1.5625zm12.5 12.5h-10.938v-4.6875h10.938zm12.5 0h-9.375v-15.625h9.375zm-73.438-59.375c-2.1562 0-3.9062-1.75-3.9062-3.9062s1.75-3.9062 3.9062-3.9062h71.875c2.1562 0 3.9062 1.75 3.9062 3.9062s-1.75 3.9062-3.9062 3.9062zm60.938 3.125v3.125h-50v-3.125zm-64.273 16.145c-0.003906 1.4375-1.168 2.6055-2.6055 2.6055h-0.046875c-1.4375 0-2.6055-1.168-2.6055-2.6055v-3.6445h5.2578zm8.3789 0c-0.003907 1.4375-1.168 2.6055-2.6055 2.6055h-0.046875c-1.4375 0-2.6016-1.168-2.6016-2.6055v-3.6445h5.2539zm8.3828 0h-0.003906c0 1.4375-1.1641 2.6055-2.6016 2.6055h-0.046874c-1.4375 0-2.6055-1.168-2.6055-2.6055v-3.6445h5.2578zm8.3828 0h-0.003906c-0.003907 1.4375-1.168 2.6055-2.6055 2.6055h-0.046875c-1.4375 0-2.6016-1.168-2.6055-2.6055v-3.6445h5.2578zm1.5547 3.9258 0.003907-0.003906 0.003906 0.003906zm4.2188-1.3203h-0.050781c-1.4375 0-2.6016-1.168-2.6016-2.6055v-3.6445h5.2578v3.6445h-0.003906c0 1.4375-1.1641 2.6055-2.6016 2.6055zm52.105 12.5h-50v-3.125h50zm0-6.25h-50v-3.5312c0.78125-0.3125 1.4844-0.78906 2.0586-1.4023 1.0781 1.1523 2.5898 1.8086 4.168 1.8086h0.046876c1.5781 0 3.0898-0.65625 4.168-1.8086 1.0781 1.1523 2.5859 1.8086 4.1641 1.8086h0.050781c1.5781 0 3.0859-0.65625 4.1641-1.8086 1.0781 1.1523 2.5859 1.8086 4.168 1.8086h0.046875c1.5781 0 3.0859-0.65625 4.168-1.8086 1.0781 1.1523 2.5859 1.8086 4.1641 1.8086h0.046874c1.582 0 3.0898-0.65625 4.168-1.8086 1.0781 1.1523 2.5859 1.8086 4.168 1.8086h0.046875c1.5781 0 3.0859-0.65625 4.168-1.8086 1.0781 1.1523 2.5859 1.8086 4.1641 1.8086h0.046875c0.62109 0 1.2383-0.10156 1.8242-0.30078zm-46.379-8.8555v-3.6445h5.2539v3.6445h0.003906c-0.003906 1.4375-1.168 2.6055-2.6055 2.6055h-0.046876c-1.4375 0-2.6016-1.168-2.6055-2.6055zm8.3789 0 0.003906-3.6445h5.2578v3.6445h-0.003907c0 1.4375-1.1641 2.6055-2.6016 2.6055h-0.050781c-1.4375 0-2.6016-1.168-2.6016-2.6055zm8.3828 0v-3.6445h5.2578v3.6445c-0.003906 1.4375-1.168 2.6055-2.6055 2.6055h-0.046875c-1.4375 0-2.6016-1.168-2.6055-2.6055zm8.3828 0v-3.6445h5.2539v3.6445c0 1.4375-1.168 2.6055-2.6055 2.6055h-0.046874c-1.4375 0-2.6016-1.168-2.6016-2.6055zm8.3828 0-0.003907-3.6445h5.2539v3.6445c0 1.4375-1.1641 2.6055-2.6016 2.6055h-0.046875c-1.4375 0-2.6016-1.168-2.6055-2.6055zm13.637 0h-0.003906c0 1.4375-1.168 2.6055-2.6055 2.6055h-0.046875c-1.4375 0-2.6016-1.168-2.6055-2.6055v-3.6445h5.2578zm2.3398-6.7695h-93.75v-3.125h93.75z"/>
 <path d="m51.812 70.473c-0.89062-1.0938-2.2227-1.7266-3.6328-1.7227h-10.68c-0.86328 0-1.5625 0.69922-1.5625 1.5625v9.375h-3.125v-10.938c0-0.86328-0.69922-1.5625-1.5625-1.5625h-7.0312v-4.6875c0-0.86328-0.69922-1.5625-1.5625-1.5625h-12.5c-0.86328 0-1.5625 0.69922-1.5625 1.5625v10.938h-2.3438c-0.86328 0-1.5625 0.69922-1.5625 1.5625v4.6875h-1.5625c-1.7266 0-3.125 1.3984-3.125 3.125v9.375c0 1.7266 1.3984 3.125 3.125 3.125h8.8008c0.70703 2.7578 3.1953 4.6875 6.043 4.6875s5.3359-1.9297 6.043-4.6875h17.602c0.70703 2.7578 3.1953 4.6875 6.043 4.6875s5.3359-1.9297 6.043-4.6875h3.3672c2.1406-0.007812 3.875-1.7461 3.8711-3.8906v-8.0938c0-1.082-0.375-2.1289-1.0547-2.9648zm-22.125-0.16016v9.375h-10.938v-9.375zm-17.969-6.25h9.375v3.125h-3.9062c-0.86328 0-1.5625 0.69922-1.5625 1.5625v4.6875h-3.9062zm-3.9062 12.5h7.8125v3.125h-7.8125zm10.156 20.312c-1.2656 0-2.4023-0.76172-2.8867-1.9297-0.48438-1.168-0.21484-2.5117 0.67578-3.4062 0.89453-0.89062 2.2383-1.1602 3.4062-0.67578 1.168 0.48438 1.9297 1.6211 1.9297 2.8867 0 1.7266-1.3984 3.125-3.125 3.125zm17.969-4.6875h-11.926c-0.70703-2.7578-3.1953-4.6875-6.043-4.6875s-5.3359 1.9297-6.043 4.6875h-8.8008v-3.125h1.5625c0.86328 0 1.5625-0.69922 1.5625-1.5625s-0.69922-1.5625-1.5625-1.5625h-1.5625v-3.125h32.812zm3.125-20.312h9.1172c0.46875 0 0.91406 0.21094 1.2109 0.57422l5.9062 7.2383h-16.234zm8.5938 25c-1.2656 0-2.4023-0.76172-2.8867-1.9297-0.48438-1.168-0.21484-2.5117 0.67578-3.4062 0.89453-0.89062 2.2383-1.1602 3.4062-0.67578 1.168 0.48438 1.9297 1.6211 1.9297 2.8867 0 1.7266-1.3984 3.125-3.125 3.125zm10.156-10.938h-1.5625c-0.86328 0-1.5625 0.69922-1.5625 1.5625s0.69922 1.5625 1.5625 1.5625h1.5625v2.3594c0.003906 0.41797-0.32812 0.76172-0.74609 0.76562h-3.3672c-0.70703-2.7578-3.1953-4.6875-6.043-4.6875s-5.3359 1.9297-6.043 4.6875h-2.5508v-9.375h18.66c0.058594 0.16406 0.089844 0.33984 0.089844 0.51562z"/>
</svg>