<svg xmlns="http://www.w3.org/2000/svg" data-name="Layer 1" viewBox="0 0 128 160" x="0px" y="0px"><title>startup and development 02 final</title><path d="M101.3371,70A18.97626,18.97626,0,1,0,63.734,70h4.02863a14.99107,14.99107,0,1,1,29.54584,0Z"/><path d="M90.90662,70a4.2315,4.2315,0,0,0-1.13629-4.49316c-4.31158-4.31158-9.81256,3.29346-12.0719,1.03412-.68976-.68976-.8064-1.91864.684-3.409a5.367,5.367,0,0,1,3.42773-1.59943,1.71027,1.71027,0,0,0,1.15186-.3927,1.33451,1.33451,0,0,0,.05493-1.88318,1.37105,1.37105,0,0,0-.73126-.3725,6.584,6.584,0,0,0-4.78381,1.67944l-1.00031-1.00024A1.18115,1.18115,0,0,0,74.83185,61.233l.98291.98291c-2.0567,2.53949-1.73376,4.8728-.19891,6.40765,4.15637,4.15631,9.55383-3.55219,12.07184-1.03412A1.92909,1.92909,0,0,1,88.05829,70Z"/><path d="M86.12683,106.97571a5.92483,5.92483,0,0,1-4.16425-1.85376,1.5061,1.5061,0,0,0-1.11676-.5368A1.33344,1.33344,0,0,0,79.5,105.90247a1.26649,1.26649,0,0,0,.20349.68274,7.34015,7.34015,0,0,0,5.25543,2.9024v1.366a1.18117,1.18117,0,0,0,2.36133,0v-1.366c3.4024-.31683,5.17975-2.07324,5.17975-4.7561,0-6.09753-9.26733-4.60974-9.26733-7.80487,0-.97546.7865-1.92688,2.89417-1.92688a5.3671,5.3671,0,0,1,3.55475,1.29279,1.71025,1.71025,0,0,0,1.09216.5368,1.33446,1.33446,0,0,0,1.37042-1.29279,1.3706,1.3706,0,0,0-.25366-.78046A6.584,6.584,0,0,0,87.32025,92.561V91.14642a1.18117,1.18117,0,0,0-2.36133,0v1.39c-3.25.34143-4.67151,2.21967-4.67151,4.3902,0,5.878,9.26733,4.24384,9.26733,7.80487C89.55475,106.24384,88.43793,106.97571,86.12683,106.97571Z"/><path d="M74.44733,110.56567a22.60229,22.60229,0,0,1-1.36554,2.8371,10.07521,10.07521,0,0,1,3.9386,4.33417,19.00785,19.00785,0,1,0-5.083-29.46838,37.18881,37.18881,0,0,1,1.91687,3.95367,14.989,14.989,0,1,1,.59308,18.34344Z"/><path d="M99.01288,24.33368a7.96783,7.96783,0,0,0-11.26813,0L71.38928,40.68915c-.64716,1.09265-1.35693,2.191-2.13971,3.29578A228.53976,228.53976,0,0,1,53.29321,64.00323c.067.07458.13892.15582.207.23187l37.073-37.073a3.96782,3.96782,0,0,1,5.61127,0l26.65344,26.65344a3.96771,3.96771,0,0,1,0,5.61121L112.26465,70h5.65686l7.74481-7.74481a7.96761,7.96761,0,0,0-.00006-11.26813Z"/><path d="M37.00012,114c12.08868.00049,19.905-6.96094,23.48834-11.1106a6.35381,6.35381,0,0,0,1.1745-6.16052,5.90826,5.90826,0,0,0-4.3692-3.97534A35.06834,35.06834,0,0,0,50.053,91.952a24.92634,24.92634,0,0,0-4.49408.38928A15.84644,15.84644,0,0,0,39,88.30139V59.72955c4.60236-5.59741,8.38251-10.1178,11.43213-13.76422C59.93555,34.603,61.396,32.85645,60.93652,30.84814v-.00049a3.91056,3.91056,0,0,0-1.89209-2.46973c-3.99316-2.44482-13.65234-1.23535-20.71094.54248C30.63623,30.85742,17.9873,35.606,19.062,41.18311a1.99693,1.99693,0,0,0,.47363,1.00146L35,59.74353v28.558A15.84881,15.84881,0,0,0,28.442,92.341,24.98672,24.98672,0,0,0,23.93237,91.95a35.13161,35.13161,0,0,0-7.2207.79529,5.9076,5.9076,0,0,0-4.37292,3.97131,6.35416,6.35416,0,0,0,1.1701,6.16254C17.09,107.03217,24.90393,113.99951,37.00012,114ZM23.15186,40.23877c.95313-1.42969,6.04053-4.89355,16.15869-7.43945C49.188,30.31152,55.20605,30.894,56.77588,31.6709c-1.00635,1.67822-4.61963,5.99854-9.41211,11.72852C44.542,46.77295,41.10254,50.88525,36.9585,55.915ZM17.53772,96.659a31.53637,31.53637,0,0,1,6.39459-.709,18.84313,18.84313,0,0,1,5.89594.86S32.71558,92.80164,36.64868,92H37.352c3.933.80164,6.82037,4.80994,6.82037,4.80994a18.78924,18.78924,0,0,1,5.88062-.858,31.4748,31.4748,0,0,1,6.41089.71454,2.24487,2.24487,0,0,1,.99713,3.60864A27.04767,27.04767,0,0,1,37.00031,110a27.03219,27.03219,0,0,1-20.46222-9.73309A2.24463,2.24463,0,0,1,17.53772,96.659Z"/><path d="M0,122a6.0068,6.0068,0,0,0,6,6H68a6,6,0,0,0,0-12H66.02618a19.23873,19.23873,0,0,0,5.46942-9.2984c1.50854-6.23083-.34528-13.08575-5.50977-20.37421A220.84473,220.84473,0,0,0,47.87268,63.99261a218.50217,218.50217,0,0,0,18.11316-22.32c5.16449-7.28851,7.01831-14.14337,5.50977-20.37427A19.23921,19.23921,0,0,0,66.02625,12H68A6,6,0,0,0,68,0H6A6,6,0,0,0,6,12H7.97174a19.2296,19.2296,0,0,0-5.45465,9.24591c-1.5318,6.24438.31775,13.11688,5.49738,20.4267a220.83107,220.83107,0,0,0,18.1131,22.33466A218.50623,218.50623,0,0,0,8.01447,86.32739C2.83484,93.63721.98523,100.50977,2.51709,106.75415A19.22958,19.22958,0,0,0,7.97174,116H6A6.0068,6.0068,0,0,0,0,122ZM6,8A2,2,0,0,1,6,4H68a2,2,0,0,1,0,4Zm5.2782,80.64A216.16249,216.16249,0,0,1,29.05292,66.72076a3.99047,3.99047,0,0,0-.00006-5.44159A216.18434,216.18434,0,0,1,11.2782,39.36C.24274,23.78619,9.10077,15.34442,14.46619,12H59.53564c5.36609,3.34644,14.21918,11.79,3.18646,27.36A216.17416,216.17416,0,0,1,44.94739,61.27917a3.99041,3.99041,0,0,0,0,5.44159A216.171,216.171,0,0,1,62.72211,88.64c11.03278,15.57007,2.17963,24.01361-3.18652,27.36H14.46625C9.10089,112.65558.2428,104.21381,11.2782,88.64ZM68,120a2,2,0,0,1,0,4H6a2,2,0,0,1,0-4Z"/><path d="M120,74H61.72534l.00385.00488q.7175.90262,1.45605,1.85181l.117.15009q.757.97421,1.53113,1.99207l.00055.00079L120,78a4,4,0,0,1,4,4v38a4,4,0,0,1-4,4H77.7984a9.88931,9.88931,0,0,1-.27948,1.05432c-.01727.05328-.03937.10413-.05756.157-.10052.29529-.21307.58447-.33978.8667-.01868.0412-.03955.081-.05878.12189q-.20847.44806-.45868.87054l-.029.04767A10.02158,10.02158,0,0,1,75.981,128H120a8.00909,8.00909,0,0,0,8-8V82A8.00909,8.00909,0,0,0,120,74Z"/></svg>