<svg xmlns="http://www.w3.org/2000/svg" data-name="Layer 1" viewBox="0 0 128 160" x="0px" y="0px"><title>miscellaneous 248 final</title><path d="M58.19873,96.80121a1.99992,1.99992,0,0,0-.76917-2.72089l-1.751-.97845-.02051-.01129-.0235-.01331-.032-.01788-.01929-.0108a2,2,0,0,0-1.948,3.49359l.048.02686.02368.01306.02429.01379,1.74591.97559a1.99883,1.99883,0,0,0,2.7215-.77026Z"/><path d="M34.00238,76.48877l-.00018-.00806v-.00049l-.00018-.008-.00006-.00116-.00012-.00751-.00006-.00055-.00043-.02216-.00006-.00317-.00006-.00458-.00006-.00464-.00006-.00421-.00012-.00488-.00006-.004-.00006-.00507-.00006-.004-.00006-.00543-.00006-.00348-.00006-.00592-.00006-.00317-.00006-.00677v-.00226l-.00012-.009v-.0014l-.00006-.00781v-.00256l-.00006-.00635-.00006-.00354V76.343l-.00006-.00378v-.00909l-.00006-.00543V76.312L34,76.3064V74.5979l-.00018-.02753L34,74.54291v-.055a2,2,0,0,0-4,0v.055l.00018.02747L30,74.5979v1.696q0,.22833.00861.45538a2.0001,2.0001,0,0,0,1.99725,1.92432q.03836,0,.077-.00146a1.99994,1.99994,0,0,0,1.92285-2.07428q-.002-.05438-.00336-.10889Z"/><path d="M36.63361,45.773l.00024-.00024.00568-.00513.00574-.00519.00018-.00018.05817-.05188.00018-.00012.00519-.00458.00055-.00055.00488-.00427.00153-.00134.00421-.00372.00189-.00165.004-.00348.002-.00177.00409-.00354.002-.00177.00391-.00342.00208-.00183.004-.00348.00208-.00183.00378-.0033.00159-.00134.00452-.004.00238-.002.0036-.00311.00256-.00226.00354-.00311.00262-.0022.00336-.00293.00256-.0022.00372-.00323.00067-.00055.00531-.00458.006-.00513.0011-.00092.00519-.00452.00092-.00073.00519-.00439.00208-.00183.00421-.0036.00165-.00134.00464-.004.00153-.00128.00476-.00409.00146-.00122.00458-.00391.002-.00165.00439-.00366.00171-.00146.0047-.004.0014-.00122.005-.00421.00122-.001.005-.00421.00128-.0011.00543-.00452.00067-.00061.00586-.00488.00043-.00037.00623-.00519v-.00006l.05768-.04761.00012-.00012q.13879-.11353.2832-.22131l.0238-.018.02-.01434.01141-.00842.00055-.00037.00452-.00336.02838-.02063a2.0028,2.0028,0,0,0-1.1731-3.62292,1.98487,1.98487,0,0,0-1.174.38391l-.06671.04871-.03656.02728-.02972.02179a12.00306,12.00306,0,0,0-2.15717,2.075,2,2,0,0,0,3.1084,2.51752A7.98205,7.98205,0,0,1,36.63361,45.773Z"/><path d="M64,27.41211a12.00831,12.00831,0,0,0-2.96881.373,2,2,0,1,0,.98956,3.87561q.35834-.09146.72235-.14929l.00073-.00012.0072-.00116h.00018l.00757-.00122.00043-.00006.00732-.00116.00049-.00006.00726-.0011.00049-.00006.00745-.00116.00018-.00006.00745-.00116.00085-.00012.007-.001.00085-.00012.00665-.001.00177-.00024.00623-.00092.00067-.00012.00714-.0011.001-.00012.00671-.001.00128-.00018.00635-.001.00116-.00018.00677-.001.00134-.00018.00641-.00092.00146-.00024.00635-.00092.00146-.00018.00616-.00092.00128-.00018.00671-.00092.00134-.00018.00641-.00092.00153-.00024.00635-.00085.00092-.00018.00671-.00092.00183-.00024.006-.00085.00177-.00024.00586-.00079.0014-.00018.00635-.00085.0022-.00031.00549-.00073.00244-.00037.00555-.00073.002-.00024.0058-.00079.0022-.00024.00562-.00079.00146-.00018.00616-.00079.0025-.00031.00543-.00073.00214-.00031.00555-.00067.0025-.00037.00519-.00061.00269-.00037.005-.00067.00281-.00031L63,31.47485l.00214-.00031.00568-.00073.0022-.00024.00568-.00073.00208-.00024.00555-.00067.00238-.00031.00562-.00067.00134-.00018.00629-.00073.00159-.00018.0061-.00073.00256-.00031.00494-.00061.003-.00037.00531-.00061.0022-.00024.00555-.00067.00238-.00031.00543-.00061.00153-.00018.00616-.00073.00256-.00024.00568-.00067.00189-.00024.00574-.00061.00226-.00024.00555-.00067.0022-.00024.00543-.00061.0025-.00024.0058-.00067.00177-.00018.00586-.00061.00214-.00024.00623-.00067.00134-.00018.00616-.00061.00183-.00024.00641-.00067.00128-.00012.00635-.00067.00159-.00018.00623-.00061.0011-.00012.00623-.00067.0022-.00018.00671-.00073.00085-.00006.0061-.00061.002-.00018.00623-.00067.00146-.00012.00616-.00061.00116-.00012.00812-.00079h.00012l.007-.00067.00092-.00012.00708-.00067.00073-.00006.00616-.00061.00177-.00018.06268-.00568.00049-.00006.03088-.00262.00079-.00006.01477-.00116.00189-.00018.0061-.00049.00116-.00006.00647-.00055.00226-.00018.0058-.00043.00092-.00006.00684-.00055.00165-.00012.00623-.00049.0011-.00006.00665-.00055.00134-.00006.00659-.00049.00183-.00012.00574-.00043.00311-.00024.00476-.00037.00305-.00018.00464-.00037.00323-.00024.00476-.00031.003-.00018.00464-.00037.00348-.00024.00452-.00031.00311-.00018.00464-.00031.00317-.00024.00476-.00031.00305-.00018.00464-.00031.00342-.00024.00452-.00031.00317-.00018.00452-.00031.00342-.00018.00458-.00031.00305-.00018.0047-.00031.00336-.00018.00446-.00031.0033-.00018.00452-.00024.0033-.00018.00464-.00031.0033-.00018.00427-.00024.00391-.00024.00391-.00018.00391-.00024.00391-.00018.00378-.00024.00421-.00024.00354-.00018.00421-.00018.00366-.00024.00427-.00018.00342-.00018.00439-.00024.00336-.00018.0047-.00024.003-.00012.0047-.00024.00336-.00018.00446-.00018.00342-.00018.00427-.00018.0036-.00018.00439-.00018.00342-.00018.00421-.00018.00372-.00018.00421-.00018.0036-.00018.00421-.00018.00348-.00012.00458-.00018.00323-.00018.00433-.00018.00372-.00012.00421-.00018.00348-.00012.00421-.00018.00378-.00012.00415-.00018.00366-.00012.004-.00018.004-.00012.004-.00018.00372-.00012.00415-.00012.00366-.00012.00427-.00018.00354-.00012.00421-.00012.00372-.00012.00415-.00018.00366-.00012.004-.00012.00385-.00012.00427-.00012.00342-.00012.00415-.00012.00385-.00006.00421-.00012.00348-.00012.00433-.00012.00354-.00012.00433-.00012.00348-.00006.00409-.00012.004-.00012.00372-.00006.00409-.00012.00372-.00006.004-.00012.00421-.00006.00354-.00012.00427-.00006.0036-.00012.00439-.00006.00336-.00006.00452-.00012.00336-.00006.0047-.00006.00305-.00006.00452-.00012.00342-.00006.00433-.00006.00354-.00006.00415-.00006.00366-.00006.00464-.00006.00311-.00006.0047-.00006.00317-.00006.005-.00006h.00275l.00519-.00006.00269-.00006.00507-.00006h.00281l.00446-.00006.00348-.00006h.00446l.00336-.00006h.00427l.0036-.00006.00464-.00006h.00732l.00378-.00006h.00775l.00543-.00006h.01013l.00488-.00006H64a2,2,0,0,0,0-4Z"/><path d="M48.603,89.14789l-1.12787-.63025-.00012-.00006-.0094-.00525-.00122-.00067-.00281-.00159-.0022-.00122-.00336-.00189-.00116-.00067-.00861-.00476-.01727-.0097-.00049-.00024-.00806-.00452-.00323-.00177-.00574-.00323-.00476-.00262-.55078-.3078-.02338-.01288-.0235-.01331-.048-.02686a2,2,0,1,0-1.95129,3.49176l.048.02686.02448.01349.0235.01337,1.74591.97559A2,2,0,1,0,48.603,89.14789Z"/><path d="M39.77753,84.21606s-1.22656-.68536-1.5835-.88489l-.03339-.01862-.00073-.00043-.00079-.00043L38.1579,83.311l-.001-.00061-.00067-.00037-.00128-.00073-.00067-.00037-.00134-.00073-.00305-.00171-.00012-.00006-.01013-.00568-.00061-.00037-.02234-.01245-.00024-.00018-.01874-.01044-.00806-.00452-.00073-.00043-.0072-.004-.00226-.00128-.00525-.00293-.00409-.00232-.003-.00171-.03534-.02-.02338-.013-.02429-.01447-.04742-.02771a2,2,0,1,0-2.03149,3.44568l.071.04156.03381.01935.0376.02173.09875.05579,1.67993.93878a2,2,0,1,0,1.95129-3.49176Z"/><path d="M43.28558,41.53381a1.99083,1.99083,0,0,0,.97382-.25446s.38495-.21509.7934-.44336l.95831-.53546L46.0296,40.29l.02374-.01306.048-.02686a2,2,0,1,0-1.95123-3.49176l-.048.02686-.0235.01331-.02448.01349-1.74591.97565a2.00024,2.00024,0,0,0,.97742,3.74622Z"/><path d="M78.5415,38.374l1.75476.98059.01935.01062.0235.01331.048.02686a2,2,0,0,0,1.95123-3.49176l-.048-.02686-.024-.01318-.024-.01367-1.74591-.97559a2,2,0,0,0-1.955,3.48969Z"/><path d="M52.11108,36.602a1.99083,1.99083,0,0,0,.97382-.25446l1.74591-.97565.0235-.01331.02148-.01178.05194-.02905a2,2,0,1,0-1.95215-3.49127l-.048.02686-.0238.01349-.02423.01331-1.74585.97565a2.00024,2.00024,0,0,0,.97742,3.74622Z"/><path d="M32,68.48792a2,2,0,0,0,2-2v-2l-.00018-.02753L34,64.43286v-.055a2,2,0,0,0-4,0v.055l.00018.02753L30,64.48792v2A2,2,0,0,0,32,68.48792Z"/><path d="M32,58.37787a2,2,0,0,0,2-2v-2l-.00018-.02747L34,54.32288v-.055a2,2,0,1,0-4,0v.055l.00018.02753L30,54.37787v2A2,2,0,0,0,32,58.37787Z"/><path d="M95.54285,79.89038a1.99924,1.99924,0,0,0-2.75549.63812q-.11819.18933-.24677.372l-.00012.00018-.00452.00635-.00049.00073-.00421.00592-.00055.00073-.004.00568-.00061.00085-.00415.0058-.00079.00116-.00378.00531-.001.00146-.00378.00531-.00055.00073-.00391.00555-.00092.00122-.00378.00531-.00128.00177-.0033.00464-.00146.002-.0036.00494-.001.00146-.00336.00464-.001.0014-.00458.00635-.00055.00073-.00348.00488-.0033.00452-.00269.00366-.00354.00488L92.46936,81l-.00342.0047-.00134.00183-.0033.00452-.00134.00183-.00305.00421-.00177.00238-.00311.00427-.0014.00189-.00323.00439-.00159.0022-.00311.00421-.00153.00208-.00311.00421-.00171.00232-.00317.00433-.00128.00165-.00354.00488-.0011.00146-.0036.00488-.001.00134-.00372.005-.001.00134-.00385.00513-.00049.00067-.04657.06183-.00427.00562-.00061.00079-.00439.0058-.00024.00031-.00452.00586-.00024.00037-.00452.00592-.00024.00024-.00439.00574-.00031.00043-.00458.00592-.00031.00043-.00446.00574-.00031.00043-.00934.01208-.00012.00018c-.019.02448-.03833.04919-.05762.07343l-.00012.00018-.00476.006H92.2616l-.00458.0058-.00043.00049-.00446.00568-.00037.00043-.00433.00543-.00079.001-.00415.00519-.00073.00092-.00421.00525-.00043.00055-.00464.00574-.00031.00043-.00452.00562-.00037.00043-.00464.00574-.00031.00037-.00464.00574-.00024.00024-.0047.00586-.00006.00006-.03381.04144-.00055.00067-.00427.00519-.0011.00128-.00366.00439-.00146.00183-.00348.00427-.00159.00189-.00342.00409-.00171.00208-.00342.00415-.0011.00128-.004.00482-.001.00122-.00415.00494-.00153.00189-.0033.00391-.002.00244-.00317.00372-.002.00244-.00293.00348-.00238.00281-.00281.00342-.00238.00281-.00269.00317-.0025.003-.00275.00323-.00262.00311-.00238.00287-.00293.00342-.00238.00281-.00433.00513-.00073.00085-.00525.00616-.00067.00073-.0047.00562-.00507.00592-.0011.00128-.00427.005-.00128.00146-.004.00464-.00134.00153-.00409.00476-.00116.00134-.00391.00458-.00171.002-.00378.00439-.00122.00146-.00421.00482-.00092.0011L92.045,81.534l-.00085.001-.00433.005-.00073.00085-.00488.00562-.00043.00049-.005.00574-.00055.00061-.00513.00592-.00012.00012-.00531.0061-.00012.00006q-.23245.26541-.48883.51068l-.02118.02057-.01764.0163-.01935.01819-.00305.00281-.00122.00116-.01758.01642a2.00833,2.00833,0,0,0-.09766,2.8316,1.99169,1.99169,0,0,0,2.8219.09729l.06024-.0564.0332-.03186.02661-.025a12.00661,12.00661,0,0,0,1.888-2.32141A2,2,0,0,0,95.54285,79.89038Z"/><path d="M96,68.6463a2,2,0,0,0-2,2v2l.00018.02753L94,72.70135v.055a2,2,0,1,0,4,0v-.055l-.00018-.02753L98,72.6463v-2A2,2,0,0,0,96,68.6463Z"/><path d="M68.94946,30.72278a2.00008,2.00008,0,0,0,.765,2.71857l.81226.45392.9389.52466.02368.01306.02386.01349.05115.02863a2,2,0,0,0,1.94855-3.49329l-.048-.02686-.024-.01318-.024-.01367L71.671,29.95251a1.99907,1.99907,0,0,0-2.72156.77026Z"/><path d="M96,58.53632a2,2,0,0,0-2,2v2l.00018.02753L94,62.59131v.055a2,2,0,0,0,4,0v-.055l-.00018-.02747L98,62.53632v-2A2,2,0,0,0,96,58.53632Z"/><path d="M91.93414,43.567a2,2,0,0,0-.77026-2.7215l-.048-.02686-.02417-.01331-.0238-.01349L89.322,39.81616a2,2,0,0,0-1.95227,3.49115l1.75085.97845.02057.01129.0235.01331.048.02686a1.999,1.999,0,0,0,2.7215-.77026Z"/><path d="M95.875,48.1131a2.00187,2.00187,0,0,0-1.97693,2.3186q.02335.14484.04144.291l.00006.00049.00085.00739.00018.001.00092.00763.00018.00153.0025.02081.00037.00342.00061.00494.00049.00415.00055.0047.00055.00464.00049.00446.00061.00519.00043.00372.00085.00739.00018.00177.001.00922.00018.00146.00085.00787.00031.00269.00079.007.00012.00159.001.00854.00012.0014.00311.02924v.00024l.001.00946.00006.00061q.02454.23767.03485.47827V51.364l.00159.03979v.00055l.00037.00909.00006.00116.00031.00891V51.424l.001.03.00006.00061.00024.00885.00006.0011.00024.00891.00006.00128.00024.00952v.00006l.00055.01984v.00079l.00018.00861.00006.00232.00018.00726.00006.0025.00018.00757v.002l.00043.01923v.00122l.00018.00824v.00171l.00012.00787.00006.00287.00012.00677.00006.00281.00012.00879v.00049l.00012.00983v.001l.00012.00836v.00269l.00006.00665.00006.0033.00006.00647v.00293l.00006.0072.00006.00238.00006.0094v.00922l.00006.00348v.00958l.00006.006v.74261l.00018.02753L94,52.48132v.055a2,2,0,0,0,4,0v-.055l-.00018-.02747L98,52.42633v-.72028a12.042,12.042,0,0,0-.153-1.911A2.00053,2.00053,0,0,0,95.875,48.1131Z"/><path d="M85.56622,85.99017a1.98994,1.98994,0,0,0-.9693.252l-1.7533.97974-.02112.012-.024.01318-.05151.02881a2,2,0,0,0,1.95477,3.48981l.048-.02679.024-.01367.024-.01318,1.74591-.97565a2.00024,2.00024,0,0,0-.97748-3.74622Z"/><path d="M65.07086,100.53033a2.01882,2.01882,0,0,0,.2251-.01263l.082-.00916.0459-.00568.036-.00409a12.00346,12.00346,0,0,0,2.90228-.73187,2,2,0,1,0-1.454-3.72638,7.98947,7.98947,0,0,1-.98621.31311l-.00031.00006-.0224.00555-.00043.00006-.00714.00177-.00043.00012-.02234.00537-.001.00024-.00641.00153L65.859,96.369l-.00513.00122-.00287.00067-.00476.00116-.004.00092-.0036.00085-.00739.00171-.00006.00006a7.99411,7.99411,0,0,1-.85785.153l-.02948.00385-.02484.00262-.05487.0061-.00006.00006a2.00048,2.00048,0,0,0,.20673,3.9892Z"/><path d="M76.74072,90.922a1.991,1.991,0,0,0-.97382.25446s-.31177.17426-.67181.37543l-.00275.00153-.00043.00024-.01483.0083-.00031.00018-1.06012.59241-.01965.01117-.02039.01117-.02118.01184-.03046.017a2,2,0,1,0,1.95129,3.49176l.048-.02679.0235-.01337.02448-.01349,1.74591-.97565a2.00024,2.00024,0,0,0-.97748-3.74622Z"/><path d="M87.95129,48.21411l-22-12.29413a3.99994,3.99994,0,0,0-3.90259,0l-22,12.29413A4,4,0,0,0,38,51.70587V76.29413a4,4,0,0,0,2.04871,3.49176l22,12.29413a3.99994,3.99994,0,0,0,3.90259,0l22-12.29413A3.99991,3.99991,0,0,0,90,76.29413V51.70587A3.99991,3.99991,0,0,0,87.95129,48.21411ZM86,76.29413,64,88.58826,42,76.29413V51.70587L64,39.41174,86,51.70587Z"/><path d="M51,56.11523a2,2,0,0,0-4,0V71.88477a2,2,0,0,0,1.04785,1.75879l15,8.11523a2,2,0,0,0,1.9043-3.51758L51,70.69238Z"/><path d="M60.50586,9.03906,62,7.329V22a2,2,0,0,0,4,0V7.329l1.49414,1.71a2.00013,2.00013,0,0,0,3.01172-2.63281l-5-5.72266a2.06528,2.06528,0,0,0-3.01172,0l-5,5.72266a2.00013,2.00013,0,1,0,3.01172,2.63281Z"/><path d="M67.49414,118.96094,66,120.671V106a2,2,0,0,0-4,0v14.671l-1.49414-1.71a2.00013,2.00013,0,0,0-3.01172,2.63281l5,5.72266a2.00039,2.00039,0,0,0,3.01172,0l5-5.72266a2.00013,2.00013,0,0,0-3.01172-2.63281Z"/><path d="M120.57129,34.07227a1.99776,1.99776,0,0,0-1.30859-1.01074l-7.39648-1.74414a1.99968,1.99968,0,0,0-.918,3.89258l2.21118.52136-12.97,6.86145a1.9999,1.9999,0,1,0,1.87109,3.53516l12.96893-6.8609-.81268,2.12067a1.9997,1.9997,0,1,0,3.73438,1.43164l2.71973-7.0957A1.99679,1.99679,0,0,0,120.57129,34.07227Z"/><path d="M25.93945,81.87207,12.97052,88.733l.81268-2.12067a1.9997,1.9997,0,0,0-3.73437-1.43164L7.3291,92.27637a1.99929,1.99929,0,0,0,1.4082,2.66211l7.39648,1.74414a1.96613,1.96613,0,0,0,.46094.05371,1.99986,1.99986,0,0,0,.457-3.94629l-2.21118-.52136,12.97-6.86145a1.9999,1.9999,0,1,0-1.87109-3.53516Z"/><path d="M117.10156,87.23047a1.99993,1.99993,0,0,0-3.78711,1.28711l.731,2.15033-12.69678-7.35248a1.99961,1.99961,0,0,0-2.00391,3.46094l12.69611,7.35211-2.22834.436a2.00006,2.00006,0,0,0,.76759,3.92578l7.458-1.459a2.00073,2.00073,0,0,0,1.50977-2.60645Z"/><path d="M28.65527,41.22363,15.95917,33.87152l2.22832-.436a2.00006,2.00006,0,1,0-.76757-3.92578l-7.458,1.459A2.00073,2.00073,0,0,0,8.45215,33.5752l2.44629,7.19434a1.99993,1.99993,0,0,0,3.78711-1.28711l-.731-2.15033,12.69678,7.35248a1.99961,1.99961,0,0,0,2.00391-3.46094Z"/></svg>