<svg xmlns="http://www.w3.org/2000/svg" version="1.1" viewBox="-5.0 -10.0 110.0 135.0">
 <g>
  <path d="m100 65.77c0-2.332-1.7031-6.4961-3.1328-9.5781-3.2305-6.9727-3.8086-6.9727-4.6797-6.9727s-1.4492 0-4.6797 6.9727c-1.4297 3.082-3.1328 7.2461-3.1328 9.5781-0.10156 3.8789 2.4922 7.3125 6.25 8.2773v1.7344h-3.9062c-0.46875 0-0.91016 0.21094-1.207 0.57031-0.29688 0.36328-0.41797 0.83984-0.32422 1.2969l1.1875 5.9453h-5.125v-30.555c2.0039 0.32031 4.043-0.25781 5.582-1.5781 1.5391-1.3203 2.418-3.2539 2.4023-5.2812v-5.5547c0-0.54297-0.28516-1.0469-0.74609-1.3281l-3.9414-5.8008c-0.007813-0.007813-0.015625-0.015625-0.019531-0.023438v-3.7852c0.050781-0.78516-0.21094-1.5547-0.73438-2.1406-0.51953-0.58984-1.2539-0.94141-2.0391-0.98438h-1.6758v-3.9062c0.058594-0.77734-0.19922-1.5469-0.71484-2.1328-0.51172-0.58984-1.2422-0.94531-2.0195-0.99219h-1.9531v-3.125c0.058594-0.77734-0.19922-1.5469-0.71484-2.1328-0.51172-0.58984-1.2422-0.94531-2.0195-0.99219h-12.586c-2.3945-3.9297-6.0664-6.25-9.9727-6.25s-7.5781 2.3203-9.9727 6.25h-12c-0.77734 0.046875-1.5078 0.40234-2.0195 0.99219-0.51562 0.58594-0.77344 1.3555-0.71484 2.1328v3.125h-1.9531c-0.77734 0.046875-1.5078 0.40234-2.0195 0.99219-0.51562 0.58594-0.77344 1.3555-0.71484 2.1328v3.9062h-2.457c-0.78516 0.042969-1.5195 0.39453-2.0391 0.98438-0.52344 0.58594-0.78516 1.3555-0.73438 2.1406v3.7852c-0.007812 0.007813-0.015625 0.015625-0.019531 0.023438l-3.9414 5.8008c-0.46094 0.28125-0.74609 0.78516-0.74609 1.3281v5.5547c-0.015625 2.0273 0.86328 3.9609 2.4023 5.2812 1.5391 1.3203 3.5781 1.8984 5.582 1.5781v30.555h-5.125l1.1875-5.9453c0.09375-0.45703-0.027344-0.93359-0.32422-1.2969-0.29688-0.35937-0.73828-0.57031-1.207-0.57031h-3.9062v-1.7344c3.7578-0.96484 6.3516-4.3984 6.25-8.2773 0-2.332-1.7031-6.4961-3.1328-9.5781-3.2305-6.9727-3.8086-6.9727-4.6797-6.9727s-1.4492 0-4.6797 6.9727c-1.4297 3.082-3.1328 7.2461-3.1328 9.5781-0.10156 3.8789 2.4922 7.3125 6.25 8.2773v1.7344h-3.9062c-0.46875 0-0.91016 0.21094-1.207 0.57031-0.29688 0.36328-0.41797 0.83984-0.32422 1.2969l1.1875 5.9453h-0.4375c-0.86328 0-1.5625 0.69922-1.5625 1.5625v6.25c0 0.86328 0.69922 1.5625 1.5625 1.5625h96.875c0.86328 0 1.5625-0.69922 1.5625-1.5625v-6.25c0-0.86328-0.69922-1.5625-1.5625-1.5625h-0.4375l1.1875-5.9453c0.09375-0.45703-0.027344-0.93359-0.32422-1.2969-0.29688-0.35937-0.73828-0.57031-1.207-0.57031h-3.9062v-1.7344c3.7578-0.96484 6.3516-4.3984 6.25-8.2773zm-13.891-19.59c0 2.1094-1.7109 3.8164-3.8164 3.8164-2.1094 0-3.8164-1.707-3.8203-3.8164v-3.9922h7.6406zm-62.281-23.523h13.082c0.86328 0 1.5625-0.69922 1.5625-1.5625s-0.69922-1.5625-1.5625-1.5625h-8.3945v-3.125h12.516c0.57812 0 1.1055-0.31641 1.3789-0.82812 1.8125-3.3945 4.6875-5.4219 7.6875-5.4219s5.875 2.0273 7.6875 5.4219c0.27344 0.51172 0.80078 0.82812 1.3789 0.82812h13.102v3.125h-9.1758c-0.86328 0-1.5625 0.69922-1.5625 1.5625s0.69922 1.5625 1.5625 1.5625h13.863v3.9062h-53.125zm-5.2305 7.0312h62.801v3.125h-62.801zm-1.0273 6.25h64.855l2.1211 3.125h-69.098zm10.902 17.188c2.0898 0 4.0664-0.94141 5.3828-2.5625 1.3164 1.6211 3.293 2.5625 5.3789 2.5625 2.0898 0 4.0664-0.94141 5.3828-2.5625 0.97656 1.1953 2.3203 2.0312 3.8203 2.3789v30.652h-26.562v-31.871c0.44922-0.33594 0.85938-0.72656 1.2148-1.1602 1.3164 1.6211 3.293 2.5625 5.3828 2.5625zm-3.8203-6.9453v-3.9922h7.6406v3.9922c-0.003907 2.1094-1.7148 3.8164-3.8203 3.8164-2.1094 0-3.8164-1.707-3.8203-3.8164zm10.766 0v-3.9922h7.6406v3.9922h-0.003906c-0.003907 2.1094-1.7109 3.8164-3.8203 3.8164-2.1055 0-3.8164-1.707-3.8164-3.8164zm10.766 0-0.003906-3.9922h7.6367v3.9922h0.003906c0 2.1094-1.7109 3.8203-3.8203 3.8203s-3.8203-1.7109-3.8203-3.8203zm5.3789 6.7617c1.5-0.34766 2.8438-1.1836 3.8203-2.3789 1.3164 1.6211 3.293 2.5625 5.3828 2.5625 2.0859 0 4.0625-0.94141 5.3789-2.5625 1.3164 1.6211 3.293 2.5625 5.3828 2.5625s4.0664-0.94141 5.3828-2.5625c0.35547 0.43359 0.76562 0.82422 1.2148 1.1602v31.871h-26.562zm5.3828-6.7617v-3.9922h7.6367v3.9922c0 2.1094-1.7109 3.8164-3.8164 3.8164-2.1094 0-3.8164-1.707-3.8203-3.8164zm10.766 0-0.003907-3.9922h7.6406v3.9922c-0.003906 2.1094-1.7109 3.8164-3.8203 3.8164-2.1055 0-3.8164-1.707-3.8203-3.8164zm-50.004 3.8203c-2.1055-0.003906-3.8164-1.7109-3.8164-3.8203v-3.9922h7.6406v3.9922h-0.003906c0 2.1094-1.7109 3.8164-3.8203 3.8203zm-14.582 15.77c0-2.3633 2.9531-8.7227 4.6875-12 1.7344 3.2773 4.6875 9.6367 4.6875 12 0.066406 2.1484-1.168 4.125-3.125 5.0117v-6.7188c0-0.86328-0.69922-1.5625-1.5625-1.5625s-1.5625 0.69922-1.5625 1.5625v6.7188c-1.957-0.88672-3.1914-2.8633-3.125-5.0117zm8.25 13.137-0.9375 4.6875h-5.25l-0.9375-4.6875zm85.5 10.938h-93.75v-3.125h93.75zm-1.125-10.938-0.9375 4.6875h-5.25l-0.9375-4.6875zm-3.5625-14.844c-0.86328 0-1.5625 0.69922-1.5625 1.5625v5.1562c-1.957-0.88672-3.1914-2.8633-3.125-5.0117 0-2.3633 2.9531-8.7227 4.6875-12 1.7344 3.2773 4.6875 9.6367 4.6875 12 0.066406 2.1484-1.168 4.125-3.125 5.0117v-5.1562c0-0.86328-0.69922-1.5625-1.5625-1.5625z"/>
  <path d="m63.188 60.008c-0.29297-0.29687-0.69141-0.46094-1.1055-0.46094-0.41406 0-0.8125 0.16406-1.1055 0.46094l-3.3164 3.3164 0.003906-0.003907c-0.29687 0.29297-0.46094 0.69141-0.46094 1.1055 0 0.41406 0.16406 0.8125 0.45703 1.1055 0.29297 0.29297 0.69141 0.45703 1.1055 0.45703s0.8125-0.16406 1.1055-0.45703l3.3164-3.3164c0.29297-0.29297 0.45703-0.69141 0.45703-1.1055s-0.16406-0.80859-0.45703-1.1016z"/>
  <path d="m69.816 68.844-3.3164 3.3164c-0.29297 0.29297-0.45703 0.69141-0.45703 1.1055s0.16406 0.8125 0.45703 1.1055c0.29297 0.29297 0.69141 0.45703 1.1055 0.45703 0.41406 0 0.8125-0.16406 1.1055-0.46094l3.3164-3.3164-0.003906 0.003907c0.60937-0.60938 0.60937-1.5977 0-2.207-0.60938-0.60938-1.5977-0.60938-2.207-0.003906z"/>
  <path d="m69.262 62.77c-0.29297-0.29297-0.6875-0.46094-1.1016-0.46094-0.41797 0-0.8125 0.16797-1.1055 0.46094l-6.6289 6.6289c-0.29297 0.29297-0.46094 0.6875-0.46094 1.1055 0 0.41406 0.16797 0.80859 0.46094 1.1016s0.6875 0.46094 1.1016 0.46094c0.41797 0 0.8125-0.16797 1.1055-0.46094l6.6289-6.6289c0.29297-0.29297 0.46094-0.6875 0.46094-1.1055 0-0.41406-0.16797-0.80859-0.46094-1.1016z"/>
  <path d="m43.855 71.875c0.86328 0 1.5625-0.69922 1.5625-1.5625v-4.6875c0-0.86328-0.69922-1.5625-1.5625-1.5625s-1.5625 0.69922-1.5625 1.5625v4.6875c0 0.86328 0.69922 1.5625 1.5625 1.5625z"/>
 </g>
</svg>