<svg xmlns="http://www.w3.org/2000/svg" xmlns:xlink="http://www.w3.org/1999/xlink" version="1.1" x="0px" y="0px" viewBox="0 0 128 160" style="enable-background:new 0 0 128 128;" xml:space="preserve"><path d="M120.9926987,103.1903992c-1.3115005-20.0214996-28.1884995-24.2275009-28.1884995-24.2275009  c-7.2490005-1.267601-10.9634018-7.6327972-12.5365982-11.3153992c5.5262985-6.0942993,9.3837967-14.033699,11.5048981-21.7681007  c0.0595016-0.2172966,0.1092987-0.4379997,0.1640015-0.6567001c0.1641006,0,0.3262024,0,0.4961014,0  c2.1811981,0,3.7690964-0.7622986,3.5468979-2.9067993l-0.3237-5.1005974  c-0.2198029-2.1186028-0.0756989-3.8823013-1.8077011-3.8823013c-0.0199966,0-0.0404968,0-0.0615005,0.0004997h-0.6836014  c-0.2245941-0.1488991-0.4813995-0.2504997-0.7572937-0.2988014c0.158699-2.2006989,0.6396942-16.5087986-12.6621017-25.923399  c0,0-2.3057022-5.9520998-6.7006989-6.9970002L73.0005035,0h-0.5376053H55.5381012h-0.5376015l0.017601,0.1143  C50.6230011,1.1592,48.3174019,7.1113,48.3174019,7.1113c-13.3018036,9.4146004-12.8208008,23.7217007-12.6621017,25.923399  c-0.2764015,0.0483017-0.533699,0.1494026-0.7583008,0.2988014c-0.205101,0-0.4351006,0-0.6830978,0  c-1.7974014,0-1.6464996,1.7383003-1.8687019,3.8818016l-0.3241997,5.1005974  c-0.2217007,2.1445007,1.3661995,2.9067993,3.5474014,2.9067993h0.2767982  C37.4668007,53.5956993,41.355999,62.0391006,46.6875,68.125c0.2103996,0.2401962,0.4286995,0.4707031,0.6474991,0.7012024  c-1.8139992,3.7275009-5.4716988,8.9961014-11.9965973,10.1366959c0,0-26.8769722,4.2060013-28.1885014,24.2275009  c0,0-0.63867,4.7481003,0.7197299,17.2266006C8.3256798,124.6122971,12.3120003,128,16.6420994,128h39.698204l-1.7773018-1.3525009  c-0.9316978-0.7099991-1.6968002-1.625-2.283699-2.6474991H16.6420994c-2.322299,0-4.5634995-1.8759995-4.7958994-4.0156021  c-1.2642002-11.6122971-0.7339001-16.2421951-0.7319002-16.2607956l0.0180006-0.135704l0.0087996-0.1357956  c1.0845003-16.5546036,24.585001-20.5,24.8159008-20.5371017l0.0351982-0.0057983l0.0351028-0.0059052  c1.2919998-0.2256012,2.4829979-0.5839996,3.5966988-1.0282974l11.3320999,16.2031021  C51.5443993,99.3467026,52.4756012,100,53.4648018,100c0.7915001,0,1.6196976-0.4179993,2.3388977-1.2733994l2.0541992-3.3731003  l1.474102,2.6044998l-4.2329025,20.4375c-0.3929977,1.8057022,0.3999023,3.9365005,1.8863029,5.0692978l4.7812004,3.6387024  c0.7870979,0.5986023,1.7738991,0.8984985,2.7612,0.8975067c0.9868011,0,1.9741974-0.2989044,2.761795-0.8975067  l4.7812042-3.6396027c1.4872971-1.1327972,2.2573013-3.3378983,1.796402-5.1083984L68.8076019,98H68.875l1.3638-2.4882965  l1.9574966,3.2148972C72.9154968,99.5820007,73.7436981,100,74.535202,100c0.9891968,0,1.9203949-0.6532974,2.5086975-1.9218979  l11.3628006-16.2470016c1.1445999,0.4657974,2.3735962,0.8387985,3.7084961,1.072197l0.035202,0.0059052l0.028801,0.0048981  c0.2368011,0.0371017,23.6542969,3.969696,24.8158951,20.4491959c0.0112,0.7217026,0.0645065,6.5615005-0.8871994,16.6640015  c-0.1987,2.1163025-2.3638,3.972702-4.6327972,3.972702H76.7686005c-0.5786972,1.017601-1.3374023,1.9336014-2.2740021,2.6464996  L72.7157974,128h38.7593002c4.3320007,0,8.2207031-3.3993988,8.6151962-7.5986023  C121.1439972,109.2177963,120.9926987,103.1903992,120.9926987,103.1903992z M67.2813034,83.607399  C66.9150009,84.0195007,66.641098,84.4961014,66.4320984,85h-4.8641968c-0.2090034-0.5038986-0.4829025-0.9804993-0.849102-1.392601  L49.0513,73.8711014c0.5223999-0.7881012,0.9775009-1.5644989,1.375-2.3096008C54.3251991,74.4384995,58.971199,76,63.6083984,76  c4.1865005,0,8.3560028-1.2891006,11.967804-4.0067978c0.6468964-0.2734985,1.2831955-0.5634995,1.8959961-0.8887024  c0.4384003,0.8563995,0.9589996,1.767601,1.5669022,2.6913986L67.2813034,83.607399z M68.3451996,4l-0.5692978,3.7372999  C67.748497,7.8305998,67.5830002,7.9814,67.5146027,8l-6.9995041,0.0019999  C60.4179993,7.9814,60.2523994,7.8305998,60.2275009,7.7480001L59.6562996,4H68.3451996z M64.0005035,25  c1.6542969,0,3,1.3456993,3,3s-1.3457031,3-3,3c-1.6543045,0-3.0000038-1.3456993-3.0000038-3S62.346199,25,64.0005035,25z   M50.6283989,10.3765001L51.6152,9.6777l0.4346008-1.1283998c0.5019989-1.3027,2.0410004-3.8013,3.5780983-4.4331002  l0.6450005,4.2344003C56.580101,10.3662004,58.4668007,12,60.4863014,12H62v9.2938995  C59.1088982,22.1548004,57.0004997,24.8295994,57.0004997,28c0,3.8661995,3.1333008,7,7.0000038,7s7-3.1338005,7-7  c0-3.1704006-2.108902-5.8456993-5.0005035-6.7064991V12h1.5146027c2.0195999,0,3.9062958-1.6337996,4.2133942-3.6493998  l0.6455002-4.2373004c1.4698029,0.5996003,2.966301,2.8945003,3.5777054,4.4360003L76.3856964,9.6777l0.9869003,0.6988001  c12.2406998,8.6631002,11.0283051,21.966301,10.9731064,22.5088005L88.3330002,33H84c-1.1044998,0-2,0.8955002-2,2s0.8955002,2,2,2  h7.5938034v0.3334999h0.0545959c0.0064011,0.0698013,0.0131989,0.1405983,0.0201035,0.2113991l0.2333984,3.6777992H88.483902  h-0.9072037l-0.8189011,0.3916016L79.6787033,45H48.3223l-7.0791016-3.3857002l-0.8188972-0.3916016h-0.9071999h-3.4185028  l0.233902-3.6777992c0.0069008-0.0708008,0.0136986-0.1415977,0.0200005-0.2113991h0.0014992V37H44c1.1044998,0,2-0.8955002,2-2  s-0.8955002-2-2-2h-4.3320007l-0.0126991-0.1147003C39.6400986,32.7485008,38.2588005,19.1308994,50.6283989,10.3765001z   M39.9799995,45.4438019L47.4150009,49h33.1708984l7.1006012-3.3959999  c-2.7352982,9.4384995-7.7855988,17.7061005-13.9448013,22.769001C70.8560028,70.7461014,67.3516006,72,63.6083984,72  c-5.2167969,0-10.2875977-2.3730011-13.9120979-6.5106964C45.1230011,60.269001,41.5966988,52.8599014,39.9799995,45.4438019z   M53.5269012,94.7743988L43.653801,80.6572037l1.2860985-0.8330002l0.4394989-0.2851028l0.3520012-0.3877029l1.4644012-1.6181946  l10.6343002,8.8731003c0.2509995,0.4354935,0.2274971,1.1551971-0.0791016,1.5205002l-0.1958008,0.2333984l-0.1581993,0.259697  L53.5269012,94.7743988z M69.9906998,119.3417969c0.0580978,0.2236023-0.1162033,0.7666016-0.3432007,0.9395065  l-4.7802963,3.6385956c-0.1387024,0.1054993-0.5386047,0.1064987-0.6781998,0l-4.780304-3.6376953  c-0.2543983-0.1943054-0.4561005-0.7822037-0.3969994-1.055603L63.4081993,98h1.2773018L69.9906998,119.3417969z M66.5058975,94  h-4.8178978L60.2402,91.4413986L60.8134995,90.5c0.375-0.4462967,0.6509018-0.9589996,0.8480988-1.5h4.6768036  c0.197197,0.5410004,0.4730988,1.0537033,0.8480988,1.5l0.6513977,1.0692978L66.5058975,94z M74.4730988,94.7743988  l-3.8701019-6.3544998l-0.1581955-0.259697l-0.1958008-0.2333984c-0.3066025-0.365303-0.330101-1.0850067-0.0791016-1.5205002  l10.6343002-8.8731003l1.4644012,1.6181946l0.3519974,0.3877029l0.4394989,0.2851028l1.2861023,0.8330002L74.4730988,94.7743988z"/></svg>