<svg xmlns="http://www.w3.org/2000/svg" data-name="Layer 1" viewBox="0 0 128 160" x="0px" y="0px"><title>Miscellaneous 52 expand lines</title><path d="M91.70831,49.85168l2.3316-3.84924a2.0001,2.0001,0,1,0-3.42108-2.07312l-2.3316,3.84924a2.0001,2.0001,0,1,0,3.42108,2.07312Z"/><path d="M94.80511,64.49927a2.00078,2.00078,0,0,0,2.588-3.052L93.80505,58.402a2.00081,2.00081,0,0,0-2.588,3.05206Z"/><path d="M103.96765,52.03027a1.99707,1.99707,0,0,0-2.31946-1.61884L94.06,51.7616a2.00067,2.00067,0,0,0,.3476,3.9704,1.97093,1.97093,0,0,0,.3526-.03125l7.58826-1.35016A2.00078,2.00078,0,0,0,103.96765,52.03027Z"/><path d="M127.19147,123.39166,67.2381,78.894l7.05377-9.44476,50.68268,30.2569a2.02788,2.02788,0,0,0,2.74231-.69263,2.00156,2.00156,0,0,0-.69244-2.74432L76.69934,66.22565l4.47571-5.9928a2.00136,2.00136,0,0,0,.08545-2.27142L72.9906,44.95416C79.046,28.28125,102.49982,20.745,102.74005,20.66876a2.00092,2.00092,0,0,0-.106-3.84827C72.636,9.21289,58.74231,27.84064,57.75446,29.23578L30.43329,64.96722a2.00163,2.00163,0,0,0-.13525,2.23041l5.4187,9.20691-2.07965,2.72089L24.165,75.50281a1.9969,1.9969,0,0,0-2.30286.65363l-6.4198,8.394a6.62132,6.62132,0,0,0-1.31891,4.98059,6.46254,6.46254,0,0,0,2.56995,4.32208L37.0835,108.96191a6.5727,6.5727,0,0,0,3.92847,1.28955,6.8176,6.8176,0,0,0,5.41284-2.66907L52.366,99.80969a2.002,2.002,0,0,0,.09473-2.2959L47.26031,89.405l2.82727-3.69879,8.53949,2.53229a1.99863,1.99863,0,0,0,2.17053-.721l4.04584-5.41724s59.91931,44.47229,59.96405,44.50555a2.02584,2.02584,0,0,0,2.798-.41516A2.00152,2.00152,0,0,0,127.19147,123.39166ZM58.42731,84.00537,49.90393,81.478a1.99755,1.99755,0,0,0-2.15729.70337l-4.51636,5.90771a2.002,2.002,0,0,0-.09473,2.2959l5.2005,8.10876-5.08765,6.65607a2.74155,2.74155,0,0,1-3.783.59692L19.07385,90.637a2.48835,2.48835,0,0,1-.98932-1.66473,2.65088,2.65088,0,0,1,.53473-1.99005l5.51251-7.20807,9.47211,3.62256a2.00438,2.00438,0,0,0,2.30334-.65356l3.80487-4.9776a2.00247,2.00247,0,0,0,.13477-2.23041l-5.41821-9.20691,16.7149-21.86041,4.7431,3.16327a2.00057,2.00057,0,0,0,2.21887-3.32953l-4.52661-3.01886,7.37445-9.64453c.0249-.03223.0517-.06934.07422-.10358.45514-.677,10.57666-15.27191,34.0202-12.12213C86.80328,23.163,73.18005,31.18677,68.88245,44.60632a2.00133,2.00133,0,0,0,.21735,1.68433l8.04474,12.65363Z"/><path d="M17.44684,20.01422q-.35376.37363-.70172.75519a2.00014,2.00014,0,1,0,2.95135,2.70032q.32739-.3576.65967-.70929a2.00036,2.00036,0,1,0-2.9093-2.74622Z"/><path d="M7.28229,38.77777a2.00079,2.00079,0,0,0,2.67151-.93005c.14111-.29114.28418-.58228.42975-.87048a2.00051,2.00051,0,0,0-3.57349-1.79956q-.23135.46161-.457.92712A2.002,2.002,0,0,0,7.28229,38.77777Z"/><path d="M24.28406,13.74109q-.40421.321-.80273.64679a2.00057,2.00057,0,1,0,2.53333,3.097q.37427-.30634.75391-.60767a2.00049,2.00049,0,0,0-2.4845-3.13611Z"/><path d="M2.77032,74.01978a2.00088,2.00088,0,0,0,1.72522-2.24213q-.06226-.47919-.1167-.96033a2.00009,2.00009,0,1,0-3.97485.4494q.05859.51581.12451,1.02679a2.0011,2.0011,0,0,0,1.98108,1.74286A1.96853,1.96853,0,0,0,2.77032,74.01978Z"/><path d="M31.95093,8.52118q-.44531.2579-.88525.52271A2.00067,2.00067,0,1,0,33.12439,12.475q.41382-.24911.83252-.49139a2.00076,2.00076,0,0,0-2.006-3.4624Z"/><path d="M.97095,52.763c-.06006.338-.11719.679-.17139,1.019a2.00019,2.00019,0,0,0,1.65826,2.29193,1.96055,1.96055,0,0,0,.31885.02545A2,2,0,0,0,4.7489,54.415q.077-.47772.16071-.95251A2.00015,2.00015,0,1,0,.97095,52.763Z"/><path d="M3.245,43.76227q-.16187.48944-.317.98181a2.00021,2.00021,0,1,0,3.81567,1.20166q.14639-.466.30029-.931a2.00007,2.00007,0,1,0-3.799-1.25244Z"/><path d="M.02368,61.99628q-.0162.5159-.02344,1.03265A2.001,2.001,0,0,0,1.971,65.05908h.02979a2.00072,2.00072,0,0,0,1.99963-1.9715q.0065-.485.02142-.9682A2.0002,2.0002,0,0,0,2.08423,60.058,1.95831,1.95831,0,0,0,.02368,61.99628Z"/><path d="M66.55328.0011a2.00055,2.00055,0,0,0-.16412,3.99774c.32422.01367.648.02832.97076.04688.03809.002.07568.00293.11328.00293A2.00093,2.00093,0,0,0,67.58258.04993Q67.06915.02209,66.55328.0011Z"/><path d="M75.77728,1.04352A2.00087,2.00087,0,0,0,75.04,4.97675q.47763.08945.95221.18665a2.00086,2.00086,0,0,0,.79694-3.92157Q76.28439,1.13928,75.77728,1.04352Z"/><path d="M40.28784,4.46777q-.4769.192-.94885.38788A2.001,2.001,0,1,0,40.881,8.54858c.29742-.12506.59576-.24622.89606-.36639a2.00092,2.00092,0,0,0-1.48926-3.71442Z"/><path d="M83.453,7.20227q.45557.15683.9082.32147a2.00067,2.00067,0,0,0,1.37024-3.7594q-.48788-.17871-.97858-.3468A2.00086,2.00086,0,0,0,83.453,7.20227Z"/><path d="M49.1413,1.67072q-.50107.11874-1.00055.24524a2.00087,2.00087,0,0,0,.98535,3.87854c.313-.08014.62653-.15631.941-.23157a2.0004,2.0004,0,0,0-.92578-3.89221Z"/><path d="M57.27881.29028A2.0008,2.0008,0,0,0,57.482,4.28119a1.86691,1.86691,0,0,0,.208-.01074q.4812-.0499.96539-.09186a2.00071,2.00071,0,0,0-.35059-3.986C57.96155.22284,57.62018.25513,57.27881.29028Z"/><path d="M64.61267,123.99445l-.67627.00391-.27979-.001h-.02a2.00088,2.00088,0,0,0-.019,4.00165l.31885.001.72614-.00391a2.001,2.001,0,0,0-.04987-4.00165Z"/><path d="M47.41461,121.68976c-.31006-.08887-.61969-.18073-.92682-.27356a2.00043,2.00043,0,0,0-1.16412,3.82776q.49292.151.9903.29309a2.00082,2.00082,0,0,0,1.10065-3.84729Z"/><path d="M55.92822,123.46783q-.47827-.06445-.95416-.1358a2.00088,2.00088,0,0,0-.59863,3.95673q.51114.07764,1.02539.14557a2.04792,2.04792,0,0,0,.26611.01758,2.00082,2.00082,0,0,0,.26129-3.98407Z"/><path d="M39.24475,118.68658c-.29443-.13287-.5874-.26965-.87891-.40741a2.001,2.001,0,0,0-1.709,3.61871q.468.22128.94043.43475a2.0005,2.0005,0,0,0,1.64752-3.64606Z"/><path d="M81.76349,121.3c-.30768.0957-.61627.18951-.92633.27942a2.00123,2.00123,0,1,0,1.12408,3.84137q.49585-.14648.98779-.299A2.00075,2.00075,0,0,0,81.76349,121.3Z"/><path d="M73.287,123.27246q-.47543.07471-.9527.14069a2.0011,2.0011,0,0,0,.27252,3.98309,2.05634,2.05634,0,0,0,.27728-.01855q.51425-.07187,1.025-.1524a2.00073,2.00073,0,0,0-.62207-3.95282Z"/><path d="M6.23779,80.30267q-.1311-.466-.25537-.934A2.00011,2.00011,0,1,0,2.116,80.39447q.13193.49823.272.99457a2.00093,2.00093,0,0,0,1.92389,1.45862,1.97973,1.97973,0,0,0,.544-.07623A2.00068,2.00068,0,0,0,6.23779,80.30267Z"/><path d="M31.60138,114.5257q-.40878-.26376-.81354-.53247a2.00071,2.00071,0,0,0-2.2135,3.33344q.4292.28427.86285.56372a2.0003,2.0003,0,0,0,2.16418-3.36469Z"/><path d="M9.19983,88.47888q-.19629-.43817-.38623-.88123a2,2,0,1,0-3.67694,1.57483c.13525.31653.27295.63019.41364.94379a2,2,0,1,0,3.64954-1.63739Z"/><path d="M12.80743,95.32153a2.00041,2.00041,0,1,0-3.41229,2.08875q.26962.4411.54694.87634a2.0002,2.0002,0,1,0,3.37518-2.1474Q13.05936,95.73328,12.80743,95.32153Z"/><path d="M14.8559,29.50446a2.00025,2.00025,0,1,0-3.27747-2.29395q-.29526.42206-.585.848a2.00062,2.00062,0,1,0,3.31073,2.247Q14.5766,29.90253,14.8559,29.50446Z"/><path d="M17.8775,102.39081a2.0006,2.0006,0,0,0-3.07532,2.55969q.33115.39706.66852.78937a2.00077,2.00077,0,0,0,3.02942-2.61438Q18.18591,102.76212,17.8775,102.39081Z"/><path d="M23.91351,108.65906a2.0007,2.0007,0,0,0-2.675,2.97583q.38379.34433.77393.68384a2.0003,2.0003,0,0,0,2.62518-3.0188Q24.2728,108.98187,23.91351,108.65906Z"/><path d="M96.23291,116.52655l-7.89636-.934a2.001,2.001,0,0,0-.46979,3.9743l4.45435.52661-2.68274,3.59229a2.00034,2.00034,0,1,0,3.20422,2.39551l4.75757-6.36981a2.001,2.001,0,0,0-1.36725-3.18488Z"/></svg>