<svg xmlns="http://www.w3.org/2000/svg" data-name="Layer 1" viewBox="0 0 128 160" x="0px" y="0px"><title>Miscellaneous 24 final</title><path d="M115,99.52a14.61,14.61,0,0,0-11.31-5.33H91.35A9.36,9.36,0,0,1,82,84.84v-.21A33,33,0,0,0,97,57V51.79c2.9-1.17,6.35-4.6,7.56-9.78a17.12,17.12,0,0,0,.37-2.3C119,37.75,121,35.34,121,33s-2.16-4.93-17.86-6.93l-.42,0A30,30,0,0,0,73,0H55A30,30,0,0,0,25.27,26l-.42,0C9.16,28.08,7,30.59,7,33s2.16,4.93,17.86,6.93l.24,0A23,23,0,0,0,31,54.31V57a32.76,32.76,0,0,0,9.67,23.32A33.29,33.29,0,0,0,46,84.65v.19a9.36,9.36,0,0,1-9.35,9.35H24.28A14.61,14.61,0,0,0,13,99.52L.46,114.71a2,2,0,0,0,3.09,2.54l12.51-15.18a10.63,10.63,0,0,1,8.23-3.88h4v6A13.5,13.5,0,0,0,41,117.69V126a2,2,0,0,0,4,0V109a2,2,0,0,1,1.91-2H53.5a3.73,3.73,0,0,0,3.69-3.36l1-2.77a1.25,1.25,0,0,1,1.17-.87h9.38a1.26,1.26,0,0,1,1.17.87l1,2.77A3.73,3.73,0,0,0,74.5,107h6.59A2,2,0,0,1,83,109v17a2,2,0,0,0,4,0v-8.28a13.5,13.5,0,0,0,12.75-13.46v-6h4a10.63,10.63,0,0,1,8.23,3.88l12.51,15.18a2,2,0,1,0,3.09-2.54ZM100.66,41.1a10.58,10.58,0,0,1-4.46,6.63L96,47.49v0c-1.65-1.92-2-4.68-2.09-6.58,2.42-.2,4.74-.42,6.92-.67C100.77,40.52,100.73,40.81,100.66,41.1ZM11.58,33C13.42,32,18,31,25,30.08A2,2,0,0,0,29,30,26,26,0,0,1,55,4H73A26,26,0,0,1,99,30a2,2,0,0,0,4,.06c7,.9,11.59,2,13.42,2.94-4.24,2.25-23.18,5-52.42,5S15.82,35.26,11.58,33Zm17.58,7.42c2.6.27,5.37.51,8.28.71.15,1.91-.34,5.31-4,9.94A18.9,18.9,0,0,1,29.16,40.44ZM43.49,77.5A28.8,28.8,0,0,1,35,57V55.41l.08-.07c5.34-5.95,6.44-10.8,6.35-13.94,7,.4,14.66.61,22.57.61,9.18,0,18-.28,25.9-.82.09,2.54.69,6.15,3,8.88l.07.07V57A29,29,0,0,1,43.49,77.5Zm52.26,26.73A9.5,9.5,0,0,1,87,113.69V109a6,6,0,0,0-5.91-6H74.77a2,2,0,0,0-.09-.4l-1-3a5.26,5.26,0,0,0-5-3.57H59.31a5.26,5.26,0,0,0-5,3.57l-1,3a2,2,0,0,0-.09.4H46.91A6,6,0,0,0,41,109v4.71a9.5,9.5,0,0,1-8.75-9.46v-6h4.4A13.36,13.36,0,0,0,49.84,86.81a33.06,33.06,0,0,0,28.32,0,13.36,13.36,0,0,0,13.19,11.4h4.4Z"/><path d="M67.11,64.21,64,65.76l-3.11-1.55a2,2,0,1,0-1.79,3.58l4,2a2,2,0,0,0,1.79,0l4-2a2,2,0,1,0-1.79-3.58Z"/><path d="M63.33,111a15,15,0,0,0-15,15,2,2,0,0,0,4,0,11,11,0,0,1,22,0,2,2,0,0,0,4,0A15,15,0,0,0,63.33,111Z"/><path d="M63.33,118.93a7.11,7.11,0,0,0-7.1,7.1,2,2,0,0,0,4,0,3.1,3.1,0,0,1,6.21,0,2,2,0,0,0,4,0A7.11,7.11,0,0,0,63.33,118.93Z"/><path d="M61,54c0-.07,0-.14,0-.21a6.12,6.12,0,0,1,6,0c0,.07,0,.14,0,.21a8,8,0,1,0,1.16-4.13,10.47,10.47,0,0,0-8.33,0A8,8,0,1,0,61,54Zm14-4a4,4,0,1,1-4,4A4,4,0,0,1,75,50ZM53,58a4,4,0,1,1,4-4A4,4,0,0,1,53,58Z"/><path d="M22,114a2,2,0,0,0-2,2v10a2,2,0,0,0,4,0V116A2,2,0,0,0,22,114Z"/><path d="M105,114a2,2,0,0,0-2,2v10a2,2,0,0,0,4,0V116A2,2,0,0,0,105,114Z"/><path d="M72.42,76.54a1,1,0,0,0-.2-1.63,10.06,10.06,0,0,0-4.47-1.18A6.73,6.73,0,0,0,64,74.83a6.73,6.73,0,0,0-3.76-1.11,10.06,10.06,0,0,0-4.47,1.18,1,1,0,0,0-.2,1.63,12.46,12.46,0,0,0,16.85,0Z"/></svg>