<svg xmlns="http://www.w3.org/2000/svg" data-name="Isolation Mode" viewBox="0 0 128 160" x="0px" y="0px"><title>miscellaneous 332_expandline</title><g data-name="Layer 1"><path d="M64,52.93688a6.99978,6.99978,0,1,0-7-6.99978A7.00807,7.00807,0,0,0,64,52.93688Zm0-9.99968a2.9999,2.9999,0,1,1-3,2.9999A3.00323,3.00323,0,0,1,64,42.93719Z"/><path d="M23,71.00006H19a1.99994,1.99994,0,1,0,0,3.99987h4a1.99994,1.99994,0,1,0,0-3.99987Z"/><path d="M23,79.00019H19a1.99994,1.99994,0,1,0,0,3.99987h4a1.99994,1.99994,0,1,0,0-3.99987Z"/><path d="M23,86.99994H19a1.99994,1.99994,0,1,0,0,3.99987h4a1.99994,1.99994,0,1,0,0-3.99987Z"/><path d="M23,95.00006H19a1.99994,1.99994,0,1,0,0,3.99987h4a1.99994,1.99994,0,1,0,0-3.99987Z"/><path d="M105.05371,74.99994h4a1.99994,1.99994,0,1,0,0-3.99987h-4a1.99994,1.99994,0,1,0,0,3.99987Z"/><path d="M105.05371,83.00006h4a1.99994,1.99994,0,1,0,0-3.99987h-4a1.99994,1.99994,0,1,0,0,3.99987Z"/><path d="M105.05371,90.99981h4a1.99994,1.99994,0,1,0,0-3.99987h-4a1.99994,1.99994,0,1,0,0,3.99987Z"/><path d="M105.05371,98.99994h4a1.99994,1.99994,0,1,0,0-3.99987h-4a1.99994,1.99994,0,1,0,0,3.99987Z"/><path d="M45,63.00006H41a1.99994,1.99994,0,1,0,0,3.99987h4a1.99994,1.99994,0,1,0,0-3.99987Z"/><path d="M83,66.99994h4a1.99994,1.99994,0,1,0,0-3.99987H83a1.99994,1.99994,0,1,0,0,3.99987Z"/><path d="M124,112.35041v-2.34947a5.99829,5.99829,0,0,0-3.001-5.18868l.001-33.376a4.04727,4.04727,0,0,0,4-4.08434V63.1826a4.04727,4.04727,0,0,0-4-4.08434l-20-.00165v4l20,.00153v4.33824h-2.001a2.00007,2.00007,0,0,0-2,1.99994v34.56482H97v-49.223a6.01618,6.01618,0,0,0-6-6.01885H81.917c.05469-.56639.083-1.12887.083-1.68354A18.0693,18.0693,0,0,0,66,29.119v-9.626c.912-.62059,1.85089-.30785,4.06836.86032a11.16025,11.16025,0,0,0,5.02929,1.64985c1.784,0,4.90235-1.26472,4.90235-3.41981V7.41973a2.00018,2.00018,0,0,0-3.4502-1.3774c-1.13867,1.19869-1.96094,1.00729-4.61816-.39257-2.39258-1.25875-6.00781-3.16006-9.38135.39257A1.998,1.998,0,0,0,62,7.41973V29.119A18.069,18.069,0,0,0,46,47.07569q0,.83274.083,1.68354H37a6.01618,6.01618,0,0,0-6,6.01885v49.223H11.00146V69.43631a2.00007,2.00007,0,0,0-2-1.99994L7,67.3519V63.09813l20-.00153v-4L7,59.09826A4.04759,4.04759,0,0,0,3,63.1826v4.1693a4.04759,4.04759,0,0,0,4,4.08434L7.0014,104.812A5.99827,5.99827,0,0,0,4,110.00093v2.34947a6.0046,6.0046,0,0,0-4,5.64978v3.99987A2.00007,2.00007,0,0,0,2,124H126a2.00007,2.00007,0,0,0,2-1.99994v-3.99987A6.0046,6.0046,0,0,0,124,112.35041ZM8,110.00093a2.002,2.002,0,0,1,2-1.99994H118a2.00226,2.00226,0,0,1,2,1.99994v1.99945H8Zm67-5.99981H53V86.489A10.50111,10.50111,0,0,1,63.48926,76.00006h1.02148A10.50079,10.50079,0,0,1,75,86.489ZM70.06836,9.18969c1.584.83347,3.70508,1.94867,5.93164,1.57661v6.92214c-.91211.61912-1.85254.29247-4.06836-.875a11.16022,11.16022,0,0,0-5.0293-1.64985A5.50245,5.50245,0,0,0,66,15.23686V8.31472C66.91113,7.69511,67.85156,8.02176,70.06836,9.18969ZM35,54.77808a2.0117,2.0117,0,0,1,2-2.019H48.43845a2.02219,2.02219,0,0,0,1.94778-2.455A14.216,14.216,0,0,1,50,47.07569a14.0002,14.0002,0,1,1,28,0,14.27255,14.27255,0,0,1-.38572,3.2288,2.0196,2.0196,0,0,0,1.94724,2.45462H91a2.012,2.012,0,0,1,2,2.019v49.223H79V86.489a14.50562,14.50562,0,0,0-14.48926-14.4888H63.48926A14.50562,14.50562,0,0,0,49,86.489v17.51214H35Zm89,65.222H4v-1.99994a2.002,2.002,0,0,1,2-1.99994H122a2.00226,2.00226,0,0,1,2,1.99994Z"/></g></svg>