<svg xmlns="http://www.w3.org/2000/svg" version="1.1" viewBox="-5.0 -10.0 110.0 135.0">
 <path d="m61.859 32.266c0.54297 0 1.0469-0.28125 1.3359-0.74219 0.33203-0.53906 0.30859-1.2227-0.0625-1.7344-0.37109-0.51562-1.0117-0.75391-1.6289-0.60937-0.61328 0.14453-1.082 0.64453-1.1836 1.2695-0.10156 0.625 0.17969 1.25 0.71875 1.582 0.24609 0.15625 0.53125 0.23828 0.82031 0.23438z"/>
 <path d="m67.672 35.75c0.46094-0.42969 0.61719-1.0977 0.39453-1.6875-0.21875-0.59375-0.77734-0.99219-1.4062-1.0156-0.63281-0.019531-1.2148 0.33984-1.4766 0.91406-0.26172 0.57422-0.15234 1.25 0.27734 1.7109 0.28125 0.30469 0.67578 0.48438 1.0898 0.5 0.41406 0.011719 0.81641-0.13672 1.1211-0.42188z"/>
 <path d="m69.422 38.242c-0.058594 0.03125-0.11328 0.066406-0.16406 0.10937 0.48438-0.074218 0.92578-0.14453 1.3359-0.21094v-0.003906c-0.38672-0.12109-0.80859-0.082031-1.1719 0.10547z"/>
 <path d="m56.242 29.781c0.82422 0.003906 1.5117-0.62891 1.5703-1.4492 0.0625-0.82031-0.51953-1.5508-1.3359-1.668-0.81641-0.12109-1.582 0.41016-1.7578 1.2148-0.17578 0.80469 0.30469 1.6094 1.0938 1.8398 0.14062 0.042969 0.28516 0.0625 0.42969 0.0625z"/>
 <path d="m44.078 29.695c0.13672-0.003906 0.27344-0.023437 0.40625-0.054687v-0.007813c0.76953-0.22656 1.2305-1.0156 1.0547-1.7969-0.17578-0.78516-0.92578-1.2969-1.7188-1.1758-0.79687 0.12109-1.3594 0.83984-1.2891 1.6406 0.066406 0.79688 0.74219 1.4102 1.5469 1.3945z"/>
 <path d="m26.352 44.75c-0.089843 0.40625-0.015624 0.82812 0.20703 1.1797 0.22266 0.35156 0.57422 0.59766 0.98047 0.6875 0.11328 0.023437 0.22656 0.03125 0.34375 0.03125 0.60156-0.003907 1.1445-0.34766 1.4062-0.89063 0.25781-0.54297 0.17969-1.1836-0.19531-1.6523-0.37891-0.46875-0.98828-0.67578-1.5742-0.53906-0.58594 0.13672-1.0391 0.59766-1.168 1.1836z"/>
 <path d="m29.281 40.711c0.22656 0.12109 0.47656 0.17969 0.73438 0.17969 0.78516-0.003906 1.4453-0.59375 1.5352-1.3711 0.09375-0.78125-0.41016-1.5078-1.1719-1.6953-0.76172-0.1875-1.5469 0.22266-1.8242 0.95703-0.28125 0.73438 0.03125 1.5625 0.72656 1.9297z"/>
 <path d="m38.422 32.094c0.5625 0.003906 1.0859-0.30078 1.3633-0.78906 0.28125-0.49219 0.27344-1.0938-0.019531-1.5781-0.28516-0.47656-0.80469-0.76562-1.3594-0.76172-0.55859 0.007812-1.0703 0.30859-1.3438 0.79297-0.27344 0.48438-0.26953 1.0781 0.007812 1.5586 0.28125 0.48047 0.79297 0.77734 1.3516 0.77734z"/>
 <path d="m50.164 28.906c0.85938-0.003906 1.5547-0.69922 1.5547-1.5625 0-0.85938-0.69922-1.5547-1.5586-1.5547s-1.5586 0.69531-1.5586 1.5547c0 0.86328 0.69531 1.5586 1.5547 1.5625z"/>
 <path d="m34.75 35.438c0.4375-0.45703 0.55469-1.1328 0.29688-1.7109-0.25391-0.57812-0.83203-0.94531-1.4648-0.92969-0.63281 0.019531-1.1914 0.41406-1.418 1.0039-0.22656 0.58984-0.074218 1.2578 0.38281 1.6914 0.28906 0.27734 0.67578 0.43359 1.0781 0.42969 0.42578 0 0.83203-0.17578 1.125-0.48438z"/>
 <path d="m51.562 10.938v-9.375c0-0.86328-0.69922-1.5625-1.5625-1.5625s-1.5625 0.69922-1.5625 1.5625v9.375c0 0.86328 0.69922 1.5625 1.5625 1.5625s1.5625-0.69922 1.5625-1.5625z"/>
 <path d="m50 87.5c-0.86328 0-1.5625 0.69922-1.5625 1.5625v9.375c0 0.86328 0.69922 1.5625 1.5625 1.5625s1.5625-0.69922 1.5625-1.5625v-9.375c0-0.86328-0.69922-1.5625-1.5625-1.5625z"/>
 <path d="m83.145 14.645-6.6289 6.6289c-0.29297 0.29297-0.45703 0.69141-0.45703 1.1055-0.003906 0.41406 0.16406 0.8125 0.45703 1.1055s0.69141 0.46094 1.1055 0.45703c0.41406 0 0.8125-0.16406 1.1055-0.45703l6.6289-6.6289c0.60547-0.61328 0.60547-1.5977-0.003907-2.207-0.60937-0.60938-1.5938-0.60938-2.207-0.003907z"/>
 <path d="m21.273 76.516-6.6289 6.6289c-0.29297 0.29297-0.45703 0.69141-0.45703 1.1055s0.16406 0.8125 0.45703 1.1055 0.69141 0.45703 1.1055 0.45703 0.8125-0.16406 1.1055-0.45703l6.6289-6.6289c0.60547-0.60937 0.60547-1.5977-0.003906-2.207s-1.5977-0.60938-2.207-0.003906z"/>
 <path d="m78.727 76.516c-0.60937-0.60547-1.5977-0.60547-2.207 0.003906s-0.60938 1.5977-0.003906 2.207l6.6289 6.6289c0.61328 0.60938 1.5977 0.60547 2.207-0.003907 0.60938-0.60937 0.61328-1.5938 0.003907-2.207z"/>
 <path d="m22.379 23.941c0.63281 0 1.1992-0.38281 1.4414-0.96484 0.24219-0.58203 0.10938-1.2578-0.33594-1.7031l-6.6289-6.6289c-0.61328-0.60938-1.5977-0.60547-2.207 0.003907-0.60938 0.60937-0.61328 1.5938-0.003907 2.207l6.6289 6.6289c0.29297 0.29297 0.69141 0.45703 1.1055 0.45703z"/>
 <path d="m98.438 48.438h-9.375c-0.86328 0-1.5625 0.69922-1.5625 1.5625s0.69922 1.5625 1.5625 1.5625h9.375c0.86328 0 1.5625-0.69922 1.5625-1.5625s-0.69922-1.5625-1.5625-1.5625z"/>
 <path d="m12.5 50c0-0.86328-0.69922-1.5625-1.5625-1.5625h-9.375c-0.86328 0-1.5625 0.69922-1.5625 1.5625s0.69922 1.5625 1.5625 1.5625h9.375c0.86328 0 1.5625-0.69922 1.5625-1.5625z"/>
 <path d="m35.953 84.77c-0.80078-0.32031-1.7109 0.0625-2.0352 0.86328l-1.7578 4.3438v0.003907c-0.32031 0.79688 0.066406 1.7109 0.86719 2.0312 0.79688 0.32422 1.7109-0.0625 2.0312-0.86328l1.7578-4.3438c0.32031-0.80078-0.0625-1.7109-0.86328-2.0352z"/>
 <path d="m64.633 15.344c0.63672 0 1.2109-0.38672 1.4492-0.97656l1.7578-4.3438v-0.003907c0.32031-0.79688-0.066406-1.7109-0.86719-2.0312-0.79688-0.32422-1.7109 0.0625-2.0312 0.86328l-1.7578 4.3438c-0.19141 0.48438-0.13672 1.0312 0.15625 1.4609 0.28906 0.42969 0.77344 0.6875 1.293 0.6875z"/>
 <path d="m10.02 32.164c-0.80078-0.32422-1.7109 0.0625-2.0312 0.86328-0.32422 0.80078 0.0625 1.7109 0.86328 2.0312l4.3477 1.7539-0.003907 0.003906c0.80078 0.32422 1.7109-0.0625 2.0352-0.86328s-0.0625-1.7109-0.86328-2.0352z"/>
 <path d="m91.148 64.941-4.3477-1.7539 0.003907-0.003906c-0.80078-0.32422-1.7109 0.0625-2.0352 0.86328s0.0625 1.7109 0.86328 2.0352l4.3477 1.7539c0.80078 0.32422 1.7109-0.0625 2.0312-0.86328 0.32422-0.80078-0.0625-1.7109-0.86328-2.0312z"/>
 <path d="m32.297 8.2891c-0.38281 0.16406-0.68359 0.46875-0.83984 0.85547-0.15625 0.38281-0.15234 0.8125 0.011719 1.1953l1.832 4.3125c0.33594 0.79688 1.2539 1.1641 2.0469 0.82812 0.38281-0.16016 0.68359-0.46875 0.83594-0.85156 0.15625-0.38672 0.15234-0.81641-0.007813-1.1953l-1.832-4.3164c-0.16016-0.37891-0.46875-0.68359-0.85156-0.83594-0.38672-0.15625-0.81641-0.15234-1.1953 0.007812z"/>
 <path d="m66.699 85.348c-0.33594-0.79688-1.2539-1.1641-2.0469-0.82812-0.79297 0.33594-1.1641 1.2539-0.82812 2.0469l1.832 4.3164c0.33594 0.79297 1.2539 1.1641 2.0469 0.82813 0.38281-0.16406 0.68359-0.46875 0.83984-0.85547 0.15625-0.38281 0.15234-0.8125-0.011719-1.1953z"/>
 <path d="m15.48 64.652c-0.33594-0.79297-1.2539-1.1641-2.0469-0.82812l-4.3164 1.832c-0.38281 0.16016-0.68359 0.46875-0.83984 0.85156-0.15625 0.38672-0.15234 0.81641 0.007812 1.1992 0.16406 0.38281 0.47266 0.68359 0.85547 0.83984 0.38672 0.15234 0.81641 0.14844 1.1992-0.015625l4.3125-1.832c0.38281-0.16016 0.68359-0.46875 0.83984-0.85156 0.15625-0.38281 0.15234-0.8125-0.011719-1.1953z"/>
 <path d="m65.426 63.281c0.1875 0.003906 0.37109 0.003906 0.55469 0.003906 5.9883 0 10.57-1.8828 13.625-5.5977 6.2461-7.5938 3.6562-19.996 3.543-20.52-0.11719-0.53906-0.51172-0.97656-1.0391-1.1523-0.52344-0.17188-1.1016-0.054687-1.5195 0.30859-4.8555 4.2617-5.5 4.3516-13.379 5.4805-0.83984 0.12109-1.7578 0.25-2.7617 0.39844-3.9297 0.57812-6.8633 2.2031-8.7266 4.832-2.9531 4.1719-1.9961 9.2969-1.957 9.5117v0.003906c0.16406 0.84375 0.98438 1.3984 1.832 1.2344 0.40625-0.082031 0.76562-0.32031 0.99609-0.66406s0.31641-0.76172 0.23828-1.1719c-0.007812-0.039063-0.75-4.0156 1.4375-7.1094 1.3477-1.9023 3.5781-3.0977 6.6289-3.5469 1-0.14844 1.9141-0.27734 2.75-0.39844 7.0039-1 8.9375-1.2773 12.828-4.3867 0.37109 3.7695 0.42578 10.684-3.2852 15.195-2.5117 3.0547-6.4648 4.5469-11.707 4.4531-0.85547 0-1.5586 0.67578-1.5898 1.5312-0.019531 0.86328 0.66797 1.5781 1.5312 1.5938z"/>
 <path d="m55.316 68.211c0.11719 0.75391 0.76562 1.3125 1.5273 1.3203h0.019531c0.75391 0 1.4023-0.54297 1.5352-1.2891 2.3008-12.965 14.801-18.098 14.93-18.148 0.80078-0.31641 1.1914-1.2266 0.875-2.0273-0.32031-0.80078-1.2266-1.1914-2.0273-0.875-0.51172 0.20312-11.27 4.582-15.551 15.781-1.8945-3.3984-5.6797-7.3906-13.023-7.5039-10.141-0.16016-13.926-1.0352-15-3.4805h0.003907c-0.29688-0.66797-1.0117-1.043-1.7305-0.90625-0.71484 0.14062-1.2422 0.75781-1.2617 1.4883-0.015625 0.52734-0.31641 13.012 7.1445 19.355l-0.003906-0.003906c2.875 2.3906 6.5273 3.6484 10.266 3.5391 1.6016-0.011719 3.1953-0.17578 4.7656-0.48828 0.40625-0.082031 0.76562-0.32031 1-0.66406 0.23047-0.34375 0.31641-0.76562 0.23828-1.1719-0.082032-0.40625-0.32031-0.76562-0.66406-0.99609s-0.76562-0.31641-1.1719-0.23828c-5.1875 1.0156-9.3594 0.22266-12.398-2.3555-3.9688-3.3672-5.3398-9.125-5.8125-12.969 2.9414 1.5039 7.6328 1.9062 14.578 2.0156 10.105 0.16016 11.699 9.2344 11.762 9.6172z"/>
 <path d="m84.633 33.914c0.73047 0.61719 1.2539 1.4453 1.5039 2.3672 0.14844-0.011719 0.29297-0.050781 0.42969-0.10547l4.3164-1.832c0.79297-0.33594 1.1641-1.2539 0.82813-2.0508-0.33984-0.79297-1.2539-1.1641-2.0508-0.82422l-4.3125 1.832c-0.29688 0.125-0.54688 0.33984-0.71484 0.61328z"/>
 <path d="m82.02 59.676c-1.043 1.2656-2.2539 2.3789-3.6055 3.3047-3.5703 7.7617-10.148 13.734-18.219 16.539-5.5742-13.051-21.172-18.191-21.852-18.406-0.82031-0.26172-1.6992 0.1875-1.9609 1.0078-0.26562 0.82422 0.1875 1.6992 1.0078 1.9648 0.15234 0.046874 14.613 4.8086 19.781 16.324-7.5938 1.793-15.582 0.67969-22.398-3.1211-6.8125-3.7969-11.957-10.008-14.426-17.41-2.4688-7.3984-2.0781-15.457 1.0938-22.586 3.1719-7.125 8.8945-12.809 16.047-15.934 7.1484-3.1211 15.207-3.4531 22.59-0.9375 7.3828 2.5195 13.559 7.7109 17.312 14.551 0.34766-0.29688 0.72266-0.62891 1.1406-0.99609h-0.003906c0.41797-0.35937 0.89453-0.64453 1.4102-0.83984-5.3008-9.3984-14.703-15.762-25.395-17.188-10.695-1.4219-21.438 2.2578-29.012 9.9414-7.5703 7.6836-11.098 18.477-9.5195 29.148 1.5781 10.672 8.0742 19.984 17.547 25.145 9.4727 5.1641 20.82 5.5781 30.645 1.1211 9.8242-4.457 16.984-13.27 19.336-23.801-0.45312 0.76172-0.96094 1.4883-1.5195 2.1719z"/>
</svg>