<svg xmlns="http://www.w3.org/2000/svg" data-name="Layer 1" viewBox="0 0 128 160" x="0px" y="0px"><title>miscellaneous 37 final</title><path d="M125.65,25,106,28.54V24a4,4,0,0,0-4-4H26a4,4,0,0,0-4,4v4.54L2.35,25A2,2,0,0,0,0,27v76a2,2,0,0,0,2.35,2L22,101.46V108a4,4,0,0,0,4,4h76a4,4,0,0,0,4-4v-6.54L125.65,105a2,2,0,0,0,2.35-2V27a2,2,0,0,0-2.35-2ZM26,24h76v5.25L97.82,30H30.18L26,29.25ZM89.86,72c-.6,6.29-.35,14.72,1.53,26H85.45c-2-11.64-2.18-20-1.54-26H79.86c-.6,6.29-.35,14.73,1.54,26H66V68H96V98h-.55c-2-11.64-2.18-20-1.54-26ZM66,64V34h3c-.07,3.42.29,9.76,3.39,15.09a17,17,0,0,0,11.93,8.33A18.61,18.61,0,0,0,82.84,60h4.65a8.65,8.65,0,0,1,1.89-2.17h4.69A18.81,18.81,0,0,0,92.85,60H96v4ZM82.39,49.05a17.34,17.34,0,0,0,3.82,4.6,13.23,13.23,0,0,1-10.35-6.58C73.23,42.55,73,36.89,73,34h6C78.94,37.4,79.3,43.72,82.39,49.05Zm3.46-2C83.22,42.51,82.95,36.88,83,34h6c-.07,3.4.29,9.72,3.39,15.05A17.39,17.39,0,0,0,96,53.46v.16A13.15,13.15,0,0,1,85.86,47Zm10,0C93.22,42.51,92.95,36.88,93,34h3V47.26C96,47.19,95.9,47.12,95.86,47ZM48,72h-4c.63,6,.43,14.35-1.56,26H36.43C38.31,86.72,38.56,78.29,38,72H33.91c.64,6,.45,14.36-1.54,26H32V68H62V98H46.43C48.31,86.73,48.56,78.29,48,72ZM32,64V60h3a19.14,19.14,0,0,0-1.21-2.17h4.69A8.45,8.45,0,0,1,40.36,60H45a18.62,18.62,0,0,0-1.49-2.58,17,17,0,0,0,11.93-8.37c3.1-5.33,3.46-11.65,3.39-15.05H62V64Zm3.42-14.95c3.1-5.33,3.46-11.65,3.39-15.05h6c.06,2.88-.21,8.51-2.85,13a13.11,13.11,0,0,1-10,6.54v-.29A17.42,17.42,0,0,0,35.42,49.05ZM32,47V34h2.81C34.87,36.86,34.59,42.45,32,47ZM48.81,34h6c.06,2.88-.21,8.51-2.85,13a13.19,13.19,0,0,1-10.35,6.61,17.33,17.33,0,0,0,3.81-4.6C48.52,43.72,48.88,37.4,48.81,34ZM4,100.61V29.39l24,4.29V96.33ZM26,108v-6h76v6Zm98-7.39-24-4.29V33.67l24-4.29Z"/><path d="M105.67,94l12,2,.33,0a2,2,0,0,0,2-2V36a2,2,0,0,0-2.33-2l-12,2A2,2,0,0,0,104,38V92A2,2,0,0,0,105.67,94ZM108,39.69l8-1.33V62.31l-8,1.33Zm0,28,8-1.33V91.64l-8-1.33Z"/><path d="M22.33,36l-12-2A2,2,0,0,0,8,36V94a2,2,0,0,0,2,2l.33,0,12-2A2,2,0,0,0,24,92V38A2,2,0,0,0,22.33,36ZM20,90.31l-8,1.33V66.36l8,1.33Zm0-26.67-8-1.33V38.36l8,1.33Z"/></svg>