<svg xmlns="http://www.w3.org/2000/svg" data-name="Layer 1" viewBox="0 0 128 160" x="0px" y="0px"><title>Miscellaneous 80 final</title><path d="M90.31317,51.75879a4,4,0,0,0-6.62628,0l-9,13.30463a3.99966,3.99966,0,0,0-.67041,2.6037l2.52,27.69531A4,4,0,0,0,80.52,99H93.48a4,4,0,0,0,3.98352-3.63757l2.52-27.69531a4,4,0,0,0-.67041-2.6037ZM85,95H80.52l-.51184-5.625H85Zm0-9.625H79.64423l-.546-6H85Zm0-10H78.73431l-.546-6H85Zm0-10H79.3053L85,56.9566Zm4-8.4184,5.6947,8.4184H89ZM93.48,95H89V89.375h4.99182Zm.87579-9.625H89v-6h5.90173Zm.90985-10H89v-6h6.81165Z"/><path d="M30.53644,95.36243A4.00007,4.00007,0,0,0,34.52,99H47.48a4,4,0,0,0,3.98352-3.63757l2.52-27.69537a3.99985,3.99985,0,0,0-.67041-2.60364l-9-13.30463a4,4,0,0,0-6.62628,0l-9,13.30463a3.99949,3.99949,0,0,0-.67041,2.60364ZM43,56.9566l5.6947,8.4184H43ZM43,69.375h6.81165l-.546,6H43Zm0,10h5.90173l-.5459,6H43Zm0,10h4.99182L47.48,95H43ZM39,95H34.52l-.51184-5.625H39Zm0-9.625H33.64423l-.546-6H39Zm0-28.4184V65.375H33.3053ZM39,69.375v6H32.73431l-.546-6Z"/><path d="M116,52a4,4,0,0,0,4-4V44h4a4,4,0,0,0,4-4V36a4,4,0,0,0-4-4V28a4,4,0,0,0-4-4h-1V20a4,4,0,0,0-4-4h-9.21643L65.45325.27332a4,4,0,0,0-2.90643,0L22.21649,16H13a4,4,0,0,0-4,4v4H8a4,4,0,0,0-4,4v4a4,4,0,0,0-4,4v4a4,4,0,0,0,4,4H8v4a4,4,0,0,0,4,4v48a4,4,0,0,0-4,4v4H7a4,4,0,0,0-4,4v4c0,.047.01221.09058.01379.13715A3.99125,3.99125,0,0,0,0,120v4a4,4,0,0,0,4,4H124a4,4,0,0,0,4-4v-4a3.99125,3.99125,0,0,0-3.01379-3.86285C124.98779,116.09058,125,116.047,125,116v-4a4,4,0,0,0-4-4h-1v-4a4,4,0,0,0-4-4V52ZM13,20h9.96875L64,4l41.03125,16H115v4H13ZM8,28H120v4H8ZM4,40V36H124v4Zm112,64v4H104v-4Zm-8-4V52h4v48Zm-4-9.359V100a4,4,0,0,0-4,4v4H74v-4a4,4,0,0,0-4-4V52a4,4,0,0,0,4-4V44h26v4a4,4,0,0,0,4,4ZM24,100V52a4,4,0,0,0,4-4V44H54v4a4,4,0,0,0,4,4v48a4,4,0,0,0-4,4v4H28v-4A4,4,0,0,0,24,100ZM12,48V44H24v4Zm8,4v48H16V52Zm38,52H70v4H58Zm4-4V52h4v48ZM58,48V44H70v4ZM12,104H24v4H12Zm112,16v4H4v-4Zm-3-8v4H7v-4ZM104,48V44h12v4Z"/></svg>