<svg xmlns="http://www.w3.org/2000/svg" data-name="Layer 1" viewBox="0 0 128 160" x="0px" y="0px"><title>miscellaneous 256 final</title><path d="M112,36H94.88556a32.658,32.658,0,0,0,4.74481-9.37793,3.7449,3.7449,0,0,0,.36584-1.56311c.00049-.01691.00317-.03387.00323-.05072L100,25c0-5.52539-11.31445-7-18-7-6.62061,0-17.77368,1.44855-17.98987,6.84259-.00122.01544-.00629.02954-.0072.0451-.00409.07526-.38116,5.36115-5.15088,11.1123H16C5.49591,36,0,54.61334,0,73c0,.43475.006.86951.01221,1.30426a1.99529,1.99529,0,0,0,.00244.43793l.00256.02112C.35681,92.55756,5.83167,110,16,110h96c9.12109,0,16-15.90625,16-37S121.12109,36,112,36ZM82,22c8.46783,0,13.18549,2.03516,13.93749,2.99091l-.00756.02606C95.15942,25.97577,90.446,28,82,28c-8.49316,0-13.21582-2.04785-13.94629-3C68.78418,24.04785,73.50684,22,82,22ZM23.14386,99.51434C21.14789,103.58807,18.67657,106,16,106c-3.77039,0-7.13293-4.78583-9.33282-12.26453,1.42682,1.3797,2.97363,2.64587,4.4549,3.85339l.19922.16211a1.99963,1.99963,0,0,0,2.78223-.248l4.67285-5.45312a1.99919,1.99919,0,0,0,.47559-1.15039l.67383-8.86914,2.79-8.61523a1.98263,1.98263,0,0,0,.07129-.9375l-1.33984-8.22461-.43457-8.27539a1.9955,1.9955,0,0,0-.41113-1.11328l-4.68164-6.09961a1.99982,1.99982,0,0,0-3.17285,0L8.06543,54.8623a1.99517,1.99517,0,0,0-.41113,1.1123L7.21875,64.252,5.877,72.42578a2.00009,2.00009,0,0,0,3.94727.64844l1.35938-8.2832a2.07836,2.07836,0,0,0,.02344-.21875l.40918-7.7666L14.333,53.2666l2.71777,3.541.4082,7.76367a1.9884,1.9884,0,0,0,.02344.2168l1.2793,7.85449-2.71484,8.38184a1.98063,1.98063,0,0,0-.0918.46484l-.6416,8.4541-2.97461,3.4707C9.01465,90.6582,5.67773,87.543,5.15234,83.73242L4.01367,74.48792C4.00568,73.99432,4,73.499,4,73,4,54.7746,9.37262,40,16,40S28,54.7746,28,73c0,10.76532-1.87524,20.324-4.77557,26.34772C23.19635,99.40283,23.16681,99.45642,23.14386,99.51434ZM123.71527,65.97821c-4.70923-.72614-15.50043-1.75525-24.80219,2.03156-14.26855,5.80664-19.25879,3.374-25.03613.55469a2.00033,2.00033,0,1,0-1.75391,3.5957c4.01855,1.96,7.6123,3.42676,12.38086,3.42676,4.09961,0,9.06738-1.085,15.917-3.87207,8.9306-3.63629,19.84729-2.26178,23.52655-1.64026C123.97943,71.0351,124,72.00775,124,73c0,1.45209-.03925,2.86682-.10687,4.25H112a2,2,0,0,0,0,4h11.60107a70.06971,70.06971,0,0,1-1.23877,8.00989c-3.17548-.60583-15.78931-2.59033-26.44922,1.74988-14.26855,5.80664-19.25781,3.374-25.03613.55469a2.00033,2.00033,0,1,0-1.75391,3.5957c4.01855,1.96,7.6123,3.42676,12.38086,3.42676,4.09961,0,9.06738-1.085,15.917-3.87207,9.30548-3.78894,20.76659-2.13715,23.94965-1.56647a38.91952,38.91952,0,0,1-2.326,6.10162H106a2,2,0,0,0,0,4h10.54218C115.0697,105.02942,113.51227,106,112,106H23.66522a21.61666,21.61666,0,0,0,2.51111-3.75H38.75a2,2,0,0,0,0-4H27.99237a52.83157,52.83157,0,0,0,2.19037-7.48993,60.47833,60.47833,0,0,0,9.87975.822,42.1834,42.1834,0,0,0,15.69141-2.72949c14.2666-5.80566,19.25879-3.373,25.03613-.55469a2.00033,2.00033,0,1,0,1.75391-3.5957c-7.47461-3.64453-13.4834-5.583-28.29785.44531-8.76392,3.56879-19.44482,2.31018-23.31665,1.67493a85.25588,85.25588,0,0,0,.957-9.32239H45.75a2,2,0,0,0,0-4H31.9953c.00092-.16669.0047-.33331.0047-.5a90.7864,90.7864,0,0,0-.46545-9.18188,60.62276,60.62276,0,0,0,9.52795.76392,42.1834,42.1834,0,0,0,15.69141-2.72949c14.26758-5.80566,19.25977-3.37207,25.03613-.55469a2.00033,2.00033,0,1,0,1.75391-3.5957c-7.47559-3.64551-13.48242-5.584-28.29785.44531-9.6131,3.91406-21.53241,2.02106-24.23987,1.51343A63.5521,63.5521,0,0,0,28.86346,50.25H40.75a2,2,0,0,0,0-4H27.38416A24.789,24.789,0,0,0,23.66522,40h31.1264a34.9313,34.9313,0,0,1-4.78186,3.2627,1.99915,1.99915,0,0,0-.74713,2.72736,2.05392,2.05392,0,0,0,2.7276.74725c9.9245-5.65491,13.7041-12.98645,15.13818-17.49994A23.328,23.328,0,0,0,74.39728,31.417a18.71249,18.71249,0,0,1-2.92072,3.28027,2.00031,2.00031,0,0,0-.1134,2.826,2.06031,2.06031,0,0,0,2.82629.1134,17.80259,17.80259,0,0,0,4.50214-5.74829C79.86359,31.96533,80.98547,32,82,32a44.29771,44.29771,0,0,0,11.5769-1.44928A30.88032,30.88032,0,0,1,75.39844,45.09277a1.9994,1.9994,0,0,0-1.30566,2.50873,2.029,2.029,0,0,0,2.50879,1.30573,35.72906,35.72906,0,0,0,14.95-8.962A1.99315,1.99315,0,0,0,92,40h20c1.69159,0,3.43976,1.212,5.062,3.417H97.417a2,2,0,0,0,0,4h21.9455A56.72583,56.72583,0,0,1,123.71527,65.97821Z"/><path d="M92.333,56.29a2.0001,2.0001,0,0,0,2,2h14.292a2,2,0,0,0,0-4H94.333A2.0001,2.0001,0,0,0,92.333,56.29Z"/></svg>