<svg xmlns="http://www.w3.org/2000/svg" data-name="Layer 1" viewBox="0 0 128 160" x="0px" y="0px"><title>miscellaneous 61 final</title><path d="M82.5,30.78125h-39a2,2,0,0,0,0,4h39a2,2,0,0,0,0-4Z"/><path d="M82.5,38.78125h-39a2,2,0,0,0,0,4h39a2,2,0,0,0,0-4Z"/><path d="M29.5,27.78125a9,9,0,1,0,9,9A9.01015,9.01015,0,0,0,29.5,27.78125Zm0,14a5,5,0,1,1,5-5A5.00589,5.00589,0,0,1,29.5,41.78125Z"/><path d="M82.5,52.78125h-39a2,2,0,0,0,0,4h39a2,2,0,0,0,0-4Z"/><path d="M82.5,60.78125h-39a2,2,0,0,0,0,4h39a2,2,0,0,0,0-4Z"/><path d="M29.5,49.78125a9,9,0,1,0,9,9A9.01015,9.01015,0,0,0,29.5,49.78125Zm0,14a5,5,0,1,1,5-5A5.00589,5.00589,0,0,1,29.5,63.78125Z"/><path d="M29.5,71.78125a9,9,0,1,0,9,9A9.01015,9.01015,0,0,0,29.5,71.78125Zm0,14a5,5,0,1,1,5-5A5.00589,5.00589,0,0,1,29.5,85.78125Z"/><path d="M29.5,93.78125a9,9,0,1,0,9,9A9.01015,9.01015,0,0,0,29.5,93.78125Zm0,14a5,5,0,1,1,5-5A5.00589,5.00589,0,0,1,29.5,107.78125Z"/><path d="M43.5,96.78125a2,2,0,0,0,0,4H66.69067a27.80956,27.80956,0,0,1,.75763-4Z"/><path d="M43.5,104.78125a2,2,0,0,0,0,4H66.91681a28.01239,28.01239,0,0,1-.397-4Z"/><path d="M84.05023,78.03052A1.9894,1.9894,0,0,0,82.5,74.78125h-39a2,2,0,0,0,0,4H82.34033C82.89929,78.51074,83.4715,78.26416,84.05023,78.03052Z"/><path d="M13.5,124v-4.21875H71.38593a27.99062,27.99062,0,0,1-2.27789-4H13.5V23.33008H28.83a4.00008,4.00008,0,0,0,4-4V4H95.5V76.02539a27.97428,27.97428,0,0,1,4,.43066V4a4.00008,4.00008,0,0,0-4-4H28.83093a3.98893,3.98893,0,0,0-.77936.07715c-.10352.02051-.20056.062-.30188.09058a4.01222,4.01222,0,0,0-.44415.13477c-.11621.0481-.2218.11792-.33313.17651a3.95522,3.95522,0,0,0-.3576.19092,4.0035,4.0035,0,0,0-.55328.45264c-.01886.01807-.04138.03052-.05994.04907l-15.33,15.32983a3.98925,3.98925,0,0,0-.45221.55151c-.03918.0564-.07281.115-.10895.17334a3.95963,3.95963,0,0,0-.2464.46143c-.02832.06274-.05774.124-.08282.18823a4.00475,4.00475,0,0,0-.20081.66089l-.00293.0105a4.00026,4.00026,0,0,0-.06958.70337c-.00055.02686-.00787.05249-.00787.07935V124a3.99992,3.99992,0,0,0,4,4H80.095a28.173,28.173,0,0,1-5.16437-4ZM28.83,4V19.33008H13.5Z"/><path d="M76.2616,82.78125H43.5a2,2,0,0,0,0,4H72.4444A28.24208,28.24208,0,0,1,76.2616,82.78125Z"/><path d="M94.5,80a24,24,0,1,0,24,24A24.02718,24.02718,0,0,0,94.5,80Zm0,44a20,20,0,1,1,20-20A20.0226,20.0226,0,0,1,94.5,124Z"/><path d="M103.13525,93.53809,88.66943,107.042l-4.80176-4.501a1.99979,1.99979,0,1,0-2.73535,2.918l6.1665,5.78125a1.99949,1.99949,0,0,0,2.73242.00293l15.8335-14.78125a1.99993,1.99993,0,1,0-2.72949-2.92383Z"/></svg>