<svg xmlns="http://www.w3.org/2000/svg" data-name="Layer 1" viewBox="0 0 128 160" x="0px" y="0px"><title>miscellaneous 283_expandline</title><path d="M127.17355,47.3573a6.70543,6.70543,0,0,0-2.871-2.94184c.66209-3.12448.48583-7.47815-2.997-9.99708.88083-2.37633,1.79682-6.59619-1-9.90429.00439-3.00337-1.15622-7.64322-5.5682-9.38957-.60447-3.05123-3.05167-7.21493-9.49142-7.74333C103.47539,6.9634,93.274,5.333,67.29718,14.4747a1.98236,1.98236,0,0,0-1.2991-.491H53.721a1.99131,1.99131,0,0,0-1.72248-1.00015H39.99884a1.99131,1.99131,0,0,0-1.72248,1.00015H1.99994a2.0003,2.0003,0,0,0,0,4.00059h35.999v6.08213a11.9462,11.9462,0,0,0,0,17.84016v4.91271A10.412,10.412,0,0,1,41.06912,45.379c.30852-.0865.61888-.15469.92966-.21268v-.87824a11.77415,11.77415,0,0,0,7.99977,0v2.70236a9.85834,9.85834,0,0,1,3.5342,4.88231c.03.09126.06567.17978.0932.2722.03357-.04725.04938-.10555.079-.1556H65.99808c.13855,0,15.92068,7.98,16.07668,8.06027,3.27285,1.80251,6.0882,2.94184,9.55441,2.94184q.61082,0,1.25143-.04786s16.83984-1.1403,16.95654-1.17009l15.70755-3.96885a1.99978,1.99978,0,0,0,1.35543-1.16716C127.12814,56.0915,129.07682,51.19136,127.17355,47.3573ZM41.99878,16.98417h7.99977V21.685a11.77415,11.77415,0,0,0-7.99977,0ZM37.9989,32.98653a7.99977,7.99977,0,1,1,7.99977,8.00118A8.00964,8.00964,0,0,1,37.9989,32.98653Zm19.99942,0a11.9624,11.9624,0,0,0-3.99988-8.92008V17.98432h9.99971V47.98874H53.99843V41.90661A11.9624,11.9624,0,0,0,57.99831,32.98653ZM123.5218,54.18985,109.033,57.85055l-16.43653,1.1027c-2.77482.20657-4.94175-.398-8.52856-2.371-.06152-.03711-16.021-8.27557-16.06985-8.30194V18.46754c20.87615-7.415,31.12963-7.68075,34.75-7.40841a24.33714,24.33714,0,0,1,3.58974.52648,5.42907,5.42907,0,0,1,4.55985,5.07038,2,2,0,0,0,1.56538,1.94511c4.23328.94252,3.83583,6.268,3.81727,6.48582a2.00222,2.00222,0,0,0,.61815,1.63891c2.78851,2.6343.12918,7.50655.10161,7.55619a2.03909,2.03909,0,0,0,.96574,2.82913c4.22655,1.776,2.13508,7.547,2.04586,7.78673a2.02692,2.02692,0,0,0,1.36908,2.64743,3.0364,3.0364,0,0,1,2.20648,1.58422C124.32256,50.60094,123.92853,52.81465,123.5218,54.18985Z"/><path d="M89.79866,102.46895a2.00032,2.00032,0,0,0-2.45208-1.403l-.0484.01312a94.54,94.54,0,0,0-2.18719-18.215c-.01135-.06892-3.93269-14.42895-3.93269-14.42895a5.936,5.936,0,0,0-2.83-3.61235,6.32527,6.32527,0,0,0-4.85826-.57137,6.44222,6.44222,0,0,0-2.50664,1.359,5.97446,5.97446,0,0,0-2.32379-2.37718,6.33584,6.33584,0,0,0-4.86021-.57284,6.45141,6.45141,0,0,0-2.2442,1.13585,5.961,5.961,0,0,0-2.26593-2.28885A6.32458,6.32458,0,0,0,54.4325,60.935a6.45925,6.45925,0,0,0-2.22595,1.119l-2.36864-8.63866A5.9294,5.9294,0,0,0,47.01133,49.804a6.33238,6.33238,0,0,0-4.86314-.57284A6.23617,6.23617,0,0,0,37.702,56.78936L44.70158,82.326a13.78821,13.78821,0,0,0-6.85793-3.04116c-3.08629-.21811-6.53344,1.94023-6.82307,5.19608-.2705,3.04586,1.9101,6.44382,6.66729,10.38776l16.12587,15.28045-1.33822.36248a2.0008,2.0008,0,0,0-1.416,2.42126l1.65718,6.55663a2.04384,2.04384,0,0,0,2.42913,1.44895,2.00045,2.00045,0,0,0,1.44869-2.42956l-1.17526-4.64961,31.04744-8.40993,2.60149,9.51019a2.00007,2.00007,0,1,0,3.85829-1.05582ZM40.28838,91.8287c-5.00132-4.1344-5.31186-6.34517-5.28793-6.925.04588-1.1022,1.64712-1.69465,2.55851-1.62853,2.98526.209,7.366,4.22816,9.426,6.71242a2.00165,2.00165,0,0,0,3.46913-1.805l-8.89427-32.4501a2.30862,2.30862,0,0,1,4.42028-1.26093l8.89769,32.4501a1.99931,1.99931,0,0,0,2.45744,1.40011A2.263,2.263,0,0,0,58.83911,85.674L53.84267,67.43546a2.228,2.228,0,0,1,1.6674-2.64784,2.292,2.292,0,0,1,2.86771,1.733c1.24861,4.20972,4.424,16.31006,4.91091,18.08924a2.04845,2.04845,0,0,0,2.457,1.40159A2.00122,2.00122,0,0,0,67.147,83.55356L63.182,68.99532a2.24835,2.24835,0,0,1,1.69643-2.48283,2.20818,2.20818,0,0,1,2.75729,1.39326l3.89539,14.21693a2.28521,2.28521,0,0,0,2.78215,1.41282,1.99939,1.99939,0,0,0,1.40279-2.45593L72.89827,70.75235a2.30961,2.30961,0,0,1,4.42272-1.259l3.81355,13.91428a92.11681,92.11681,0,0,1,2.177,18.75124l-24.97529,6.76522S40.32354,91.85752,40.28838,91.8287Z"/><circle cx="63.99814" cy="118.99922" r="2.00012"/><path d="M17.99948,24.98535a2.00022,2.00022,0,0,0-1.99994-2.0003H7.99977a2.0003,2.0003,0,0,0,0,4.00059h7.99977A2.00022,2.00022,0,0,0,17.99948,24.98535Z"/><path d="M36.57133,47.98874H14.002a2.0003,2.0003,0,0,0,0,4.00059H34.04045A10.34677,10.34677,0,0,1,36.57133,47.98874Z"/></svg>