<svg xmlns="http://www.w3.org/2000/svg" xmlns:xlink="http://www.w3.org/1999/xlink" version="1.1" x="0px" y="0px" viewBox="0 0 128 160" style="enable-background:new 0 0 128 128;" xml:space="preserve"><title>95 Miscellaneous 20</title><circle cx="99" cy="9" r="2"/><circle cx="120" cy="26" r="2"/><circle cx="8" cy="102" r="2"/><circle cx="26" cy="118" r="2"/><circle cx="118.5" cy="98.5" r="2"/><circle cx="101.5" cy="119.5" r="2"/><circle cx="25.5" cy="7.5" r="2"/><circle cx="9.5" cy="25.5" r="2"/><path d="M72,69c0,5,4,9,9,9s9-4,9-9c0-5-4-9-9-9c0,0,0,0,0,0C76,60,72,64,72,69C72,69,72,69,72,69z M81,64c2.8,0,5,2.2,5,5  c0,2.8-2.2,5-5,5s-5-2.2-5-5c0,0,0,0,0,0C76,66.2,78.2,64,81,64z"/><path d="M53,63c3.9,0,7-3.1,7-7s-3.1-7-7-7s-7,3.1-7,7l0,0C46,59.9,49.1,63,53,63C53,63,53,63,53,63z M53,53c1.7,0,3,1.3,3,3  c0,1.7-1.3,3-3,3s-3-1.3-3-3C50,54.3,51.3,53,53,53z"/><path d="M73,52c3.3,0,6-2.7,6-6c0-3.3-2.7-6-6-6c-3.3,0-6,2.7-6,6C67,49.3,69.7,52,73,52C73,52,73,52,73,52z M73,44c1.1,0,2,0.9,2,2  s-0.9,2-2,2c-1.1,0-2-0.9-2-2C71,44.9,71.9,44,73,44z"/><path d="M49,81c0,4.4,3.6,8,8,8s8-3.6,8-8s-3.6-8-8-8c0,0,0,0,0,0C52.6,73,49,76.6,49,81z M61,81c0,2.2-1.8,4-4,4s-4-1.8-4-4  c0-2.2,1.8-4,4-4C59.2,77,61,78.8,61,81z"/><path d="M114.3,66c1.1,3.7,5,5.8,8.7,4.7c3.7-1.1,5.8-5,4.7-8.7c-1.1-3.7-5-5.8-8.7-4.7c-2.3,0.7-4,2.4-4.7,4.7h-13.3  c-0.2-3.4-0.8-6.8-2-10.1l18.4-7.2c2.1,2.6,5.9,3,8.4,0.9c2.6-2.1,3-5.9,0.9-8.4c-2.1-2.6-5.9-3-8.4-0.9c-1.4,1.1-2.2,2.8-2.2,4.7  l-18.5,7.2c-1.5-3.2-3.5-6.2-5.9-8.9l5.6-5.6c3.2,1,6.6-0.7,7.6-3.8s-0.7-6.6-3.8-7.6c-3.2-1-6.6,0.7-7.6,3.8  c-0.6,1.7-0.3,3.6,0.6,5.1l-5.2,5.2c-3.2-2.9-7-5.2-11-6.8L83.3,14c3.9-0.2,6.9-3.4,6.7-7.3c-0.2-3.9-3.4-6.9-7.3-6.7  c-3.9,0.2-6.9,3.4-6.7,7.3c0.1,2.4,1.4,4.5,3.4,5.7l-5.5,15.4c-2.6-0.7-5.2-1.2-7.9-1.3V13.7c3.7-1.1,5.8-5,4.7-8.7  c-1.1-3.7-5-5.8-8.7-4.7s-5.8,5-4.7,8.7c0.7,2.3,2.4,4,4.7,4.7v13.3c-3.4,0.2-6.8,0.8-10,1.9l-5-12.4c3-2.4,3.5-6.8,1.1-9.8  c-1.9-2.4-5.2-3.3-8.1-2.1l0,0l0,0c-3.6,1.5-5.3,5.5-3.9,9.1c1.1,2.6,3.6,4.4,6.5,4.4c0.2,0,0.4,0,0.7,0l5,12.4  c-3.6,1.7-6.9,3.9-9.8,6.7l-6-6c1.6-2.9,0.5-6.6-2.4-8.1c-2.9-1.6-6.6-0.5-8.1,2.4c-1.6,2.9-0.5,6.6,2.4,8.1c1.6,0.9,3.5,1,5.2,0.3  l6.2,6.2c-2.3,2.7-4.2,5.8-5.7,9.1l-15.2-5.2c0-3.3-2.7-6-6-6c-3.3,0-6,2.7-6,6c0,3.3,2.7,6,6,6c1.8,0,3.5-0.8,4.7-2.3l15.1,5.2  c-0.9,3-1.5,6-1.6,9.1H13.7c-1.1-3.7-5-5.8-8.7-4.7c-3.7,1.1-5.8,5-4.7,8.7c1.1,3.7,5,5.8,8.7,4.7c2.3-0.7,4-2.4,4.7-4.7h13.3  c0.2,3.1,0.7,6.1,1.6,9l-17.9,7c-2-2.6-5.8-3.1-8.4-1.1s-3.1,5.8-1.1,8.4s5.8,3.1,8.4,1.1c1.4-1.1,2.3-2.8,2.4-4.6l18.1-7  c1.6,3.6,3.7,7,6.4,9.9l-6,6c-2.9-1.6-6.6-0.5-8.1,2.4c-1.6,2.9-0.5,6.6,2.4,8.1c2.9,1.6,6.6,0.5,8.1-2.4c0.9-1.6,1-3.5,0.3-5.2  l6.2-6.2c2.9,2.6,6.3,4.8,9.9,6.4L43.4,114c-0.1,0-0.3,0-0.4,0c-3.9,0-7,3.1-7,7c0,3.9,3.1,7,7,7c3.9,0,7-3.1,7-7  c0-2.2-1-4.3-2.8-5.6l5.7-16.1c2.9,0.9,6,1.5,9.1,1.6v13.3c-3.7,1.1-5.8,5-4.7,8.7c1.1,3.7,5,5.8,8.7,4.7s5.8-5,4.7-8.7  c-0.7-2.3-2.4-4-4.7-4.7v-13.3c3.4-0.2,6.8-0.8,10-1.9l5,12.4c-3,2.4-3.5,6.8-1.1,9.8c1.9,2.4,5.2,3.3,8.1,2.1l0,0l0,0  c3.6-1.5,5.3-5.5,3.9-9.1c-1.1-2.6-3.6-4.4-6.5-4.4c-0.2,0-0.4,0-0.7,0l-5-12.4c3-1.4,5.8-3.2,8.3-5.3l5.6,5.6  c-1,3.2,0.7,6.6,3.8,7.6s6.6-0.7,7.6-3.8c1-3.2-0.7-6.6-3.8-7.6c-1.7-0.6-3.6-0.3-5.1,0.6l-5.2-5.2c3.4-3.6,6.1-7.9,7.9-12.6  l16.3,5.6c0,0.1,0,0.2,0,0.3c0,3.3,2.7,6,6,6c3.3,0,6-2.7,6-6c0-3.3-2.7-6-6-6c-1.7,0-3.3,0.7-4.5,2L99.9,73c0.6-2.3,0.9-4.6,1.1-7  H114.3z M122,39c1.1,0,2,0.9,2,2s-0.9,2-2,2c-1.1,0-2-0.9-2-2C120,39.9,120.9,39,122,39z M97.1,28.6c0.6-0.1,1.3,0.1,1.8,0.6  c0.2,0.2,0.4,0.5,0.5,0.8c-0.1,0-0.2,0-0.4,0C98.1,30,97.3,29.4,97.1,28.6z M83,4c1.7,0,3,1.3,3,3s-1.3,3-3,3s-3-1.3-3-3  C80,5.3,81.3,4,83,4z M39.9,12.3C39.3,10.7,40,9,41.5,8.4s3.3,0.1,3.9,1.7c0.6,1.5-0.1,3.3-1.7,3.9c-0.4,0.1-0.7,0.2-1.1,0.2  C41.4,14.2,40.3,13.4,39.9,12.3z M8.9,46c-1.1,0-2-0.9-2-2s0.9-2,2-2s2,0.9,2,2C10.9,45.1,10,46,8.9,46z M6,87.6c-1.1,0-2-0.9-2-2  s0.9-2,2-2s2,0.9,2,2C8,86.7,7.1,87.6,6,87.6z M43,124c-1.7,0-3-1.3-3-3c0-1.7,1.3-3,3-3c1.7,0,3,1.3,3,3C46,122.6,44.7,124,43,124z   M88.1,115.7c0.6,1.5-0.1,3.3-1.7,3.9c-1.5,0.6-3.3-0.1-3.9-1.7s0.1-3.3,1.7-3.9c0.4-0.1,0.7-0.2,1.1-0.2  C86.6,113.8,87.7,114.6,88.1,115.7z M121,80.7c1.1,0,2,0.9,2,2s-0.9,2-2,2c-1.1,0-2-0.9-2-2C119,81.6,119.9,80.7,121,80.7z M121,61  c1.7,0,3,1.3,3,3c0,1.7-1.3,3-3,3s-3-1.3-3-3C118,62.3,119.3,61,121,61z M61,7c0-1.7,1.3-3,3-3c1.7,0,3,1.3,3,3s-1.3,3-3,3  C62.3,10,61,8.7,61,7z M64,31c18.2,0,33,14.8,33,33S82.2,97,64,97S31,82.2,31,64C31,45.8,45.8,31,64,31z M25.3,28.3c0-1.1,0.9-2,2-2  s2,0.9,2,2c0,1.1-0.9,2-2,2C26.2,30.3,25.3,29.4,25.3,28.3z M7,67c-1.7,0-3-1.3-3-3c0-1.7,1.3-3,3-3s3,1.3,3,3C10,65.6,8.7,67,7,67z   M27.6,102c-1.1,0-2-0.9-2-2s0.9-2,2-2s2,0.9,2,2C29.6,101.1,28.7,102,27.6,102z M67,121c0,1.7-1.3,3-3,3c-1.7,0-3-1.3-3-3  c0-1.7,1.3-3,3-3l0,0C65.7,118,67,119.3,67,121z M99.3,97.7c1.1,0,2,0.9,2,2s-0.9,2-2,2c-1.1,0-2-0.9-2-2  C97.3,98.6,98.2,97.7,99.3,97.7z"/></svg>