<svg xmlns="http://www.w3.org/2000/svg" data-name="Layer 1" viewBox="0 0 128 160" x="0px" y="0px"><title>miscellaneous 163_expandline</title><path d="M68,4a60,60,0,1,0,60,60A59.99985,59.99985,0,0,0,68,4Zm0,116a56,56,0,1,1,56-56A56.06355,56.06355,0,0,1,68,120Z"/><path d="M37.53709,35.6362a41.18112,41.18112,0,0,0-10.5073,21.0196,2,2,0,1,0,3.9404.6884,37.18908,37.18908,0,0,1,9.4927-18.9804,2,2,0,1,0-2.9258-2.7276Z"/><path d="M7.00049,110A7,7,0,1,0,14,117,6.99984,6.99984,0,0,0,7.00049,110Zm0,10A3,3,0,1,1,10,117,3.0037,3.0037,0,0,1,7.00049,120Z"/></svg>