<svg xmlns="http://www.w3.org/2000/svg" version="1.1" viewBox="-5.0 -2.0 110.0 105.0">
 <path d="m26.562 32.812h10.938c0.86328 0 1.5625-0.69922 1.5625-1.5625v-10.938c0-0.86328-0.69922-1.5625-1.5625-1.5625h-10.938c-0.86328 0-1.5625 0.69922-1.5625 1.5625v10.938c0 0.86328 0.69922 1.5625 1.5625 1.5625zm1.5625-10.938h7.8125v0.21484c-0.078125 0.042968-0.15234 0.09375-0.22266 0.15234l-2.7109 2.2812h-0.003906c-0.66797-0.53125-1.6406-0.42578-2.1797 0.23437-0.53906 0.66016-0.44922 1.6367 0.20703 2.1836l0.97266 0.81641h-0.003906c0.58203 0.48828 1.4297 0.48828 2.0117 0l1.9297-1.6211v3.5508h-7.8125z"/>
 <path d="m64.062 22.656c0-0.86328-0.69922-1.5625-1.5625-1.5625h-18.75c-0.86328 0-1.5625 0.69922-1.5625 1.5625s0.69922 1.5625 1.5625 1.5625h18.75c0.86328 0 1.5625-0.69922 1.5625-1.5625z"/>
 <path d="m43.75 30.469h10.938c0.86328 0 1.5625-0.69922 1.5625-1.5625s-0.69922-1.5625-1.5625-1.5625h-10.938c-0.86328 0-1.5625 0.69922-1.5625 1.5625s0.69922 1.5625 1.5625 1.5625z"/>
 <path d="m25 48.438c0 0.86328 0.69922 1.5625 1.5625 1.5625h10.938c0.86328 0 1.5625-0.69922 1.5625-1.5625v-10.938c0-0.86328-0.69922-1.5625-1.5625-1.5625h-10.938c-0.86328 0-1.5625 0.69922-1.5625 1.5625zm3.125-9.375h7.8125v0.21484c-0.078125 0.042968-0.15234 0.09375-0.22266 0.15234l-2.7109 2.2812h-0.003906c-0.66797-0.53125-1.6406-0.42578-2.1797 0.23437-0.53906 0.66016-0.44922 1.6367 0.20703 2.1836l0.97266 0.81641h-0.003906c0.58203 0.48828 1.4297 0.48828 2.0117 0l1.9297-1.6211v3.5508h-7.8125z"/>
 <path d="m25 65.625c0 0.86328 0.69922 1.5625 1.5625 1.5625h10.938c0.86328 0 1.5625-0.69922 1.5625-1.5625v-10.938c0-0.86328-0.69922-1.5625-1.5625-1.5625h-10.938c-0.86328 0-1.5625 0.69922-1.5625 1.5625zm3.125-9.375h7.8125v0.21484c-0.078125 0.042968-0.15234 0.09375-0.22266 0.15234l-2.7109 2.2812h-0.003906c-0.66797-0.53125-1.6406-0.42578-2.1797 0.23437-0.53906 0.66016-0.44922 1.6367 0.20703 2.1836l0.97266 0.81641h-0.003906c0.58203 0.48828 1.4297 0.48828 2.0117 0l1.9297-1.6211v3.5508h-7.8125z"/>
 <path d="m54.688 64.844c0.86328 0 1.5625-0.69922 1.5625-1.5625s-0.69922-1.5625-1.5625-1.5625h-10.938c-0.86328 0-1.5625 0.69922-1.5625 1.5625s0.69922 1.5625 1.5625 1.5625z"/>
 <path d="m62.5 70.312h-35.938c-0.86328 0-1.5625 0.69922-1.5625 1.5625s0.69922 1.5625 1.5625 1.5625h35.938c0.86328 0 1.5625-0.69922 1.5625-1.5625s-0.69922-1.5625-1.5625-1.5625z"/>
 <path d="m62.5 76.562h-25.781c-0.86328 0-1.5625 0.69922-1.5625 1.5625s0.69922 1.5625 1.5625 1.5625h25.781c0.86328 0 1.5625-0.69922 1.5625-1.5625s-0.69922-1.5625-1.5625-1.5625z"/>
 <path d="m62.5 82.812h-17.969c-0.86328 0-1.5625 0.69922-1.5625 1.5625s0.69922 1.5625 1.5625 1.5625h17.969c0.86328 0 1.5625-0.69922 1.5625-1.5625s-0.69922-1.5625-1.5625-1.5625z"/>
 <path d="m56.25 0h-23.438c-2.5859 0.0039062-4.6836 2.1016-4.6875 4.6875v1.5625h-10.938c-2.5859 0.003906-4.6836 2.1016-4.6875 4.6875v84.375c0.003906 2.5859 2.1016 4.6836 4.6875 4.6875h54.688c2.5859-0.003906 4.6836-2.1016 4.6875-4.6875v-28.098c-0.94922 0.64062-2.0078 1.1016-3.125 1.3594v26.738c0 0.86328-0.69922 1.5625-1.5625 1.5625h-54.688c-0.86328 0-1.5625-0.69922-1.5625-1.5625v-84.375c0-0.86328 0.69922-1.5625 1.5625-1.5625h10.938v1.5625c0 0.53125 0.09375 1.0625 0.27344 1.5625h-8.0859c-0.86328 0-1.5625 0.69922-1.5625 1.5625v67.508c0 0.42969 0.17969 0.84375 0.49219 1.1367l11.281 10.617c0.28906 0.27344 0.67187 0.42578 1.0703 0.42578h37.156c0.86328 0 1.5625-0.69922 1.5625-1.5625v-23.613c-1.1172-0.25781-2.1758-0.71875-3.125-1.3594v23.41h-34.031v-7.4922c0-1.7266-1.3984-3.1211-3.125-3.125h-8.1562v-64.383h45.312v17.16c0.94922-0.64062 2.0078-1.1016 3.125-1.3594v-17.363c0-0.86328-0.69922-1.5625-1.5625-1.5625h-8.0859c0.17969-0.5 0.27344-1.0312 0.27344-1.5625v-1.5625h10.938c0.86328 0 1.5625 0.69922 1.5625 1.5625v20.488c1.1172 0.25781 2.1758 0.71875 3.125 1.3594v-21.848c-0.003906-2.5859-2.1016-4.6836-4.6875-4.6875h-10.938v-1.5625c-0.003906-2.5859-2.1016-4.6836-4.6875-4.6875zm-26.219 83.133v5.4375l-0.86719-0.81641-4.9102-4.6211zm27.781-72.195c0 0.86328-0.69922 1.5625-1.5625 1.5625h-23.438c-0.86328 0-1.5625-0.69922-1.5625-1.5625v-6.25c0-0.86328 0.69922-1.5625 1.5625-1.5625h23.438c0.86328 0 1.5625 0.69922 1.5625 1.5625z"/>
 <path d="m55.988 56.566c-0.054687-0.10156-0.38281-0.54688-0.53906-0.75781-0.078125-0.10547-0.16406-0.22266-0.24609-0.33984h-11.453c-0.86328 0-1.5625 0.69922-1.5625 1.5625s0.69922 1.5625 1.5625 1.5625h12.605c-0.066407-0.34766-0.12109-0.67969-0.16797-0.97656-0.046875-0.35156-0.11328-0.70313-0.19922-1.0508z"/>
 <path d="m43.75 47.656h9.7617c0.38281-1.0938 0.93359-2.125 1.6328-3.0508-0.14844-0.046875-0.30078-0.070313-0.45703-0.074219h-10.938c-0.86328 0-1.5625 0.69922-1.5625 1.5625s0.69922 1.5625 1.5625 1.5625z"/>
 <path d="m57.449 38.281h-13.699c-0.86328 0-1.5625 0.69922-1.5625 1.5625s0.69922 1.5625 1.5625 1.5625h12.605c0.1875-1.0938 0.55859-2.1523 1.0938-3.125z"/>
 <path d="m79.004 62.602c1.3164-0.20703 2.8125-0.44531 3.918-1.5508s1.3438-2.6016 1.5508-3.9219h0.003906c0.066407-0.59375 0.19922-1.1797 0.39453-1.7461 0.25-0.50781 0.55859-0.98437 0.91406-1.4258 0.76562-1.0391 1.7148-2.3281 1.7148-3.957s-0.94922-2.918-1.7148-3.9531c-0.35547-0.44141-0.66406-0.92188-0.91406-1.4297-0.19531-0.56641-0.32812-1.1523-0.39453-1.7461-0.20703-1.3203-0.44531-2.8125-1.5508-3.918s-2.6016-1.3438-3.918-1.5508l-0.003906-0.003906c-0.59375-0.066407-1.1797-0.19922-1.7461-0.39453-0.50781-0.25-0.98437-0.55859-1.4297-0.91406-1.0352-0.76562-2.3242-1.7148-3.9531-1.7148s-2.918 0.94922-3.957 1.7148c-0.44141 0.35547-0.91797 0.66406-1.4258 0.91406-0.56641 0.19531-1.1523 0.32812-1.7461 0.39453-1.3203 0.20703-2.8125 0.44531-3.918 1.5508s-1.3438 2.6016-1.5508 3.9219h-0.003906c-0.066407 0.59375-0.19922 1.1797-0.39453 1.7461-0.25 0.50781-0.55859 0.98437-0.91406 1.4297-0.76562 1.0352-1.7148 2.3242-1.7148 3.9531s0.94922 2.918 1.7148 3.9531c0.35547 0.44141 0.66406 0.92188 0.91406 1.4297 0.19531 0.56641 0.32812 1.1523 0.39453 1.7461 0.20703 1.3203 0.44531 2.8125 1.5508 3.918s2.6016 1.3438 3.918 1.5508l0.003906 0.003906c0.59375 0.066407 1.1797 0.19922 1.7461 0.39453 0.50781 0.25 0.98437 0.55859 1.4258 0.91406 1.0391 0.76562 2.3281 1.7148 3.957 1.7148s2.918-0.94922 3.9531-1.7148c0.44531-0.35547 0.92188-0.66406 1.4297-0.91406 0.56641-0.19531 1.1523-0.32812 1.7461-0.39453zm-5.0273-1.207c-0.58594 0.55078-1.3125 0.93359-2.1016 1.1055-0.78906-0.17188-1.5156-0.55469-2.1016-1.1055-0.64063-0.51172-1.3398-0.94531-2.0859-1.2852-0.78906-0.29688-1.6133-0.49609-2.4531-0.59375-0.77734-0.035156-1.5352-0.26953-2.1992-0.67578-0.40625-0.66406-0.64062-1.4219-0.67578-2.1992-0.097656-0.83984-0.29688-1.6641-0.59375-2.4531-0.33984-0.74609-0.77344-1.4453-1.2852-2.0859-0.55078-0.58594-0.93359-1.3125-1.1055-2.1016 0.17188-0.78906 0.55469-1.5156 1.1055-2.1016 0.51172-0.64063 0.94531-1.3398 1.2852-2.0859 0.29688-0.78906 0.49609-1.6133 0.59375-2.4531 0.035156-0.77734 0.26953-1.5352 0.67578-2.1992 0.66406-0.40625 1.4219-0.64062 2.1992-0.67578 0.83984-0.097656 1.6641-0.29688 2.457-0.59375 0.74219-0.33984 1.4414-0.77344 2.082-1.2852 0.58594-0.55078 1.3125-0.93359 2.1016-1.1055 0.78906 0.17188 1.5156 0.55469 2.1016 1.1055 0.64063 0.51172 1.3398 0.94531 2.0859 1.2852 0.78906 0.29688 1.6133 0.49609 2.4531 0.59375 0.77734 0.035156 1.5352 0.26953 2.1992 0.67578 0.40625 0.66406 0.64062 1.4219 0.67578 2.1992 0.097656 0.83984 0.29688 1.6641 0.59375 2.4531 0.33984 0.74609 0.77344 1.4453 1.2852 2.0859 0.55078 0.58594 0.93359 1.3125 1.1055 2.1016-0.17188 0.78906-0.55469 1.5156-1.1055 2.1016-0.51172 0.64063-0.94531 1.3398-1.2852 2.0859-0.29688 0.78906-0.49609 1.6133-0.59375 2.4531-0.035156 0.77734-0.26953 1.5352-0.67578 2.1992-0.66406 0.40625-1.4219 0.64062-2.1992 0.67578-0.83984 0.097656-1.6641 0.29688-2.457 0.59375-0.74219 0.33984-1.4414 0.77344-2.082 1.2852z"/>
 <path d="m78.449 44.988c-0.29297-0.29297-0.69141-0.45703-1.1055-0.45703s-0.8125 0.16406-1.1055 0.45703l-6.6914 6.7031-2.0352-2.0352c-0.29297-0.29297-0.69141-0.46094-1.1055-0.46094-0.41797-0.003906-0.81641 0.16016-1.1094 0.45703-0.29688 0.29297-0.46094 0.69141-0.46094 1.1055 0.003906 0.41797 0.16797 0.81641 0.46484 1.1094l3.1406 3.1445c0.29297 0.29297 0.6875 0.45703 1.1055 0.45703 0.41406 0 0.8125-0.16406 1.1055-0.45703l7.7969-7.8125c0.29297-0.29297 0.45703-0.69141 0.45703-1.1055s-0.16406-0.8125-0.45703-1.1055z"/>
</svg>
