<svg xmlns="http://www.w3.org/2000/svg" data-name="Layer 1" viewBox="0 0 128 160" x="0px" y="0px"><title>city element 03 expandlines</title><path d="M50.959,45.81006a1.99887,1.99887,0,0,0,.686-.12158l24.1875-8.8418a2,2,0,0,0,1.269-2.29785L70.68457,4.6167A5.98462,5.98462,0,0,0,64.83838,0H63.16162a5.9958,5.9958,0,0,0-5.85547,4.65869L49.00293,43.39063A1.9998,1.9998,0,0,0,50.959,45.81006ZM61.208,5.53955A1.99818,1.99818,0,0,1,63.16162,4h1.67676a1.98807,1.98807,0,0,1,1.94434,1.49756l6.043,28.18945L53.67334,40.68848Z"/><path d="M43.19092,82.04639a2.00091,2.00091,0,0,0,.686-.12158L82.47168,67.81689a1.99971,1.99971,0,0,0,1.269-2.29785l-4.9458-23.07129a1.99968,1.99968,0,0,0-2.64209-1.459L48.291,51.17334a1.99921,1.99921,0,0,0-1.269,1.459L41.23486,79.627a1.9998,1.9998,0,0,0,1.95605,2.41943Zm7.51074-27.49561,24.66406-9.01562,4.09912,19.12207L45.90527,76.9248Z"/><path d="M42.93359,90.78711,82.00488,76.50488,89.18542,110H93.2757L85.43408,73.418A1.99953,1.99953,0,0,0,82.792,71.9585l-42.269,15.45117a1.99921,1.99921,0,0,0-1.269,1.459L34.72479,110h4.09039Z"/><path d="M98,114H30a6.00656,6.00656,0,0,0-6,6v6a2.0001,2.0001,0,0,0,2,2h76a2.0001,2.0001,0,0,0,2-2v-6A6.00656,6.00656,0,0,0,98,114Zm2,10H28v-4a2.002,2.002,0,0,1,2-2H98a2.002,2.002,0,0,1,2,2Z"/></svg>