<svg xmlns="http://www.w3.org/2000/svg" xmlns:xlink="http://www.w3.org/1999/xlink" version="1.1" x="0px" y="0px" viewBox="0 0 128 160" style="enable-background:new 0 0 128 128;" xml:space="preserve"><path d="M15.7,28h4.5c2.1,0,3.7-1.8,3.7-3.9V11.9C24,9.8,22.3,8,20.3,8h-4.5C13.7,8,12,9.8,12,11.9v12.2C12,26.2,13.7,28,15.7,28z   M16,12h4v12h-4V12z"/><path d="M60,95.2c0.5-5.5,2.2-10.7,5-15.2h-1.3c-2.1,0-3.7,1.8-3.7,3.9V95.2z"/><path d="M71.9,124H66v-6.5c-1.6-2.3-2.9-4.9-3.9-7.6V124H38v-16c0,0,0,0,0,0h23.3c-0.4-1.3-0.7-2.6-1-4H38c-2.2,0-4,1.8-4,3.9V124H8  L8,4h36v47.8l48,0v12.1c0.7,0,1.3-0.1,2-0.1c0.7,0,1.3,0,2,0.1V51.8c0-2.2-1.8-3.8-4-3.8l-44,0V4c0-2.2-1.8-4-4-4H8  C5.8,0,4,1.8,4,4.1L4,124c0,2.2,1.7,4,3.9,4h69.8C75.6,126.9,73.7,125.5,71.9,124z"/><path d="M88,64.4v-4.5c0-2.2-1.7-3.9-3.7-3.9h-4.5c-2.1,0-3.7,1.8-3.7,3.9V69c1.3-0.8,2.6-1.5,4-2.1v-7l4,0l0,5.5  C85.3,65,86.6,64.7,88,64.4z"/><path d="M94,68c-16.6,0-30,13.4-30,30c0,16.6,13.4,30,30,30c16.6,0,30-13.4,30-30C124,81.4,110.6,68,94,68z M94,124  c-14.3,0-26-11.7-26-26s11.7-26,26-26c14.3,0,26,11.7,26,26S108.3,124,94,124z"/><path d="M111.8,85.1c0-0.1-1.7-0.2-3.8-0.5c-1.6-0.3-3.2-0.8-4.7-1.5c-2.6-1.2-5.1-2.8-8-3.1c-0.4,0-0.9-0.1-1.3-0.1  c-2.4,0-4.7,0.7-6.8,1.8c-2.6,1.4-5.1,2.9-8.1,3.1c-1,0.1-1.9,0.1-2.9,0.1c0,0-0.1,0-0.1,0h0C76,85,76,85.2,76,85.5  c0,0.2,0,0.3,0,0.5c0,1.7,0,3.3,0.2,5c0.3,3.9,1.1,7.7,2.3,11.3c2.5,7.4,7.8,14.5,15.3,17.6c0,0,0.1,0,0.2,0c0,0,0.1,0,0.1,0  c0.8-0.4,1.6-0.7,2.3-1.2c2.1-1.2,4-2.8,5.7-4.5c5.6-5.7,8.6-13.4,9.5-21.2c0.1-1.3,0.3-2.6,0.3-3.9c0.1-1.2,0.3-2.8,0.1-4  C111.9,85.2,111.9,85.2,111.8,85.1z M107.8,89.1c-0.1,1.1-0.2,2.3-0.3,3.6c-0.8,7.4-3.8,14.1-8.4,18.9c-1.5,1.5-3.1,2.8-4.8,3.8  c-0.1,0.1-0.3,0.2-0.4,0.2c-5.1-2.7-9.4-8-11.6-14.5c-1.1-3.4-1.9-6.9-2.1-10.4c0-0.6-0.1-1.2-0.1-1.8c3.2-0.4,5.9-1.8,8.2-3.1  c0.3-0.1,0.5-0.3,0.8-0.4c1.7-0.9,3.4-1.4,5-1.4c0.3,0,0.6,0,0.9,0c1.5,0.2,3,0.9,4.7,1.7c0.7,0.3,1.4,0.7,2.1,1  c1.8,0.8,3.6,1.4,5.6,1.7c0.2,0,0.4,0.1,0.6,0.1C107.8,88.8,107.8,88.9,107.8,89.1z"/><path d="M31.7,28h4.5c2.1,0,3.7-1.8,3.7-3.9V11.9C40,9.8,38.3,8,36.3,8h-4.5C29.7,8,28,9.8,28,11.9v12.2C28,26.2,29.7,28,31.7,28z   M32,12h4v12h-4V12z"/><path d="M15.7,52h4.5c2.1,0,3.7-1.8,3.7-3.9V35.9c0-2.2-1.7-3.9-3.7-3.9h-4.5c-2.1,0-3.7,1.8-3.7,3.9v12.2C12,50.2,13.7,52,15.7,52z   M16,36h4v12h-4V36z"/><path d="M31.7,52h4.5c2.1,0,3.7-1.8,3.7-3.9V35.9c0-2.2-1.7-3.9-3.7-3.9h-4.5c-2.1,0-3.7,1.8-3.7,3.9v12.2C28,50.2,29.7,52,31.7,52z   M32,36h4v12h-4V36z"/><path d="M15.7,76h4.5c2.1,0,3.7-1.8,3.7-3.9V59.9c0-2.2-1.7-3.9-3.7-3.9h-4.5c-2.1,0-3.7,1.8-3.7,3.9v12.2C12,74.2,13.7,76,15.7,76z   M16,60h4v12h-4V60z"/><path d="M31.7,76h4.5c2.1,0,3.7-1.8,3.7-3.9V59.9c0-2.2-1.7-3.9-3.7-3.9h-4.5c-2.1,0-3.7,1.8-3.7,3.9v12.2C28,74.2,29.7,76,31.7,76z   M32,60h4v12h-4V60z"/><path d="M47.7,76h4.5c2.1,0,3.7-1.8,3.7-3.9V59.9c0-2.2-1.7-3.9-3.7-3.9h-4.5c-2.1,0-3.7,1.8-3.7,3.9v12.2C44,74.2,45.7,76,47.7,76z   M48,60h4v12h-4V60z"/><path d="M63.7,76h4.5c2.1,0,3.7-1.8,3.7-3.9V59.9c0-2.2-1.7-3.9-3.7-3.9h-4.5c-2.1,0-3.7,1.8-3.7,3.9v12.2C60,74.2,61.7,76,63.7,76z   M64,60h4v12h-4V60z"/><path d="M15.7,100h4.5c2.1,0,3.7-1.8,3.7-3.9V83.9c0-2.2-1.7-3.9-3.7-3.9h-4.5c-2.1,0-3.7,1.8-3.7,3.9v12.2  C12,98.2,13.7,100,15.7,100z M16,84h4v12h-4V84z"/><path d="M31.7,100h4.5c2.1,0,3.7-1.8,3.7-3.9V83.9c0-2.2-1.7-3.9-3.7-3.9h-4.5c-2.1,0-3.7,1.8-3.7,3.9v12.2  C28,98.2,29.7,100,31.7,100z M32,84h4v12h-4V84z"/><path d="M47.7,100h4.5c2.1,0,3.7-1.8,3.7-3.9V83.9c0-2.2-1.7-3.9-3.7-3.9h-4.5c-2.1,0-3.7,1.8-3.7,3.9v12.2  C44,98.2,45.7,100,47.7,100z M48,84h4v12h-4V84z"/></svg>