<svg xmlns="http://www.w3.org/2000/svg" data-name="Layer 1" viewBox="0 0 128 160" x="0px" y="0px"><title>webdesign and development 04 final</title><path d="M10.04694,21.17639c-.25305,13.088.00311,57.87244,14.54535,75.88153,13.57184,16.82422,30.92816,26.98608,37.5365,30.47681a3.99544,3.99544,0,0,0,3.74243,0c6.60834-3.49072,23.96466-13.65259,37.5365-30.47681,14.54224-18.00909,14.7984-62.79358,14.54535-75.88153a4.01038,4.01038,0,0,0-3.63922-3.90283C94.12787,15.24622,72.55914,3.83905,65.80548.43042A4.00344,4.00344,0,0,0,64,0l.00226,4.01257,1.14221.57928C73.041,8.60547,94.01666,19.26672,113.94757,21.254c.51447,26.6145-2.80255,59.842-13.65643,73.2832-13.04236,16.168-29.723,25.981-36.293,29.44946-6.56622-3.46844-23.24683-13.28137-36.29053-29.451C16.855,81.09595,13.538,47.86847,14.08594,21.265,33.98334,19.26672,54.959,8.60547,62.85553,4.59186l1.14227-.57935.00244-.001L64,0a4.00344,4.00344,0,0,0-1.80548.43042c-6.75366,3.40863-28.32239,14.8158-48.50836,16.84314A4.01038,4.01038,0,0,0,10.04694,21.17639Z"/><path d="M22.02118,28.21881c.15259,22.98969,3.28046,50.57751,11.92035,61.2771C44.05444,102.0318,56.57538,110.47986,64,114.81061c7.42169-4.3288,19.94458-12.77783,30.06238-25.31958,8.636-10.6947,11.76385-38.28351,11.91644-61.27222C88.88635,25.05249,72.45648,17.246,64,13.0014,55.54449,17.246,39.11267,25.05151,22.02118,28.21881Zm4.04706,3.275c10.8866-2.37347,22.71838-6.6853,35.92865-13.054V32.99316A27.09157,27.09157,0,0,0,37.04,57.98279H27.99451A226.526,226.526,0,0,1,26.06824,31.49377Zm35.92865,77.384a106.17483,106.17483,0,0,1-24.94-21.90417c-3.63019-4.49548-6.539-13.30933-8.45776-24.97937H37.04A27.09157,27.09157,0,0,0,61.99689,86.98389ZM40.96417,59.98853A23.03585,23.03585,0,1,1,64,83.05457,23.07686,23.07686,0,0,1,40.96417,59.98853ZM90.94592,86.97021a106.18483,106.18483,0,0,1-24.94281,21.90771v-21.894A27.09157,27.09157,0,0,0,90.96,61.99426h8.34491c.03363,0,.065-.00824.09821-.00989C97.48486,73.65814,94.57629,82.47437,90.94592,86.97021ZM66.00311,18.43964C79.21759,24.80981,91.04877,29.1217,101.93176,31.494A226.27351,226.27351,0,0,1,99.98871,58.1106a1.984,1.984,0,0,0-.68384-.12781H90.96A27.09157,27.09157,0,0,0,66.00311,32.99316Z"/><path d="M60.06372,44.97577a2.28631,2.28631,0,0,0,.45087-.0509,1.99515,1.99515,0,1,0-.45087.0509Z"/><path d="M48.5556,60.01886a2.00312,2.00312,0,0,0-4.00623.00983,2.00313,2.00313,0,1,0,4.00623-.00983Z"/><path d="M47.41418,65.7854a2.01384,2.01384,0,0,0,.88123,3.8205,1.96042,1.96042,0,0,0,.87146-.21057,2.00646,2.00646,0,1,0-1.75269-3.60992Z"/><path d="M47.3941,54.25238a2.07588,2.07588,0,0,0,.86121.19977,2.01173,2.01173,0,1,0-.86121-.19977Z"/><path d="M67.3949,44.89551a1.57949,1.57949,0,0,0,.43085.04993,2.01529,2.01529,0,1,0-.43085-.04993Z"/><path d="M79.44391,59.9278v.06073a2.00311,2.00311,0,1,0,4.00623,0V59.9082a2.00314,2.00314,0,1,0-4.00623.01959Z"/><path d="M73.58472,47.864a2.00457,2.00457,0,0,0,2.49414-3.13885h-.01031A2.00136,2.00136,0,0,0,73.58472,47.864Z"/><path d="M81.52722,68.43262a2.00079,2.00079,0,1,0-3.60565-1.73541h-.01031a2.001,2.001,0,0,0,.94141,2.66779,1.89484,1.89484,0,0,0,.86169.20074A2.0023,2.0023,0,0,0,81.52722,68.43262Z"/><path d="M73.63458,72.07294a2.00074,2.00074,0,0,0-.32031,2.81763,2.02459,2.02459,0,0,0,1.57227.7522,1.96865,1.96865,0,0,0,1.252-.44073,2.00379,2.00379,0,0,0-2.50391-3.12909Z"/><path d="M67.45508,75.062a2.00516,2.00516,0,0,0,.44061,3.96057,2.27715,2.27715,0,0,0,.45093-.04993,2.0055,2.0055,0,0,0-.89154-3.91064Z"/><path d="M53.0929,48.36542a1.97177,1.97177,0,0,0,1.252-.44171,1.99731,1.99731,0,1,0-1.252.44171Z"/><path d="M79.69434,54.35223a1.94746,1.94746,0,0,0,.87146-.20074A2.00649,2.00649,0,0,0,78.813,50.54156a2.02107,2.02107,0,0,0-.92181,2.68738A1.996,1.996,0,0,0,79.69434,54.35223Z"/><path d="M54.39471,72.09253a2.00479,2.00479,0,1,0-2.49359,3.13983,1.9685,1.9685,0,0,0,1.24164.431,2.00608,2.00608,0,0,0,1.252-3.5708Z"/><path d="M60.57428,75.07178a2.00433,2.00433,0,0,0-.88129,3.91058,2.26494,2.26494,0,0,0,.44067.051,2.00567,2.00567,0,0,0,.44061-3.96155Z"/><path d="M64,48.95691A11.03163,11.03163,0,1,0,75.01715,59.98853,11.03689,11.03689,0,0,0,64,48.95691Zm0,18.0517a7.02009,7.02009,0,1,1,7.01093-7.02008A7.02371,7.02371,0,0,1,64,67.00861Z"/></svg>