<svg xmlns="http://www.w3.org/2000/svg" version="1.1" viewBox="-5.0 -10.0 110.0 135.0">
 <path d="m68.75 44.082h6.25c0.85938 0 1.5586-0.69531 1.5625-1.5547v-6.2109c-0.003906-0.85938-0.70312-1.5547-1.5625-1.5508h-6.25c-0.85938-0.003906-1.5586 0.69141-1.5625 1.5508v6.2109c0.003906 0.85938 0.70312 1.5547 1.5625 1.5547zm1.5625-6.2109h3.125v3.1055h-3.125z"/>
 <path d="m81.25 44.082h6.25c0.85938 0 1.5586-0.69531 1.5625-1.5547v-6.2109c-0.003906-0.85938-0.70312-1.5547-1.5625-1.5508h-6.25c-0.85938-0.003906-1.5586 0.69141-1.5625 1.5508v6.2109c0.003906 0.85938 0.70312 1.5547 1.5625 1.5547zm1.5625-6.2109h3.125v3.1055h-3.125z"/>
 <path d="m67.188 54.949c0.003906 0.85938 0.70312 1.5547 1.5625 1.5508h6.25c0.85938 0.003906 1.5586-0.69141 1.5625-1.5508v-6.2109c-0.003906-0.85938-0.70312-1.5547-1.5625-1.5508h-6.25c-0.85938-0.003906-1.5586 0.69141-1.5625 1.5508zm3.125-4.6562h3.125v3.1055l-3.125-0.003907z"/>
 <path d="m79.688 54.949c0.003906 0.85938 0.70312 1.5547 1.5625 1.5508h6.25c0.85938 0.003906 1.5586-0.69141 1.5625-1.5508v-6.2109c-0.003906-0.85938-0.70312-1.5547-1.5625-1.5508h-6.25c-0.85938-0.003906-1.5586 0.69141-1.5625 1.5508zm3.125-4.6562h3.125v3.1055h-3.125z"/>
 <path d="m20.312 49.516c-0.003906-0.85938-0.70312-1.5547-1.5625-1.5547h-6.25c-0.85938 0-1.5586 0.69531-1.5625 1.5547v6.2109c0.003906 0.85938 0.70312 1.5547 1.5625 1.5508h6.25c0.85938 0.003906 1.5586-0.69141 1.5625-1.5508zm-3.125 4.6562h-3.125v-3.1055h3.125z"/>
 <path d="m32.812 55.727v-6.2109c-0.003906-0.85938-0.70312-1.5547-1.5625-1.5547h-6.25c-0.85938 0-1.5586 0.69531-1.5625 1.5547v6.2109c0.003906 0.85938 0.70312 1.5547 1.5625 1.5508h6.25c0.85938 0.003906 1.5586-0.69141 1.5625-1.5508zm-3.125-1.5508-3.125-0.003906v-3.1055h3.125z"/>
 <path d="m18.75 60.383h-6.25c-0.85938-0.003906-1.5586 0.69141-1.5625 1.5547v6.2109-0.003907c0.003906 0.86328 0.70312 1.5586 1.5625 1.5547h6.25c0.85938 0.003906 1.5586-0.69141 1.5625-1.5547v-6.207c-0.003906-0.86328-0.70312-1.5586-1.5625-1.5547zm-1.5625 6.2109h-3.125v-3.1055h3.125z"/>
 <path d="m23.438 61.938v4.2812l5.8711-5.832-4.3086-0.003907c-0.85938-0.003906-1.5586 0.69141-1.5625 1.5547z"/>
 <path d="m45.312 66.594h-7.8125c-0.85938-0.003906-1.5586 0.69141-1.5625 1.5508v7.7656c0.003906 0.85938 0.70312 1.5547 1.5625 1.5508h7.8125c0.85938 0.003906 1.5586-0.69141 1.5625-1.5508v-7.7656c-0.003906-0.85938-0.70312-1.5547-1.5625-1.5508zm-1.5625 7.7617h-4.6875v-4.6562h4.6875z"/>
 <path d="m98.438 92.988h-3.125v-63.637l2.0664 1.8945c0.62891 0.58594 1.6133 0.55078 2.1992-0.078125 0.58594-0.63281 0.55078-1.6172-0.082031-2.2031l-20.312-18.633v0.003907c-0.59766-0.55078-1.5195-0.55078-2.1172 0l-20.312 18.633v-0.003906c-0.30469 0.28125-0.48438 0.66797-0.50391 1.0781-0.015625 0.41406 0.13281 0.81641 0.41406 1.1172 0.58594 0.62891 1.5742 0.66797 2.207 0.085938l2.0664-1.8945v21.34l3.125 3.1055v-27.309l14.062-12.898 14.062 12.898v66.5h-21.875v-24.199l5.1445 5.1133c0.61328 0.60547 1.5977 0.60547 2.2109 0 0.29297-0.28906 0.45703-0.6875 0.45703-1.0977 0-0.41406-0.16406-0.80859-0.45703-1.0977l-26.562-26.395c-0.61328-0.60547-1.5977-0.60547-2.2109 0l-26.562 26.395c-0.29297 0.28906-0.45703 0.68359-0.45703 1.0977 0 0.41016 0.16406 0.80859 0.45703 1.0977 0.61328 0.60547 1.5977 0.60547 2.2109 0l5.1445-5.1133v24.199h-21.875v-52.789c-0.003906-0.15234-0.027344-0.30078-0.074219-0.44531l14.137-12.969 14.137 12.965v0.003906c-0.046875 0.14453-0.070313 0.29297-0.074219 0.44531v13.598l3.125-3.1055v-8.1406l2.0664 1.8945c0.62891 0.58594 1.6133 0.54688 2.1992-0.082031 0.58594-0.62891 0.55078-1.6133-0.082031-2.1992l-20.312-18.633c-0.59766-0.54688-1.5195-0.54688-2.1172 0l-20.312 18.633c-0.30469 0.27734-0.48437 0.66406-0.50391 1.0781-0.015625 0.41016 0.13281 0.8125 0.41406 1.1133 0.58594 0.63281 1.5742 0.67188 2.207 0.089843l2.0664-1.8945v50.438h-3.125c-0.41406-0.003906-0.8125 0.16016-1.1055 0.45312-0.29297 0.28906-0.45703 0.6875-0.45703 1.1016 0 0.41016 0.16406 0.80859 0.45703 1.1016 0.29297 0.28906 0.69141 0.45312 1.1055 0.44922h96.875c0.41406 0.003906 0.8125-0.16016 1.1055-0.44922 0.29297-0.29297 0.45703-0.69141 0.45703-1.1016 0-0.41406-0.16406-0.8125-0.45703-1.1016-0.29297-0.29297-0.69141-0.45703-1.1055-0.45312zm-37.5 0h-9.375v-11.645h9.375zm6.25-27.172v27.172h-3.125v-13.195c-0.003906-0.86328-0.70312-1.5586-1.5625-1.5547h-12.5c-0.85938-0.003906-1.5586 0.69141-1.5625 1.5547v13.199l-15.625-0.003907v-27.172c0-0.042968-0.007812-0.082031-0.011719-0.12109l17.199-17.09 17.199 17.09c-0.003907 0.042969-0.011719 0.082032-0.011719 0.12109z"/>
 <path d="m42.969 3.9062c-0.85938-0.003906-1.5586 0.69141-1.5625 1.5508v3.3281c0 0.86328 0.69922 1.5625 1.5625 1.5625s1.5625-0.69922 1.5625-1.5625v-3.3281c-0.003906-0.85938-0.70312-1.5547-1.5625-1.5508z"/>
 <path d="m33.598 13.617c0.44531 0 0.86719-0.1875 1.1641-0.51563 0.27734-0.30469 0.41797-0.70703 0.39844-1.1211-0.023437-0.41016-0.21094-0.79688-0.51562-1.0703l-2.4688-2.2031c-0.64453-0.57031-1.6289-0.51953-2.207 0.12109-0.27734 0.30469-0.41797 0.70703-0.39844 1.1211 0.023438 0.41016 0.21094 0.79688 0.51953 1.0703l2.4648 2.1992c0.28516 0.25781 0.66016 0.39844 1.043 0.39844z"/>
 <path d="m53.934 8.707-2.4688 2.1992 0.003906 0.003906c-0.30859 0.27344-0.49609 0.66016-0.51953 1.0703-0.019531 0.41016 0.12109 0.81641 0.39844 1.1211 0.57812 0.63672 1.5625 0.69141 2.207 0.11719l2.4688-2.1992c0.30859-0.27344 0.49219-0.66016 0.51562-1.0703 0.023438-0.41406-0.12109-0.81641-0.39844-1.1211-0.57812-0.64062-1.5625-0.69141-2.207-0.12109z"/>
 <path d="m36.523 10.125c0.35937 0.78125 1.2852 1.125 2.0664 0.76562s1.125-1.2812 0.76953-2.0625l-1.3359-2.875 0.003906-0.003906c-0.36328-0.77734-1.293-1.1172-2.0742-0.75781-0.375 0.16797-0.66797 0.48438-0.8125 0.87109-0.14062 0.38672-0.125 0.8125 0.046875 1.1875z"/>
 <path d="m50.199 5.207c-0.78125-0.36328-1.707-0.023437-2.0742 0.75391l-1.3438 2.8711c-0.17188 0.375-0.19141 0.80469-0.050781 1.1914 0.14453 0.38672 0.43359 0.69922 0.80859 0.87109 0.78125 0.36328 1.7109 0.027344 2.0781-0.75391l1.3438-2.8711c0.17187-0.375 0.19141-0.80078 0.046874-1.1875-0.14062-0.38672-0.43359-0.70312-0.80859-0.875z"/>
 <path d="m53.918 16.414c0.30859 0.80469 1.207 1.2109 2.0117 0.90625l3.2148-1.207c0.39062-0.14844 0.70312-0.44141 0.87109-0.81641 0.17188-0.37891 0.18359-0.80469 0.039063-1.1914-0.14844-0.38672-0.44141-0.69922-0.82031-0.86719s-0.80859-0.17969-1.1914-0.03125l-3.2148 1.207h-0.003906c-0.38672 0.14453-0.69922 0.4375-0.87109 0.8125-0.16797 0.375-0.18359 0.80469-0.035156 1.1875z"/>
 <path d="m27.859 13.57c-0.39062-0.13672-0.81641-0.11719-1.1914 0.0625-0.375 0.17578-0.66016 0.49609-0.79688 0.88672-0.13672 0.39062-0.11328 0.81641 0.066406 1.1914 0.17969 0.37109 0.5 0.65625 0.89062 0.79297l3.25 1.1289c0.8125 0.28125 1.7031-0.14453 1.9922-0.95312 0.13672-0.39063 0.11328-0.82031-0.070312-1.1914-0.17969-0.37109-0.5-0.65234-0.89062-0.78906z"/>
 <path d="m32.727 20.984c0 0.86328 0.69922 1.5625 1.5625 1.5625 0.86328 0 1.5625-0.69922 1.5625-1.5625 0-3.5703 3.1914-6.4766 7.1172-6.4766s7.1172 2.9062 7.1172 6.4766c0 0.86328 0.69922 1.5625 1.5625 1.5625 0.86328 0 1.5625-0.69922 1.5625-1.5625 0-5.2852-4.5938-9.582-10.242-9.582s-10.242 4.2969-10.242 9.582z"/>
</svg>
