<svg xmlns="http://www.w3.org/2000/svg" data-name="Layer 1" viewBox="0 0 128 160" x="0px" y="0px"><title>miscellaneous 48 expandline</title><path d="M95.46,59c3,0,3.07-1.42,1.67-3.53L89.3,42.66A4,4,0,0,0,86,41H42a4,4,0,0,0-3.27,1.66L30.87,55.47C29.47,57.54,29.58,59,32.54,59H37V83H34a2,2,0,0,0,0,4H93a2,2,0,0,0,0-4H91V59ZM74.55,45l6.16,10h-7.3L67.25,45ZM68.71,55H60.58l4.06-6.6ZM62,45,55.88,55h-7.3l6.16-10ZM37,55H35.85L42,45H50L43.88,55H37ZM61,83H51V71H61Zm26,0H65V69.46A2.52,2.52,0,0,0,62.43,67H49.57A2.52,2.52,0,0,0,47,69.46V83H41V59H87ZM85.41,55,79.25,45H86l6.11,10H85.41Z"/><path d="M73,76h6a2,2,0,0,0,0-4H73a2,2,0,0,0,0,4Z"/><path d="M6.4,1.29l-5.76,10C-.39,12.87-.31,14,1.87,14H5V30H4a2,2,0,0,0,0,4H46a2,2,0,0,0,0-4H45V14h3.13c2.18,0,2.26-1.1,1.23-2.74l-5.76-10A2.92,2.92,0,0,0,41.19,0H8.81A2.92,2.92,0,0,0,6.4,1.29ZM21,30H17V24h4Zm20,0H25V21.72A1.72,1.72,0,0,0,23.29,20H14.71A1.72,1.72,0,0,0,13,21.72V30H9V14H41ZM40.54,4,44,10H40.62l-3.7-6ZM32.23,4l3.7,6H32l-3.7-6ZM25,6.41,27.25,10H22.83ZM17.85,4h4l-3.7,6h-4ZM9.46,4h3.7l-3.7,6H6Z"/><path d="M31,26h4a2,2,0,0,0,0-4H31a2,2,0,0,0,0,4Z"/><path d="M121.6,1.29A2.92,2.92,0,0,0,119.19,0H86.81A2.92,2.92,0,0,0,84.4,1.29l-5.76,10c-1,1.61-.95,2.74,1.23,2.74H83V30H82a2,2,0,0,0,0,4h42a2,2,0,0,0,0-4h-1V14h3.13c2.18,0,2.26-1.1,1.23-2.74ZM110.23,4l3.7,6h-4l-3.7-6ZM103,6.41,105.25,10h-4.43ZM95.85,4h4l-3.7,6h-4ZM87.46,4h3.7l-3.7,6H84ZM99,30H95V24h4Zm20,0H103V21.72A1.72,1.72,0,0,0,101.29,20H92.71A1.72,1.72,0,0,0,91,21.72V30H87V14h32Zm-.38-20-3.7-6h3.62L122,10Z"/><path d="M109,26h4a2,2,0,0,0,0-4h-4a2,2,0,0,0,0,4Z"/><path d="M1.87,108H5v16H4a2,2,0,0,0,0,4H46a2,2,0,0,0,0-4H45V108h3.13c2.18,0,2.26-1.1,1.23-2.74l-5.76-10A2.92,2.92,0,0,0,41.19,94H8.81A2.92,2.92,0,0,0,6.4,95.29l-5.76,10C-.39,106.87-.31,108,1.87,108ZM21,124H17v-6h4Zm20,0H25v-8.28A1.72,1.72,0,0,0,23.29,114H14.71A1.72,1.72,0,0,0,13,115.72V124H9V108H41Zm-.46-26L44,104H40.62l-3.7-6Zm-8.32,0,3.7,6H32l-3.7-6ZM25,100.41,27.25,104H22.83ZM17.85,98h4l-3.7,6h-4ZM9.46,98h3.7l-3.7,6H6Z"/><path d="M31,120h4a2,2,0,0,0,0-4H31a2,2,0,0,0,0,4Z"/><path d="M121.6,95.29A2.92,2.92,0,0,0,119.19,94H86.81a2.92,2.92,0,0,0-2.41,1.29l-5.76,10c-1,1.61-.95,2.74,1.23,2.74H83v16H82a2,2,0,0,0,0,4h42a2,2,0,0,0,0-4h-1V108h3.13c2.18,0,2.26-1.1,1.23-2.74ZM110.23,98l3.7,6h-4l-3.7-6ZM103,100.41l2.21,3.59h-4.43ZM95.85,98h4l-3.7,6h-4Zm-8.39,0h3.7l-3.7,6H84ZM99,124H95v-6h4Zm20,0H103v-8.28a1.72,1.72,0,0,0-1.71-1.72H92.71A1.72,1.72,0,0,0,91,115.72V124H87V108h32Zm-.38-20-3.7-6h3.62l3.47,6Z"/><path d="M109,120h4a2,2,0,0,0,0-4h-4a2,2,0,0,0,0,4Z"/><path d="M26,58H18V47.73a2,2,0,0,0,2.79-2.62l-3-6a2,2,0,0,0-3.58,0l-3,6A2,2,0,0,0,14,47.73V60a2,2,0,0,0,2,2H26a2,2,0,0,0,0-4Z"/><path d="M26,70a2,2,0,0,0,0-4H16a2,2,0,0,0-2,2V80.27a2,2,0,0,0-2.79,2.62l3,6a2,2,0,0,0,3.58,0l3-6A2,2,0,0,0,18,80.27V70Z"/><path d="M102,58a2,2,0,0,0,0,4h10a2,2,0,0,0,2-2V47.73a2,2,0,0,0,2.79-2.62l-3-6a2,2,0,0,0-3.58,0l-3,6A2,2,0,0,0,110,47.73V58Z"/><path d="M102,70h8V80.27a2,2,0,0,0-2.79,2.62l3,6a2,2,0,0,0,3.58,0l3-6A2,2,0,0,0,114,80.27V68a2,2,0,0,0-2-2H102a2,2,0,0,0,0,4Z"/></svg>