<svg xmlns="http://www.w3.org/2000/svg" data-name="Layer 1" viewBox="0 0 128 160" x="0px" y="0px"><title>Business-Management 03 expandlines</title><path d="M13.22583,47.3111a4.43892,4.43892,0,0,0,2.23845-.5321c4.96643-2.82305,5.805-7.00919,5.88427-7.47738.15813-.93407-.12259-2.01819.6353-2.80557a3.711,3.711,0,0,1,1.88851-.85511,50.2405,50.2405,0,0,1,7.21335,5.20023,4.05788,4.05788,0,0,0,5.29349-.12711L50.62542,57.07941a5.976,5.976,0,0,1,3.63629-1.33789l.27069-.26654L39.28783,37.96313l2.54443-2.41187L58.29888,51.76611l2.85052-2.80695-16.43927-16.188a3.98889,3.98889,0,0,0,.27-4.84662,41.07457,41.07457,0,0,1-4.98651-9.81366A11.10454,11.10454,0,0,1,47.13177,15.814,22.37946,22.37946,0,0,1,56.306,18.07575a4.043,4.043,0,0,0,5.16461-1.27014,3.99435,3.99435,0,0,0-.65-5.26874c-6.45148-5.665-13.11151-8.53735-19.7951-8.53735A23.29882,23.29882,0,0,0,25.42669,9.10724L14.74291,19.23444a3.99958,3.99958,0,0,0-1.24457,3.0733,3.42365,3.42365,0,0,1-.635,2.54017,4.44518,4.44518,0,0,1-3.3405.9467,3.44329,3.44329,0,0,0-.73816.09106C3.87084,26.90552.93,31.40027.61083,31.90948a4,4,0,0,0-.44824,3.25336C3.56408,46.7254,11.641,47.3111,13.22583,47.3111ZM9.59753,29.80219s.10724.00684.29626.00684c1.47083,0,7.91022-.41309,7.60089-7.67157L28.20354,11.98657a19.12889,19.12889,0,0,1,12.822-4.98706c4.75867,0,10.61029,1.79547,17.15582,7.54309A26.22872,26.22872,0,0,0,47.132,11.814,14.94346,14.94346,0,0,0,35.48083,16.9043a40.65784,40.65784,0,0,0,6.19891,13.28015l-8.016,7.59833s-6.53009-5.50665-9.29047-6.23193c0,0-7.27429.21155-6.96857,7.08289,0,0-.4574,2.70123-3.91711,4.66785,0,0-.0932.00952-.262.00952-1.24908,0-6.64966-.52075-9.22565-9.27716C4,34.03394,6.21215,30.50482,9.59753,29.80219Z"/><circle cx="33.22938" cy="29.3577" r="2.00006" transform="translate(-1.63495 1.96163) rotate(-3.30022)"/><path d="M77.6549,62.84961l-2.63031,3.02148,35.03784,34.01819-9.29846,8.9165L69.421,74.76892c-.10236.1319-2.70184,2.97083-2.70184,2.97083l40.563,44.04883a9.811,9.811,0,0,0,7.19824,3.21191,9.57048,9.57048,0,0,0,6.46289-2.49121l1.94238-1.75879a9.38078,9.38078,0,0,0,.27734-13.71777Zm42.54529,54.936-1.94238,1.75879a5.70388,5.70388,0,0,1-8.00977-.43945l-6.77454-7.35681,9.46-9.07141,7.43561,7.21924A5.45164,5.45164,0,0,1,120.20019,117.78564Z"/><path d="M127.38921,31.90948c-.31915-.50922-3.26-5.004-8.17389-6.0238a3.63493,3.63493,0,0,0-.76611-.08905,4.5254,4.5254,0,0,1-3.31251-.94873,3.42311,3.42311,0,0,1-.635-2.54016,4,4,0,0,0-1.24457-3.0733L102.57323,9.10718A23.30048,23.30048,0,0,0,86.97472,2.99951c-6.68329-.00037-13.34344,2.872-19.79529,8.53735a4,4,0,0,0-.64833,5.28428A4.04183,4.04183,0,0,0,71.70672,18.069,22.37494,22.37494,0,0,1,80.868,15.814a11.10742,11.10742,0,0,1,7.13879,2.29724,41.08969,41.08969,0,0,1-4.98694,9.81329,3.98891,3.98891,0,0,0,.2702,4.84686l-27.773,27.34833a1.99376,1.99376,0,0,0-2.55029.18549L4.83056,107.03955a9.39812,9.39812,0,0,0,.28418,13.71094l1.94238,1.75879a9.7529,9.7529,0,0,0,13.6377-.69531l45.4624-49.36914A1.9882,1.9882,0,0,0,66.2528,69.856L91.62127,40.71448a3.99263,3.99263,0,0,0,5.293.12671,49.42559,49.42559,0,0,1,7.26-5.22186,2.5262,2.5262,0,0,1,2.425,2.83655,4.00442,4.00442,0,0,0,.05219.8457c.07928.468.91772,4.65429,5.88427,7.47741a4.44532,4.44532,0,0,0,2.23865.53211c1.58459,0,9.66156-.58569,13.063-12.14825A4,4,0,0,0,127.38921,31.90948ZM27.23663,108.806l-9.2995-8.91718L54.40771,64.481l7.44043,6.73828ZM58.50274,62.79333l27.665-27.24213,2.5448,2.41223L63.309,67.14551Zm-40.77325,56.337a5.6533,5.6533,0,0,1-7.98779.41406l-1.94238-1.75879a5.39961,5.39961,0,0,1-.17578-7.88379l7.442-7.22516,9.46112,9.0722ZM114.77435,43.3111c-.16876,0-.262-.00952-.262-.00952-3.45966-1.96661-3.91711-4.66785-3.91711-4.66785.30579-6.87134-6.96851-7.08289-6.96851-7.08289-2.76038.72528-9.29053,6.23193-9.29053,6.23193L86.3203,30.18445A40.65836,40.65836,0,0,0,92.51916,16.9043,14.94407,14.94407,0,0,0,80.868,11.814,26.22258,26.22258,0,0,0,69.81866,14.5426C76.36425,8.795,82.21587,6.99927,86.97454,6.99951a19.131,19.131,0,0,1,12.822,4.98706l10.7088,10.15088c-.30927,7.25848,6.13007,7.67157,7.601,7.67157.189,0,.2962-.00684.2962-.00684C121.78789,30.50482,124,34.03394,124,34.03394,121.424,42.79034,116.02343,43.3111,114.77435,43.3111Z"/><circle cx="94.77061" cy="29.3577" r="1.99982" transform="translate(60.00586 122.28108) rotate(-86.69978)"/></svg>