<svg xmlns="http://www.w3.org/2000/svg" xmlns:xlink="http://www.w3.org/1999/xlink" version="1.1" x="0px" y="0px" viewBox="0 0 128 160" style="enable-background:new 0 0 128 128;" xml:space="preserve"><title>90 SEO and marketing 4 final</title><path d="M30.3,35.2c-0.5,0-1.1,0.2-1.4,0.6C17,47.5,10,64.9,10,82.1c0,17,6.7,33.3,18.8,45.3c0.8,0.8,2.1,0.8,2.8,0l0,0l22.1-22  c12.9,11.3,32.6,10.1,44-2.8s10.1-32.5-2.8-43.8C83.2,48.6,65.8,48.5,54,58.6L31.7,35.8C31.3,35.4,30.8,35.2,30.3,35.2z M74.3,55.1  c15,0,27.1,12.1,27.2,27s-12.1,27-27.1,27.1c-6.5,0-12.8-2.3-17.8-6.6l18.5-18.5h8.2c1.1,0,2-0.9,2-2s-0.9-2-2-2h-7v-7.2  c0-1.1-0.9-2-2-2s-2,0.9-2,2v4.3L56.8,61.4C61.7,57.3,67.9,55.1,74.3,55.1z M71.5,82.1L53.8,99.7C44.9,89.5,45,74.4,54,64.2  L71.5,82.1z M43.2,82.1c0,7.5,2.8,14.8,7.8,20.5l-20.6,20.6C19.8,112,14,97.4,14,82.1c0-15.5,5.8-30.5,16.2-42l20.9,21.3  C46,67.1,43.1,74.4,43.2,82.1z"/><path d="M66.3,30c-3.4,0-6.1,2.7-6.1,6.1v4.8c-4.3,1.4-8.3,3.5-11.9,6.2l2.8,2.9c17.8-12.7,42.6-8.7,55.4,9.1s8.7,42.5-9.1,55.2  c-14,10-32.8,9.9-46.6-0.3l-2.9,2.9c19.2,14.5,46.6,10.7,61.2-8.5s10.7-46.5-8.5-61c-3.7-2.8-7.9-5-12.3-6.5v-4.8  c0-3.4-2.7-6.1-6.1-6.1h-1.9V19.9c9.1-1,16.1-8.7,16.1-17.9c0-1.1-0.9-2-2-2H54.2c-1.1,0-2,0.9-2,2c0,9.2,6.9,16.9,16.1,17.9V30  H66.3z M56.4,4h35.9c-1,6.9-6.9,12-13.9,12h-8C63.3,16,57.4,10.9,56.4,4z M76.3,20v10h-4V20H76.3z M82.3,34c1.1,0,2.1,0.9,2.1,2.1  v3.6c-6.6-1.6-13.5-1.6-20.1,0v-3.6c0-1.1,0.9-2.1,2.1-2.1H82.3z"/><path d="M74.3,67.1c1.1,0,2-0.9,2-2v-4c0-1.1-0.9-2-2-2s-2,0.9-2,2v4C72.3,66.2,73.2,67.1,74.3,67.1z"/><path d="M74.3,97.1c-1.1,0-2,0.9-2,2v4c0,1.1,0.9,2,2,2s2-0.9,2-2v-4C76.3,98,75.4,97.1,74.3,97.1z"/><path d="M89.4,82.1c0,1.1,0.9,2,2,2h4c1.1,0,2-0.9,2-2s-0.9-2-2-2h-4C90.3,80.1,89.4,81,89.4,82.1z"/><path d="M53.2,84.1h4c1.1,0,2-0.9,2-2s-0.9-2-2-2h-4c-1.1,0-2,0.9-2,2S52.1,84.1,53.2,84.1z"/><path d="M87.8,92.7c-0.8-0.8-2.1-0.8-2.8,0c-0.8,0.8-0.8,2,0,2.8l2.8,2.8c0.8,0.8,2.1,0.8,2.8,0c0.8-0.8,0.8-2,0-2.8L87.8,92.7z"/><path d="M86.4,72.1c0.5,0,1-0.2,1.4-0.6l2.8-2.8c0.8-0.8,0.8-2.1,0-2.8c-0.8-0.8-2-0.8-2.8,0L85,68.7c-0.8,0.8-0.8,2.1,0,2.8  C85.3,71.9,85.8,72.1,86.4,72.1z"/></svg>