<svg xmlns="http://www.w3.org/2000/svg" data-name="Layer 1" viewBox="0 0 128 160" x="0px" y="0px"><title>miscellaneous 169_expandline</title><path d="M64,92a6,6,0,1,0-6-6A6.00656,6.00656,0,0,0,64,92Zm0-8a2,2,0,1,1-2,2A2.00234,2.00234,0,0,1,64,84Z"/><path d="M126,124H112V110.3149a6.33034,6.33034,0,0,0-2.46291-4.7905L108,104.4243V95h2a2,2,0,0,0,0-4h-2V89a2,2,0,0,0-4,0v2h-2a2,2,0,0,0,0,4h2v6.561l-9-6.4419V90.8989a7.04675,7.04675,0,0,0-2.16021-4.8237L80,74.6079V55h2a2,2,0,0,0,0-4H78V40h1a2,2,0,0,0,0-4H75.23629L66,17.5273V10h4a2,2,0,0,0,0-4H66V2a2,2,0,0,0-4,0V6H58a2,2,0,0,0,0,4h4v7.5273L52.76369,36H49a2,2,0,0,0,0,4h1V51H46a2,2,0,0,0,0,4h2V74.6074L35.15969,86.0747A7.04716,7.04716,0,0,0,33,90.8989v4.2202l-9,6.4419V96h2a2,2,0,0,0,0-4H24V90a2,2,0,0,0-4,0v2H18a2,2,0,0,0,0,4h2v8.4238l-1.53761,1.1006A6.32981,6.32981,0,0,0,16,110.3149V124H2a2,2,0,0,0,0,4H126a2,2,0,0,0,0-4Zm-18.791-15.2227a2.4326,2.4326,0,0,1,.791,1.5376V124H95V100.0386ZM73.998,40H74V51H54V40ZM64,22.4722,70.76369,36H57.23629ZM52,55H76V71.0356L65.332,61.5083a1.99948,1.99948,0,0,0-2.664,0L52,71.0352ZM37.82369,89.0586,64,65.6816,90.17679,89.0591A3.17411,3.17411,0,0,1,91,90.8989V124H77V110.4233C77,103.5732,71.168,98,64,98c-7.16851,0-13,5.5732-13,12.4233V124H37V90.8989A3.16985,3.16985,0,0,1,37.82369,89.0586ZM73,124H55V110.4233C55,105.7788,59.03759,102,64,102c4.96289,0,9,3.7788,9,8.4233ZM20,110.3149a2.4307,2.4307,0,0,1,.79049-1.5376L33,100.0386V124H20Z"/><path d="M39.71729,30.8774a4.70909,4.70909,0,0,1,3.7314.232,2.00005,2.00005,0,0,0,1.7901-3.5772,8.66714,8.66714,0,0,0-6.8741-.4194A9.10752,9.10752,0,0,0,33.104,32.0742a9.76189,9.76189,0,0,0,4.34909,12.5855,1.99981,1.99981,0,0,0,1.791-3.5762,5.71833,5.71833,0,0,1-2.4819-7.3911A5.143,5.143,0,0,1,39.71729,30.8774Z"/><path d="M24.67189,29.9771l3.8218,1.9165a1.99978,1.99978,0,0,0,1.7929-3.5752l-3.8218-1.9165a1.99978,1.99978,0,0,0-1.7929,3.5752Z"/><path d="M23.89359,36.9512s4.2861.2275,4.3222.2275a2,2,0,0,0,.1045-3.9971l-4.2139-.2246a1.99993,1.99993,0,0,0-.2128,3.9942Z"/><path d="M30.83059,39.6479a1.99927,1.99927,0,0,0-2.5777-1.1645l-3.9658,1.498a2.00008,2.00008,0,0,0-1.1645,2.5777,2.02609,2.02609,0,0,0,2.5776,1.1645l3.96581-1.498A2.00014,2.00014,0,0,0,30.83059,39.6479Z"/><path d="M29.79049,49.2813l3.1153-2.9981a1.99982,1.99982,0,1,0-2.7735-2.8818l-3.1152,2.998a1.99982,1.99982,0,0,0,2.7734,2.8819Z"/><path d="M32.90039,53.8286a2.01758,2.01758,0,0,0,2.6382-1.019l1.7871-4.0367a1.99979,1.99979,0,0,0-3.6572-1.6191l-1.7872,4.0366A1.99939,1.99939,0,0,0,32.90039,53.8286Z"/><path d="M45.40579,25.5684a2.01839,2.01839,0,0,0,2.6381-1.0201l1.7852-4.0361a2.00006,2.00006,0,1,0-3.6582-1.6182l-1.7852,4.0362A2.00012,2.00012,0,0,0,45.40579,25.5684Z"/><path d="M41.33589,24.459A1.944,1.944,0,0,0,43.417,22.5439l.18549-4.4609a1.99977,1.99977,0,0,0-3.9961-.166l-.1855,4.4609A2.02683,2.02683,0,0,0,41.33589,24.459Z"/><path d="M34.64259,23.8711a2.02543,2.02543,0,0,0,2.539,1.2461,1.9997,1.9997,0,0,0,1.2461-2.5391l-1.4365-4.206a1.99991,1.99991,0,1,0-3.7851,1.2929Z"/><path d="M30.79789,27.2124a1.99993,1.99993,0,1,0,3.0332-2.6074l-2.8472-3.3125a1.99993,1.99993,0,1,0-3.0332,2.6074Z"/><path d="M43,115h2a2,2,0,0,0,0-4H43a2,2,0,0,0,0,4Z"/><path d="M83,115h2a2,2,0,0,0,0-4H83a2,2,0,0,0,0,4Z"/></svg>