<svg xmlns="http://www.w3.org/2000/svg" data-name="Layer 1" viewBox="0 0 128 160" x="0px" y="0px"><title>startup and development 01 final</title><path d="M113,117.49738V126a2,2,0,0,0,4,0V102.95215c0-.53278-.024-1.05957-.05872-1.58337l-.01312.0249A22.73279,22.73279,0,0,0,98.99139,80.41479,3.99513,3.99513,0,0,0,95,76.5H91A3.987,3.987,0,0,0,87.05042,80h-.80286a35.12679,35.12679,0,0,1-6.02771,4H87v16H41V84h6.78015a35.12679,35.12679,0,0,1-6.02771-4h-.80286A3.987,3.987,0,0,0,37,76.5H33a3.99517,3.99517,0,0,0-3.99139,3.91479A22.79886,22.79886,0,0,0,11,102.95215V126a2,2,0,0,0,4,0V102.95215A18.81817,18.81817,0,0,1,29,84.5376V126a2,2,0,0,0,4,0V104H95v22a2,2,0,0,0,4,0V84.5376a18.81817,18.81817,0,0,1,14,18.41455v14.54523ZM37,100H33V80.5h4Zm58,0H91V80.5h4Z"/><path d="M24,19a7.96377,7.96377,0,0,1,5.47052,2.17377,37.92982,37.92982,0,0,1,1.90735-3.6178,11.99023,11.99023,0,1,0-8.37482,21.39349,7.89948,7.89948,0,0,1,1.09418-3.95435C24.06451,34.99548,24.03284,35,24,35a8,8,0,0,1,0-16Z"/><path d="M3.08087,32.732a21.67189,21.67189,0,0,0,2.074,5.00677,5.54505,5.54505,0,0,0,1.33069,5.68787l1.08783,1.08783a5.55388,5.55388,0,0,0,5.69183,1.33289A21.677,21.677,0,0,0,18.268,47.91913,5.54482,5.54482,0,0,0,23.23077,51h1.53845a5.49325,5.49325,0,0,0,2.81158-.77838A8.0419,8.0419,0,0,1,24.08246,47h-.85168a1.53848,1.53848,0,0,1-1.53845-1.53845v-.924A17.59733,17.59733,0,0,1,13.23059,41.033l-.65308.65308a1.53843,1.53843,0,0,1-2.17572,0L9.314,40.59821a1.53843,1.53843,0,0,1,0-2.17572l.653-.653a17.59781,17.59781,0,0,1-3.50452-8.46179h-.924A1.53848,1.53848,0,0,1,4,27.76923V26.23077a1.53848,1.53848,0,0,1,1.53845-1.53845h.924A17.59781,17.59781,0,0,1,9.967,16.23053l-.653-.653a1.53843,1.53843,0,0,1,0-2.17572L10.40179,12.314a1.53843,1.53843,0,0,1,2.17572,0l.65308.65308A17.598,17.598,0,0,1,21.69232,9.4624v-.924A1.53844,1.53844,0,0,1,23.23077,7h1.53845a1.53844,1.53844,0,0,1,1.53845,1.53845v.924a17.59288,17.59288,0,0,1,8.35883,3.43054A38.31872,38.31872,0,0,1,38.95691,8.4566a5.4912,5.4912,0,0,0-2.44653-.59326,5.5481,5.5481,0,0,0-1.77551.28931A21.67251,21.67251,0,0,0,29.732,6.08087,5.54471,5.54471,0,0,0,24.76923,3H23.23077A5.54471,5.54471,0,0,0,18.268,6.08087a21.67272,21.67272,0,0,0-5.00275,2.07178A5.554,5.554,0,0,0,7.57336,9.48553L6.48553,10.57336a5.54476,5.54476,0,0,0-1.33063,5.68781,21.66986,21.66986,0,0,0-2.074,5.00684A5.54464,5.54464,0,0,0,0,26.23077v1.53845A5.54471,5.54471,0,0,0,3.08087,32.732Z"/><path d="M104,35c-.03284,0-.06451-.00452-.09723-.00488a7.89948,7.89948,0,0,1,1.09418,3.95435A11.99452,11.99452,0,1,0,96.62213,17.556a37.92982,37.92982,0,0,1,1.90735,3.6178A7.99667,7.99667,0,1,1,104,35Z"/><path d="M124.91913,21.26794a21.66988,21.66988,0,0,0-2.074-5.00671,5.545,5.545,0,0,0-1.33069-5.68787l-1.08783-1.08783a5.55378,5.55378,0,0,0-5.69177-1.33289A21.67251,21.67251,0,0,0,109.732,6.08087,5.54471,5.54471,0,0,0,104.76923,3h-1.53845A5.54471,5.54471,0,0,0,98.268,6.08087,21.67317,21.67317,0,0,0,93.2652,8.15265a5.5481,5.5481,0,0,0-1.77551-.28931,5.49146,5.49146,0,0,0-2.44659.59326,38.32522,38.32522,0,0,1,4.29047,4.43646,17.59221,17.59221,0,0,1,8.35876-3.43066v-.924A1.53844,1.53844,0,0,1,103.23077,7h1.53845a1.53844,1.53844,0,0,1,1.53845,1.53845v.924a17.59848,17.59848,0,0,1,8.46179,3.50458l.653-.653a1.53843,1.53843,0,0,1,2.17572,0l1.08783,1.08783a1.53843,1.53843,0,0,1,0,2.17572l-.653.653a17.59781,17.59781,0,0,1,3.50452,8.46179h.924A1.53844,1.53844,0,0,1,124,26.23077v1.53845a1.53844,1.53844,0,0,1-1.53845,1.53845h-.924a17.59781,17.59781,0,0,1-3.50452,8.46179l.653.653a1.53843,1.53843,0,0,1,0,2.17572L117.59821,41.686a1.53843,1.53843,0,0,1-2.17572,0l-.653-.653a17.59781,17.59781,0,0,1-8.46179,3.50452v.924A1.53848,1.53848,0,0,1,104.76923,47h-.85168a8.0419,8.0419,0,0,1-3.49835,3.22162A5.49325,5.49325,0,0,0,103.23077,51h1.53845a5.54482,5.54482,0,0,0,4.96277-3.08087,21.67251,21.67251,0,0,0,5.00287-2.07178,5.55378,5.55378,0,0,0,5.69171-1.33282l1.08789-1.08789a5.54505,5.54505,0,0,0,1.33069-5.68787,21.67033,21.67033,0,0,0,2.074-5.00677A5.54482,5.54482,0,0,0,128,27.76923V26.23077A5.54484,5.54484,0,0,0,124.91913,21.26794Z"/><path d="M27,39v4a4,4,0,0,0,4,4h2v6a31,31,0,0,0,62,0V47h2a4,4,0,0,0,4-4V39a3.99315,3.99315,0,0,0-3.05609-3.876A34.05055,34.05055,0,0,0,69.95343,3.53778,3.98653,3.98653,0,0,0,66,0H62a3.98658,3.98658,0,0,0-3.95343,3.53778A34.05055,34.05055,0,0,0,30.05609,35.124,3.99315,3.99315,0,0,0,27,39ZM91,53A27,27,0,0,1,64.00006,80H64A27,27,0,0,1,37,53V47H91ZM62,4h4V20H62ZM58,7.61987V20a4,4,0,0,0,4,4h4a4,4,0,0,0,4-4V7.61987A30.04477,30.04477,0,0,1,93.92609,35H34.07391A30.04477,30.04477,0,0,1,58,7.61987ZM31,39H97v4H31Z"/><path d="M4.80151,95.67029A34.00521,34.00521,0,0,0,7.0191,102.177a27.483,27.483,0,0,1,1.49731-8.252q-.19766-.98969-.33026-2.002H6.61542A2.6154,2.6154,0,0,1,4,89.30768V86.69232A2.61541,2.61541,0,0,1,6.61542,84.0769H8.18616a29.91619,29.91619,0,0,1,5.9577-14.385l-1.11011-1.11017a2.61531,2.61531,0,0,1,0-3.69873l1.8493-1.8493a2.61535,2.61535,0,0,1,3.69873,0L19.692,64.14392a29.94815,29.94815,0,0,1,9.86-4.99426,34.90822,34.90822,0,0,1-.48187-4.03,34.03288,34.03288,0,0,0-9.1189,3.98041,6.62444,6.62444,0,0,0-7.89661,1.10522l-1.8493,1.84924A6.62743,6.62743,0,0,0,9.1015,69.94885a34.02741,34.02741,0,0,0-4.3,10.38086A6.62735,6.62735,0,0,0,0,86.69232v2.61536A6.62741,6.62741,0,0,0,4.80151,95.67029Z"/><path d="M32.74042,68.71375a34.77951,34.77951,0,0,1-1.61438-3.6955A24.06283,24.06283,0,0,0,14.27917,84.33783a26.51687,26.51687,0,0,1,5.47894-4.50977A20.04345,20.04345,0,0,1,32.74042,68.71375Z"/><path d="M123.19855,80.32971a34.0277,34.0277,0,0,0-4.29865-10.3786,6.6246,6.6246,0,0,0-1.10522-7.89655l-1.8493-1.84924a6.62426,6.62426,0,0,0-7.89648-1.10522,34.03279,34.03279,0,0,0-9.119-3.98041,34.90822,34.90822,0,0,1-.48187,4.03,29.94859,29.94859,0,0,1,9.86011,4.9942l1.11011-1.11017a2.61535,2.61535,0,0,1,3.69873,0l1.8493,1.8493a2.61531,2.61531,0,0,1,0,3.69873l-1.11011,1.11017a29.91678,29.91678,0,0,1,5.9577,14.385h1.5708A2.6154,2.6154,0,0,1,124,86.69232v2.61536a2.61539,2.61539,0,0,1-2.61536,2.61536h-1.5708q-.13193,1.012-.33026,2.002a27.48416,27.48416,0,0,1,1.49731,8.2522,34.00568,34.00568,0,0,0,2.21765-6.5069A6.62742,6.62742,0,0,0,128,89.30768V86.69232A6.62737,6.62737,0,0,0,123.19855,80.32971Z"/><path d="M96.92059,64.88055a34.78893,34.78893,0,0,1-1.59979,3.71381,20.03771,20.03771,0,0,1,13.635,11.69592,26.60977,26.60977,0,0,1,5.34729,4.68848A24.05887,24.05887,0,0,0,96.92059,64.88055Z"/></svg>