<svg xmlns="http://www.w3.org/2000/svg" version="1.1" viewBox="-5.0 -10.0 110.0 135.0">
 <g>
  <path d="m100 4.6875c-0.003906-2.5859-2.1016-4.6836-4.6875-4.6875h-90.625c-2.5859 0.0039062-4.6836 2.1016-4.6875 4.6875v90.625c0.0039062 2.5859 2.1016 4.6836 4.6875 4.6875h90.625c2.5859-0.003906 4.6836-2.1016 4.6875-4.6875zm-27.551 92.188h-28.004c2.793-2.2461 5.7773-4.2461 8.918-5.9766 8.0078-4.5664 15.105-7.4258 21.703-8.7383l3.0039-0.59375c6.1875-1.2188 12.57-2.4805 18.805-4.3164v7.8516-0.003906c-9.5039 0.027344-18.488 4.3555-24.426 11.777zm-42 0c2.1992-2.6562 6.7656-7.3008 15.082-12.383h-0.003906c0.73828-0.44922 0.96875-1.4102 0.51953-2.1484-0.44922-0.73438-1.4102-0.96875-2.1484-0.51562-11.109 6.7891-15.914 12.91-17.371 15.047h-9.7461c14.195-18.129 40.004-28.793 41.199-29.281 3.5312-1.1719 5.9141-3.6016 6.3789-6.5156l0.003906 0.003906c0.51953-3.0703-1.2656-6.0586-4.2148-7.0547-1.875-0.55469-3.8359-0.76562-5.7891-0.625-1.1562 0.046875-2.3164 0-3.4648-0.14453-7.3789-1.1914-16.875 2.1133-17.93 2.4922-9.9102 2.418-20.332 1.7305-29.84-1.9727v-19.539c1.7148 0.19141 3.4414 0.28906 5.168 0.28516 8.0938-0.12891 16.082-1.8516 23.512-5.0664 0.67578-0.28125 1.3594-0.57031 2.0547-0.86328 6.8477-2.8906 14.605-6.168 21.855-4.9453h-0.003906c2.5586 0.55469 5.043 1.4062 7.3984 2.543 4.418 1.9023 8.9883 3.875 14.148 2.5664 7.0625-1.7891 12.848-7.4453 17.953-12.441 0.56641-0.55469 1.1172-1.0898 1.6641-1.6211v6.8633c-0.62891 0.89453-2.8242 3.6406-7.8477 6.707v0.003906c-0.73438 0.44922-0.96484 1.4141-0.51562 2.1484 0.45703 0.72266 1.4062 0.95312 2.1484 0.51953 2.2305-1.3398 4.3164-2.9102 6.2148-4.6914v11.215c-3.6523 2.5156-7.2812 4.9961-10.797 7.3672-1.0117 0.68359-2.3086 1.4297-3.6875 2.2227-5.0156 2.8789-11.258 6.4688-11.988 11.707-0.38672 2.457 0.35938 4.9609 2.0312 6.8047 2.1992 2.4688 6.043 3.9688 10.109 3.9688 0.13281 0 0.26562 0 0.40234-0.003906 4.8984-0.13281 9.6875-1.4844 13.93-3.9297v8.3945c-6.3906 1.8281-12.867 3.332-19.41 4.5078l-3.0117 0.59375c-6.9336 1.3828-14.34 4.3555-22.641 9.0898-4.3594 2.3594-8.3906 5.2812-11.988 8.6914zm-27.324-25.27c10.23 1.6328 24.633-3.0039 30.613-5.1836 0.25781-0.046875 0.51172 0.078125 0.63672 0.30469 0.10156 0.23047 0.023438 0.50391-0.18359 0.64844-1.6758 0.76953-19.895 9.2461-31.066 19zm93.75-17.82c-1.5547 0.53125-3.1953 1.1523-4.7812 1.7539-0.64062 0.24219-1.2773 0.48438-1.875 0.70703v0.003906c-0.14844-0.015625-0.27734-0.10547-0.33984-0.23828-0.11328-0.21484 0.10938-0.52734 0.25-0.69531 1.3008-1.5352 3.668-3.1914 6.7461-4.7422zm0-6.6797c-2.9609 1.375-6.875 3.5312-9.1289 6.1914-1.2031 1.2305-1.3711 3.1367-0.40234 4.5547 0.66016 0.94141 1.7266 1.5078 2.875 1.5234 1.0391-0.12891 2.0469-0.4375 2.9805-0.91016 1.2227-0.46484 2.4648-0.92578 3.6758-1.3594v4.7383c-4.125 2.8477-8.9922 4.4336-14.004 4.5586-3.332 0.0625-6.4258-1.0391-8.1055-2.918-1.0586-1.1641-1.5273-2.7461-1.2695-4.2969 0.51953-3.7227 6.0273-6.8867 10.453-9.4297 1.4258-0.82031 2.7734-1.5938 3.8789-2.3398 2.9531-1.9961 5.9844-4.0625 9.0469-6.1641zm0-42.418v5.7227c-1.2656 1.1562-2.5234 2.375-3.8477 3.6719-5.0586 4.9453-10.289 10.062-16.535 11.645-4.1328 1.0469-8.0234-0.63281-12.145-2.4062-2.5859-1.2383-5.3125-2.1641-8.1172-2.7539-8.1445-1.3711-16.348 2.0938-23.59 5.1484-0.6875 0.29297-1.3672 0.57812-2.0391 0.85938-9.6094 3.9961-19.074 5.543-27.477 4.5117v-10.25c16.004-1.8047 26.641-14.594 29.012-17.711h4.5938c-0.5 1.4102-0.76562 2.8945-0.78906 4.3906-0.09375 3.7812 1.625 5.7188 3.0859 6.6797 2.3633 1.5547 5.8555 1.6602 8.8984 0.26172 3.2539-1.4922 7.8281-0.89453 11.453-0.20703 1.5977 0.30469 3.2305 0.71875 4.8086 1.1211l-0.003906 0.003906c2.8633 0.82031 5.7969 1.3789 8.7617 1.6602 1.0586 0.070313 2.2852 0.15234 3.5703 0.15234 2.7383 0 5.7188-0.37109 7.8008-2.0195 1.2227-0.85547 1.8281-2.3438 1.5469-3.8086-0.51172-2.5625-3.4805-4.4805-5.4258-5.0273-0.0625-0.019531-0.12891-0.035156-0.19922-0.042969-3.6016-0.53906-7.1055-1.6055-10.398-3.1641h25.473c0.86328 0 1.5625 0.69922 1.5625 1.5625zm-32.215-1.5625c3.9297 4.4102 13.438 6.0039 15.02 6.2383 1.3594 0.41797 2.9453 1.7344 3.1172 2.6094 0.023437 0.125 0.070313 0.35547-0.42188 0.74609-2.1133 1.6719-6.3984 1.3867-9.2578 1.1953h0.003906c-2.7656-0.26953-5.4961-0.79687-8.1641-1.5664-1.625-0.41406-3.3047-0.84375-4.9961-1.1641-4.3359-0.82422-9.3047-1.4141-13.34 0.4375-2.0508 0.94141-4.4141 0.92969-5.875-0.03125-1.1602-0.76562-1.7266-2.1094-1.6797-3.9922v-0.003906c0.011719-1.5547 0.38281-3.0859 1.0898-4.4688zm-59.973 0h23.391c-3.7969 4.3359-12.789 13.035-24.953 14.57v-13.008c0-0.86328 0.69922-1.5625 1.5625-1.5625zm-1.5625 92.188v-4.6875c10.648-10.438 32.234-20.352 32.457-20.449 0.046875-0.019531 0.089844-0.046875 0.13672-0.070312h-0.003906c1.7109-0.98828 2.3281-3.1523 1.3945-4.8945-0.85938-1.5781-2.7344-2.3086-4.4375-1.7266-5.8555 2.1328-20.094 6.7305-29.547 4.9453v-11.281c9.8359 3.582 20.52 4.1445 30.676 1.6133 0.054688-0.015625 0.10938-0.03125 0.16016-0.050781 0.09375-0.035157 9.5938-3.4805 16.438-2.3711v0.003906c1.3242 0.17578 2.668 0.23828 4.0039 0.17969 1.5859-0.12109 3.1797 0.03125 4.7109 0.45312 1.5117 0.50781 2.4297 2.0391 2.1641 3.6094-0.41406 2.5898-3.4102 3.7578-4.3164 4.0547-0.03125 0.011719-0.0625 0.019531-0.09375 0.035156-1.207 0.48047-29.387 11.871-43.988 32.199h-8.1914c-0.86328 0-1.5625-0.69922-1.5625-1.5625zm92.188 1.5625h-18.742c5.3203-5.5117 12.645-8.6328 20.305-8.6523v7.0898c0 0.86328-0.69922 1.5625-1.5625 1.5625z"/>
  <path d="m51.766 34.953c-3.5742-2.9219-8.8672-3.2617-12.629-2.6016-4.5078 0.78906-8.1055 2.2422-10.691 4.3203-3.4609 2.7812-11.457 5.2344-11.477 5.2422-2.4531 0.63672-5.1133 2.293-5.1602 4.4336-0.023438 1.0312 0.50391 2.4297 3.1406 3.2422 1.9805 0.57031 4.0312 0.83984 6.0898 0.80469 0.68359 0 1.3984-0.023437 2.1406-0.070312 2.5469-0.22656 5.0742-0.66797 7.5469-1.3242 1.3594-0.32031 2.7617-0.65234 4.1367-0.89062 3.1094-0.54297 7.0352-1.0234 9.8125 0.15625 2.8008 1.1875 5.9648 1.0352 8.0547-0.39062h-0.003907c1.7656-1.2305 2.7383-3.3164 2.543-5.457 0.007813-2.8867-1.2773-5.625-3.5039-7.4648zm-0.80078 10.34c-1.1953 0.81641-3.2812 0.85547-5.0742 0.09375-3.5078-1.4883-7.8203-1.0156-11.57-0.35547-1.4609 0.25781-2.9102 0.59766-4.3125 0.92969l0.003907-0.003907c-2.3008 0.61719-4.6523 1.0312-7.0234 1.25-2.3906 0.21484-4.8008 0.011719-7.1172-0.60547-0.26953-0.074218-0.52734-0.17969-0.77344-0.30859 0.78516-0.66406 1.7148-1.1367 2.7188-1.3711 0.35156-0.10547 8.6562-2.6523 12.586-5.8125 2.1406-1.7188 5.3477-2.9922 9.2695-3.6797 2.9414-0.51172 7.3516-0.3125 10.113 1.9453h0.003906c1.5195 1.2617 2.3867 3.1445 2.3594 5.125 0.13672 1.0742-0.3125 2.1406-1.1836 2.793z"/>
  <path d="m67.848 47.66c2.3438 0.09375 4.6367-0.70312 6.4141-2.2344 0.40625-0.23438 0.83203-0.44141 1.2656-0.62109 2.6133-1.1719 7.4805-3.3555 7.2773-8.8438h0.003906c-0.023438-0.71094-0.34375-1.3789-0.87891-1.8438-1.8555-1.6289-4.7773-0.79297-6.9922-0.76563h0.003906c-2.8047-0.015624-5.5977-0.34375-8.332-0.97656-1.6133-0.44531-3.332 0.16016-4.3164 1.5117-0.91797 1.3125-0.94531 3.0469-0.0625 4.3828 0.56641 0.86719 0.64062 1.2383 0.375 1.8828-0.97656 2.3594-0.46875 4.0312 0.13281 5.0156 1.082 1.7734 3.125 2.4727 5.1094 2.4922zm-2.4414-4.1172c-0.30859-0.70703-0.27734-1.5156 0.082031-2.1953 0.67578-1.5938 0.42578-3.4297-0.64453-4.7891-0.17188-0.27734-0.16016-0.63281 0.03125-0.89453 0.27344-0.37891 0.67969-0.32031 1.0859-0.23047 3.4336 0.80859 6.9648 1.1406 10.492 0.98438 0.18359-0.011719 3.2383-0.26562 3.2344-0.015625-0.074219 2.9023-2.6094 4.2852-5.4375 5.5508-0.76562 0.28125-1.4844 0.68359-2.1211 1.1914-1.3828 1.0664-3.125 1.5547-4.8594 1.3633-0.73438-0.019531-1.4219-0.375-1.8633-0.96484z"/>
  <path d="m55.746 81.227c0.99219-0.11328 1.957-0.39844 2.8516-0.84766 3.1641-1.1992 6.7461-2.5586 8.8125-2.793 1.3711-0.18359 2.5664-1.0273 3.1992-2.2578s0.625-2.6914-0.023437-3.9141c-1.6914-3.0117-6.0352-3.1172-8.3867-2.0352-2.832 1.3008-6.668 3.3906-8.8633 5.9766-0.98438 0.98047-1.2812 2.4531-0.75391 3.7383 0.52734 1.2852 1.7734 2.125 3.1641 2.1328zm-0.027344-3.8516c1.418-1.6758 4.1836-3.5078 7.7812-5.1602 0.55078-0.23438 1.1445-0.35156 1.7461-0.33984 1.1055 0 2.2148 0.35547 2.6172 1.0703 0.13281 0.30859 0.12109 0.66016-0.035156 0.96094-0.15234 0.29688-0.4375 0.50781-0.76562 0.57422-2.457 0.27734-6.0742 1.6484-9.5742 2.9766-0.60938 0.23047-1.207 0.45703-1.75 0.66797-0.14062 0.054688-0.26562-0.19531-0.26562-0.30078 0-0.074219 0.16016-0.44922 0.24609-0.44922z"/>
  <path d="m29.016 14.191c-1.2852-0.34766-2.6602-0.015625-3.6445 0.875-1.4219 1.3086-4.5664 2.9805-7.3398 4.4609-0.53906 0.28906-1.0703 0.57031-1.582 0.84766h-0.003907c-1.2539 0.74219-1.8672 2.2227-1.5078 3.6328 0.38281 1.5508 1.8008 2.6133 3.3945 2.5508 0.082031 0.003906 0.16797 0.003906 0.25391 0.003906 3.1133 0 6.8125-1.3594 9.4023-2.5195 2.5781-1.1562 4.7734-4.4375 3.8086-7.3047v0.003907c-0.43359-1.2695-1.4805-2.2266-2.7812-2.5508zm-2.3047 7c-3.3398 1.4961-6.293 2.2852-8.3008 2.2461-0.25-0.007812-0.39453-0.066406-0.41797-0.11719h-0.003907c-0.027343-0.074218-0.027343-0.15234 0-0.22656 0.49219-0.26562 1-0.53516 1.5117-0.80859 3.0781-1.6445 6.2656-3.3398 7.9805-4.9141l0.003906-0.003906c0.21875-0.16406 0.5-0.21484 0.76562-0.14453 0.26562 0.074219 0.48047 0.26172 0.58594 0.51562 0.37891 1.1172-0.87891 2.8945-2.125 3.4531z"/>
 </g>
</svg>