<svg xmlns="http://www.w3.org/2000/svg" data-name="Layer 1" viewBox="0 0 128 160" x="0px" y="0px"><title>city element 03 expandlines</title><path d="M65.80469,117.3252a2.01972,2.01972,0,0,0-2.00146-1.32129,1.99937,1.99937,0,0,0-1.83057,1.54883,19.71052,19.71052,0,0,1-3.51123,7.16992,1.9997,1.9997,0,0,0,3.07715,2.55469,20.20336,20.20336,0,0,0,2.53027-3.96387,29.49465,29.49465,0,0,0,2.311,3.85938,2.00009,2.00009,0,0,0,3.24023-2.3457A35.87748,35.87748,0,0,1,65.80469,117.3252Z"/><path d="M123.9458,72.25684a11.43586,11.43586,0,0,0,.55762-3.52637,10.58341,10.58341,0,0,0-6.34216-9.92572,20.28021,20.28021,0,0,1-1.49292,3.71313,6.57341,6.57341,0,0,1,3.83508,6.21259,7.3391,7.3391,0,0,1-.81885,3.38184,1.99988,1.99988,0,0,0,.87939,2.71387A6.67086,6.67086,0,0,1,124,80.85938c0,3.60547-2.51514,6.542-5.6167,6.57031-.03662-.002-.07422-.00293-.103-.00293a2.00075,2.00075,0,0,0-1.98926,2.209,7.47072,7.47072,0,0,1,.04639.79395c0,3.623-2.54,6.57031-5.6626,6.57031-3.11377,0-5.65381-2.93945-5.66162-6.55273a1.99984,1.99984,0,0,0-3.82812-.80664,5.56535,5.56535,0,0,1-10.41895.26563,1.99983,1.99983,0,0,0-3.793.80859C86.84229,94.23926,84.36133,97,81.3252,97a5.618,5.618,0,0,1-4.98828-3.46527,47.92286,47.92286,0,0,0,1.69373,6.82117A8.86861,8.86861,0,0,0,81.3252,101a9.36652,9.36652,0,0,0,7.72455-4.24469,29.93267,29.93267,0,0,1-2.52435,18.99121c.876,1.0705,1.814,2.13287,2.82532,3.1842a33.69067,33.69067,0,0,0,3.75916-21.99622,9.0275,9.0275,0,0,0,5.78674-.05072c-1.14191,7.2287-1.01056,20.11322,10.77332,30.60938a1.99966,1.99966,0,1,0,2.66016-2.98633,28.80026,28.80026,0,0,1-9.40735-27.81232A9.40481,9.40481,0,0,0,110.6748,101c5.08887,0,9.271-4.3252,9.63672-9.792C124.6958,90.208,128,85.94824,128,80.85938A10.93031,10.93031,0,0,0,123.9458,72.25684Z"/><path d="M72.37616,75.333a15.10718,15.10718,0,0,0,1.93732-1.72266C76.33447,79.66113,81.69727,84,87.96875,84c7.92578,0,14.38818-6.91211,14.51367-15.46C109.54492,67.4834,115,60.90625,115,52.97559a16.0749,16.0749,0,0,0-6.84766-13.3335,16.8044,16.8044,0,0,0,1.13623-6.07324c0-8.66406-6.51172-15.7124-14.51562-15.7124-.03369,0-.06787,0-.10156.00049-1.37451-7.165-7.28369-12.522-14.20215-12.522a13.57621,13.57621,0,0,0-5.26953,1.07227A14.194,14.194,0,0,0,63.50781,0a14.01827,14.01827,0,0,0-11.481,6.11426,13.32759,13.32759,0,0,0-4.49609-.7793c-6.91846,0-12.82764,5.35693-14.20215,12.522-.03369-.00049-.06787-.00049-.10156-.00049-8.00391,0-14.51562,7.04834-14.51562,15.7124a16.8044,16.8044,0,0,0,1.13623,6.07324A16.0749,16.0749,0,0,0,13,52.97559C13,60.90625,18.45508,67.4834,25.51758,68.54,25.64307,77.08789,32.10547,84,40.03125,84a14.558,14.558,0,0,0,13.585-10.1875A15.18846,15.18846,0,0,0,55.561,75.47443c1.7962,11.486,1.64575,32.16235-16.90717,49.04608a2.00028,2.00028,0,0,0,2.69238,2.959C59.795,110.68994,61.27649,90.35608,59.85126,77.61432a13.82131,13.82131,0,0,0,8.30548-.07135c-1.43872,12.73682.01361,33.11548,18.49707,49.93652a2.00028,2.00028,0,0,0,2.69238-2.959C70.50793,107.37677,70.48059,86.74377,72.37616,75.333ZM54.30762,67.96484a2,2,0,0,0-3.78564.82129C50.28369,75.07422,45.67578,80,40.03125,80c-5.79834,0-10.51562-5.25391-10.51562-11.71289a13.16583,13.16583,0,0,1,.08154-1.39258,1.99973,1.99973,0,0,0-1.98877-2.21191c-.03955.00049-.08252.00146-.14941.00586C21.68652,64.6543,17,59.41309,17,52.97559a11.839,11.839,0,0,1,6.29785-10.71973,2.00024,2.00024,0,0,0,.88623-2.73633,12.70175,12.70175,0,0,1-1.47266-5.95068c0-6.458,4.71729-11.7124,10.51563-11.7124a9.42732,9.42732,0,0,1,1.51611.1377,2,2,0,0,0,2.31494-1.83887C37.46924,14.08789,42.06982,9.335,47.53076,9.335a9.521,9.521,0,0,1,4.3667,1.07227,2.00233,2.00233,0,0,0,2.66064-.813A10.27319,10.27319,0,0,1,63.50781,4a10.41327,10.41327,0,0,1,9.14551,5.94434,2.00024,2.00024,0,0,0,2.81592.80322,9.6768,9.6768,0,0,1,5-1.4126c5.46094,0,10.06152,4.75293,10.47266,10.82031a2,2,0,0,0,2.31494,1.83887,9.42732,9.42732,0,0,1,1.51611-.1377c5.79834,0,10.51562,5.25439,10.51562,11.7124a12.70175,12.70175,0,0,1-1.47266,5.95068,2.00024,2.00024,0,0,0,.88623,2.73633A11.839,11.839,0,0,1,111,52.97559c0,6.437-4.686,11.67773-10.45752,11.71289-.03271-.00244-.06689-.00439-.08838-.00488a1.97578,1.97578,0,0,0-1.52881.63867,2.00131,2.00131,0,0,0-.52246,1.57227,13.16583,13.16583,0,0,1,.08154,1.39258C98.48438,74.74609,93.76709,80,87.96875,80c-5.78271,0-10.499-5.24023-10.51416-11.68262a2,2,0,0,0-3.82178-.82031,10.44491,10.44491,0,0,1-19.3252.46777Z"/><path d="M38.64923,118.93085c1.00281-1.04242,1.933-2.09589,2.80267-3.15717a29.41941,29.41941,0,0,1-2.52618-19.075A9.40406,9.40406,0,0,0,46.6748,101a8.86971,8.86971,0,0,0,3.29449-.644,47.91279,47.91279,0,0,0,1.69354-6.82062A5.61807,5.61807,0,0,1,46.6748,97c-3.11377,0-5.65381-2.93945-5.66162-6.55273a1.99984,1.99984,0,0,0-3.82812-.80664,5.8777,5.8777,0,0,1-5.26758,3.74512,5.86308,5.86308,0,0,1-5.15137-3.47949,1.99983,1.99983,0,0,0-3.793.80859C22.84229,94.23926,20.36133,97,17.3252,97c-3.12256,0-5.6626-2.94727-5.6626-6.57031a7.79538,7.79538,0,0,1,.0459-.79687,1.99912,1.99912,0,0,0-1.98926-2.20605c-.02832,0-.06543.001-.10205.00293C6.51563,87.40137,4,84.46484,4,80.85938a6.67345,6.67345,0,0,1,3.43652-6.0332,2.00025,2.00025,0,0,0,.87891-2.71387,7.3391,7.3391,0,0,1-.81885-3.38184,6.57341,6.57341,0,0,1,3.83508-6.21259,20.2802,20.2802,0,0,1-1.49292-3.71313,10.58341,10.58341,0,0,0-6.34216,9.92572,11.43586,11.43586,0,0,0,.55762,3.52637A10.93175,10.93175,0,0,0,0,80.85938C0,85.94824,3.3042,90.208,7.68848,91.208,8.0542,96.6748,12.23633,101,17.3252,101a9.36723,9.36723,0,0,0,7.72729-4.24854c1.13147,6.1062,1.5097,18.05267-9.38257,27.75537a1.99966,1.99966,0,1,0,2.66016,2.98633c11.75513-10.47058,11.91449-23.31915,10.78162-30.558A9.02808,9.02808,0,0,0,34.899,96.883,33.6954,33.6954,0,0,0,38.64923,118.93085Z"/></svg>